<svg width="62" height="18" viewBox="0 0 62 18" fill="none" xmlns="http://www.w3.org/2000/svg">

<g id="Footer">

<g id="Right Content">
<g id="Footer Links">
<g id="Design Credit">
<g id="Design Credit_2">
<g id="Design Container">
<path id="Star 5" d="M54.3645 3.38086L54.9593 9.79002L61.2386 8.37514L55.3269 10.9213L58.6129 16.4561L54.3645 11.6205L50.1161 16.4561L53.4021 10.9213L47.4905 8.37514L53.7697 9.79002L54.3645 3.38086Z" fill="#FFFEF4"/>
<g id="Vector" opacity="0.8">
<path d="M14.2437 9.77014C13.5342 10.8879 12.6011 11.7432 11.4445 12.3361C10.2977 12.9192 8.9904 13.2108 7.52278 13.2108C5.33592 13.2108 3.53298 12.5936 2.11396 11.3593C0.704653 10.1152 0 8.54064 0 6.63565C0 4.73066 0.704653 3.15612 2.11396 1.91205C3.53298 0.658249 5.33592 0.0313505 7.52278 0.0313505C8.88349 0.0313505 10.1178 0.288913 11.2259 0.804039C12.3339 1.30945 13.228 2.02868 13.9084 2.96174L12.363 4.04058C11.8479 3.33107 11.1675 2.78679 10.322 2.40773C9.48609 2.01896 8.55303 1.82457 7.52278 1.82457C5.92881 1.82457 4.60697 2.28138 3.55728 3.195C2.51731 4.0989 1.99733 5.23606 1.99733 6.60649C1.99733 7.97692 2.52217 9.11895 3.57186 10.0326C4.62155 10.9365 5.93852 11.3884 7.52278 11.3884C8.63078 11.3884 9.60758 11.1697 10.4532 10.7324C11.2987 10.295 12.0423 9.61463 12.6838 8.69129L14.2437 9.77014Z" fill="#FFFEF4"/>
<path d="M19.914 5.36237H26.7526C27.4455 5.36237 27.9727 5.21174 28.3342 4.91049C28.7057 4.60923 28.8915 4.17743 28.8915 3.61508C28.8915 3.05274 28.7057 2.62596 28.3342 2.33474C27.9727 2.03348 27.4455 1.88286 26.7526 1.88286H19.914V5.36237ZM19.914 7.24523V12.8637H17.8956V0.0301257H26.7526C28.0681 0.0301257 29.0974 0.346445 29.8405 0.979085C30.5836 1.61172 30.9551 2.49039 30.9551 3.61508C30.9551 4.5289 30.6589 5.32221 30.0664 5.99501C29.484 6.65778 28.7208 7.06447 27.7768 7.2151L31.3467 12.8637H29.1626L25.5174 7.24523H19.914Z" fill="#FFFEF4"/>
<path d="M39.295 12.8637V1.79248H33.8723V0H46.736V1.79248H41.2983V12.8637H39.295Z" fill="#FFFEF4"/>
</g>
</g>
</g>
</g>
</g>
</g>
</g>
</svg>
