<svg width="632" height="472" viewBox="0 0 632 472" fill="none" xmlns="http://www.w3.org/2000/svg">

<g id="Footer">

<g id="Logo Container">
<g id="Logo Group">
<g id="Logo Group_2">
<g id="Layer_1" clip-path="url(#clip0_3023_30)">
<g id="Group">
<path id="Vector" d="M199.825 74.402C147.441 43.9577 51.0862 72.7469 31.1514 126.566L31.1302 126.567L30.9509 127.077C30.7804 127.564 30.6099 128.051 30.45 128.538L28.2593 134.924L30.9418 141.523L31.0696 141.396C31.6582 149.939 33.0511 159.831 35.6955 170.089C40.7726 188.825 50.3214 209.752 66.6824 225.041C77.2802 234.679 90.8157 242.121 108.051 245.6C90.7025 229.786 51.7262 184.429 106.361 133.409C135.603 106.106 163.342 105.531 185.467 113.738C187.303 114.421 189.25 114.075 190.73 113.045C191.436 112.081 192.141 111.117 192.849 110.173C192.892 110.054 192.933 109.925 192.966 109.806C195.715 98.5184 199.078 88.9638 202.242 81.3803C203.326 78.7765 202.303 75.8072 199.824 74.3916L199.825 74.402Z" fill="#FFFEF4"/>
<path id="Vector_2" d="M366.06 19.2712C363.163 15.076 358.033 12.8165 352.791 13.0249C313.922 14.5653 280.464 29.8131 254.671 53.112C238.746 67.4954 225.744 84.9267 216.213 104.119C216.207 103.815 201.383 131.772 199.396 171.117C198.676 177.325 199.277 183.356 199.391 189.576C201.584 241.401 216.123 236.087 219.149 236.331C221.841 236.542 230.597 236.767 230.618 214.283C230.631 214.303 230.653 214.312 230.665 214.332C229.859 195.523 225.899 117.691 257.35 124.593C267.539 126.87 272.938 160.528 291.103 146.929C298.983 141.032 294.236 121.195 294.289 111.82C294.285 99.3814 295.754 89.212 298.259 80.8341C315.192 24.2789 379.996 50.0957 366.07 19.2703L366.06 19.2712Z" fill="#FFFEF4"/>
<path id="Vector_3" d="M248.166 149.587C237.408 155.953 240.151 182.822 255.317 186.363C281.861 192.551 273.885 134.363 248.166 149.587Z" fill="#FFFEF4"/>
<path id="Vector_4" d="M374.938 82.0362C386.165 81.0724 408.591 76.5523 405.716 61.6501C401.057 46.775 371.921 49.5494 361.019 55.3704C337.012 68.3256 359.602 83.0797 374.95 82.0457L374.938 82.0362Z" fill="#FFFEF4"/>
<path id="Vector_5" d="M487.324 83.3066C472.593 56.4059 451.035 35.2284 423.517 22.7674C415.049 19.891 406.187 17.9834 397.009 17.2165C384.475 19.9524 381.458 36.4109 396.031 38.322C412.143 43.8409 443.748 57.2853 418.91 76.0478C402.177 91.6878 380.31 104.9 361.485 117.327C357.202 120.394 352.133 124.465 347.746 129.117C341.541 135.701 336.681 143.451 337.35 151.209C340.392 166.181 356.928 163.48 368.241 157.235C370.045 156.24 371.724 155.161 373.186 154.037C395.497 139.925 416.081 96.7765 444.838 115.35C474.168 135.924 440.42 183.869 425.489 202.695C420.961 208.525 414.804 214.433 410.189 219.892C406.494 224.275 408.146 227.464 411.107 232.746C422.961 254.946 430.123 280.048 428.429 305.123C426.283 348.454 470.385 282.517 495.002 221.11C512.977 176.274 510.557 125.74 487.312 83.297L487.324 83.3066Z" fill="#FFFEF4"/>
<g id="Group_2">
<path id="Vector_6" d="M227.673 416.015C226.378 415.276 224.964 414.767 223.536 414.343C201.437 407.752 171.066 390.503 149.92 369.858C128.105 348.555 116.147 323.623 133.252 303.024L133.31 302.956C137.425 298.012 143.855 295.411 150.279 296.351C164.19 298.393 179.726 310.054 194.003 298.544C195.43 297.392 196.689 296.044 197.495 294.41C205.342 278.524 165.716 267.102 155.964 262.162C155.964 262.162 149.143 258.566 134.41 253.527C127.44 251.142 118.698 248.426 108.055 245.61C90.9259 242.605 77.3669 235.018 66.6863 225.051C50.3253 209.762 40.7765 188.836 35.6994 170.099C32.1481 156.978 30.7889 144.94 30.8108 136.649L30.5377 129.129C29.096 132.636 27.7701 136.122 26.5618 139.608C15.962 170.228 14.9388 203.209 22.3176 234.722C25.664 249.027 30.3619 263.5 36.4121 277.909C42.9079 293.362 50.9586 308.744 60.6064 323.81C85.8375 363.215 118.495 394.985 153.912 417.273C176.711 431.621 200.648 442.046 224.521 448.023C226.971 448.632 229.56 447.927 231.292 446.129L231.312 446.106C239.182 437.94 239.971 423.007 227.661 415.995L227.673 416.015Z" fill="#FFFEF4"/>
<path id="Vector_7" d="M248.031 379.278C222.288 356.853 178.438 357.928 149.64 339.484C148.29 338.612 147.016 337.639 145.782 336.621C143.715 334.907 140.921 332.584 140.921 332.584C143.524 341.658 153.35 350.784 153.35 350.784C153.35 350.784 153.35 350.784 153.349 350.774C180.949 379.312 249.692 418.647 253.34 392.574C254.04 387.577 251.879 382.635 248.031 379.289L248.031 379.278Z" fill="#FFFEF4"/>
<path id="Vector_8" d="M144.492 313.621C148.305 320.301 157.839 325.681 157.839 325.681C185.176 343.074 247.126 361.33 244.965 340.032C244.557 336.043 242.021 332.542 238.431 330.644C218.401 320.03 191.865 324.02 168.458 320.998C160.107 319.918 152.011 317.367 144.493 313.631L144.492 313.621Z" fill="#FFFEF4"/>
</g>
<path id="Vector_9" d="M192.846 110.191C192.129 111.146 191.433 112.099 190.728 113.063C191.704 112.38 192.461 111.391 192.846 110.191Z" fill="#FFFEF4"/>
<path id="Vector_10" d="M66.699 225.052C77.3699 235.03 90.9386 242.606 108.068 245.611C90.8419 242.12 77.3074 234.689 66.699 225.052Z" fill="#FFFEF4"/>
<path id="Vector_11" d="M30.8133 136.647C30.7914 144.938 32.1506 156.976 35.7019 170.097C32.5515 157.877 31.1564 146.157 30.8133 136.647Z" fill="#FFFEF4"/>
<path id="Vector_12" d="M324.373 259.242C317.965 272.304 323.851 293.65 339.57 296.545C385.635 298.621 350.164 219.45 324.373 259.242Z" fill="#FFFEF4"/>
</g>
<path id="Vector_13" d="M411.613 285.466C411.552 285.019 411.479 284.563 411.407 284.118C411.417 284.222 411.426 284.326 411.434 284.42C411.414 284.191 411.394 283.961 411.353 283.744C410.377 277.577 408.864 271.267 406.663 264.911C403.17 254.012 397.752 243.342 389.872 233.733C389.153 232.86 388.253 232.118 387.227 231.638C378.479 227.536 367.491 233.228 369.027 242.446C369.188 243.409 369.591 244.33 370.103 245.169C394.514 284.969 357.869 321.975 320.777 332.313L316.202 333.651C301.086 338.489 276.732 345.864 273.505 361.038C273.424 361.444 273.364 361.859 273.347 362.27C273.249 366.45 275.921 369.929 279.62 371.723C282.023 372.893 284.769 373.119 287.416 372.703C297.994 371.049 309.537 367.158 321.088 361.544C321.088 361.544 340.345 351.917 345.696 358.224C351.023 364.5 336.123 377.43 335.943 377.572C321.566 389.994 300.164 402.915 295.75 405.216C285.146 411.138 273.453 414.8 261.969 418.759L261.318 419.014C252.926 422.644 249.468 429.329 249.629 435.944C249.854 445.211 257.556 452.577 266.892 453.204C267.076 453.22 267.268 453.224 267.452 453.24C272.796 453.579 278.147 452.668 283.103 450.688C307.933 440.74 326.424 428.28 348.014 410.983C378.431 388.947 403.956 357.351 411.035 321.529C411.086 321.262 411.125 320.985 411.154 320.709C411.144 320.836 411.133 320.953 411.123 321.08C413.341 309.585 413.672 297.675 411.636 285.485L411.613 285.466Z" fill="#FFFEF4"/>
</g>
</g>
</g>
</g>
</g>
<defs>
<clipPath id="clip0_3023_30">
<rect width="495.642" height="436.704" fill="white" transform="matrix(0.997184 -0.074999 0.100987 0.994888 0.00146484 37.1729)"/>
</clipPath>
</defs>
</svg>
