<svg xmlns="http://www.w3.org/2000/svg" fill="none" style="display:block" viewBox="0 0 22.6 22.9"><g fill="#151515"><path d="M15.9 1h-1.1 1v.1zM7.8 1zh-.3V.9H7V1h-.3 1v.1zm6.8 21.1h.8V22h.3l.1-.1h.2v-.1h.1-.3v.2-.1h-.2v.1h-.4v.1h-.5zm-2.5.6h-.4v.1h-.2.4v-.1zM2 17.5zm12.6 4.6"/><path d="M22.5 10.2V9h-.2.1v-.1h-.1v-.3h-.1v-.2H22v-.1H22l-.1-.1V8h-.1V8h-.1v-.1h-.1v-.1h-.1v-.1h-.2v-.1h-.1v-.1H21v-.1h-.1v-.5h.1V5.4h-.1v-.2h-.1V5h-.1v-.2h-.1v-.1h-.1v-.1h-.1v-.3h-.1v-.1H20v-.1H20V4h-.1V4h-.1v-.1h-.2v-.1h-.3v-.1H19v-.1h-.5v-.1H18v.1-.1h-.1v-.7h-.1v-.2h-.1v-.2h-.1v-.2h-.1V2h-.1V2h-.1v-.2h-.1v-.1H17v-.2h-.2v-.1h-.2v-.1h-.2v-.1h-.2V1h-.3V1h-1.4v.1h-.1l-.1.1h-.1v.1H14v.1h-.2v.1h-.1v-.1h-.1V1h-.1V1h-.1V.9h-.1V.7h-.1V.6H13V.6H13V.4h-.2V.4h-.3V.2h-.1V.1H12V.1h-.5V0h-.3l-.1.1h-.4v.1h-.4v.1H10v.1h-.3v.1h-.1v.1h-.2v.1h-.1v.1h-.2V1H9v.2H9v.2h-.1v.1h-.2v-.1h-.2v-.2h-.3V1h-.4L7.6 1h-.9v.1L6.7 1v.1h-.5v.1H6v.1H6v.1h-.2v.2h-.3v.1h-.1v.1h-.1V2h-.1v.2H5v.3h-.2l.1.1h-.1v.2h-.1v.6h-.1v.2h-.7v.1h-.4v.1H3v.1H3V4h-.1V4h-.2v.1h-.1v.1h-.1v.1h-.2v.2h-.1l-.1.1v.2H2V5h-.1V5h-.1v.2h-.1v.2l-.1.1V6l-.1.1h.1v1.1h.1v.4-.1h-.1v.1h-.2v.1h-.2v.2H1V8H.8V8H.7v.1H.7v.2H.4v.2H.3v.1H.2v.2H.2v.5H0v1.4h.1v.2l.1.1v.1l.1.1v.1h.1v.1l.1.1h.1v.2h.1v.1H.7v.2H.4v.2H.4v.1H.3v.4H.1v.4H0v.8l.1.1v.3h.1v.3h.1v.2h.1v.2h.2v.3h.1v.1H1v.1H1v.1h.2v.1h.1v.1h.2v.1h.1v.1H2v1.7H2v.3h.1v.2l.1.1v.1h.1v.2h.1v.1h.1v.1h.1v.1h.1v.1h.1v.1H3v.1h.2v.1h.1v.1h.4v.1h.1v.1h.6l.1.1h.4l.1-.1H5l.1.1v.5h.1v.2h.1v.3h.1v.1h.1v.2h.1v.1h.1v.1h.1v.1H6v.2h.2v.1h.1v.1h.2v.1h.2v.1h.2v.1h.3v.1h1.1V22h.5v-.1H9v-.1h.3v.1h.1v.1h.1v.1h.1v.1h.1v.1h.1v.1h.3v.1h.1v.1h.2v.1h.5v.1h.9v-.1h.5v-.1h.3v-.1h.1v-.1h.2v-.1h.2v-.1h.1V22h.1v-.2h.2v-.2h.2v.1h.1v.1h.2v.1h.5v.1h.3l.1-.1.1.1h.2V22h.6v-.1h.3v-.1h.1l.1-.1h.2v-.1h.2v-.2h.2v-.2h.2V21h.1v-.1h.1v-.2h.1v-.2h.1v-.2h.1V20h.1-.1v-.3h.1v-.1h.3v.1h.2v-.1h.7v-.1h.3v-.1h.3v-.1h.1v-.1h.2V19h.2v-.1h.1v-.1h.1v-.2h.2v-.3h.1V18h.1v-.2h.1v-.5h.2-.1V17h.1v-.3h-.1v-.5h-.1V16h.2V16h.2v-.1h.2v-.1h.1v-.1h.1v-.1h.2v-.1h.1v-.1h.1v-.2h.1V15h.1v-.2h.1v-.1h.1v-.2l.1-.1v-.2h.1v-.9h.1V13h-.1v-.6h-.1v-.1h-.1V12H22V12H22v-.2h-.2v-.1h.1v-.1h.1v-.1h.1v-.2h.1v-.1h.1V11h.1v-.3h.1v-.4zm-3 2.4v.3l-.1.1v.2h-.1v.1h-.1v.2H19v.2H19v.1h-.1v.1h-.2v.1l-.1.1h-.1v.1h-.2v.1H18h.1v.2h.1v.4h.1v.5h-.1v.4h-.1v.3H18v.3h-.1v.1h-.1v.1h-.1v.1h-.1v.1h-.1v.1h-.2v.1h-.1v.1H17v.1h-.4v.1h-.4v-.1H16v.1H16v.6h-.1v.2h-.2v.3h-.2v.2h-.1v.1h-.2v.1H15v.1l-.1.1h-.3v.1h-1.1V19h-.2v-.1h-.4v.2h-.1v.1h-.1v.1h-.1v.1h-.2v.1h-.1v.1h-.4l-.1.1h-1.1v-.1h-.3v-.1h-.1v-.1H10v-.1h-.1v-.1h-.1V19h-.1v-.1h-.4v.1H9v.1H8V19h-.3v-.1h-.1v-.1h-.2v-.1h-.1v-.1H7v-.1H7v-.2h-.1v-.1h-.1v-.3h-.1v-.2h-.1v-.4H6v-.1h-.3v-.1h-.3V17h-.1l-.1-.1H5v-.1H5v-.1h-.1v-.1h-.1v-.1h-.1v-.1h-.1v-.1h-.1V16h-.1v-.4h-.1v-1.1h.1v-.3h-.2L4 14h-.2V14h-.1v-.1h-.1v-.1h-.1v-.3h-.2v-.3h-.1V13h-.1v-.3l-.1-.1v-.7h.1v-.3h.1v-.4h.1V11h.1v-.2h.1v-.1h.1v-.1h.1v-.2h-.1v-.2h-.1V10h-.1v-.5h-.1v-.7h.1v-.4h.1v-.2h.2V8H4v-.2h.2v-.1h.1v-.2h.3v-.1h.2v-.1H5v-.1h.2v-.9h.1V6h.1v-.1h.1v-.3h.1v-.1h.1v-.1h.1v-.1H6v-.1H6V5h.1V5h.2v-.1h.2v-.1H7v-.1h.3l.1.1h.5V5H8v-.3h.2v-.1H8v-.1h.1v-.1h.1V4h.1V4h.1v-.1h.1v-.1h.2v-.2H9v-.1h.3v-.1h.5v-.1.1l.1-.1h.1v.1h.6v.1h.3v.1h.1v.1h.1v.1h.1V4h.1V4h.2v-.1h.1v-.1h.1v-.1h.1v-.1h.2l.1-.1h.1v-.1h.4v-.1h.2v.1l.1-.1v.1h.6v.1h.2v.1h.2v.1h.1l.1.1h.1V4h.1V4h.1v.1h.1v.1h.1v.2h.1v.2h.1V5h.2v-.1h.3l.1-.1h.6v.1h.3V5h.3V5h.1v.2h.2v.1h.2v.2h.1v.1h.1v.1h.1V6h.1v.3h.1v.4l.1.1v.1h-.1v.4h.2v.1h.3v.1h.1v.1h.1v.1h.2v.2h.2V8h.1V8h.1v.2h.1v.2h.1v.3h.1V9h.1v.8H19v.3H19v.2h-.1v.2h-.1v.1h-.1.1v.2h.2v.2h.1l.1.1v.1h.1v.1l.1.1v.3h.1v.8z"/><path d="M18 3.6h.1v-.1h.6v.1h.4v.1-.2H19v.1h-.1v-.1H18v-.3h-.1V3v.4zm-.4 16v.1h.9v-.1h.4v-.1h.3v-.1h.1v-.1h.2-.2v.1H19l-.1.1h-.2v.1H18l-.1.1h-.1l-.1-.1v.1h-.1zM5 19.7h-.5v.1h-.2v-.1h-.6.4l.1.1H5zm17.3-5.5v-.3h.1v-.9h-.1V14zm-1.7 2.5v1h-.1v.2h-.1v.3h-.1v.2-.1h.1V18h.1v-.3h.1v-.5h.1v-.7h-.1zM4.7 3.5zh-.8v.1h-.3.6v-.1h.5zm-2.8 14v-1.1.1h-.1v.9zM21 6.5h.1v-.7H21v-.2.8zM10.7.1h-.2v.1h-.3v.1H10v.1h-.2v.1h-.2.3V.3h.2V.3h.3V.2h.3zM21 7.3zV7h.1v-.3.3h-.1v.2zM1.6 6v.1h-.1v.5h.1V6zM0 9.7zv.1L0 10v.2h.1v.1-.5zm0 3.5zv.5-.5zm22.4-3zv-.4.5zm-1 5.4h.1v-.1h.1v-.1h.1v-.1.1h-.2zm-.6-10.3v-.1l-.1-.1h-.2V5h.1v-.1h-.1v-.2h-.1v-.1h-.1l.1.1v.1h.1V5h.1v.2h.1v.2zM5.7 21.2v.1H6v.1H6v.1-.1h-.1v-.1zm10.3-10zv.1h.1v.2h.1v.8l-.1.1v.2H16v.2h-.1v.1h-.1v.1h-.1v.1h.3v.1h.4v.1h.2v.1h.7v.1h.4v-.1h.3v-.1h.1V13h.2v-.2h.1v-.2h.1v-.8h-.1v-.3h-.1v-.2H18v-.1H18v-.1h-.2V11h-.4V11h-.9l-.1.1H16zM5.8 13.3h.3v-.1h.3v-.1h.3V13H7v-.2h-.2v-.1h-.1v-.1h-.1v-.3h-.1v-.9h.1v-.3h.1-.1V11H6V11H5v.1h-.3l-.1.1h-.1v.1h-.2v.2h-.1v.1h-.1v.2H4v1h.1v.1h.1v.2h.2v.1h.1v.1h.1v.1H5v.1h.7zm1.8-4.8zv-.1l.1-.1v-.2h.1V8H8v-.2H8v-.1h.1v-.1h.1v-.1h.1l.1-.1h.2v-.1H9h-.1V7h-.1v-.1h-.1v-.2h-.1v-.2h-.1v-.1h-.1v-.1h-.1V6h-.1V6H8v-.1h-.2v-.1h-.1l-.1-.1h-.7v.1h-.2V6h-.2V6h-.1v.1h-.1v.1h-.1v.2h-.1v.3H6v.4h.1v.3h.1v.2h.1v.1h.1v.1h.1V8h.1V8h.1v.1h.1v.1H7v.1h.1v.1h.2v.1h.2v.2zm7.8.3v.2h.2v.2h.1v.1h.1v.2h.1v.3h.1v.7h-.1v.1h.9v-.1h.3v-.1h.4v-.1h.1v-.1h.2v-.1h.2v-.3h.1v-.2h.1v-.8H18v-.1H18v-.2h-.1v-.1h-.1v-.2h-.2v-.1h-.4V8h-.5v.1h-.2v.1h-.3v.1H16v.1h-.1v.1h-.2v.1h-.1v.1h-.2zh-.1zm-9.8 1.7h.5v.1h.5v-.9h.1v-.2h.1v-.4H7V9h.1V9h.2v-.1H7v-.2l-.1.1h-.1v-.2h-.2v-.1h-.1v-.1h-.2v-.1h-.2v-.1h-.4L5.6 8h-.5v.1H5v.1h-.2v.2h-.1v.1h-.1V9h-.1v.2h-.1v.4h.1v.4h.2v.3H5v.1H5v.1h.2v.1h.4zM14 7.3h.2v.1h.2v.1h.1v.1h.1v.1h.1v.1h.1V8h.1v.2h.1v.2h.1v.3h.1v-.1h.2v-.1h.2v-.1h.1v-.1h.2V8h.1V8h.1v-.1h.1v-.1h.1v-.1h.1v-.2h.1v-.2h.1v-.4l.1-.1v-.1h-.1v-.4h-.1v-.1h-.1V6h-.1V6H16v-.2h-.3v-.1h-.8v.1h-.2V6l-.1.1h-.1v.1h-.1v.2h-.2v.2H14v.3h-.1V7h-.1v.1h-.1v.2h.1zm3 6.8zh-.1v-.1h-.2v-.1h-.2v-.1H16v-.1h-.3v-.1h-.1v-.1h-.1v.4h-.1v.4h-.1v.1h-.1v.2h-.1v.1H15v.1H15v.1h-.1v.1h-.2v.1h-.2v.1h.2v.2h.1v.1h.1v.1h.1v.2h.2v.1h.1v.1h.2v.2h.2v.1h.1v.1h.8v-.1h.2V16h.1V16h.1v-.1h.1v-.1h.1v-.2h.1v-.3h.1v-.7h-.1v-.2h-.1v-.1H17v-.1zM8 15zh-.1v-.1h-.1v-.1h-.1v-.1h-.2v-.2h-.1v-.1h-.1v-.2L7 14v-.2l-.1-.1v-.3h-.3v.1h-.2v.1h-.3v.1H6v.1h-.1v.1h-.2v.1h-.2v.2h-.1v.1h-.1v.3h-.1v.7h.1v.2h.1v.2h.1v.2h.2v.2H6v.1h.8v-.1H7V16h.2V16h.2v-.1h.1v-.2h.1v-.1h.1v-.1h.1v-.1h.1v-.2H8zm.8.7zh-.1v-.2h-.1v-.2l-.1.1h-.1v.1h-.1v.2H8v.1H8v.1h-.1v.2h-.1v.2h-.1v.1h-.1v.4h-.1v.7h.1v.2h.1v.2h.1v.1H8v.1h.2v.1h.9V18h.2v-.1h.1v-.1h.1v-.2h.1v-.2h.1v-.1h.1V17h.1v-.5h.1V16h-.5V16H9v-.1h-.2zm4-9h.1v.1h.1V7h.1v.2h.1v.1h.1V7l.1-.1v-.2h.1v-.2h.1v-.4h.2v-.4h.1V5h-.1V5h-.1v-.3h-.2v-.1h-.2v-.1H13v-.1h-1v.1H12v.1h-.1v.1h-.1V5h-.1v.2l-.1.1v.3h-.1v1.1h.3v-.1h.5v.1h.4zm-1.7 0V5.4l-.1-.1V5h-.1v-.2h-.2v-.2h-.1v-.1h-.2v-.1h-.9v.1h-.3v.1H9l-.1.1v.1h-.1V5h-.1v.2h-.1V6h.1v.2H9v.2H9v.2h.1v.2h.1V7h.1v.1h.1V7h.1v-.2l.1.1h.1v-.2h.3v-.1h.3v-.1h.5v.1h.3m1.4 9.4v.2h.1v.3h.1v.3l.1.1v.3h.1v.2h.1v.3h.1v.1h.1v.1h.2v.2h1V18h.3v-.2h.1v-.1h.1v-.1h.1v-.2h.1v-.8H15v-.3h-.1v-.1h-.1V16h-.1v-.1h-.1v-.2h-.1v-.1h-.1v-.1h-.1v-.1h-.1v-.2H14v.2H14v.1h-.1v.1h-.1v.1h-.1v.2h-.3v.1h-.2v.1h-.6zm-1.7.3h-.2V16v.1h-.1V16v.3h-.2v.1h.1v.1h-.1v.6h-.1v.9h.1v.2h.1v.1h.1v.1h.2v.1h.1v.1h.9v-.1h.3v-.1h.1v-.1h.2V18h.1v-1.2h-.1v-.3l-.1-.1V16H12v.1h-.2v.1h-.2v.1h-.8v-.1zm.5-3.6h.2l.1-.1h.2v-.1h.2v-.1h.1v-.1h.2V12h.2l-.1-.2h.1v-1h-.2v-.3H12v-.2h-.2v-.1h-.2v-.1H11v.1h-.3v.1h-.2v.1h-.1v.2h-.1v.1h-.1v.2H10v1h.1v.1h.1v.2h.2v.2h.2v.1h.2l.1.1h.2z"/><path d="M15 11zh-.1v-.1h-.3v-.1h-.1v-.1h.1v-.1h.1v-.1h.2v-.2h.1v-.8h-.2v-.2h-.2v-.1h-.7v.1h-.2v.1h-.1v-.2h.1V9h.1v-.4h.1v-.2h-.1v-.3h-.1V8h-.1V8h-.1v-.1H13v-.1h-.4V8h-.3v.2h-.1v.1h-.1v.1H12v.1-.7h-.1v-.2h-.1v-.1h-.1v-.1h-.8v.1h-.1v.1h-.1v.1h-.1v.6h-.3V8H10V8H10v-.1h-.2v-.1h-.4V8h-.1V8H9v.4h-.1V9H9v.3h-.1v-.1H8v.1h-.2v.1h-.1v.2h-.1v.6h.1v.2H8v.1H8v.1h.1v.1h.2v.1l-.1.1h-.3l-.1.1h-.2v.1h-.1v.1h-.1v.4l-.1.1v.1h.1v.3h.1v.1h.1v.1h.1v.1h.6v.2h-.1v.1H8v.2H8v.2h-.1v.4H8v.2h.1v.1h.2v.2h.2v.1H9V14h.3v-.1h.1v.2h-.1v.5h.1v.3h.2v.1h.1v.1h.8V15h.2v-.1h.1v-.1l.1-.1v-.1h.1v-.2h.1v-.1h.1v-.1h.1V14v.1H11v.3H11v.3h-.1v.2h.1v.2h.1v.1h.1v.1h.3v-.2h.2l-.1-.1V15h.1v-.4.1h.1v.1h.2v.1h.1v.1h.2v.1h.7V15h.1v-.1h.1v-.1h.1v-.4h.1-.1V14h.2l.1.1h.7V14h.1v-.1h.1v-.2h.1v-.1h.1V13h-.1v-.2h-.2v-.1h-.1v-.2H14v-.1h.8v-.1h.2V12h.1v-.2h.1v-.4h-.1v-.3H15zm-1.5.5v.1h-.1v.1h-.1v.2h-.1v.2H13v.2H13v.5h-.1v.3h-.6l-.1.1H12v.1h-.3v.1h-.1v.1h-.1v.1h-.1v.1h-.2v-.1H11v-.1H11v-.1h-.1l-.1-.1h-.3v-.1H10V13h-.3l-.1-.1v-.8h-.1V12h-.1v-.3h-.1v-.1h-.1v-.1H9v-.2h.1v-.1h.1v-.1h.1V11h.1v-.2h.1v-.2h.1v-.4h.1l-.1-.1V10l.1-.1h-.1v-.1h.3v-.1h.5v-.1l.1.1v-.1h.2v-.1h.3v-.2h.6v.2h.3v.1h.2v.1h.5l.1.1h.3-.1v.5h.1v.4h.1v.1h.1v.2h.1v.1l.1.1v.1h.1zh.1v.1z"/></g></svg>