<svg xmlns="http://www.w3.org/2000/svg" fill="none" style="display:block" viewBox="0 0 23.4 24"><path fill="#151515" d="m21.7 10.4-.1-.1v.1h-.4v-.1h-.8v.1h-.2.1v-.1h.1v-.1h.1V10h.1V10h.1v-.1h.3v-.2h.1v-.1h.2v-.2h.1v-.1h.1V9h.1v-.2h.1v-.1h.1v-.2h.1v-.8h-.1v-.2h-.1v-.2h-.1v-.1h-.1v-.1h-.2V7h-.1V7h-.5l-.1-.1h-.3l-.1.1h-.4v.1h-.4v.1H19v.1h-.2v.1h-.3v.1h-.2v.1h-.2v.1H18v.1h-.1V8h-.3v.2h-.3v.2H17v.1H17v.1h-.1v.1h-.1v.1h-.1v.1h-.2V9h-.2v.1h-.1v.1H16v.1H16v.2h-.2v.1l-.1.1v.1h-.1v.1h-.1v.2h-.1v.1h-.1v.3H15h.1v.2H15v.7h.3v.1h.2l.1.1h1v.1h.6v.1h.3l.1.1h.2v.1h-.2v.1h-.4v.1H17v.1h-.7l-.1.1h-.7v.1h-.2v.1h-.1v.1H15v.1H15v.5h.1v.3h.1v.1h.1v.2h.1v.1h.1v.2h.1v.1h.1v.1h.1v.1h.1v.1h.1v.1h.1v.1h.1v.2h.2v.1h.1v.1h.1v.1h.1v.1h.2v.1h.1v.1h.1v.1h.1v.1h.2v.1h.1v.1h.1v.1h.1v.1h.2v.1h.3v.1h.1v.1h.2v.1h.1v.1h.3v.1h.3v.1h.4v.1h.5v.1h.8V17h.3v-.1h.2v-.1h.1v-.1h.1v-.1h.1v-.1h.1v-.3l.1-.1v-.5h-.1v-.3h-.1V15h-.1v-.1h-.1v-.1h-.1v-.1h-.1v-.2H21v-.1H21v-.1h-.1v-.1h-.1V14h-.2v-.1h-.1v-.1h-.2v-.1h1.9v-.2l.1.1v-.1h.3v-.1h.1v-.1h.1V13h.2V13h.1v-.1l.1-.1v-.2h.1v-.3h.1v-.6h-.1v-.3h-.1v-.2H23V11H23V11h-.1v-.1h-.1v-.1h-.2v-.2.1h-.1v-.1h-.1v-.1h-.2v-.1h-.4zm-7.8 6v-.1h-.1l-.1-.1h-.1V16l-.1-.1h-.1v-.1h-.1v-.1h-.1v-.1h-.3v-.1h-.3v-.1h-.4v.1H12v.3l-.1.1v.7h-.1v.9h-.1v.7h-.1v.5h-.2v-.5h-.1v-.5h-.1V17l-.1-.1h.1v-.2h-.1V16H11v-.3H11v-.2h-.1v-.1l-.1-.1h-.4v.1H10v.2h-.2v.1h-.2v.2h-.2v.2h-.2v.1h-.1v.1H9v.2H9v.1h-.1v.1h-.1v.1h-.2v.1h-.1v.2h-.1v.1h-.1v.1h-.1v.2H8l-.1.1v.2h-.2v.1h-.1v.2h-.1v.2h-.2v.2l-.1.1v.2H7v.3H7v.3h-.1v.2h-.1v.2h-.1v.3h-.1v.5l-.1.1v.7h.1v.4h.1v.1h.1v.1H7v.2H7l.1.1h.3v.1H8v-.1h.3v-.1h.1v-.1h.3V22h.2V22H9v-.1h.2v-.2h.1v-.1h.1v-.1h.1v-.1h.1v-.1h.1V21h.1V21h.1v-.3h.1v.4h-.1v1h.1v.6h.1v.2h.1v.3h.1v.2h.1v.1h.2v.2-.1.1h.1v.1h.4v.1h.2l.1.1h.6v-.1h.2v-.1h.3v-.1h.2v-.2h.1v-.1h.1v-.1h.2l-.1-.1V23h.1v-.2h.1v-.2h.1v-.4h.1v-1.6l-.1-.1v.1h.1v.1h.1v.1h.1v.3h.1v.1h.2v.2h.1v.1h.1v.2h.2v.1h.1v.1h.2v.2l.1-.1v.1h.3v.2h1v-.1h.2v-.1h.1V22h.2v-.2h.1v-.3h.1v-1.3h-.1v-.4h-.1v-.2h-.1v-.3h-.1v-.2H16V19H16v-.3h-.1v-.1h-.1v-.1h-.1v-.3h-.2V18h-.1V18h-.1v-.2h-.1v-.1H15v-.2h-.2v-.2h-.2V17h-.1V17h-.1v-.1h-.1v-.1h-.1v-.1h-.1v-.1H14zm2.4-12.2V4h.1v-.5h.1V2.2h-.1V2l-.1-.1v-.1h-.1v-.1H16v-.1h-.2v-.1H15v.1h-.3V2l-.1-.1h-.1V2h-.1V2h-.2v.2H14v.1H14v.1h-.1v.1h-.1v.2h-.1v.1h-.1V3h-.1v.2h-.1v.1h-.1v.1h-.1v-.1h.1V1.6h-.1v-.4H13V1H13V.7h-.1V.6h-.1V.5h-.1V.3h-.2V.2h-.1V.2H12V0h-.3l-.1-.1h-.2v.1V0h-.1v.1h-.5v.1h-.1v.1h-.2v.2h-.1v.1h-.2v.2h-.1V1H10v.5h-.1V2h-.1v.8h.1v.5h-.1v-.1h-.1V3h-.1v-.1h-.1v-.2h-.1v-.1h-.1v-.2H9v-.2h-.2V2h-.1V2h-.1v-.1h-.2v-.1h-.2v-.1h-.5v-.1h-.5v.1h-.1v.1H7V2h-.2v.3h-.1v.2h-.1V3h-.1v.5h.1V4h.1v.2h.1v.3H7v.3H7V5h.1v.2h.1v.1l.1.1v.1h.1v.1h.1v.2h.1v.1h.1V6h.1v.1H8v.2H8v.1h.2v.2h.1v.2h.2V7h.2v.1h.1v.1H9v.1l.1.1h.1v.1h.1v.1h.1v.1h.1v.1h.1l.1.1h.1V8l.1.1h.1v.1h.1v.1h.2l.1.1h.2v.1h.3v-.1h.1v-.1h.2v-.6h.1v-.5l.1-.1v-.7h.1v-.8h.1v-.3h.2v.5h.1v.4h.1v1.2h.1V8h.1v.2h.1v.2h.1v.1h.7v-.2h.2V8h.1V8h.1l.1-.1h.1v-.1h.2v-.3h.3v-.2h.2V7h.2V7l.1-.1v-.1h.1v-.1h.1v-.1h.1v-.1h.1v-.1l.1-.1v-.1h.1V6h.1v-.1h.1v-.1h.1v-.1h.1v-.3h.1v-.2h.1V5h.1V5h.1v-.2h.1v-.2h.1v-.3zM7.8 14zv-.1H8v-.1H8v-.2h.1V13h.1v-.3H8v-.2H8v-.1h-.3v-.1h-.9v-.1h-.6v-.1h-.6V12h-.3V12h-.1v-.1h.1l.1-.1h.4v-.1h.5v-.1h1v-.1H8v-.1H8v-.1h.2v-.5H8v-.3H8v-.2h-.1v-.1h-.1V10h-.1l-.1-.1v-.1h-.1v-.1h-.1v-.1l-.1-.1v-.1h-.1v-.1H7v-.1h-.2V9h-.1v-.1h-.1v-.1h-.2v-.2h-.2v-.2H6v-.1h-.1v-.1h-.1V8h-.2V8h-.1v-.1h-.2l-.1-.1v-.1H5v-.1h-.2v-.1h-.3v-.1h-.2v-.1H4v-.1h-.4V7H3V7h-.5v.1h-.4l-.1.1H2v.1h-.3v.2h-.1v.1h-.1V8h-.1v.6h.1v.3h.1V9h.1v.2h.1v.2H2v.1H2v.1h.1v.1h.1v.1h.1v.1h.1v.1h.1v.1h.2v.2H3v.1h.2v.1h.1-1.8v.1H1v.1H.8v.1H.6v.1H.5v.1H.3v.2H.2v.1H.2v.2H0v.5H0v.6h.1v.2h.1v.2h.1v.2h.1v.1h.2v.1h.1v.1H1v.1h.5v.1h.7v.1l.1-.1.1.1v-.1H3v.1h-.1v.1h-.2v.2h-.2v.1h-.1v.1h-.2v.1H2v.1H2v.1h-.1v.2h-.1v.1h-.1v.1h-.1v.3h-.1v.3h-.1v.7h.1v.3h.1v.1h.1v.1H2v.1H2l.1.1h.4l.1.1h.5l.1-.1h.5v-.1H4v-.1h.3v-.1h.3v-.1h.1l.1-.1H5v-.1h.1v-.1h.1V16h.3V16h.1v-.1h.2v-.1H6v-.1H6v-.1h.2v-.1h.1v-.2h.2v-.1h.1V15h.2v-.2H7v-.1H7v-.1h.2v-.2h.1v-.1h.1v-.1h.1v-.1h.1V14zv-.1zm3.8-4.5h-.1v.1h-.6v.1h-.3v.1h-.2v.1h-.2v.2H10v.1h-.1v.1h-.1v.1h-.1v.2h-.2v.2h-.1v.1h-.1v.4h-.1v.3l-.1.1v.9h.1v.4h.1v.2h.1v.2h.1v.1h.1v.2h.1l.1.1h.1v.2-.1.1h.1v.1h.2v.2h.3v.1h.2l.1.1h.4v.1h.9v-.1h.3v-.1h.2v-.1h.2V14h.2V14h.1v-.1h.2v-.2h.1v-.1h.1v-.1h.1v-.1h.1v-.1h.1V13h.1v-.2h.1v-.4h.1v-1H14V11h-.1v-.2h-.1v-.2h-.1v-.2h-.2.1v-.1h-.1v-.1h-.1v-.1h-.1V10H13v-.1h-.2v-.1h-.3v-.1h-.2v-.1H12v-.1h-.4zM6.7 7.1v-.3h-.1v-.4h-.1V6h-.1v-.2h-.1v-.3h-.1v-.1L6 5.3v-.2H6V5h-.1V5h-.1v-.2h-.1v-.1h-.1v-.1h-.1v-.1h-.1v-.1h-.1v-.1H5v-.1H5V4h-.1V4h-.1v-.1h-.2v-.1h-.1v-.1h-.3v-.1h-.7v.1h-.2v.6h.1v.4h.1V5h.1v.2h.2v.4H4v.2h.2V6h.2v.1h.1v.1h.1v.1h.2v.1H5v.1h.2v.1h.2v.1h.2v.1h.3V7H6V7h.3v.1h.3zM16.8 7h.3v-.1l.1.1v-.1h.3v-.1h.1v-.1h.3v-.1h.1v-.1h.1v-.1h.2v-.1h.1v-.1h.2V6h.1V6h.2v-.2h.1v-.1h.1v-.1h.1v-.2h.2V5h.1v-.2h.1v-.2h.1v-.4l.1-.1v-.4h-.1v-.1h-.1v-.1H19v.1h-.3v.1h-.3v.1l-.1.1h-.1v.2H18v.1h-.1v.1h-.1v.1h-.1v.1h-.1v.1h-.1v.1h-.1v.1h-.1V5h-.1v.1H17v.2H17v.3h-.1v.2h-.1v.3h-.1v.2h-.1v.8zM3.5 19.3v.2h-.1v.2h-.1v.7h.1v.1h.8v-.1h.3v-.1h.2v-.1H5V20h.2v-.1h.2v-.2h.1v-.1h.1v-.1h.1v-.2h.2V19H6v-.2H6v-.1h.1v-.2h.1v-.2h.1v-.2h.1v-.4h.1v-.3h.1V17H6v.1h-.5v.1h-.2v.1h-.1v.1H5v.1h-.2v.1h-.1v.1h-.1v.1h-.3v.2h-.2v.2H4v.2h-.1v.1h-.1v.2h-.1v.1l-.1.1v.2h-.1zm14.6-1.8h-.3v-.1h-.1v-.1h-.3v-.1H17V17h-.5v.6h.1v.4h.1v.2h.1v.3h.1v.2h.1v.1h.1v.2h.1v.2h.1v.1h.1v.2h.2v.1h.1v.1h.1v.1h.1v.1h.2v.2h.2v.1h.2v.1h.2v.1h.3v.1h.4v-.1h.2v-.2h.1v-.4l-.1-.1v-.4h-.1V19h-.1v-.2h-.1v-.1h-.1v-.2h-.1v-.1H19v-.1H19v-.1h-.1V18h-.1V18h-.2v-.1h-.2v-.2h-.2z"/></svg>