<svg xmlns="http://www.w3.org/2000/svg" fill="none" style="display:block" viewBox="0 0 23.4 22.6"><g fill="#151515"><path d="M21 11.4h-.3v-.1h-.4v-.1H19h.1V11h.3V11h.3l.1-.1h.2v-.1h.4v-.1h.2v-.1h.2v-.1h.3v-.1h.1v-.1h.2V10h.3v-.2h.1v-.1h.1v-.1h.1v-.1h.1v-.1h.1v-.2h.1v-.1h.1V9h.1v-.3h.1v-.4h.1v-.9h-.1v-.2l-.1-.1v-.3h-.2v-.2h-.1v-.1h-.1v-.2H22v-.1h-.1v-.1h-.3V6h-.2V6h-.7v-.1h-.1l-.1.1v-.1h-.3L20 6h-.4v.1h-.5v.1H19v.1h-.1v.1h-.3v.1h-.2v.1h-.1v.1H18v.1h-.2V7v-.1h.1v-.2h.2v-.2h.1v-.1h.1V6h.1V6h.1v-.2h.1v-.2h.1v-.2h.1V5h.1v-.4l.1-.1v-.4h.1v-.6H19V3H19v-.2h-.1v-.2h-.2v-.2h-.1v-.1h-.2V2H18V2h-.2v-.1h-.5l-.1-.1h-.1V2h-.7V2h-.1l-.1.1H16v.1H16v.1h-.2v.1h-.2v.1h-.2v.3h-.2V3H15v.1h-.1v.2h-.1v.1h-.1v.3h-.1v.1h-.1V4h-.1v.1h-.1v.3h-.1v.2H14v.1H14V5v-.5h.1V2.4l-.1-.1V2h-.1v-.3l-.1-.1v-.3h-.1V1h-.1V.8h-.1V.7h-.1V.6h-.1V.6h-.1V.3H13V.3h-.1V.2h-.3V.1H12V0v.1h-.7v.1H11v.2h-.1v.1h-.1v.1h-.1v.1h-.1v.1h-.1V1l-.1.1v.1h-.1v.2h-.1v.3H10v.1H10V2h-.1v.5h-.1v1.8h.1v.1-.2h-.1V4h-.1v-.2h-.1v-.2h-.1v-.1h-.1v-.2h-.1l-.1-.1v-.1H9V3H9v-.2h-.1v-.1h-.1v-.1h-.2v-.2h-.2v-.1h-.1v-.1H8v-.1h-.1V2h-.1V2h-.3v-.1h-.6v-.1h-.4V2H6V2h-.3v.1h-.1v.1h-.1v.1h-.1v.1h-.1v.1h-.1v.2H5V3H5v.3l-.1.1v1.2l.1.1v.4h.1v.2h.1v.1h.1v.2h.1V6h.2V6h.1v.3h.1v.1H6v.2h.1v.2h.1V7h.1H6v-.2l-.1.1h-.1v-.1h-.1v-.1h-.2v-.1h-.1l-.1-.1h-.1v-.1H5v-.1h-.3V6h-.3V6h-.9v-.1l-.1.1h-.1v-.1.1h-.7v.1h-.2v.1h-.3v.1H2v.1H2v.1h-.2v.2l-.1.1h-.1V7h-.1v.2l-.1.1v.1h-.1v.3h-.1v1h.1v.2h.1v.3h.1v.2h.1v.1h.2v.2H2v.2H2v.1h.2v.1h.1v.1h.1v.1h.1v.1h.2v.1h.1v.1H3v.1h.2v.1h.2v.1h.3v.1H4v.1h.3v.1h.5v.1H5 3.7v.1H3v.1h-.3v.1h-.2v.1h-.3v.2H2v.1h-.1v.1h-.1v.1h-.1v.1h-.1v.1h-.1v.1h-.1v.1h-.1v.2H1v.2H1v.2H.8v.5l-.1.1v.6l.1.1v.2l.1.1v.2h.1v.1h.1v.2h.1v.1h.1v.1h.1v.1h.2v.1H2v.1H2l.1.1h.3v.1h.4v.1h1.5v-.1h.4v-.1h.4v-.1h.1v-.1h.2v-.1h.3v-.1H6h-.1v.1h-.1v.2h-.2v.1h-.2v.2h-.1v.1H5v.1H5v.1h-.1v.1h-.1v.1h-.1v.2h-.1v.1h-.1v.1h-.1v.2h-.1v.1h-.1v.3H4v.2H4v.3h-.1v.4l-.1.1v.7H4v.4h.2v.3h.1v.2h.1v.1h.2v.2h.2v.1h.1v.1h.3v.1h.4v.1h.8v-.1h.4v-.1H7v-.1h.2v-.1h.1v-.1h.2v-.1h.2V20H8v-.2h.1v-.1h.2v-.3h.2v-.2h.1V19h.1V19l.1-.1v-.1h.1v-.2H9v-.2h.2v-.1.2H9v.7l-.1.1.1.1v.7h.1v.4h.1v.3h.1v.1h.1v.2h.1v.1h.1v.2h.1v.1h.1v.1h.1v.1h.1v.1h.1v.1h.1v.1h.1v.1h.2v.1h.1v.1h.2v.1h.1l.1.1h.3v.1h1.3v-.1h.2v-.2l.1.1h.1v-.1h.1v-.1h.2V22h.1V22h.2l.1-.1v-.1h.1v-.1h.1v-.1h.1v-.1h.1v-.1h.1v-.1l.1-.1V21h.2l-.1-.1v-.1h.1v-.2h.1v-.4h.1V20h.1V18h-.1.1v.1l.1.1v.2h.2v.3h.2v.2h.1v.1h.1v.2h.1v.2h.2v.2h.2v.1h.1v.1h.1v.1h.1v.1h.2v.1h.2v.2h.3v.1h.5v.1h1.2v-.1h.3v-.1h.1v-.1h.2v-.1h.1V20h.1V20h.1v-.2h.1v-.1h.1v-.2h.1v-.2h.1v-.7h.1v-.1H20v-.1h.1-.1v-.7H20v-.1h-.1v-.3h-.1V17h-.2v-.2h-.1v-.2h-.1v-.1h-.1v-.1h-.1v-.1H19V16h-.2V16h-.1v-.1h-.1v-.1h-.2v-.2h-.1l-.1-.1h-.1v-.1H18v-.2h-.2.2v.1h.2v.1h.3v.1h.3v.1h.2v.1h.3v.1h.3v.1h.3l.1.1h1.3v-.1h.5v-.1h.2v-.1h.2v-.1h.1v-.1h.1v-.1h.2v-.2h.1V15h.1V15h.1v-.2h.1v-.3h.1v-1.2H23V13h-.2v-.3h-.1v-.1h-.1v-.1h-.1v-.2h-.2V12H22V12H22v-.2h-.3v-.1h-.1l-.1-.1H21v-.2m-3.7 0h-.5v.1h-.4v.1H16v.1h-.1l-.1.1h-.1v.1h-.2v.1h-.2v.1H15v.2h-.2v.5h.1v.2h.1v.1h.1l.1.1v.1h.1v.1h.1v.1h.1v.1h.1v.1h.1v.1h.1v.1h.2v.2h.2v.1h.1v.1h.1l.1.1h.1v.1h-.5v-.1H16v-.1h-.3v-.1h-.2l-.1-.1h-.3V14H15v-.1h-.8v.2H14v.4H14v.5h.1v.7l.1.1v.3h.1v.8-.3h-.1v-.1H14v-.2h-.2V16h-.1v-.2h-.1v-.2h-.1v-.2h-.2V15h-.1V15h-.1v-.1H13v-.1h-.3v.1h-.1v.1h-.1v.1h-.1v.2h-.1v.2h-.1v.2H12v.1H12v.1-.3h-.1v-.4h-.2l.1-.1V15h-.1v-.1h-.2v-.2H11v.1h-.2v.2h-.1v.2h-.2v.2h-.1v.2h-.1v.2h-.1v.1h-.1v.2H10v.2h-.1v.2h-.1v.1h-.1v-.2h.1V16l.1-.1v-.3h.1v-.9h.1v-.4H10V14h-.1V14l-.1-.1h-.6v.1h-.4v.1h-.3l-.1.1h-.2v.1h-.3v.1h-.2v.1h-.3.1v-.2h.1l.1-.1h.1V14H8v-.2h.1v-.1h.1v-.2h.3v-.2h.2v-.2h.1V13H9V13H9v-.1h.1v-.6H9v-.1h-.1V12h-.2V12h-.1v-.1h-.3v-.1H8v-.1h-.3v-.1h-.5v-.1h-.4v-.1h-.5v-.1h.3v-.1h1.6l.1-.1h.3l.1-.1H9v-.1h.1v-.1h.2v-.6h-.1V10H9v-.2H9v-.1h-.1v-.1h-.1v-.2h-.1v-.1h-.1v-.1h-.1V9h-.1V9h-.1v-.2H8v-.2H8v-.1h-.1v-.1h-.1v-.1h-.1v-.1h-.1.3v.1H8v.1h.2v.1h.2v.1h.1v.1h.2v.1H9V9H9V9h.2v.1h.4v.1h.1l.1.1h.5v-.1h.1V9h.1v-.6h.1v-.3h-.1V7h-.1v-.6.1h.1v.2h.1v.1h.1v.3h.1v.2h.1v.2h.1v.2h.1v.1h.1V8h.1v.2h.1v.2h.1v.1h.1v.1h.2v.1h.5v-.1h.1v-.1h.1v-.1h.1v-.1h.1V8h.1v-.2h.1v-.2h.1v-.1h.1v-.2h.1V7h.1v-.2h.1v-.4h.2v.6l-.1.1v1l-.1.1v.5h.1v.3h.1v.1h.1v.1h.2v.1h.2v-.1h.5V9h.3v-.2l.2.1v-.1h.1v-.1h.2v-.1h.1v-.1h.1v-.1h.3v-.1h.1v-.1h.2v.1H16v.2h-.1v.2h-.1V9h-.1V9h-.1v.1h-.1v.3h-.2v.2h-.1v.1H15v.1H15v.2h-.2v.3l-.1.1v.3h.1v.2h.2v.1h.4v.1h.7v.1h1.5v.1h-.1z"/><path d="M12.7 9.6v-.1h-.8v.1h-.7v.1h-.4v.1h-.2v.2h-.1v.1h-.1v.1h-.1v.1h-.1v.2H10v.3H10v.2l-.1.1v.3h-.1v.8h.1v.5h.1v.3h.1v.1h.1v.2h.1v.1h.1v.1h.1v.1h.2v.1h.1v.1h.1v.1h.2v.1h.3v.1h1.2V14h.3v-.1h.2v-.1h.2v-.1h.2v-.1h.1v-.1h.1v-.1h.1v-.1h.1V13h.1V13h.1v-.2h.1v-.3h.1V12h.1v-.1l-.1-.1v-.5h-.1v-.5H14v-.1H14v-.3h-.1v-.1h-.1v-.1h-.1V10h-.2V10h-.1v-.2l-.1.1h-.1v-.1h-.3v-.1zM.3 19zv.3H0v.8h.2v.1H1V20H1V20h.2v-.1h.3v-.1h.1v-.1l.1-.1h.1v-.1H2v-.1H2v-.1h.1v-.1h.1V19h.1v-.1h.1v-.1h.1v-.2h.1v-.2h.1v-.2h.1v-.3H3v-.3H3V17l.1-.1h-.5l-.1.1h-.2v.1H2v.1h-.2v.1h-.3v.1h-.1v.1h-.1l-.1.1H1v.2H1v.1H.7v.2H.5v.2H.4v.1H.4v.2H.3v.3zm21.5-1.6h-.1v-.1h-.2v-.1h-.3V17h-.3V17h-.5v.5h.1v.3h.1v.3h.1v.2h.1v.3h.1v.2h.1v.1h.1v.1h.1v.1h.1v.2h.1v.1h.2v.1h.1v.2h.2v.1h.2v.1h.2v.1h.1v.1h.3v.1h.4V20h.2v-.9h-.1v-.3H23v-.3H23v-.1h-.1v-.1l-.1-.1v-.1h-.1V18h-.1V18h-.2v-.2h-.1v-.1h-.1v-.1H22v-.1h-.1zm1.3-14.7v-.3h.1v-.8h-.1v-.1h-.6l-.1.1h-.2v.1H22v.1h-.2V2h-.2V2h-.1v.2h-.2v.1h-.1v.2h-.1v.1H21v.2H21V3h-.1v.2h-.1v.1h-.1v.3h-.1v.2h-.1v.4h-.1v.6h.3v-.1h.3v-.1h.3v-.1h.2v-.1h.2v-.1h.2V4h.2v-.2h.2v-.1h.1v-.1h.2v-.2h.1v-.2h.2V3h.1v-.1h.1zM1.6 4.3h.2v.1H2v.1h.4v.1H3v-.3l-.1-.1v-.4h-.1v-.1h-.1v-.4h-.1v-.1h-.1V3l-.1-.1v-.1h-.1v-.2H2v-.2H2v-.1h-.1v-.1h-.1V2h-.2V2h-.1v-.1h-.1v-.1h-.2v-.1H1v-.1H.8v-.1H.1v.1H0V2H0v.2h.1v.4h.1v.2h.1V3h.1v.1h.1v.2h.1v.1h.1v.2h.1v.1H1V4h.2V4h.1v.1h.1v.1h.1"/></g></svg>