<svg width="32" height="32" viewBox="0 0 32 32" fill="none" xmlns="http://www.w3.org/2000/svg">
<rect width="32" height="32" rx="4" fill="#E13726"/>
<g clip-path="url(#clip0_2265_2302)">
<path d="M13.5652 11.0584C11.6019 9.91739 7.99064 10.9964 7.24351 13.0135L7.24271 13.0135L7.23599 13.0326C7.2296 13.0509 7.22321 13.0691 7.21722 13.0874L7.13511 13.3267L7.23565 13.574L7.24044 13.5693C7.2625 13.8895 7.31471 14.2602 7.41381 14.6447C7.6041 15.3469 7.96198 16.1312 8.57518 16.7042C8.97237 17.0654 9.47967 17.3444 10.1256 17.4747C9.47543 16.8821 8.01463 15.1821 10.0623 13.2699C11.1583 12.2466 12.1979 12.2251 13.0271 12.5327C13.0959 12.5583 13.1689 12.5453 13.2244 12.5067C13.2508 12.4706 13.2773 12.4344 13.3038 12.3991C13.3054 12.3946 13.3069 12.3898 13.3082 12.3853C13.4112 11.9623 13.5372 11.6042 13.6558 11.32C13.6964 11.2224 13.6581 11.1111 13.5652 11.058L13.5652 11.0584Z" fill="#FFFEF4"/>
<path d="M19.7961 8.9922C19.6875 8.83497 19.4953 8.75028 19.2988 8.75809C17.842 8.81582 16.588 9.3873 15.6214 10.2605C15.0245 10.7996 14.5372 11.4529 14.18 12.1722C14.1798 12.1608 13.6242 13.2086 13.5497 14.6833C13.5227 14.9159 13.5452 15.1419 13.5495 15.3751C13.6317 17.3174 14.1766 17.1183 14.29 17.1274C14.3909 17.1353 14.7191 17.1437 14.7199 16.3011C14.7203 16.3018 14.7212 16.3021 14.7216 16.3029C14.6914 15.5979 14.543 12.6809 15.7217 12.9396C16.1036 13.0249 16.306 14.2864 16.9868 13.7767C17.2821 13.5557 17.1042 12.8122 17.1062 12.4608C17.106 11.9947 17.1611 11.6135 17.255 11.2995C17.8896 9.17988 20.3184 10.1475 19.7965 8.99216L19.7961 8.9922Z" fill="#FFFEF4"/>
<path d="M15.3772 13.8764C14.9741 14.115 15.0768 15.122 15.6453 15.2547C16.6401 15.4866 16.3412 13.3058 15.3772 13.8764Z" fill="#FFFEF4"/>
<path d="M20.1281 11.3446C20.5489 11.3084 21.3894 11.139 21.2816 10.5805C21.107 10.023 20.015 10.127 19.6065 10.3451C18.7067 10.8307 19.5533 11.3837 20.1286 11.3449L20.1281 11.3446Z" fill="#FFFEF4"/>
<path d="M24.3406 11.392C23.7885 10.3838 22.9806 9.59008 21.9492 9.12305C21.6318 9.01525 21.2997 8.94375 20.9557 8.91501C20.4859 9.01755 20.3729 9.6344 20.919 9.70602C21.5229 9.91287 22.7074 10.4167 21.7765 11.12C21.1494 11.7061 20.3298 12.2013 19.6243 12.6671C19.4638 12.782 19.2738 12.9346 19.1093 13.1089C18.8768 13.3557 18.6947 13.6462 18.7197 13.9369C18.8337 14.4981 19.4535 14.3968 19.8775 14.1628C19.9451 14.1255 20.0081 14.085 20.0628 14.0429C20.899 13.514 21.6705 11.8968 22.7483 12.593C23.8475 13.364 22.5827 15.161 22.0231 15.8666C21.8534 16.0851 21.6226 16.3065 21.4497 16.5111C21.3112 16.6754 21.3731 16.7949 21.4841 16.9929C21.9284 17.8249 22.1968 18.7657 22.1333 19.7055C22.0529 21.3295 23.7058 18.8582 24.6284 16.5568C25.3021 14.8763 25.2114 12.9824 24.3402 11.3916L24.3406 11.392Z" fill="#FFFEF4"/>
<path d="M20.4648 7.09069C20.4223 7.11207 20.3742 7.13076 20.3206 7.14481C20.3742 7.13037 20.4223 7.11207 20.4648 7.09069Z" fill="#FFFEF4"/>
<path d="M14.6094 23.8619C14.5609 23.8342 14.5079 23.8151 14.4544 23.7992C13.6261 23.5522 12.4878 22.9058 11.6953 22.132C10.8777 21.3336 10.4295 20.3991 11.0706 19.6271L11.0728 19.6246C11.227 19.4392 11.468 19.3418 11.7088 19.377C12.2301 19.4535 12.8124 19.8906 13.3475 19.4592C13.4009 19.416 13.4481 19.3655 13.4784 19.3042C13.7725 18.7089 12.2873 18.2808 11.9218 18.0956C11.9218 18.0956 11.6662 17.9609 11.114 17.772C10.8528 17.6826 10.5251 17.5808 10.1262 17.4753C9.48424 17.3627 8.97606 17.0783 8.57577 16.7048C7.96257 16.1318 7.60469 15.3474 7.41441 14.6452C7.28131 14.1534 7.23037 13.7022 7.23118 13.3915L7.22095 13.1097C7.16692 13.2411 7.11722 13.3718 7.07194 13.5024C6.67467 14.65 6.63632 15.8861 6.91287 17.0672C7.03829 17.6034 7.21436 18.1458 7.44112 18.6858C7.68457 19.265 7.98631 19.8415 8.3479 20.4062C9.29354 21.883 10.5175 23.0737 11.8449 23.9091C12.6994 24.4468 13.5965 24.8375 14.4913 25.0615C14.5831 25.0844 14.6801 25.0579 14.745 24.9905L14.7458 24.9897C15.0408 24.6836 15.0703 24.124 14.6089 23.8612L14.6094 23.8619Z" fill="#FFFEF4"/>
<path d="M15.3715 22.4853C14.4067 21.6448 12.7633 21.6851 11.6839 20.9938C11.6333 20.9612 11.5856 20.9247 11.5393 20.8865C11.4619 20.8223 11.3572 20.7352 11.3572 20.7352C11.4547 21.0753 11.823 21.4174 11.823 21.4174C11.823 21.4174 11.823 21.4174 11.823 21.417C12.8574 22.4865 15.4338 23.9608 15.5705 22.9836C15.5968 22.7963 15.5158 22.6111 15.3716 22.4857L15.3715 22.4853Z" fill="#FFFEF4"/>
<path d="M11.4915 20.0244C11.6343 20.2748 11.9917 20.4764 11.9917 20.4764C13.0163 21.1283 15.3381 21.8125 15.2571 21.0143C15.2418 20.8648 15.1468 20.7335 15.0122 20.6624C14.2615 20.2646 13.2669 20.4142 12.3897 20.3009C12.0767 20.2604 11.7732 20.1648 11.4915 20.0248L11.4915 20.0244Z" fill="#FFFEF4"/>
<path d="M13.3044 12.3998C13.2775 12.4355 13.2514 12.4713 13.225 12.5074C13.2616 12.4818 13.2899 12.4447 13.3044 12.3998Z" fill="#FFFEF4"/>
<path d="M8.57617 16.7046C8.97611 17.0786 9.48465 17.3625 10.1266 17.4751C9.48103 17.3443 8.97377 17.0658 8.57617 16.7046Z" fill="#FFFEF4"/>
<path d="M7.23115 13.3913C7.23033 13.702 7.28127 14.1532 7.41437 14.6449C7.2963 14.1869 7.24401 13.7477 7.23115 13.3913Z" fill="#FFFEF4"/>
<path d="M18.2333 17.9861C17.9932 18.4757 18.2138 19.2757 18.8029 19.3842C20.5294 19.462 19.1999 16.4948 18.2333 17.9861Z" fill="#FFFEF4"/>
<path d="M21.5028 18.9688C21.5005 18.952 21.4978 18.9349 21.4951 18.9182C21.4954 18.9222 21.4958 18.9261 21.4961 18.9296C21.4953 18.921 21.4946 18.9124 21.493 18.9042C21.4564 18.6731 21.3997 18.4366 21.3173 18.1984C21.1863 17.7899 20.9833 17.39 20.688 17.0299C20.661 16.9971 20.6273 16.9693 20.5888 16.9514C20.261 16.7976 19.8491 17.0109 19.9067 17.3564C19.9127 17.3925 19.9278 17.427 19.947 17.4585C20.8619 18.9502 19.4885 20.3371 18.0983 20.7246L17.9269 20.7747C17.3603 20.956 16.4476 21.2324 16.3266 21.8012C16.3236 21.8164 16.3213 21.8319 16.3207 21.8473C16.317 22.004 16.4172 22.1344 16.5558 22.2016C16.6459 22.2454 16.7488 22.2539 16.848 22.2383C17.2444 22.1763 17.6771 22.0305 18.11 21.8201C18.11 21.8201 18.8317 21.4593 19.0323 21.6957C19.2319 21.9309 18.6735 22.4155 18.6668 22.4208C18.1279 22.8864 17.3258 23.3706 17.1603 23.4569C16.7629 23.6788 16.3247 23.8161 15.8943 23.9645L15.8699 23.974C15.5554 24.1101 15.4257 24.3606 15.4318 24.6085C15.4402 24.9559 15.7289 25.2319 16.0788 25.2554C16.0856 25.256 16.0929 25.2562 16.0997 25.2568C16.3 25.2695 16.5006 25.2354 16.6863 25.1611C17.617 24.7883 18.31 24.3213 19.1191 23.673C20.2591 22.8471 21.2158 21.663 21.4811 20.3204C21.483 20.3104 21.4845 20.3 21.4856 20.2897C21.4852 20.2944 21.4848 20.2988 21.4844 20.3035C21.5675 19.8727 21.5799 19.4264 21.5036 18.9695L21.5028 18.9688Z" fill="#FFFEF4"/>
<path d="M22.9243 20.8885C23.0459 20.8889 23.1645 20.9202 23.2802 20.9823C23.3958 21.0437 23.4857 21.1318 23.5499 21.2465C23.6141 21.3605 23.6459 21.4795 23.6454 21.6034C23.645 21.726 23.6125 21.8438 23.5481 21.9568C23.4843 22.0697 23.3946 22.1574 23.2792 22.2199C23.1644 22.2817 23.0442 22.3124 22.9188 22.3119C22.7933 22.3114 22.6731 22.2799 22.5582 22.2172C22.4438 22.1538 22.3549 22.0655 22.2913 21.952C22.2278 21.8386 22.1962 21.7206 22.1967 21.5979C22.1972 21.474 22.23 21.3553 22.295 21.2417C22.3608 21.1275 22.4517 21.0401 22.5678 20.9796C22.6839 20.9184 22.8027 20.888 22.9243 20.8885ZM22.9239 21.0064C22.8221 21.006 22.7228 21.0314 22.6259 21.0826C22.5297 21.1332 22.4542 21.2062 22.3995 21.3016C22.3447 21.3963 22.3171 21.4953 22.3167 21.5984C22.3163 21.7009 22.3425 21.7994 22.3952 21.8939C22.4486 21.9878 22.5232 22.0614 22.619 22.1146C22.7148 22.1671 22.8149 22.1936 22.9192 22.194C23.0236 22.1944 23.1238 22.1687 23.22 22.1168C23.3163 22.0644 23.3911 21.9914 23.4446 21.8979C23.4981 21.8038 23.525 21.7054 23.5254 21.6029C23.5258 21.4998 23.499 21.4006 23.445 21.3055C23.3916 21.2097 23.3167 21.1361 23.2202 21.0848C23.1238 21.0329 23.025 21.0068 22.9239 21.0064ZM22.6022 21.9928L22.6052 21.2269L22.8731 21.2279C22.9646 21.2282 23.0308 21.2357 23.0717 21.2503C23.1126 21.2643 23.1452 21.289 23.1694 21.3243C23.1936 21.3596 23.2056 21.397 23.2054 21.4366C23.2052 21.4926 23.1845 21.5413 23.1434 21.5826C23.1029 21.624 23.0491 21.647 22.9818 21.6518C23.0093 21.6633 23.0313 21.6769 23.0479 21.6926C23.0792 21.7229 23.1174 21.7737 23.1625 21.8449L23.257 21.9953L23.1034 21.9947L23.0347 21.8737C22.9807 21.7785 22.9371 21.7189 22.9039 21.6949C22.8809 21.6772 22.8474 21.6683 22.8032 21.6681L22.7293 21.6679L22.728 21.9933L22.6022 21.9928ZM22.7297 21.5622L22.8823 21.5628C22.9553 21.5631 23.0049 21.5526 23.0313 21.5313C23.0582 21.51 23.0718 21.4817 23.0719 21.4465C23.072 21.4239 23.0657 21.4037 23.053 21.3861C23.0402 21.3678 23.0224 21.3542 22.9993 21.3453C22.977 21.3364 22.9351 21.3319 22.8736 21.3316L22.7306 21.3311L22.7297 21.5622Z" fill="#FFFEF4"/>
</g>
<defs>
<clipPath id="clip0_2265_2302">
<rect width="18.4291" height="18.4964" fill="white" transform="matrix(0.996335 -0.0855332 0.088579 0.996069 6 7.57336)"/>
</clipPath>
</defs>
</svg>
