<svg xmlns="http://www.w3.org/2000/svg" width="67.6" height="64" fill="none" overflow="visible" preserveAspectRatio="none" style="display:block" viewBox="0 0 67.6 64"><g clip-path="url(#a)"><path fill="#fffef4" d="M61.5 43.3h.2l-.2-.2V43h.2v-.2h.2v-.3h.2v-.2h.1V42h.1V42l.2-.1-.1-.2v-.2h.3-.1.1l.1-.1v-.1l-.1-.2h.3l-.2-.2h.3l-.1-.2h.3l-.2-.3h.4v-.2h.1l-.1-.3.3.1-.1-.3h.2v-.3l.2.1v-.4h.3l-.1-.2h.3l-.1-.3h.2v-.3h.3l-.2-.2h.2v-.2h.2l-.2-.2h.3v-.3h.1V37h.2l-.1-.2h.4l-.3-.2v-.1h.3v-.2h.1V36l-.1-.1h.3l-.1-.1v-.2h.2v-.1l-.1-.1h.1l-.2-.2h.1V35h.3-.2v-.5h.3l-.1-.2V34h.2V34l-.2-.1.1-.1v-.1h.2v-.1l-.2-.1.1-.1-.2-.1h.2V33h.2l-.1-.1-.2-.1h.2v-.1l-.2-.1.2-.1v-.2h-.1v-.2l.1-.2v-.1l-.1-.1h.1l-.1-.2h.2l-.2-.1.2-.1h-.2V31l.1-.1v-.2h-.1l-.1-.1v-.2h.1v-.2h-.2v-.8l.1-.1h-.1v-.2h-.2l.2-.2h-.3l.2-.1v-.1h-.1v-.2h.1l-.2-.1v-.2H66l-.1-.1v-.3l.1-.1-.3-.1.1-.2-.1-.1.1-.2h-.1v-.1h-.2l.3-.2h-.3l.2-.1h-.2v-.1l-.1-.2h.1l-.1-.1v-.1l-.1-.1h-.1V26l.1-.1h-.2v-.2H65v-.1l.1-.3H65v-.4h-.2l.2-.2h-.3v-.2h-.1v-.2l.1-.2h-.2l.1-.1h-.2l.1-.2v-.1h-.3l.1-.2h-.2l.1-.2v-.1L64 23V23H64v-.1h-.1v-.2h-.2l.2-.2h-.3v-.2h-.2l.1-.2h-.1l.1-.1h-.2l.1-.2h-.2v-.2h-.2l-.1-.1v-.2l.1-.2-.3.1v-.1l.1-.2h-.3l.1-.2v-.2H62v-.1l.1-.2H62L62 20h-.3l.1-.3h-.4v-.2h-.1v-.2H61V19v.1h-.2V19h-.2v-.2h-.3v-.1H60v-.2h-.1v-.1h-.2v-.1h-.1l-.1.1h-.1v-.3l-.2.1v-.1H59v.2l-.1-.2h-.4l-.1.2-.2-.2-.1.1v.1l-.2-.3v.1h-.1l-.1.1v.1h-.2.2l-.1.2v.2h.1l-.1.2h.1v.3h.2v.1l-.1.1v.2l.1.1h.1l-.1.2h.2l-.3.2h.3l-.1.1-.1.2.2.1-.2.1.1.2v.1l.2.1-.3.2v.1l.1.1v.2h-.1v.2l.2.2v.1l-.3.1.2.2h-.3l.2.1v.6l-.2.1v.1l.1.1v.1l-.3.1.2.1h-.2l.2.2h-.1v.1h-.2v.3l.1.1v.1h-.2l.2.2h-.3l.2.2H57l.2.2H57v.1l-.2.1.2.3h-.2v.2h-.3l.1.1v.4l-.1.1h-.2v.2l.1.1h-.2v.6H56v.1H56l.1.2h-.2l.2.2h-.3v.3h-.2v.3h-.1l-.1.1.2.2h-.2v.1H55l.2.2H55v.3h-.2v.1h-.1v.1h-.2l.2.3h-.1v.2h-.3v.3h-.1l.1.1-.1.2v.2H54l.1.2v.2H54l.2.1h-.3l.1.2v.1h-.2v.3l.1.2v.2h-.3l.2.2h-.2v.1l.2.2h-.3v.2l-.1.1.1.1-.1.2.1.1v.3h-.2v.1l.2.1v.1l-.3.1.2.1-.2.1.2.1v.1h-.2v.1l.2.1-.1.1H53v.1l.2.1-.3.1v.4l.2.2-.2.1v.1l.2.1h-.2l.1.2v.1H53l.2.2h-.3l.2.1v.2H53v.2h-.1l.2.1v.1h-.2l.2.2-.1.1h-.2l.1.2v.2l.1.1-.1.2-.1.1.2.1h-.2l.1.2h.1v.1h-.3l.1.2v.1l.2.1v.1h-.2v.2h.1v.1l-.1.1.1.1h-.1v.3l.1.1h-.1l-.1.1v.1l.1.1v.2h-.2l.1.1v.1l-.2.1.1.1v.6h-.2l.2.2h-.2v.4H52v.2H52v.1l.2.2H52v.2H52v.1h-.1l.1.2v.1h-.2l.1.2h-.2l.2.2h-.2l.1.1h-.1v.2h-.3l.2.2h-.2v.2h-.1v.3l-.2.1h-.2l.2.3h-.3v.5h-.2v.3h-.3v.2H50v.4h-.4l.2.3h-.3v.2h-.1v.1h-.2v.5l-.1.1h-.3v.3h-.2v.1h-.2v.4H48l.1.2H48v.1h-.1l.1.3h-.2v.2h-.4v.4l-.2-.1.1.2-.2-.1v.1h-.2v.4h-.4v.4h-.2l-.1.1h-.3v.2h-.2v.2h-.2v.1h-.1v.2H45v.1l-.2-.2v.3l-.2-.2v.5h-.2l-.2-.2v.3l-.2-.2v.4L44 52v.2l-.3-.1-.1.2v.1h-.3v.3l-.3-.2v.1h-.2v.2l-.2-.2v.3h-.4v.1L42 53v.3h-.6v.1h-.2v.1h-.3v.1l-.1.1-.2-.2v.1l-.1-.1v.2h-.1v.1l-.2-.2-.1.2H40v.1h-.2v-.2l-.1.2-.1-.2v.2h-.3l-.2.2V54h-.3l-.1.2-.1-.1h-.1l-.1.1h-.1l-.1-.1v.1h-.5l-.1-.1v.2h-.2l-.1-.2v.3L37 54v.3l-.1-.2h-.1v.1l-.1.2-.1-.3-.1.1-.1-.1-.2.1h-.1v.2l-.2-.1-.1.1h-.1l-.1-.1h-.2v.2l-.1-.3v.2h-.2v-.1H35v.2l-.2-.2v.2l-.1-.1h-.3v-.2h-.1l-.1.3v-.1l-.2.2v-.1l-.1-.2-.1.3-.2-.2H33v.2l-.1-.1h-.1v-.1h-.4v-.1h-.1l-.1.2-.1-.2-.1.1h-.2v-.2l-.1.2h-.2l-.1-.2h-.1l-.1.2H31V54h-.2l-.2.2h-.1l-.1-.1h-.2V54l-.2.2V54l-.1.1h-.1l-.1.1h-.2V54h-.1l-.1-.2h-.2l-.1.1h-.3l-.2-.1v-.1h-.2v.3l-.2-.1H28v.1l-.2-.2h-.4v.1h-.1l-.1.1H27v.2h-.4v.2l-.3-.1.1.3h-.4v.3l-.2-.1v.2l-.1-.1v.2h-.1v.3h-.2v.1h-.2v.2H25v.3h-.2v.3h-.2v.1h-.2v.2H24v.2l-.1.2h-.3v.3h-.2v.2l-.1-.1v.2H23v.1h-.3v.2l-.2-.1v.2l-.2-.1v.3h-.2v.2H22l-.3-.2.1.3-.2-.2h-.1v.2h-.1v.2l-.3-.2h.2v.3l.2-.1v.4h.2v.1h.2v.1l.2-.1-.1.2.1.1.1.2.2-.2v.3l.2-.1v.2l.1-.1v.1h.1v.2l.1-.1.1.2.2-.2v.2h.2v.2l.1-.1h.1l.1.1h.2v.2h.2v.2h.7v.3h.3v.1l.2-.1v.1l.1-.1v.3h.1l.2-.2v.3h.6v.2h.3v.2l.2-.2v.1l.1.1h.3v.2l.2-.2v.2h.2v.1l.2-.3v.2h.4v.1h.2v.2l.2-.2h.2v.3h.5v.2l.2-.2v.2h.1l.2-.2v.3h.3l.1-.2v.2l.1.1.1-.1h.2v.2h.1l.1-.2.1.1v.1h.1l.2-.2v.3h.5v.1h.1l.1-.2.1.2h.4l.1-.1.1.2h.1l.1-.2v.3h.3l.1-.2h.1v.2h.1l.1-.1h.1v.1h.2l.1.1.1-.1h.1v.2h.1l.1-.1.2-.1v.2h.1l.1-.1h.1l.1.2.2-.3v.3l.1-.1.1.1.1-.2.1.1.1-.1.1.3h.1l.1-.2.1.2.1-.3v.3h.1l.1-.2h.2l.1.1h.2v.1l.2-.2h.1l.1.2.1-.2v.3l.1-.1h.3v-.2l.2.2h.1l.1-.1h.2l.1.2.1-.3h.2l.1.3.1-.1h.2v-.2l.1.2.1-.1v-.1l.2.3v-.1l.1-.2h.4l.1.2v-.1h.2v-.1l.1.2h.1v-.2h.2l.1.2h.2v-.2l.2.2.1-.2h.1l.1.1h.2v-.3l.2.3v-.2h.2l.1.1v-.1h.3v-.1l.2.2v-.2h.1l.1-.1.1.2h.1v-.2h.2l.1.2v-.3h.1l.2.2v-.1l.1-.2h.2l.2.2V63h.1l.1.1V63l.2.1h.2V63v.1-.2h.2l.1.3v-.4l.2.2v-.2l.2.2v-.3l.2.2v-.3l.2.1v-.3l.2.3-.1-.3v-.1l.3.2-.1-.3.3.1-.1-.3h.3v-.4h.2l-.1-.2h.3l-.2-.2h.3v-.4h.2v-.4h.3l-.2-.2h.3l-.1-.2h.4l-.2-.3v-.1h.2l.1-.2h.2v-.1h.2V59l.1.1h.1v-.4l.3.1v-.3l.2.2v-.2h.2v-.2l.2.2v-.3h.4V58l.2.2V58l.1.1v-.3l.2.2v-.2h.2v-.2l.2.2h.2v-.3l.1.2v-.2h.1l.1.1.1-.2.2.2v-.2h.3v-.2h.1l.2.2V57h.3l.1.1h.2v-.1l.1-.1h.1l.1.1.1-.2h.2v-.2l.2.1.1.1v-.1h.1v-.2l.2.2v-.2h.2v-.1l.2.1v-.2l.2.3v-.1h.2v-.1h.1v-.3h.1l.1.1v-.2h.3v-.2l.1.1h.2v-.2l.2.1h.1v-.4l.3.2-.2-.3.3.2v-.4h.1V55l.2.1V55h.3v-.2h.1v-.1l.1-.2h.1v-.1h.3l-.1-.2h.2l-.2-.2h.4l-.2-.3h.2v-.3h.3l-.1-.2V53h.3l-.1-.2v-.2h.3v-.1l-.2-.2h.2l-.1-.2h.2l-.1-.1.1-.1h.2l-.2-.2h.2l-.1-.2v-.1h.3l-.2-.2h.3l-.1-.2.1-.1v-.2l-.1-.1h.2V50h.1v-.2h.2l-.1-.2h.2v-.1l-.2-.1v-.2h.2V49l-.1-.1h.2v-.5h.1l-.1-.1h.2L60 48h.2l-.2-.2v-.1h.3v-.1l-.2-.2h.1v-.6h.3l-.1-.2v-.2h-.1v-.2h.2l-.1-.2h.2V46l-.1-.2h.3l-.2-.2h.2l-.1-.2v-.2h.1l.1-.1v-.2h.1l-.2-.2h.2v-.4h.2l-.2-.1V44h.2l-.1-.2h.2v-.2h.2v-.1z"/><path fill="#fffef4" d="M48.5 26.8zv.1h.2v.2h.1v.2l.2-.2v.1h.1v.2l.2-.1v.4h.1l.2-.1h.1v.3l.2-.2h.1v.1h.2v.2l.2-.1.1.1.1-.1v.1l.2-.2v.2h.1v-.2h.2v.2l.1-.1.1.1v-.3l.2.2v-.2h.5v-.1h.1v-.1h.2v-.3l.2.2.1-.1V27l.2.1-.1-.2h.2V27h.3v-.5l.3.1.1-.1v-.2l.1-.1h.1V26l.1-.1-.1-.2h.2v-.2h.2l-.2-.2h.3l-.3-.2h.1l.1-.1h.2l-.1-.2h.2v-.3h-.1l.1-.1h.2v-.2l-.1-.1h.2V24h.1v-.2h.2v-.1l-.3-.2h.3l-.1-.2h.2v-.1l.1-.1-.1-.2v-.1l.2-.1v-.5h.2l-.2-.2h.2v-.1l-.1-.1h.2v-.6h.2l-.2-.2h.2l-.2-.2h.3l-.2-.1v-.1h.1v-.3h.1l.1-.1V20L56 20h.1v-.3h.2l-.2-.2v-.2h.1V19h.2V19l-.3-.1h.2l-.1-.2h.2v-.1l-.2-.1.2-.1v-.1l-.1-.1.1-.1-.2-.1h.3l-.2-.1v-.1l.1-.1v-.4h.1l-.2-.2v-.6l.2-.2h-.1v-.1l-.1-.1v-.2l-.1-.1.2-.1v-.3H56l.2-.2h-.2l.2-.1-.2-.1.2-.2H56v-.5H56V14h.1l.1-.2v-.1H56v-.2H56v-.3h-.1v-.4h.2l-.2-.1v-.2h-.1l.2-.2h-.2l.1-.2V12l-.1-.1v-.2h-.2l.2-.2h-.2v-.1h-.2l.3-.2v-.1h-.3V11l.2-.2h-.1l-.2-.1v-.5H55l.1-.2v-.2h-.2l.2-.2h-.2v-.1h-.2v-.1l.1-.1v-.2h-.3l.1-.2h-.1v-.2h-.1v-.3h-.1l.1-.2h-.3V8H54l.2-.2v-.1h-.2v-.2h-.1v-.1h-.1V7h-.3l.2-.2h-.4v-.4h-.1l.1-.2H53V6h-.2v-.3h-.2v-.2h-.2v-.3l-.2.1v-.5l-.3.1v-.4l-.1-.1-.2.1v-.2l-.2.2.1-.3-.1-.1-.2.1v-.1H51V4h-.1v-.2l-.2.1v-.2l-.2.2v-.1l-.1-.1v-.2h-.5v-.3l-.2.1v-.2h-.2l-.1-.1h-.1v-.2l-.1.1H49v-.1l-.1-.1h-.4v-.3l-.1.1-.2-.1h-.5v-.1h-.2V2l-.2.2V2l-.2.2H47V2h-.4v-.2h-.1l-.1.1-.1.1v-.2H46l-.2.2v-.2h-.2V2l-.1-.1-.1-.2h-.6v.1h-.2l-.2-.1v.2l-.1-.1h-.1v-.2l-.2.2v-.2L44 2l-.1-.3-.2.2-.1-.3-.1.3h-.1v-.1H43l-.2.1h-.2v-.1l-.2.1v-.3l-.1.1h-.1v.1l-.1.1H42l-.1-.1h-.1v-.2l-.2.2v-.2l-.1.3h-.3l-.1-.2H41l-.2.2v-.2l-.1.2-.1.1v-.2h-.2v.1h-.6l-.2.1v-.1h-.1l-.1-.1v.1H39V2l-.2-.2V2h-.1l-.1-.3-.1.2v-.2h-.2V2h-.1l-.1-.3V2l-.2.1V2h-.2l-.2-.2h-.1l-.1.2-.2-.1-.1-.1h-.1V2l-.2-.3-.1.2h-.1v-.2l-.2.2-.1-.2-.1.2H36v-.2l-.2.2h-.1v-.2l-.2.3v-.1h-.1l-.1-.1-.1-.2-.2.3h-.1v-.2l-.2.1h-.3l-.1-.3-.1.2H34v-.1h-.2v-.1l-.1.2v-.3l-.2.2v-.1h-.1v-.1h-.6v-.1h-.1l-.1.1-.1-.3-.1.2v-.2l-.2.2V1l-.1.2H32v-.1h-.2l-.1-.1V.9h-.1l-.2.1V.7l-.1.3V.7h-.1l-.1.1V.6H31l-.2.2V.6l-.1.2-.1-.2-.2.2V.6h-.1V.6l-.1.1H30V.5L30 .4l-.1.1h-.1V.3h-.2l-.2.2V.4l-.1.1V.2l-.2.2V.3H29V.3l-.2.2V.3h-.2V0h-.1l-.1.2-.1-.2-.2.2V.2L28 .1l-.1.2V0h-.2l-.1.1-.1.2V0h-.3l-.1.2h-.5l-.2-.1-.1.2-.1-.1V.1H26v.2l-.1-.1-.1-.1-.1.2-.1-.2H25v.2h-.5l-.1-.2v.2h-.3v.1H24l-.1.1-.1-.2v.2h-.2l-.1.1-.1-.1h-.1l-.1.1-.1-.2v.2l-.1.1-.2-.2v.2h-.3V.5l-.1.2h-.1l-.2-.1H22v.2h-.2V1h-.2l-.2-.2v.3H21l-.1.2-.2-.2v.2h-.2v.2l-.2-.1v.2h-.5v.2l-.2-.1h-.2V2h-.2v-.2H19v.3l-.2-.1v.2h-.2v.1l-.2-.2v.3h-.2v.1l-.2-.1v.2l-.2-.1v.2h-.3V3l-.2-.2V3l-.1-.1H17V3h-.2v.3l-.3-.2v.1h-.1v.3l-.3-.2v.4h-.3V4h-.3v.2h-.2v.1h-.2v.3h-.3v.2l-.3-.1.2.3-.3-.2.1.3-.2-.2v.2h-.2v.3H14v.2l-.2-.1v.1l.1.2-.3-.2.2.3-.3-.1v.1h-.1v.3h-.2v.3H13v.2h-.2V7h-.4v.3l-.1.1h-.1v.2h-.1v.2H12V8l.1.1h-.3v.4h-.2l.1.1h-.1v.1h-.1V9h-.3l.3.2h-.3l.2.2v.1h-.2v.1H11v.1l.1.2H11h.1v.1h-.2l.2.2h-.2v.5h-.1l-.2.1v.1l.2.2h-.2l.2.2h-.2v.3l-.1.1.1.2-.2.1v.3l.1.2h-.2v.2h-.1l.1.1.2.1H10l.1.2v.4l-.1.1.2.1h-.2v.4h.2l-.2.2h.2l-.2.1.2.1-.2.1h.2v.2l-.2.1.1.1h.2l-.3.2h.2v.2h-.1v.4h.2l-.1.2h.2l.2.1V16l.1.1V16l.2.2V16l.1-.1.2.2v-.3h.1l.2.2v-.3h.1l.2.2h.4v-.3h.2v-.1l.2.3v-.3l.2.1v-.2l.2.2v-.1h.2v-.2l.1.2h.1v-.2h.6v-.2l.2.2V15h.2l.1.1V15h.2l.1-.2.1.2.2-.1v-.1h.1l.2.2v-.1h.2v-.1h.3l.1-.1h.3v-.1l.1.1v-.2h.4v-.2l.3.3v-.2l.1-.2h.1l.1.2h.3v-.2h.2l.1-.1V14l.2.2h.2l.1-.1v-.3l.2.2h.1V14h.2v-.2h.6v-.1l.1.1h.1v-.2h.6v-.1h.2l.1.2v-.3l.2.2v-.3h.3v.1l.1-.1.2.2v-.1h.1V13h.1l.1.1h.3V13h.1l.1.1h.2l.1-.1v-.2l.2.2V13h.3v-.1h.4v-.2l.1.2h.2v-.1h.4v-.2h.2l.1.1.1-.1.1-.1.1.2v-.2h.1l.2.1v-.3l.2.3v-.1h.2v-.1l.1.2h.1v-.1h.2v-.2h.2v.1l.1-.1.1.1h.1V12h.2l.1.1v-.1l.2.1V12h.3V12h.4l.2.1v-.2h.2v.2h.4l.1-.1h.3l.1-.1h.4l.1-.2.1.2h.1v-.2h.1l.1.2h.1l.2-.2.1.2.1-.2v.2l.2-.3v.3l.1-.3.2.2v-.1l.2.2v-.2h.3l.1-.2.1.2v-.1l.2.2v-.1l.1.1.1-.2h.2v-.1h.1l.1.3.2-.3v.1h.1l.1.1v-.1l.2.2v-.3h.1l.1.2v-.2l.2.2v-.2h.3l.2.1v.2l.1-.1.1-.2.2.2h.1l.1-.1h.4v.1h.2l.1.1.1-.1.1.1.1-.1.1-.1h.1v.3h.5l.2-.2v.3h.1l.2-.2.1.1v.2l.2-.1.2-.2v.2h.4v.1l.1-.1v.2l.1-.1h.2v.2l.2-.1.1-.1v.2h.2v.2l.2-.2h.2v.2h.2v.1l.2-.1v.1h.2v.1l.1-.1v.1h.4v.3l.2-.2v.3h.2l.1-.1v.2l.2-.2v.4l.2-.1h.1v.1l.2-.2v.3h.3v.2h.4l-.1.3.2-.2v.2l.2-.2-.1.3h.3v.2h.2v.1h.2v.3l.3-.1v.1h.1v.3h.4v.3h.1l.1.1v.1h.2l-.1.2h.2v.2h.2l.2.1v.1l-.1.2h.3l-.2.2.3-.1v.3h.2v.1l.1.1v.2h.1l-.1.2.3-.1-.2.2v.1h.2v.2h.2v.4h.2v.2h.2l-.2.2h.3v.3l-.1.1v.2h.2v.1h.1v.4h.1v.2h.2l-.1.2h-.1.2l.1.1-.2.2h.2v.2l-.1.2h.3l-.3.1h.1l.1.1-.2.2h.4l-.2.1v.1h.1v.2l.1.1.1.2v.2H47v.4h.2l-.2.1h.2v.2l.2.1-.2.1v.2l.2.1-.2.1v.2h.2l-.1.1h.2v.2h-.1v.1l.1.1v.1l-.1.2v.1h.2l-.2.2h.3l-.2.2h.2l-.2.1v.1h.3v.4l-.1.1h.2v.2h.1l-.2.2h.1l.1.1-.1.2h.3v.1l-.2.2h.3l-.1.3h.1v.1zM2.2 37.1h.1l.2.1-.2.1v.2l.2.1-.2.1v.1l.3.1-.1.1-.1.1h.2v.2l-.2.2h.2v.1l-.1.2-.1.1.2.1v.3l-.1.1h-.1l.1.2.2.1-.2.1.1.2-.2.1.2.1h-.2l.2.2v.1l-.2.1.2.1h-.1v.1l-.1.1v.1l.2.1h-.3l.2.2h-.1l.1.1h-.2v.2l.2.1-.2.1.2.1v.2h-.2l.1.1v.3h-.1v.2h.2l-.1.2.1.1-.1.1.2.1-.2.1.1.1h.2l-.2.2v.1l.1.1-.1.1v.2h.3l-.1.2v.1h.1v.1l.1.1v.1l-.1.2v.1l.2.1v.2h.2l-.1.2v.1h.2l-.2.2h.3v.2l-.1.1h.2l.1.1v.3l-.1.1h.2l.2.1-.1.1v.1H4l-.2.2H4v.2h.2v.4h.1v.2h.1v.2h.2l-.1.3h.3l-.2.2h.2v.1H5l-.1.2v.2H5v.1h.3v.1l-.1.2h.2v.2h.1v.3h.3v.2H6l-.2.2H6v.1l.1.1h.2v.2h.2v.2l.1.2v.1H7v.1h.2v.2h.1v.1h.3v.2h.2l-.1.2v.2l.2-.1v.2H8l.1-.1v.2l.2-.1-.1.3.1-.1h.3v.2h.2v.3L9 53h.1v.3l.2-.1v.2-.1h.3v.3h.4v.2l.2-.2v.1h.2l.1.2.1.1h.1l.2-.1v.2l.2-.1h.1v.2h.2v.2h.2v.1h.2v-.1h.2v.1h.1v.2l.2-.2v.2l.1.1h.1l.1-.1.2-.1v.1l.1.2h.1l.2-.1h.1v.2l.2-.1h.2v.1l.1.1h.1l.1-.2v.3l.2-.3v.3h.4V55l.1.2.1-.1.1.1h.3v.2h.1l.1-.3.1.2v.2l.2-.3v.2h.1l.1-.1v.1l.1.1h.1l.1-.2h.1v.3h.1l.2-.2v.2l.1-.2.1.2.1-.2.1.2h.1l.2-.1h.2v.1l.2-.2v.2l.1-.2v.3h.2v-.2l.1.2.1-.1v.1h.3l.1-.1v.1l.2-.2.1.2h.7v-.2l.1.2.1.1.1-.1v.1l.2-.3v.3l.1-.2h.1v.2h.2l.1-.3v.4l.2-.3.1.2.1-.2h.5v.2h.4l.2-.2v.1-.3h.2V55l-.2-.2h.1v-.1h.3v-.2h-.1v-.2l-.2-.1h.2l.1-.2-.1-.1-.2-.1.2-.1v-.2l-.2-.1v-.2l.2-.2H22v-.2h.2l-.2-.1v-.1l.1-.2-.2-.1v-.1h-.2l.2-.2h-.2v-.2h-.2v-.1l.1-.2h-.2v-.1h-.2v-.3l-.2.1.1-.2h-.3v-.2h-.1v-.2h-.4v-.2h-.2v-.1h-.3v-.2l-.3.1V50h-.1v-.1H19v-.2h-.4v-.2h-.4v-.2H18V49h-.4v-.3h-.2v-.2l-.3.1H17l-.1-.2-.1-.1v-.2l-.2.1h-.1v-.4h-.2v-.2l-.3.1v-.2H16v-.3h-.4V47h-.2v-.3H15v-.4h-.3V46h-.1V46h-.2l.1-.1h-.3l.1-.2h-.1l-.1-.1v-.2H14V45h-.2.1l-.1-.1v-.2h-.2l.1-.2v-.1h-.2l.1-.2h-.1v-.3h-.3v-.1l.2-.1H13v-.2h.2l-.1-.1H13l.1-.2h.1L13 43v-.4l.2-.1v-.1H13l.2-.1-.2-.2V42l.2-.1v-.1l-.2-.2h.2v-.2h.1v-.1l-.1-.2h.2l-.1-.1.1-.1v-.2h.2l-.2-.2h.2l-.1-.1h.2l-.2-.2h.3l-.2-.1V40h.3l-.2-.2h.2v-.2h.2V39H14h.3V39l-.2-.2v-.1h.1l.1-.1.1-.1-.2-.1h.3l-.2-.2V38h.1v-.2h.1l-.1-.1-.1-.2.1-.1v-.2l.1-.2h-.2l.3-.1-.2-.1.2-.2h-.2l.2-.1h-.3v-.2h.1l.1-.1v-.3l-.1-.1v-.4l-.1-.1.1-.1-.2-.1v-.3l.2-.2h-.3l.1-.2v-.1l.1-.1V34H14l.2-.1h-.2l.3-.2-.3-.1.1-.1H14l.1-.2.2-.2-.1-.1v-.2H14l-.1-.1.1-.1h-.3l.3-.2v-.1h-.3v-.1l.1-.1V32h-.2l.3-.2h-.4l.3-.2v-.1h-.2l.1-.2-.1-.1v-.1l-.1-.1h-.2l.2-.2-.2-.1.1-.1.1-.2h-.2v-.1l.1-.1v-.4h-.3v-.1l.2-.2h-.2l.2-.1h-.2l.1-.2-.2-.1.2-.1-.2-.2h.2l-.3-.1.2-.1v-.1l-.1-.1h-.2l.1-.2v-.5l-.1-.1v-.1l.2-.1-.3-.1.3-.2h-.2l-.1-.2h.2v-.2l-.2-.1v-.2h.2l-.1-.1-.1-.1h.2l-.3-.2h.2v-.4h.1l-.1-.1v-.3h.1l-.2-.1h.2v-.2h-.2l.2-.1v-.6h.1l.1-.1V24l-.2-.1h.2v-.2H13h.2l-.2-.2h.3l-.2-.2h.2V23h.2-.1l-.1-.2h.2v-.2h.1v-.2h.2l-.1-.1v-.1h.1V22l-.1-.1h.3l-.1-.2h.1l-.1-.3.1-.1h.1l.1-.1V21h.2l-.1-.2h.2l-.2-.2.1-.1h.2v-.3h.2v-.5h-.1.3v-.1l-.2-.2.1-.1h.2L15 19h.1V19h.1l.1-.1v-.1l-.2-.2.3-.1v-.2l-.2-.1h.2v-.4h-.2v.3H15V18l-.1.1-.2-.3v.4h-.4V18l-.1.1v.2H14V18l-.2.1v.1h-.4v.2l-.2-.1v.1H13v.1l-.2-.1h-.1v.3l-.1-.1h-.2l-.1.2-.2-.2v.3H12l-.2-.2v.3-.1h-.1l-.2-.1v.2H11v.3l-.2-.2h-.1l-.1.2h-.1v.2l-.1-.1v.1l-.1.1-.2-.2v.3l-.1-.2v.2h-.7v.2l-.2-.2v.4l-.1-.3v.2h-.2v.1h-.3v.2l-.2-.1v.2H8v.1H8l-.2-.2v.3l-.1-.2v.1h-.2v.2h-.2v.2h-.8v.2h-.1v.2H6v.1h-.2v.2l-.2-.1v.2h-.2v.1h-.2l.1.2h-.1l-.2-.1.1.2-.1.1-.2-.1-.1.1h-.2v.3l-.2-.2v.3l-.1.1h-.5v.5l-.2-.2h-.1v.4h-.3l.1.2-.3-.1.1.2H3v.3h-.2v.2h-.2v.3h-.1l-.2-.1v.3H2l.1.2h-.3l.1.2h-.2l.1.2v.1h-.2v.1h-.1l.1.2h-.2v.1h-.2l.2.2v.2h-.2v.1H1l.1.2H1v.1l.1.2H.8l.2.1H.8v.2H.7v.2H.6l.2.2-.1.1H.6l-.2.1.2.1H.5l-.2.1.3.2H.4v.2H.3v.3l.1.1H.1l.1.2v.4h.1v.1l-.3.1.3.1v.1L0 30l.1.1v.1l.1.1-.3.1v.2h.2l.1.2H.1l.2.1-.2.1h.1v.2h.1l-.1.1v.3l-.1.1v.1h.2v.2H.3v.1l.1.1v.1h.1l-.1.2v.1h.1v.2l.1.1v.3l-.1.1v.1h.2v.4h.2l.1.1v.1l-.2.2H1v.3h.3l-.2.2h.1l.1.1v.3l.2.1-.1.1h.3l-.2.3.3-.1v.3H2l-.1.2v.1h.2l-.2.2h.2v.1l.2.1-.3.2h.3v.2h-.2l.2.1z"/><path fill="#fffef4" d="M31.9 52.2v.3l.1-.2h.3v.1l.2.1.1-.2h.2v.2h.2v-.2l.1.2v-.1l.2-.1v.2l.1-.1h.2v-.1l.2.1v-.1l.1.3.1-.1.1-.2.1.2h.1v-.2l.2.2v-.2l.1-.1.1.1h.4l.1.1v-.1h.2l.1-.2.1.2.1-.1.1-.2.2.3v-.2h.1l.1-.1.1.2h.3V52l.1-.1h.1l.2.1v-.1h.2v-.2l.1.2h.3v-.3l.2.3v-.2h.2l.1.1v-.1h.2v-.2l.1.1h.1v-.1l.1-.1h.1l.1.2v-.1l.1-.1v-.1h.2l.1.1.1-.1h.1V51h.2l.1.2V51l.1-.1.2.2v-.3h.1l.2.2v-.3h.2l.2.1v-.1h.2v-.2h.5v-.1h.2l.1-.1h.1v-.3h.2l.1.2V50l.1.1.1-.2h.2v-.1h.2l.1-.1v-.1l.3.2v-.3.1-.1h.2v-.2l.2.2v-.3l.1.1h.2l-.1-.2.1.1V49l.2.1h.2v-.3h.3v-.2h.2v-.2l.1.1h.1v-.2h.3v-.2l.2.2V48h.2v-.2l.1.1h.1l-.1-.3.2.2v-.2h.1v-.2.1h.2v-.2h.2V47h.1v-.3h.2v-.2h.2v-.3h.3V46h.1V46h.3v-.3h.2l-.1-.1h.2l-.2-.3v-.1h.1V45h.2v-.2l.3.1-.2-.3h.3l-.1-.2v-.1h.2v-.2h.2V44h.1l-.1-.1h.2v-.2h.2l-.2-.2h.1v-.1h.2L49 43h.3v-.3h.2v-.1l-.1-.2h.2l-.1-.2v-.2h.3V42l-.1-.2v-.1h.3v-.2l-.2-.2h.2L50 41h.3v-.2l-.1-.2h.2l-.1-.1h.2v-.2l-.1-.1.1-.1V40l-.1-.1h.1v-.2l.1-.1v-.1h.1l-.1-.2h-.1l.2-.1-.1-.1h.2l-.1-.2h-.2v-.1h.4l-.2-.2.1-.1-.2-.1.1-.1h.1v-.2h.1V38l-.1-.1h.1l-.2-.2v-.1l.1-.1h.1v-.4h-.2l.1-.2h-.1l.1-.1-.1-.1.2-.2h-.3l.1-.1h-.1l.2-.2-.1-.1V36h-.2l.3-.2h-.3v-.2l.1-.2h-.2v-.2h-.1v-.5h-.3v-.4h-.2l.1-.3-.2.1v-.3l-.1-.1h-.2v-.2H49v-.1H49v-.2l-.2.1v-.2l-.2.1V33l-.1-.1h-.2v-.2l-.2.2.1-.3-.2.1v-.2l-.2.1v-.2l-.2.2h-.1v-.2h-.1v-.2h-.1l-.2.2v-.2l-.1.1v-.2l-.2.2v-.3l-.2.3v-.1l-.1-.1h-.1v.1l-.2-.1v.1H46l.2.2H46v.1h-.2v.2h-.2v.1l.1.3h-.4v.4l-.3-.2v.2l.2.2H45l-.2-.1.1.3h-.3v.2l-.1.1v.1h-.2v.1h-.2l.1.1h-.1l-.2.1v.1h-.1v.2h-.3l.1.2h-.1l-.1.1h-.2v.2l-.2-.1v.1h-.2v.2h-.1v.2h-.2l.1.2h-.2v.1l-.2-.1v.2h-.3v.1h-.1v.2h-.1v.1h-.3v.2h-.2v.2L41 37v.3l-.2-.2v.3h-.1l-.1.2-.2-.2v.2h-.2v.2h-.3l-.1.1v.1l-.1.1-.2-.1v.2l-.1-.1v.3l-.2-.2v.2l-.2-.1v.3H39v.1h-.4v.2H38l-.1.2v.2l-.2-.2h-.1v.3l-.2-.2.1.3-.2-.2v.1h-.2v.2l-.1.2-.2-.2v.3l-.2-.2v.2h-.1v.2l-.2-.2v.2h-.5v.3h-.2l-.1.2h-.1l-.2-.2v.3h-.1l-.2-.2v.2h-.1v.1h-.4v.3l-.2-.2v.2L34 41v.1h-.2v.2h-.2v.1l-.2-.1h-.2v.2h-.1l-.1.1h-.2v.2l-.1-.1h-.1v.1h-.1l-.2-.2v.2h-.2v.2h-.3l-.1-.1h-.1v.1h-.2v.1h-.2l-.1-.1-.1.2-.2.1h-.2l-.1-.2v.2l-.2-.2v.1l-.1.2h-.1L30 42v.2h-.1l-.1-.2-.2.2h-.1l-.1.1v-.2h-.2l-.2.2v-.2h-.2v-.2h-.1l-.2.1v.1l-.1-.3-.1.1-.1-.1h-.3l-.2.2v-.2h-.2l-.1.1v-.2h-.2l-.1.1v-.2l-.2.1v-.2.1h-.2v-.2l-.1.2v-.1h-.3v-.2H26v-.1l-.1.2h-.1V41h-.1l-.1.1h-.3V41l-.1.1v-.2l-.2.2H25l-.1-.3-.1.2h-.1l-.1-.3-.2.2v-.2l-.2.1v-.2H24v.1l-.1-.1h-.6v-.1h-.4v-.3l-.2.3v-.3h-.2l-.2.2V40v.1h-.4V40l-.2.2V40h-.3l-.1-.1-.1.3V40l-.2-.1h-.2l-.1.2v-.3h-.2v.3l-.1-.2-.1.2-.2-.3-.1.2h-.1l-.2-.2-.1.1h-.1v.1l-.2-.2v.2l-.1.1-.1-.2h-.3v.3l-.2-.2v.2h-.4l-.1.1v.2h-.2v.3h-.2l-.1.1.1.2v.1h-.2v.2l.1.2-.1.1h-.1v.2l.1.1v.1h-.2v.2h.1v.2l-.1.1h.1v.1l.1.1v.3h-.2l.3.1-.2.1h.2v.2h.1v.1l-.2.1v.2h.4l-.2.2h.2v.1l-.1.2h.3l-.2.2h.2l-.2.1v.1h.3l-.1.1h.2v.4h.2v.3h.3v.2h.2l-.1.1h.2v.4h.2v.3h.4v.1l.1.1v.2h.3l-.1.2.2-.1h.1v.3h.2v.2h.1v.2h.3v.2l.2-.1v.2l.2-.1v.2h.3v.2h.2v.2l.1.1.2-.1v.1h.1l.1.1h.2v.1h.2l-.1.2h.4v.3h.3v.1h.5l.1.1v.3h.1l.2-.1v.2l.1-.2h.2v.3h.2v.1l.2-.1v.3l.2-.3.1.1v.3l.2-.1h.3v.3l.2-.2v.3l.1-.2h.1v.1h.1v.2h.3v.1h.1l.2-.1v.1h.3v.1h.2v.1h.2v.3l.2-.2v.1h.4v.2h.2l.1-.1v.2l.2-.2v.3l.2-.2v.1h.2v.1h.1v.2l.3-.3v.2h.2v.2l.2-.1h.1l.1.1v.1h.2l.1-.1v.2h.2V52h.2v.1h.1v.2l.2-.1h.2l.1-.1v.2l.1-.2h.1l.1.1v.1h.2zM34 20.8v-.4l-.1-.1V20h-.2v-.2h.1v-.2l.1-.1v-.1h-.2v-.2l-.1-.1h-.2l.2-.2v-.1h-.3l.2-.2h-.2l.2-.3h-.3v-.1h-.1v-.1H33v-.3h-.2v-.3h-.2v-.3h-.2v-.4l-.2.2.1-.3-.2.1v-.3H32l.1-.1h-.3v-.1h-.2l.1-.2V16h-.3v-.2h-.1v-.3h-.5v-.2l-.2.1V15h-.2l-.2.2v-.3h-.2v-.1h-.2v-.2h-.3v-.1H29v-.2h-.1l-.1.1V14l-.2.1h-.1l-.1-.2-.1.2h-.1V14H28l-.1-.2h-.2v.3l-.1-.2-.1.1V14h-.2v.3l-.1-.1-.1-.2-.1.1h-.2l-.1.1-.1-.2v.2h-.2l-.1-.1h-.1v.1L26 14v.2h-.1l-.2.1-.1-.2-.1.1v.1h-.2L25 14v.2l-.2-.1v.3l-.1-.2v.2l-.2-.1-.1-.2v.3l-.2-.2v.3l-.2-.2v.2l-.2-.1v.3l-.2-.3-.1.1v.3l-.2-.2h-.2v.3l-.2-.2v.2h-.2v.2-.1h-.3v.2l-.2-.2v.4l-.3-.2v.1h-.2v.2l-.1-.1h-.2v.1l-.2.1.1.2v.1l-.2-.1H21v.2h-.2v.2-.1h-.2v.3H20v.4l-.3-.1v.2h-.1v.2h-.2l-.2.1.1.2-.2-.1v.2h-.1v.3h-.3l.2.2h-.4v.4l-.1.1h-.2l.1.1H18v.1H18l.1.2H18v.3h-.2v.2h-.1l-.1.1.1.2v.2h-.3v.1l.1.1h-.2v.2h-.1l.2.2H17v.6l-.2.1.1.1.1.2H17v.1l.2.1H17v.3l-.2.1.3.1-.1.1-.2.1h.2v.2l.1.1-.2.2v.1h.3l-.2.2v.2h.2v.1l-.1.1h.4l-.1.1h.1v.5h.1v.1h.3v.2h.2v.3h.2l.1-.1v.2h.2v.2h.1l.2-.1v.3l.2-.2v.3h.3v.1h.1l.2-.2v.4h.1l.1-.1.2-.2.1.1v.2l.2-.1v.1h.5v.2h.2l.2.1v-.2l.1.1v.2h.2v-.3h.2l.1.2v-.2h.2v.2h.8l.1-.2.1.2v-.2h.1v-.2l.2.1.2.1.1-.1v-.1h.2v.1h.1v-.2h.2v-.2l.3.2.2-.1V25h.3V25h.1v-.2l.2.1h.1v-.2l.2.1v-.1h.1v-.3l.2.2h.1v-.3h.2l-.2-.2.1-.1.2.1v-.2h.3v-.3l.2.2v-.3h.2v-.1h.1v-.2h.1v-.1h.3v-.2h.4v-.4h.3v-.2h.1V22h.1l.2.1V22l.2.1V22h.2v-.2h.2v-.2l.2.2v-.2h.2v-.2l.2.2h.1v-.3h.2l.1.1V21l.2.2h.1V21h.1V21h.4v-.2h.2v.1h.1v-.2h.2v-.1l.1.2h.1v-.2h.1l.1.1.1-.1h.1v.1h.2l.1-.2v.1l.2.1h.2l.1-.2.2.2.1-.1h.3v.2l.1-.1.1-.1.2.2z"/><path fill="#fffef4" d="M41 34.4h.2v-.2h.7v-.3h.3v-.2h.2v-.1h.2v-.2h.1v-.1h.2V33h.4l-.1-.2.2.1v-.2h.2v-.3h.2v-.1l.1-.1V32h.3v-.5h.2v-.2h.2l-.2-.2h.4l-.2-.2v-.1h.3l-.1-.1h.2l-.2-.2h.3l-.3-.2h.1v-.1h.3V30H45h.2v-.2l-.1-.2h.2v-.3h-.1v-.1h.1V29l.1-.1h.2v-.2l-.2-.1h.3v-.2l-.2-.1h.2l-.1-.2h.1v-.2l-.2-.1h.2l.1-.1-.2-.2h.2l-.2-.1h.1V27l.2-.1-.2-.2h.2l-.1-.1-.1-.1v-.1h.3l-.2-.2v-.1h.2V26h-.2v-.1l.1-.1h-.2l.1-.2v-.1l.1-.1v-.1h-.1v-.6l.1-.1-.1-.1h-.2v-.2l.2-.2h-.2l.1-.2v-.1h-.1v-.4h-.1v-.5l-.2-.1v-.1l.1-.1h-.1v-.2h.1-.2v-.2h-.2l.2-.2H45l.2-.2-.1-.1v-.1H45l-.1-.1V21h-.1v-.2h-.2l.1-.2v-.3h-.3V20h-.2l.1-.2v-.2H44l.2-.2h-.3l.1-.2h-.3l.1-.2V19h-.2l.2-.1h-.2v-.3h-.2v-.1h-.1v-.2H43V18h-.3v-.3h-.1v-.2h-.2v-.3l-.3.1V17h-.1V17h-.2v-.2h-.2v-.2l-.1-.1-.2.1v-.2h-.1v-.2l-.1.1H41v-.2l-.1-.1h-.2v-.2h-.2l-.2.1v-.3h-.4v-.3l-.2.2v-.2l-.1.1v-.2h-.3V15H39l-.1.2V15h-.3v-.3l-.2.2V15h-.2v-.2l-.1.3v-.2h-.3l-.1-.3h-.1l-.2.1v.1h-.2v-.2H37v.2l-.1-.3h-.1l-.1.2-.1-.3-.1.2h-.2v-.2h-.2v.1l-.1-.1-.1.3-.2-.2-.1.1h-.1l-.2-.2v.1h-.2v.1H35v-.2l-.1.3-.1-.2v.2h-.1v.2l.1.1-.2.1h.2l-.2.2.3.1-.1.1h-.1v.2h.2v.3h.2l-.1.2-.2.2h.3v.1l-.1.2h.3v.2l-.2.1h.4v.5h.2l-.2.2h.2l.1.1v.4h.4l.1.2v.3h.2v.2l.2-.1-.1.3h.2v.2h.2v.4h.3v.2h.2v.6l.3-.1v.2h.1l-.2.3h.3v.2l.2.1-.2.1v.2h.2l-.2.2h.1v.1l.1.1v.1l-.1.1v.1h.1l.1.1v.1l-.2.1v.3h.2l-.1.1v.1h-.1v.2h.3v.1l-.2.1.1.2h-.1l.1.1h.1l-.3.2h.3l-.2.1v.2l.1.1v.1l-.1.1v.3l.1.1-.1.1h.1v.1l-.1.1v.1h.2l-.3.2h.3l-.2.1v.1h.2v.2l-.2.1.1.1v.1l.2.1-.3.1.2.1v.2h-.2l.3.1v.1l-.2.1h.1l-.2.2h.1v.1h.2l-.1.2h-.1v.1l.2.1-.1.1v.3l.1.1-.1.2v.1l.1.1v.4l.1.1v.5h-.2v.2h.3l-.3.2.3.1v.7h.1v.2l-.2.1v.2h.1v.1h.2v.5h.2l-.3.2h.2l-.2.1.2.1v.2h.2l-.2.2h.1v.1h.2l-.2.2h.2l.1.1-.2.2h.2l-.2.2h.3v.2h.1l-.1.2h.3v.3h.1v.2h.1v.1l.3-.1h.2v.3l.2-.1v.2h.1l.1-.2zm-7 0v-.1h-.2v-.2h-.1l-.2.2V34h-.2l-.1-.1-.1-.1-.2.2V34h-.1v-.3l-.2.1h-.4v-.3l-.2.1v-.1h-.1v-.1h-.4v-.2h-.2l-.1.2v-.3l-.1.2h-.2V33h-.2V33h-.3v-.2l-.3.2V33H30v-.2l-.1.2v-.1h-.4v-.3l-.2.2v-.2H29v-.1h-.2v-.1h-.3v-.2l-.3.3V32h-.1l-.2.1V32h-.1l-.2.1v-.3l-.2.2v-.2H27v-.2h-.2l-.1.2v-.2h-.1v-.1h-.2v-.2l-.2.2-.1-.2h-.4v-.2l-.1.1-.1-.2-.2.2V31l-.2.1v-.2H25l-.1.1h-.2v-.2h-.1v-.2l-.2.2v-.3l-.2.3-.1-.2v-.1H24v-.1h-.2l-.2.1h-.1v-.3l-.2.2V30l-.2.3-.1-.2V30h-.2l-.2.1v-.3l-.2.2v-.2H22v-.2h-.4l-.1-.2-.2.2v-.3h-.6v-.1h-.2v-.1H20V29l-.2.1-.1-.2h-.1l-.1.1h-.2v-.1h-.1l-.1-.2-.2.1v-.2h-.2v-.2h-.4v.1l-.2.1v-.1H18v.2h-.2v.1l-.2-.2.1.3h-.2v.2h-.2v.3l.1.1v.1h-.2l.1.2v.1l-.2.1v.1l.2.1-.1.1-.2.2h.3l-.1.1-.2.1h.2l-.2.2h.3l-.3.1.2.1v.2h.1l-.2.1v.1h.2l-.1.2v.3h.2l-.2.2h.2l-.1.1.2.1v.1l-.2.1h.2l-.2.2.2.1v.2l.1.1v.1h.1l-.1.2.1.1h.3l-.2.2h.3v.2l-.2.1h.3l-.1.2h.2v.2h.2l-.2.3h.3v.3h.2v.2l.1-.1v.3h.2l.1-.1v.3h.3l-.1.3h.2v.1l.1.1h.2v.1h.1v.2h.2v.2l.1.1h.3v.2h.2v.1l.1.1.2-.1v.3h.5v.4l.3-.2v.1h.2v.3h.5v.4h.4v.2l.3-.2v.3h.3v.1h.2l.1-.1v.3l.2-.2v.3l.2-.2v.2l.2-.2v.3l.1-.2h.1v.2h.2v.2l.2-.3v.4l.2-.2v.2l.2-.2v.2l.1-.1h.2v.3l.2-.2h.2l.1.1h.2v.1h.1v.1h.2l.1.1h.2l.2-.2v.3l.1-.2v.1h.2v.1l.1-.2.1.1v.2l.2-.1.1-.1h.2l.1.2.1-.2h.1v.2l.2-.2h.1l.1.2V40l.2.1V40h.1l.1.1h.1V40h.1l.1.1.1-.2.1.2v-.2l.2.2h.2V40h.2l.1.1V40l.2.1.1-.2.1.1.1-.2h.1l.1-.1.2.1v-.2h.2l.1.2v-.3h.4l.1-.2h.1l.2.2V39l.2.1v-.1h.1v-.3h.1l.3.1v-.4h.4l-.1-.2v-.1h.3l-.1-.2h.2v-.2h.2v-.1l-.1-.2h.2l-.1-.2.1-.1h.1V37h.2l-.2-.2v-.2h.3v-.2l-.2-.1h.3l-.3-.2h.2V36l-.2-.1h.3v-.2l-.1-.1v-.1l-.1-.1.2-.2V35h-.2l.1-.2h-.2v-.3h-.2v-.3z"/><path fill="#f5b908" d="m32.3 31.4.2.1h.1l.2-.2v.2l.1-.2h.1l.2.1h.3v-.2h.4V31h.2l.2-.1v-.2h.4v-.3h.3l-.1-.1h.3V30h.1l.1-.1v-.3l.2.1-.2-.2h.3l-.1-.2h.1V29l.1-.1v-.2h.3v-.2H36l.1-.1-.3-.1.2-.1-.1-.1h.2l-.1-.2v-.3h-.2l.3-.1v-.1H36v-.2h.1L36 27v-.2l.2-.1H36v-.2h-.3l.2-.2h-.1v-.2h-.3l.2-.3h-.2.1-.2l.1-.2h-.1v-.2h-.3v-.3h-.2v-.3h-.2v-.1h-.2v-.2l-.3.1.1-.2-.2.1v-.2H34v-.1h-.1l-.2.1v-.3l-.2.2v-.1h-.2l-.1-.2H33l-.2.2v-.3l-.1.1h-.2V24h-.2v.2l-.1-.2h-.1v.1h-.3l-.1-.1v.2l-.2-.1h-.1v.1l-.2-.1H31v.2l-.1.1h-.3v.2l-.2-.2v.2h-.2v-.1.1H30v.2H30v.2h-.3l.1.2h-.3l.1.2h-.3v.3h-.2v.3h-.2v.2h.1-.2v.2h-.1v.1l.1.1h-.2l.2.2h-.1v.1h-.2v.4l.1.1-.1.2v.2h.1v.4h.1l-.1.2v.1l-.1.1v.1h.3l-.1.2v.1h.1v.3h.1l.1.1-.1.1v.1l.2.1h.1l-.2.2h.3l-.1.1h.2v.2h.2l.1.1v.2h.1v.3h.2v.2l.2-.2v.1h.2v.2h.4v.2h.2v.1l.1.1.2-.2.1.2v.1h.3l.1-.2v.2h.4z"/></g><defs><clipPath id="a"><path fill="#fff" d="M0 0h67.6v64H0z"/></clipPath></defs></svg>