<svg xmlns="http://www.w3.org/2000/svg" width="39.956" height="38.693" fill="none" overflow="visible" preserveAspectRatio="none" style="display:block" viewBox="0 0 39.956 38.693"><g fill="#151515"><path d="m35.935 19.461-.06.04-.073.081.006-.17-.052.015-.045-.008-.08.113-.005-.146-.08.123-.006-.15-.037-.035h-.047l-.073.103-.035-.041-.027-.079-.07.094-.052.03-.04-.026-.035-.05-.03-.072-.067.098-.044-.007-.022-.114-.032-.07-.043-.017-.075.153-.04-.025-.05.017-.019-.146-.045-.005-.056.06-.029-.102-.052.04-.05.03-.038-.056-.04-.04-.063.124-.042-.026-.04-.038-.046.007-.04-.041-.039-.05-.062.142-.035-.09-.041-.031-.055.09-.03-.147-.048.03-.05.049-.04-.054-.054.095-.037-.108-.054.134-.036-.127-.047.018-.046.018-.04-.094-.05.087-.043-.03-.043-.058-.05.145-.046.015-.045-.022-.045.013-.044-.031-.043-.103-.047.126-.044-.073-.045-.016-.045-.07-.044.146-.046-.109-.045-.03-.043.163-.067-.121.08.086.045-.007.01-.12.075.093.01-.122.037-.034.044-.012.045-.006.088.136.016-.104.059.037.026-.067.051.016.05.008.019-.09.04-.022.036-.038.088.136.007-.133.042-.016.037-.033.06.043.065.06.008-.13.057.033.032-.048.078.1.041-.017.047-.002.012-.113.048.002.029-.06.035-.036.054.024.05.008.028-.063.067.066.061.047.027-.067.05.007.032-.049.055.026.008-.13.055.024.057.034.03-.058.074.088.016-.103.044-.01.047-.002.059.031v-.13h.048l.098.13.026-.058.006-.11.095.117.043-.013.041-.02.042-.019.006-.102.037-.03.074.06.052.005-.022-.161.064.032.026-.05.021-.061.053.008.08.065.02-.063.053.005.023-.056.028-.044.026-.049.1.096-.019-.133.056.01.104.098-.002-.099.002-.088.046-.01.06.015.046-.01.086.058.012-.068.057.006.01-.073.036-.027.076.038-.013-.106.075.032.017-.056.055.002.008-.07.07.022-.005-.088.087.046.02-.05h.056l-.048-.142.098.056.07.017-.057-.149.072.02.037-.025.028-.038.01-.06.127.085.037-.028.018-.05.047-.014.012-.056.036-.027.048-.014-.073-.148.08.022.027-.038-.006-.07.096.035.008-.056.032-.032.078.013-.016-.078.056-.008.084.017.004-.06-.024-.08.103.03-.007-.066-.04-.095.057-.01.043-.022.012-.048.08.007-.046-.094.107.027-.006-.061.059-.012.067-.007-.06-.1-.016-.066.016-.043.05-.02.132.035-.085-.109.018-.04.116.02.046-.025-.09-.107.037-.03.104.009.019-.042-.068-.09.082-.005.078-.01-.094-.1h.099l.002-.05.034-.033.079-.013-.043-.07-.071-.081h.11l.023-.04-.063-.074.132.004-.101-.088-.009-.05.162.01.02-.04-.067-.071.008-.045.07-.025-.026-.056-.014-.05-.018-.052.076-.026.082-.026.008-.045-.003-.048-.093-.067-.02-.05.028-.039.148-.018-.166-.075.106-.027-.047-.052.054-.038-.01-.046-.005-.046.087-.036-.021-.048-.073-.051.05-.042.018-.044.06-.042-.16-.051.107-.042-.061-.046.008-.044-.03-.044-.015-.044.01-.044.15-.053-.14-.036.129-.055-.05-.042-.08-.037-.034-.042.068-.053-.08-.035.046-.051.025-.05v-.046l-.12-.023-.017-.041.089-.064.04-.056-.019-.042-.022-.041-.009-.045-.124-.011.062-.065-.007-.045-.051-.03.012-.053-.075-.02.097-.084-.023-.04-.087-.013-.054-.025.038-.066v-.05l-.093-.005-.04-.03-.022-.038.1-.101-.046-.027-.025-.038-.066-.013.018-.063-.02-.04-.1.01-.008-.047.032-.075-.007-.05-.087.007.054-.095-.046-.023v-.058l-.058-.011-.076.003-.058-.01.012-.068-.021-.04.031-.091-.145.074.07-.13-.13.066-.02-.042.026-.093-.109.053-.014-.05-.008-.058.028-.103-.03-.037-.127.086-.002-.07-.066.014-.006-.066-.046-.013.013-.097-.094.058.031-.13-.073.031-.056.005-.078.043.05-.174-.048-.007-.046-.013-.059.013-.013-.072-.073.045-.006-.091-.067.036-.06.021-.066.04-.036-.025.01-.14-.093.112-.02-.072-.005-.112-.082.092-.041-.018-.015-.095-.04-.026-.073.083-.01-.123-.082.12-.006-.143-.082.136-.01-.137h-.048l-.048.009-.068.097-.018-.13-.038-.039-.056.052-.038-.044-.044-.014-.059.086-.032-.087-.042-.026-.052.05-.05.042-.04-.04-.039-.066-.053.09-.044-.012-.044-.004-.047.034-.04-.087-.047.044-.046.033-.043-.015-.042-.146-.046.028-.046.044-.045.005-.045-.055-.042.155-.05-.158-.045-.013-.043.072-.045.003-.047-.042-.039.1-.047-.035-.046-.005-.046-.018-.045.005-.039.065-.052-.06-.04.045-.045-.004-.044.012-.038.048-.04.04-.069-.16-.026.124-.034.068-.06-.091-.03.082-.043.016-.064-.095-.045.002-.024.11-.07-.117-.028.085-.056-.047-.03.07-.042.02-.045.005-.05-.017-.029.07-.038.031-.084-.14-.029.066-.058-.04-.032.054-.056-.032-.033.05-.005.137-.064-.055-.035.04-.063-.053-.062-.047-.044.015-.013.103-.069-.063-.038.028-.038.026-.007.118-.038.027-.08-.089v.131l-.048-.003-.079-.081-.033.04-.065-.043-.01.1-.032.043-.033.036-.034.036-.085-.09-.022.066-.02.065-.037.03-.069-.046-.021.063-.038.026-.09-.094-.059-.018.006.123-.076-.056-.012.082-.044.014-.038.024-.065-.02-.002.085-.032.033-.033.032-.024.048-.09-.058-.02.052-.016.06-.029.04-.044.015-.025.044-.118-.101.033.136-.12-.104.033.136-.058-.005-.044.016-.052.003-.074-.034.013.109-.045.014-.034.031-.043.017-.038.025-.012.072-.104-.096-.027.044-.058-.018.01.13-.048.009-.04.057.011-.064-.073-.089.076.02-.024-.094.077.019.035-.03.073.013-.027-.092.114.051.009-.055.05-.015.034-.03-.079-.135.108.04.054-.013-.02-.079.053-.012-.035-.09.14.061-.065-.114.128.048-.045-.095.086.011.03-.034.037-.028.019-.043-.056-.099.062-.01.016-.043.068-.006-.035-.08-.01-.063.157.057v-.055l-.056-.094.005-.05.063-.012.065-.01.05-.023-.045-.082.114.02-.122-.13h.084l-.037-.075.034-.032.157.041-.112-.118.105.01.005-.05.055-.02-.05-.08.044-.026.07-.013-.052-.079.09-.003-.088-.096.132.018-.05-.076.121.01-.093-.095.146.02-.078-.087-.044-.07.17.03-.01-.055.002-.049-.02-.058.005-.046-.013-.055-.004-.05.026-.038.091-.01.05-.029.063-.024-.04-.064-.02-.056.079-.018-.081-.079.002-.046.036-.035.123-.003-.093-.08.134-.002.007-.045v-.047l-.126-.089.083-.02.07-.026.017-.042.036-.037-.145-.09.081-.023.097-.019-.147-.087.189.004-.033-.055-.011-.05-.1-.07.07-.03.055-.033.019-.041.023-.041.012-.044-.074-.062.026-.04.126-.022.011-.044-.043-.054.034-.04.025-.042-.052-.054.029-.042.005-.045-.095-.058.037-.04-.017-.048.055-.038.083-.037.015-.044-.123-.057L32.73 7l-.067-.05.087-.039-.043-.047-.004-.045-.003-.045.112-.04-.029-.047-.063-.046.126-.044-.124-.046.036-.045-.008-.045-.043-.043.1-.048-.024-.044-.056-.043.038-.047.007-.046-.11-.036-.009-.044.131-.058-.135-.03.035-.049-.031-.04.105-.06-.06-.037.04-.052.025-.051-.133-.021.01-.048-.013-.043-.01-.043.017-.05-.082-.024.041-.057.02-.053-.006-.045.002-.048-.076-.022-.016-.041-.023-.039.079-.077-.136.005.034-.061.006-.05-.094-.008.034-.064-.048-.026.022-.06-.062-.019.087-.096-.132.02-.044-.025.1-.11-.005-.05-.134.03.022-.067-.002-.053-.065-.01.022-.07-.1.017.044-.09-.085.01-.07.002.08-.128-.018-.045-.115.045-.018-.044.008-.07-.016-.049-.107.047-.04-.023-.014-.048.015-.086-.109.06.034-.112-.059.002-.029-.035-.026-.04-.04-.021-.051-.006-.065.018-.04-.02.017-.11-.08.044-.006-.076-.061.017.019-.13-.106.103-.036-.028-.053.006.032-.166-.066.03-.075.054-.015-.074-.057.018-.002-.113-.062.032-.035-.037-.036-.034-.083.096-.012-.101-.079.093.004-.158-.072.078-.058.038-.03-.057-.045-.007-.049.013-.044-.008-.021-.107-.05.018-.04-.036-.062.086-.047.013-.033-.08h-.045l-.054.063-.038-.056-.034-.11-.058.14-.038-.094-.052.094-.043-.009-.044.002-.041-.15-.047.098-.045.023-.046-.105-.043.098-.05-.097-.042.057-.038.106-.048-.043-.053-.09-.04.06-.045-.002-.04.042-.051-.045-.057-.072-.042.025-.044.013-.029.098-.05-.02-.04.028-.054-.036-.027.083-.031.056-.08-.13-.021.095-.038.029-.048-.006-.076-.091-.027.066-.026.065-.072-.07-.05-.005-.013.1-.053-.013-.037.028-.043.014-.047.004-.057-.018-.021.066-.02.068-.04.019-.053-.009-.062-.023-.02.062-.037.025-.06-.018-.015.068-.083-.059-.002.09-.048.007-.02.055-.063-.018-.067-.024.013.11-.092-.063.021.118-.015.058-.096-.064-.03.037-.005.073-.09-.052-.04.023-.02.05.029.116-.043.017-.066-.013-.082-.033.032.114-.111-.07.005.08-.045.017.015.088-.037.026-.011.055-.068-.01-.05.009-.103-.048-.024.042-.03.035.066.139-.043.018-.053.01-.052.011-.037.026.006.071-.003.06-.089-.025-.084-.02.07.132-.113-.046-.013.05-.006.056-.058.007-.024.04v.12l-.027.036-.024.038-.122-.046.018.075-.035.03-.053.013-.085-.01-.035.03-.005.054-.033.032-.038.027.014.069-.077-.002.006.062.025.075-.039.028-.068.006-.018.043-.063.011.029.076.033.078-.121-.03.038.081-.024.038-.113-.02.114.128-.151-.043.087.108-.007.049-.038.028-.07.01-.044.025-.005.05-.01.046.03.07-.08.005-.067.014-.073.011-.005.05.075.091-.044.027-.081.007.083.097-.128-.018.094.102-.145-.027.102.106-.1-.003-.008.047-.024.038.02.063-.066.015.064.085-.141-.025.033.07-.09.002-.001.05-.025.039-.002.05-.037.032-.004.048-.058.02-.005.049.08.095-.076.01-.072.013-.013.044.09.1-.024.038-.015.043-.068.014-.081.008.043.075-.038.03-.035.033.008.055-.06.02-.001.05.011.057-.152-.03.038.073.032.068.003.053-.089.004-.07.014.056.082.017.061-.076.013-.045-.06.084-.026-.045-.057.115-.02-.001-.046-.048-.056.028-.04-.032-.053.036-.038v-.046l.084-.03-.04-.053.038-.038-.032-.052.072-.033-.164-.072.06-.036.002-.044.044-.04.089-.032-.161-.067.026-.042.152-.025-.092-.057.007-.044.06-.038-.116-.059.02-.042-.01-.046.143-.03-.058-.05.102-.036-.014-.047-.107-.055.098-.036.015-.044-.015-.046-.104-.053-.023-.046.039-.041.125-.037-.138-.053.087-.04.034-.043-.02-.046.037-.044-.064-.047.097-.042-.004-.045-.096-.048-.078-.047.04-.044-.02-.044.038-.045.116-.043-.018-.046v-.045l-.039-.045-.016-.045.068-.045-.086-.044.035-.046-.068-.044.037-.045.077-.047.01-.045-.142-.041.105-.049-.021-.044.058-.048-.18-.037.033-.046.009-.045.126-.053-.058-.042-.09-.039.111-.053-.122-.036-.002-.045.027-.047-.024-.043-.038-.042.084-.053.078-.053-.002-.046-.115-.033-.058-.038.009-.047.144-.062-.024-.042-.011-.045.009-.046-.068-.037.03-.05.019-.048-.02-.043-.143-.024.114-.064.009-.047-.119-.025.057-.056-.007-.045.023-.05-.09-.028.062-.058-.055-.035-.033-.04.043-.055-.026-.04-.06-.033.064-.06.027-.054-.1-.023.087-.067-.004-.046-.149-.008.09-.07-.028-.04-.029-.038-.005-.046-.12-.012.044-.06.045-.06-.028-.039-.024-.04-.068-.025.055-.065-.047-.032-.063-.026.082-.077.025-.056-.114-.008.04-.062.01-.053-.095-.012.013-.054-.078-.017.003-.049.074-.08-.119.002.104-.095-.043-.03-.005-.049-.128.01.014-.057.043-.07-.088-.008-.01-.045-.025-.038.026-.066-.026-.037-.119.015.087-.102-.08-.005.004-.055.014-.063-.047-.024-.025-.038h-.083l-.03-.034.014-.063-.076-.002.011-.064-.09.011.11-.14-.134.047.042-.091-.014-.047-.133.052.013-.069-.055-.011.038-.095-.078.01-.05-.014-.05-.011.035-.1-.03-.034-.1.04.02-.087-.01-.056-.067.007.015-.088-.094.044.008-.084-.09.043.014-.094-.102.067.008-.09.001-.085-.125.112V.5l-.059.014-.027-.04.008-.11-.075.044-.065.03-.047-.006-.01-.082-.03-.045-.018-.072-.085.088-.026-.058-.077.082.017-.183-.055.018-.035-.04-.078.102-.044-.008-.017-.108-.08.132-.03-.062-.035-.05L21.1.19l-.03-.083-.063.104-.023-.142-.047.006-.054.065-.036-.081-.057.122-.037-.085-.04-.066-.052.128-.04-.112-.048.08L20.528.1l-.045-.068L20.437 0l-.043.133-.043.038-.05-.127-.038.121-.052-.104-.035.116-.047-.025-.045.006-.043.01-.04.035-.054-.062-.045.005-.056-.064-.041.028-.04.037-.035.048-.033.054-.057-.046L19.57.11l-.009.134-.056-.03-.066-.053-.046.007-.04.026-.037.032-.02.07-.05-.001-.015.075-.047.005-.066-.033-.033.037-.006.081-.027.042-.085-.058L18.9.427l-.045.014-.039.026-.04.022.012.097-.065-.013-.039.024-.036.027-.02.048-.002.07-.042.018-.022.043-.107-.053.027.098-.077-.018.019.086-.01.053-.023.038-.086-.021-.057.008.036.094-.01.05-.086-.017.036.09-.043.022-.03.032-.084-.01-.025.037-.042.025.016.068.015.066-.16-.06.063.1-.08-.002.035.079.017.064-.04.027-.098-.01-.02.04.065.093-.138-.03.069.092-.049.024-.034.032.035.07-.118-.014.058.083-.127-.017.001.052-.013.044.005.053-.07.016.03.064-.08.011-.024.04.084.087-.094.007-.037.033-.025.039.077.082-.006.046-.077.017-.035.034.094.086-.046.03-.12.002-.005.046.05.066-.035.036.05.064v.048h-.138l.115.085-.032.036-.057.03-.112.01.064.068.017.052-.026.039-.01.043-.01.044.051.061-.057.03-.113.016.135.083-.074.026.033.055-.144.01.08.066-.083.027.058.06-.076.029.074.062-.097.025.038.054-.093.027.008.048.135.073-.057.034.022.05-.014.042.017.048-.143.022.078.059-.104.029.036.051.089.059-.064.036-.083.034.152.066-.065.036-.02.044.043.05-.121.031.085.054-.102.035.101.055-.04.042-.011.044.029.048-.102.038-.011.045.142.053-.021.044-.049.042.063.048.017.045-.061.043-.075.043.09.047-.026.044-.093.044.148.046-.054.045-.067.045-.035.046.087.044-.007.045.028.044.036.043-.016.046-.111.05.002.046.117.038-.091.051.137.034.014.043-.088.054.05.04.005.044-.09.056.073.036.04.04-.045.052.03.041.074.033-.053.054-.042.054.048.036-.037.053.105.024-.091.065.044.037.051.033-.046.058-.013.05-.023.053.05.033.009.045-.027.056.165-.007-.102.102.046-.088.034-.073-.117.02-.052-.02.005-.055-.026-.036.053-.084-.062-.014-.064-.013-.058-.017.014-.06.037-.075v-.051l-.038-.03-.043-.026-.092.005.007-.056-.068-.012.06-.088h-.086l.054-.084-.104.01.005-.054-.026-.036-.01-.046-.021-.04-.09.003.039-.076.029-.07-.004-.05-.132.028-.012-.045-.037-.03.09-.106-.16.044.087-.105-.121.022.066-.093-.06-.016-.057-.018-.03-.035.081-.103h-.084l.011-.06-.04-.028-.12.025.11-.127-.138.04-.021-.04-.047-.022.114-.136-.095.012.043-.088-.056-.015-.103.022-.016-.044-.044-.023-.049-.018.013-.068-.031-.031.018-.073-.1.025-.051-.015.048-.102-.084.014-.041-.023-.041-.022.073-.129-.056-.008-.101.034.043-.104-.016-.047-.084.02-.033-.031.055-.12-.133.072-.006-.058-.01-.056-.059-.002-.044-.017-.02-.044-.016-.05-.055-.006-.066.008-.032-.031-.048-.01.022-.098-.053-.007.02-.098-.039-.023-.038-.024-.112.072.056-.149-.074.024-.067.016-.017-.054-.024-.044-.002-.076-.095.06-.027-.04-.062.011.015-.105-.083.047-.03-.036-.015-.063-.07.028-.015-.062-.031-.035-.063.02-.06.013-.032-.033-.058.012-.015-.065-.059.016.004-.105-.068.035h-.05l-.023-.054-.025-.054-.014-.076-.074.053-.042-.015-.004-.105-.078.069-.066.042-.01-.095h-.048l-.072.063.017-.174-.043-.015-.041-.021-.055.018-.072.074-.037-.03-.053.02v-.157l-.09.145-.034-.041-.024-.08-.073.1-.005-.163-.081.14-.023-.097-.04-.032-.059.066-.036-.045-.05.025-.048.014-.022-.13-.041-.033-.07.157-.023-.156-.046-.003-.056.093-.035-.097-.049.036-.05.059-.038-.092-.048.051-.039-.112-.05.07-.046.038-.045.009-.045.047-.044-.138-.045.074-.044.037-.046-.05-.047-.05-.041.08-.045-.002-.053-.09-.047-.017-.036.099-.037.068-.04.024-.058-.089-.04.037-.054-.052-.055-.04-.042.022-.03.081-.042.014-.058-.045-.023.092-.05-.016-.053-.02-.021.083-.058-.036-.01.114h-.046l-.065-.052-.01.098-.088-.098h-.049l-.03.045-.026.05-.085-.072-.012.08-.005.086-.073-.042-.06-.016-.014.068-.032.035-.02.05-.043.016-.025.043-.063-.013-.051.005-.063-.008.05.138-.135-.098-.014.056.006.076-.063-.003-.034.03-.004.06-.012.052-.09-.026.03.093-.107-.04.083.136-.115-.042-.046.021.039.09.01.063-.03.032-.057.013-.134-.04.046.086-.036.03-.025.038.016.063-.098-.007.032.07-.068.014v.052l-.06.019-.024.04.073.086-.046.027-.032.035.077.082-.154-.017-.039.034.067.075v.047l-.05.03.026.056-.104.012.027.056-.059.03.129.085-.139.006.082.069-.032.037-.04.037-.062.031.017.05-.017.043-.014.043.115.067-.085.03.024.049-.063.035.026.05.056.052-.062.037.048.05-.118.032.073.052.02.047.012.046-.032.042-.07.04-.07.041.136.052-.09.041.057.047-.055.044-.052.044.146.047-.055.044.083.044-.103.046-.013.045.089.043-.154.05.088.041.07.042-.069.049.062.04.005.045.04.042-.126.055.085.038-.107.055.016.044-.023.048.03.043.094.034.044.04-.128.062.002.046.124.028-.064.055-.013.048.016.045-.039.052.015.044.035.04.042.037.074.03-.022.05.055.033-.057.06.099.02-.082.068-.024.054.043.034.11.012-.032.057.011.043-.091.079.114.007.024.04-.07.073.05.029.05.028-.083.082.159-.016.024.037.012.043-.082.085-.014.056.097.005.004.047.05.026-.045.072.006.047.058.021.094.003-.034.068-.055.08.04.03.068.014.098-.003-.103.109.076.009-.04.074H9.1l.053.02-.023.066.055.019.06.016-.035.074.047.023.037.03.02.04-.023.067.068.01-.075.103.111-.02.072.006-.073.103.042.026.12-.028-.004.057-.02.068.082-.002-.056.094.114-.026.01.048.033.03-.073.109.027.036.087-.008-.018.07.084-.007.04.026-.006.06.007.052-.025.075.088-.01.016.043.032.033-.019.07.07.003-.02.074.038.027.148-.058-.1.135.058.01.01.05.137-.05-.02.073-.02.073.066.005-.018.072.051.017.055.014.01.05.096-.02-.077.12.004.053.037.028.027.036.124-.042.024.039-.043.092.081-.009.01.05.034.03-.027.08.051.015.086-.06-.078.073.018-.126-.048-.007-.088.068.014-.12-.095.08v-.093l-.084.06-.035-.03-.021-.053-.081.054-.019-.059.028-.143-.103.094.016-.123-.083.057-.03-.04-.064.025-.043-.015-.048-.006.003-.099-.087.064-.023-.05.01-.112-.036-.028-.04-.021-.055.007-.056.007-.007-.08-.056.007-.039-.024-.086.064.022-.134-.058.013-.088.065.012-.115-.04-.021-.06.016h-.05l-.012-.074-.023-.051-.03-.038-.052.001h-.051l-.028-.043-.054.004-.08.052-.009-.078-.015-.066-.044-.015-.036-.027-.042-.018-.021-.056-.074.04-.078.048.03-.148-.03-.04-.07.034-.035-.034-.074.058-.013-.097-.086.106-.016-.09-.052.012-.062.042-.01-.109-.071.07-.035-.038-.015-.104-.058.037-.03-.056-.069.073-.018-.1-.031-.056-.074.097-.048.008-.026-.08-.054.03-.034-.051-.053.03-.044-.011-.02-.116-.046-.007-.063.08-.06.063-.04-.026-.038-.035-.026-.111-.068.129-.035-.063-.033-.077-.062.101-.048.02-.043-.015-.045-.002-.025-.158-.061.125-.033-.107-.046.004-.044-.024-.058.142-.039-.075-.048.048-.045.002-.046.015-.04-.09-.045.018-.044-.027-.045.004-.045-.005-.045.003-.045.069-.045-.093-.044.073-.048-.111-.04.152-.045-.02-.05-.1-.042.06-.04.076-.057-.162-.038.088-.037.085-.05-.061-.052-.054-.046-.005-.05-.033-.031.108-.057-.076h-.046l-.034.072-.04.034-.057-.054-.03.077-.039.033-.06-.068-.037.042-.029.073-.04.02-.063-.065-.044.01-.05-.013-.048-.002h-.048l-.052-.015-.04.023-.049.002-.037.031-.023.07-.023.069-.035.033-.055-.02-.025.06-.045.006-.044.011-.092-.096.022.155-.083-.07h-.05l.01.12-.066-.032-.029.041-.088-.068.024.137-.065-.024-.071-.031-.02.055-.044.015v.083l-.106-.08-.02.052-.023.047.009.092-.062-.01-.083-.037-.023.045-.008.063-.062-.004-.033.031v.07l-.036.027-.047.015-.087-.028-.022.043-.007.06.033.098-.136-.073.007.07-.012.05.035.094-.064.001-.035.03-.027.034.004.062-.032.03-.03.033-.04.025-.042.024-.024.038-.027.035-.107-.02.093.119H2.65l-.081.001.08.105-.09-.004h-.087l-.017.045.03.069-.053.022.054.08-.058.02-.01.046-.01.045-.034.033-.057.024-.021.04-.015.044.043.066-.041.032-.04.033v.048l-.039.035.067.07-.003.045-.063.027.037.057-.002.045-.11.018.049.058.054.058-.015.041-.104.025-.072.032.125.068.022.048-.05.037-.027.041-.056.038-.058.04.08.053-.012.044-.012.044.078.05-.004.043-.012.043-.063.043-.042.045.033.045-.048.046.013.046-.02.047.075.04.028.044.004.044.056.04.002.044.019.042-.048.05-.041.052.007.044-.021.05.027.04.017.043-.03.052.017.043.075.03-.089.067.073.028.027.04.097.018-.13.085.054.03.051.031-.021.054.027.038.03.037.055.028.006.045.039.032-.092.085-.003.052.046.029-.018.058.083.012-.02.059.036.033.087.007-.023.062.046.026.006.048.068.014.033.031-.002.053-.037.074.117-.019-.08.102-.009.06.132-.032.01.047-.022.069.025.037.072.005-.053.093.06.013.035.03.093-.015-.024.075.089-.013-.08.121.047.02.062.008-.025.079.12-.043-.076.126.09-.02.066.002-.046.102.14-.07-.084.142.016.047.09-.024.01.053.03.035.006.057.105-.043.051.01-.013.08.013.052.03.035.065-.006.005.062.089-.033-.02.091.11-.06-.018.09.056.003.052.006-.014.09.08-.03-.037.12.115-.074-.004.079.032.032.028.039.001.074.071-.02.1-.063.016.055.03.034.03.038.01.064.042.02.013.061.07-.025.01.07.064-.017.086-.052-.02.115.055-.003.043.016-.016.115.13-.132-.04.16.027.04.108-.096.037.027-.002.094.077-.045.006.085.061-.022.037.026.061-.02-.014.124.037.026.079-.056.054-.01-.008.117.066-.033.062-.026.03.042v.107l.068-.045.083-.072.015.074.03.04.017.076.07-.05.002.11.046.006.032.04.078-.07.018.07.062-.03.02.07.066-.046.07-.055.01.095.058-.023.012.092.044.01.026.06.098-.135-.012.163.04.02.046.006.06-.037.07-.066.016.094.027.06.057-.03.056-.026.016.095.06-.037.055-.028.013.107.076-.09.005.134.053-.018.03.054.066-.065.031.057.066-.07.04.026.017.1.068-.084.027.104.068-.15.04.027.038.061.043.017.045-.006.047-.029.046-.014.032.145.052-.077.036.071.041.021.072-.161.02.134.066-.08.011.116.097-.13-.035.182.109-.1-.044.13.14-.076.043.04-.062.069-.038.06-.045.028-.044-.028-.044-.032-.045-.03-.044.085h-.044l-.044-.033-.045-.005-.044.053-.044-.172-.045.013-.044.167-.044-.002-.044-.103-.045.085-.044.002-.044-.09-.044-.01-.045.1-.044-.087-.044-.014-.045-.031-.044.013-.044-.017-.044.026-.045.041-.044.018-.044-.1-.045.008h-.044l-.044.13-.045-.139-.044.084h-.045l-.044.027-.045-.03-.045.018-.045.068-.045-.098-.044-.008-.044.052h-.044l-.043.026-.045-.013-.04.053-.046-.017-.046-.017-.05-.062-.042.03-.038.059-.055-.078-.04.038-.042.022-.057-.076-.025.122-.06-.078-.047-.01-.025.103-.06-.068-.048-.012-.053-.026-.03.072-.05-.02-.01.147-.043.009-.06-.054-.04.022-.03.056-.075-.095-.056-.03.01.182-.088-.128-.043.013-.033.045-.038.026-.044.014-.046.001-.058-.026-.046.008-.044.011.022.178-.048.002-.043.01-.079-.072-.007.098-.094-.104-.026.053-.031.04-.056-.012-.027.049-.046.006-.012.078-.077-.053-.021.058-.064-.026-.031.04-.047.006.008.11-.039.021-.079-.05-.029.04-.05.004-.04.02.018.118-.099-.077-.033.031.028.132-.13-.122.042.148-.036.026-.118-.098.047.152-.098-.066-.039.025-.048.008-.047.013-.034.03-.013.059-.011.06-.093-.049.076.173-.139-.106.033.115-.062-.005-.045.015-.016.051-.012.055-.062-.004.018.088-.03.034-.062-.004-.072-.013-.002.066-.002.063-.043.02-.09-.031-.068-.004.044.108-.052.013-.03.033-.07-.006.07.127-.041.024-.055.01-.1-.03-.02.044-.012.05-.01.05-.018.043-.02.043-.057.01-.044.023-.003.055-.08-.003.089.122-.069.005-.027.035-.036.03-.01.046-.064.012.03.073-.044.025-.125-.026-.01.047.004.056-.043.027.041.076L1.755 22l.092.101-.062.018-.072.014.104.102-.126-.012.088.09-.156-.021.07.08h-.115l.12.099-.115.002.006.05-.049.031.037.062-.037.035-.045.032-.015.044-.001.046.11.077-.068.028-.027.04.019.05-.03.038.029.051.009.046-.127.023.127.065-.003.044-.099.032.067.053.013.046-.071.038-.097.037.097.053-.073.04.061.05-.002.044.03.046-.048.044-.005.044-.044.045-.044.046.013.045.134.042-.003.044.02.043-.007.045-.033.047-.02.046-.02.048.063.038-.086.056.11.03-.115.064.033.04.061.036-.034.053.01.044.07.03.05.035-.026.052-.082.068.023.04-.015.053.044.034.055.03-.05.065.158-.009-.098.085.045.031.048.03.058.023-.056.073.074.015-.028.064-.023.062.067.017-.027.066.013.046.01.047.031.035.064.015.086-.002-.035.076h.079l-.008.061.02.042.091-.014.017.043-.014.069.035.028-.028.084.038.027.09-.022-.05.11.108-.042.036.027-.022.086.105-.044.045.017-.03.098.015.051.044.018.022.046.077-.024-.029.108.067-.012.081-.033.051.005.006.068-.014.099.083-.042.062-.013.016.057.063-.017-.022.121.07-.03.011.07.02.059.124-.13-.007.104.086-.067.022.053.014.073.053-.006.044.011.011.082.026.054.04.02.06-.023.041.019.041.018.027.054.061-.031.028.054.09-.113.003.122.046.006.076-.087.017.093.038.027.069-.07.029.058.034.041.043.013.035.041.05-.013.037.039.046.003.063-.07.011.149.054-.03.073-.126.02.117.053-.029.042.014.047-.007.053-.044.026.11.054-.052.048-.017.033.08.053-.047.026.131.065-.138.042.02.043.016.03.133.053-.069.056-.102.033.117.045.008.045.002.052-.089.036.122.047-.034.041.08.05-.088.043.044.048-.072.043.059.044.036.047-.065.046-.045.043.123.046.01.045-.115.046.102.043-.116.044-.003.046.054.044-.041.05.104.04-.093.05.096.045-.019.046.013.046.008.038-.096.047.019.048.038.04-.062.051.065.045-.014.042-.027.044-.012.041-.033.047.005.053.06.04-.039.028-.117.06.094.04-.03.053.04.029-.095.046.006.05.018.04-.021.033-.06.055.043.025-.094.063.075.034-.048.068.09.02-.106.029-.064.072.097.022-.086.054.027.02-.094.071.086.04-.02.063.05.012-.113.037-.03.054.022.072.076.03-.051.003-.133.073.077.057.03.007-.117.034-.036.054.02.078.085.02-.073.044-.012.04-.019.053.014.025-.062.068.054.016-.085.043-.013.046-.004.027-.056.039-.023.03-.044.073.065.044-.011.055.018.03-.044.05.005-.006-.143.047-.003.035-.034.083.093.043-.011.002-.123.1.14.032-.041.012-.094.074.07.005-.113.07.06.044-.01.041-.018.008-.112.039-.022.086.11.02-.079.067.062.007-.082.014.063-.037.027-.003.063-.062-.001-.09-.032.02.09-.076-.016-.005.06-.042.022-.085-.027-.015.05.036.107-.138-.085.048.12.004.07-.068-.008-.007.06-.048.014-.073-.014.032.103-.08-.022-.079-.02-.035.03.027.095-.02.046-.029.034-.138-.084-.011.055-.054.008.075.147-.108-.05-.024.04-.013.052-.016.05-.087-.028.056.125-.043.02-.103-.042-.043.019.067.134-.137-.076.064.13-.093-.03.04.105-.15-.088-.016.048.063.126-.068-.005-.02.044-.094-.029.018.08-.116-.048-.03.034-.032.033.075.131-.038.026-.049.016-.056.01.005.064-.049.017v.06l-.11-.037-.043.023.073.122-.13-.05.008.064-.04.025-.015.046.018.073-.107-.028.067.11-.056.013-.038.027.005.06h-.075l-.018.043-.09-.01-.021.041.109.132-.116-.026-.029.035.069.1-.089-.005-.02.04.04.079-.168-.053.06.092-.005.048-.084.002.049.08-.044.027-.03.034h-.092l.098.105-.15-.029.057.08.028.066-.091.003-.083.01.06.079.001.05-.077.014.01.055-.007.046-.045.03-.003.047-.083.014.01.054.085.083-.04.033-.128-.003.092.084-.057.027.059.07-.168-.014.143.1-.116.006-.07.024.002.05.003.048-.032.037.032.058.04.06.012.05-.044.034-.02.041-.092.022.127.08-.149.008-.011.045-.014.043.111.073-.133.016.005.047-.047.037-.002.046.09.064-.09.03.057.055-.068.035.067.056-.047.04.08.055.018.047-.079.035-.072.039.027.048-.046.041.078.052-.068.04.075.05-.093.041.043.047.03.045-.005.045.017.045.023.044-.139.048.01.045.12.042-.081.048-.02.047.041.042.087.038.014.044-.043.049-.019.047-.06.054-.01.048.107.03.014.042-.048.054.128.022-.107.067.059.033-.095.069.13.015-.107.074.023.041.02.042.045.034.132.005-.016.052.034.035-.053.067.021.04-.017.054.027.038.048.029-.079.084.044.03.12-.006.044.027.003.048-.04.072v.052l-.026.067.134-.025-.004.054.04.027v.053l.096-.009-.071.103.118-.029-.065.102.02.043.013.047.065.008.048.018-.012.07.072-.003.055.01.011.05.05.013-.069.132.04.025.057.007.124-.066.017.045.006.06.044.017-.035.111.068-.01.059-.003.037.025.002.073.046.014.046.014.033.03.057-.005.007.072.043.016.005.08.097-.075.044.013.01.075.017.064.097-.088-.017.132.038.026.042.019.056-.014.054-.01.045.008.016.082.049.002.03.05.07-.058.027.057.04.025.087-.122-.001.154.039.032.064-.061.025.084.071-.094.033.055.064-.078.033.059.036.043.038.04.039.043.05-.015.054-.055.04.04.048-.021.036.07.058-.1.045-.007.046-.014.043.016.047-.038.034.164.052-.149.04.123.048-.108.041.142.046.023.045-.092.045-.016.046.085.045-.022.041-.09.044-.015.049.065.048.033.033-.138.057.129.038-.072.037-.064.063.138.041-.03.043-.02.034-.077.047.012.036-.056.066.111.027-.096.042-.02.044-.006.052.026.033-.055.077.128.026-.085.063.065.015-.12.023-.082.068.074.058.038.015-.106.056.031.039-.026.077.087-.003-.145.029-.05.049.004.078.08.015-.083.071.056.052.007.029-.048.054.011-.006-.124.043-.015.09.09.005-.098.043-.014.046-.008.063.026.027-.046.063.023-.04-.171.088.069.018-.06.025-.046.08.049.044-.015-.007-.1.067.024.006-.076.102.08.01-.068.07.026.04-.023-.005-.088.08.038.02-.05-.02-.109.066.016.045-.014.012-.06h.056l.027-.04.046-.012.061.006-.043-.129.058.003.084.032-.003-.075.06.003.003-.067.11.06-.032-.107.007-.06.11.056-.01-.08.094.036-.07-.143.053-.008.064.002-.023-.087.029-.035.111.047-.012-.075.123.055.002-.06-.034-.093.008-.053.146.07-.075-.126.121.045-.044-.097.1.025-.095-.137.095.019-.028-.08.113.033.016-.046.056-.013-.083-.12.048-.02.045-.021.122.033.032-.033-.051-.093-.03-.076.124.032-.082-.112.068-.007.123.03.024-.04-.041-.081-.046-.085.128.03-.046-.084.055-.018.034-.031.063-.013.043-.026-.018-.066.001-.053.1.01-.068-.096.023-.038.103.011.01-.047.055-.018-.094-.112.073-.007-.058-.09.046-.024.155.043-.105-.118.152.042-.115-.125.095.007-.046-.082.07-.009.07-.01-.064-.093.046-.024.116.02v-.052l-.04-.08.112.02-.027-.072-.037-.078.012-.046.088.004-.016-.065.084.002.085.003-.077-.107.01-.049.103.017-.026-.073.05-.012-.034.03-.022.04-.065.029.13.083-.11.017.058.062v.046l-.092.024.033.054-.016.043-.011.043.077.063-.02.04.002.046-.162.015.133.07-.14.021.129.068-.03.04-.012.043-.142.025.107.06.048.051-.014.043-.05.04.028.048-.08.036-.057.04.03.048.052.05-.033.042-.048.042.129.053-.098.04-.02.044.082.048.045.046-.003.044-.009.044-.002.044-.048.045-.12.046.081.044-.074.047.133.041.048.043-.092.049.022.043-.04.048-.034.047.095.039-.061.05.118.035-.127.056.061.04.089.035-.12.059.046.04-.083.055.065.037.028.042-.048.053v.046l.032.04.005.045.046.038-.063.058.112.024-.105.067.186.006-.108.07-.004.047.082.027-.067.062.052.034.064.03.023.04-.092.071.14.007-.053.062.076.024-.088.074.118.01.005.045-.028.056-.063.069.034.036-.042.063.114.007-.02.055.06.025.028.037-.024.058.07.02-.062.075-.032.063.047.029.039.032-.03.063.05.027.01.046.149-.022-.072.085.01.046-.025.063.162-.032-.086.096.082.007-.04.073.07.012.02.041.065.014-.049.081.02.041.071.01-.062.09.029.036.097-.008-.04.08.128-.03-.067.099.138-.04-.101.124.083-.003.073.003.044.022.005.052-.038.085.118-.034.01.049.039.025.03.033-.077.12.117-.039-.048.1.09-.018.005.054.072-.003-.017.075.089-.02.007.053-.017.077.023.04.052.013-.002.066.01.053.102-.04.074-.012.016.048-.019.086.026.038.103-.047-.016.085.021.044.09-.037-.06.14.105-.055v.07l.013.057.028.038.132-.097.035.028.03.032-.001.077-.006.084.082-.037-.018.104.05.008.1-.069.039.023-.001.083.046.012.027.04.078-.04.023.046.012.068.077-.043-.038.155.125-.13-.047.18.06-.017.084-.062.024.05.003.089.1-.095.039.023-.01.114.089-.074-.01.118.102-.104-.004.107.027.047.037.026.032.04.05-.003.032.042.061-.026.03.047.04.023.05-.005.032.045.063-.037.072-.07-.002.146.068-.07.048-.017.026.094.044.01.042.038.045.007.046-.008.053-.135.044.006.037.145.05-.134.044.026.045-.033.04.117.046-.014.046-.057.043.017.043.093.047-.149.043.063.045-.046.044.056.045-.026.043.117.046-.073.045.012.045.072.045-.01.044-.067.044-.07.045.04h.045l.046.113.044-.037.043-.08.044-.036.044-.003.048.096.04-.133.045.003.046.035.052.136.042-.043.037-.107.05.071.051.036.044-.028.022-.09.048.004.07.055.05.001.01-.09.042-.015.01-.08.09.081h.05l.041-.019.025-.049.027-.047.01-.074.086.064.014-.067.074.04.026-.043-.02-.125.113.106-.018-.12.025-.046.06.014.04-.021.01-.069.11.093.014-.062-.004-.092.114.099-.034-.14.106.082v-.086l.072.03.041-.018.005-.076.061.011-.014-.104.035-.029.106.078.01-.067-.02-.11.11.08.026-.042-.029-.12.044-.014.076.03.022-.045.003-.072.078.03.01-.06.066.013.088.036.032-.033.038-.025.025-.04-.033-.104.009-.057.125.07.046-.017-.043-.111.037-.026.05-.013.03-.032-.02-.083.098.032.024-.04.018-.045.044-.02-.044-.1.08.012v-.059l.019-.043.09.018.023-.04-.002-.06.023-.038.064-.007.063-.008-.08-.119h.072l.115.03.035-.032-.086-.117.072-.004.044-.023.038-.03-.038-.08.088.006.042-.027-.071-.099.115.02.035-.033.031-.034-.083-.101-.012-.059.112.013.021-.039-.025-.065.11.008.038-.03-.121-.115.12.011-.092-.096.06-.02.027-.036.117.006-.083-.088.03-.035.064-.02.055-.026-.067-.078h.119l-.128-.1.004-.046.023-.038h.127l.004-.046-.037-.061.083-.018-.028-.057.03-.037.01-.044.03-.038.042-.034-.076-.07.086-.02.01-.044-.034-.057-.055-.062.012-.042.1-.02-.005-.048.008-.044.062-.031-.114-.072.026-.04.068-.03.054-.034.024-.042.047-.036-.138-.072-.013-.048.047-.036.11-.027-.048-.054.04-.04-.109-.06.015-.043.04-.04.003-.044-.038-.05.136-.029-.04-.05.07-.037-.02-.048-.122-.056.163-.031-.092-.053.02-.043.044-.042.006-.045v-.045l-.063-.048.028-.043.028-.044-.014-.046.025-.044-.084-.046-.01-.045.052-.044.06-.045-.053-.045-.055-.044.11-.047.01-.045.014-.046-.011-.044-.137-.04-.031-.043.041-.047.017-.045.05-.048.049-.049-.09-.038.037-.048-.11-.035.019-.046-.05-.04.111-.056.021-.047-.055-.039.073-.054-.029-.042-.032-.041-.06-.037v-.046l-.009-.043-.008-.045-.057-.035-.005-.044-.022-.041.02-.05.018-.048.039-.053-.009-.044.019-.05-.028-.04-.018-.042.03-.053-.018-.042v-.046l-.088-.069-.028.125h.078l.035.03.066.009.047.021-.033.078.101-.015-.065.098.036.03.039.027.062.012.033.032.024.037-.07.101.02.04.064.01.07.009-.083.108.084-.002-.01.062.04.026.086-.003.073.005-.006.057-.025.07-.014.064.089-.005.032.032-.033.076.012.046.006.05.073.004-.032.076.07.007.003.052.065.01.084-.003-.035.079-.03.074.111-.022.049.02-.03.076.003.053.021.04.139-.044-.063.1.057.014.072.003-.038.084.054.015.068.004-.035.082.054.015.047.02-.023.076.022.039.016.044-.018.072.142-.057.044.021-.062.108.083-.01-.07.117.066.003.024.04.135-.059-.06.112.034.03.027.036.111-.041-.05.106.055.011-.035.095.055.01.131-.066-.042.104-.023.087.129-.067.027.035.057.005.002.063-.01.076h.06l.088-.03.034.029.006.06-.042.117.076-.02-.016.09.047.014.072-.018.012.06.063-.008.064-.01.004.07.086-.04-.023.106-.004.083.047.014.052.005.037.027h.055l.01.063.03.039.032.034.088-.053.026.043.016.06.074-.034.079-.043.024.046-.022.127.05.003.043.017.053-.002.08-.054-.035.16.037.03.057-.013.091-.08-.005.111h.05l.021.063.064-.032.02.067.063-.03.038.026.046.006.061-.03-.005.133.054-.014.053-.01.045.006.028.058.07-.064.004.127.077-.087.035.039.068-.069.038.027.027.068.04.024.046.002.052-.02.047-.007.028.077.046.002.045.001.03.083.048-.011.039.043.065-.11.052-.043.03.102.04.037.057-.086.04.041.037.076.052-.066.052-.08.032.171.044.014.051-.108.046-.026h.044l.043.102.045.028.046-.09.044-.063.045.04.042-.054.05.115.045-.012.05.066.036-.133.055.103.03-.14h.044l.047.016.049.025.05.025.03-.091.04-.024.074.148.032-.07.025-.094.066.087.04-.024.052.02.042-.02.028-.069.07.076.046-.006.017-.093.044-.011.046-.004.027-.055.04-.024.03-.043.073.063.01-.09.062.029.02-.062.044-.01.101.103-.038-.175.067.033.093.077.027-.047.025-.047.067.023-.041-.153.093.064.043-.018.025-.044h.055l.032-.035-.014-.095.085.04.043-.02h.059l.034-.032.008-.06.056-.006.044-.02-.051-.123.014-.05.036-.025.123.06-.089-.15.062-.001.002-.059.038-.024.075.007.029-.035.103.027-.069-.113.038-.027v-.056l.058-.012.025-.037.01-.047.083.002.009-.048.08-.003.012-.046-.105-.115.132.026.03-.035.021-.04-.072-.09.156.03-.086-.093-.016-.057.11.002-.065-.078.077-.015-.015-.055.09-.011-.051-.068-.024-.056.148.005-.075-.074.1-.015-.064-.067.103-.017-.034-.057.053-.032-.132-.082.02-.04-.013-.048.06-.031-.007-.047.095-.027-.06-.057.123-.025-.125-.065-.006-.046.077-.035-.03-.048.04-.04-.052-.05.054-.04-.078-.051.136-.036-.013-.046-.037-.046-.025-.046-.038-.046.012-.044.003-.044.133-.046.002-.046-.037-.045-.15-.038.152-.053-.111-.038.02-.046.112-.054-.178-.029.126-.057-.006-.045-.081-.036.046-.05.047-.053-.123-.027-.013-.043-.05-.036.141-.07.013-.05-.176-.01.143-.076-.096-.025.028-.053-.082-.026-.017-.042.056-.06-.068-.029.114-.077-.05-.033-.06-.03-.038-.035.019-.053-.029-.038.044-.061.011-.051-.108-.011-.023-.04v-.047l-.054-.028.02-.056-.064-.023.02-.055.075-.078-.034-.035-.1-.008.043-.067-.077-.016.013-.054-.025-.04-.08-.012.092-.091v-.05l-.1-.002.093-.096-.165.031.108-.104-.076-.012.043-.073-.166.037.012-.058.06-.084-.047-.026.015-.06-.099.005-.075-.007-.001-.05-.048-.023.129-.134-.176.059.13-.14-.144.043-.017-.043.07-.103-.137.04.087-.115-.147.05.037-.081.015-.068-.003-.054-.11.027-.063-.008.022-.074-.052-.017.065-.11-.124.043v-.057l-.023-.04-.009-.053-.024-.038-.038-.027-.118.045.065-.118-.12.049.026-.085-.001-.06-.07.004.047-.106-.098.03-.02-.042-.039-.025-.021-.042-.091.027-.013-.05.021-.084-.01-.054-.09.027-.069.008-.006-.059.044-.111-.11.05-.025-.038-.018-.047-.011-.055-.097.04-.006-.06-.057-.003.032-.103-.038-.025-.008-.059-.043-.019-.114.063-.048-.014.076-.156-.043-.018-.07.012-.092.039-.02-.046-.03-.032-.058-.002.007-.077-.063.006-.029-.035v-.07l-.061.004.024-.1-.024-.041-.111.065.034-.112-.062.005-.04-.022-.003-.068-.038-.025-.11.066.004-.077-.01-.058-.006-.064-.102.053.004-.076-.035-.028-.053-.006-.093.044-.038-.024.03-.108-.043-.018h-.059l-.012-.055-.063.005.022-.097-.014-.054-.103.055-.021-.045-.07.015.058-.14-.06.002-.09-.022.087.008.01.087.056-.014.07-.05.011.087.011.087.045.008.07-.048.065-.035.04.018.01.09.02.063.09-.089.053-.01.014.078.073-.051.036.028.046.007.03.043.001.103.016.07.115-.14.001.103.069-.04.015.072.01.088.097-.105-.017.144.067-.036.064-.033.029.044.02.065.051-.006.054-.01.045.011.046.006.003.102.021.063.112-.14.018.07.055-.012.02.067.04.018.015.076.094-.103-.003.122.028.048.078-.07.061-.03.035.034.005.104.063-.034.045.007.04.023.061-.034.04.021.046.005-.016.165.095-.122.037.027.015.091.043.012.06-.034.025.062.073-.074.024.07.026.062.037.03.078-.096.033.046.02.088.081-.117.018.098.062-.053.006.141.067-.07.059-.05.024.087.032.057.073-.111.022.1.062-.067.014.144.077-.148.031.066.048-.011.036.051.053-.044.046-.011.02.168.046-.006.063-.126.035.08.054-.09.044.013.032.134.054-.098.044.01.04.07.053-.1.038.089.043.042.047-.033.043.053.044.032.047-.048.047-.035.044.04.048-.079.043.083.045.022.047-.14.044.04.045.05.045-.082.045.037.044-.054.048.101.047.053.041-.099.044-.03.047.046.049.052.044-.019.048.022.04-.057.045-.003.037-.084.043-.016.044-.01.055.09.05.04.03-.127.044-.003.05.04.058.073.03-.102.053.046.054.042.047.004.016-.155.053.038.04-.025.042-.023.072.112.005-.172.065.077.046-.004.047.003.06.044.027-.068.048.003.016-.1.067.064.02-.087.063.05.04-.021.058.026.022-.073.061.035.024-.063h.049l-.001-.117.084.082.029-.047.078.063.028-.05-.02-.145.11.122.05-.001-.023-.143.04-.018.081.053.003-.087.073.037.033-.034.057.007.003-.08.011-.063.067.02.028-.038.091.051-.03-.12.081.035.052-.007-.009-.085.006-.064.068.012-.02-.092.064.006.05-.01.076.015.028-.036.012-.053h.064l.044-.021.04-.026.006-.057-.008-.069-.033-.087.084.013-.03-.083.047-.017.124.04.009-.05-.064-.103.09.01-.045-.086.155.052.03-.036.016-.044-.092-.11.11.014.003-.05.065-.016-.027-.067.067-.015-.027-.065-.02-.06.108.002-.08-.086.133.01-.012-.056-.01-.053.036-.034-.1-.085.078-.019.008-.044-.038-.059.12-.01-.013-.05-.028-.055.13-.011-.003-.049-.047-.058-.051-.056-.037-.053.075-.03.106-.027-.103-.063.061-.036.053-.039-.102-.058-.017-.046-.012-.045-.002-.044.019-.043.089-.039.05-.043-.082-.047.093-.044-.074-.046.015-.044-.043-.044-.06-.042.11-.05.033-.047-.11-.037.133-.056-.174-.028.051-.05-.07-.036.11-.06-.016-.043.06-.055-.173-.016.11-.065v-.046l-.017-.043.016-.05-.112-.02.05-.058-.095-.022-.03-.037.012-.05.086-.07.025-.056-.005-.046-.133-.004-.04-.033.045-.063-.033-.036.06-.072-.103-.007-.06-.024-.02-.039.039-.065-.019-.04.069-.082-.102-.001.034-.067-.085-.008.018-.06-.065-.016-.069-.013.024-.065-.014-.042-.024-.037-.044-.026.07-.095-.151.041.096-.114.001-.055-.144.042-.028-.034.102-.126-.097.014v-.056l-.017-.044-.121.036-.017-.043.027-.078.003-.06-.09.016.032-.086-.128.05-.017-.044-.023-.038-.001-.059.035-.093-.02-.043-.087.02-.105.04.006-.069.024-.087-.115.054.004-.067-.044-.02.027-.094-.124.07-.022-.043.068-.144-.027-.038-.128.08-.027-.036-.051-.006.003-.075-.07.016.003-.075-.06.004.029-.113-.042-.02-.092.05-.034-.027-.067.018-.016-.055.014-.1-.02-.052-.066.019-.057.006-.072.03v-.085l-.077.041.051-.172-.05-.004-.06.012-.036-.026-.057.01-.075.043.038-.164-.073.041-.082.062-.041-.017-.003-.094-.051.002v-.103l-.043-.017-.026-.049-.106.124.011-.136-.1.117-.042-.013.021-.166-.075.063-.021-.067-.06.03-.045-.01-.057.022-.038-.024-.055.018.012-.163-.078.086-.042-.019-.019-.083-.046-.005-.03-.058zm-6.16-.087-.034.042-.04.025-.067-.062-.065-.062-.012.117-.056-.034-.035.043-.039.025-.043.014-.079-.115-.009.135-.065-.068-.012.126-.075-.107-.043.013-.013.125-.068-.08-.022.088-.044.01-.056-.038-.059-.048-.01.133-.074-.101-.019.101-.034.047-.05-.014-.07-.091-.02.1-.046-.002-.037.032-.032.054-.09-.154-.003.154-.043.015-.084-.135v.162l-.046.004-.075-.097-.037.035-.027.065-.024.075-.043.013-.044.01-.087-.134-.033.045-.01.122-.052-.016-.078-.1-.046.007-.01.114-.057-.03-.05-.008-.047.002-.023.074-.022.075-.09-.122-.018.084-.05-.005-.026.061-.058-.027-.05-.006h-.047l-.037.033-.023.065-.076-.07-.011.095-.052-.01-.026.056-.014.084-.085-.085-.031.04-.016.075-.094-.1.015.14-.053-.006-.023.056-.095-.093-.03.04.01.118-.077-.05-.074-.04.017.121-.084-.054-.018.057-.065-.019.036.139-.056-.006-.081-.04-.017.056-.084-.037-.036.03.066.15-.113-.064-.042.022.05.116-.143-.077.088.14-.046.017-.007.047-.034.027-.143-.037.048.08-.003.047-.015.04.013.05-.07.026.027.05.058.052-.074.035-.088.043.048.047.077.04-.017.045-.035.05.074.031-.016.048-.067.064.054.031.054.03-.063.07-.018.058.042.033.128-.01-.09.095.058.021-.035.073.131-.024.014.044-.01.06h.08l-.028.073.037.03-.02.07.141-.05-.007.061.063.006-.002.058.053.013.026.036.036.027.023.039.013.047-.028.087-.004.065.13-.061-.077.136.117-.051.042.02.023.04.023.042.047.016-.028.093.068-.007-.015.082.126-.07-.05.123.012.054.108-.053.018.046-.008.078.065-.005.09-.036-.062.142.11-.06-.05.128.137-.092-.03.106.067-.01.042.02-.023.099.033.03.113-.067-.053.137.046.016h.058l-.013.088.144-.108.022.046-.05.137.048.01.045.017.095-.047-.017.096.02.046.113-.07-.06.149h.059l.023.043.035.029h.057l.07-.016-.015.094.048.013.02.047.02.049.05.01.122-.081.037.026.014.055.047.015-.042.12.092-.04.003.067.088-.035.004.066.01.057.036.027.101-.045.004.063.037.027.01.054h.064l.05.108-.118.033-.028-.096-.043-.01-.06.06-.012-.148-.061.068-.035-.048-.076.116-.04-.029-.034-.044-.03-.062-.042-.015-.07.076-.046-.005-.043-.016-.024-.076-.05.006-.042-.014-.04-.026-.019-.082-.079.091-.02-.078-.025-.066-.081.093-.036-.032-.04-.02-.023-.07-.029-.051-.082.09-.025-.06-.037-.031-.046-.008-.046-.005-.05.007-.044-.013-.014-.09-.085.098.008-.146-.093.117-.018-.078-.066.047-.02-.075-.044-.012-.022-.07-.055.02-.069.059-.023-.067-.036-.033-.027-.062-.05.006-.019-.086-.06.039-.025-.07-.09.136-.048.003-.02-.088-.037-.035-.045-.006-.062.056-.047.007-.01-.14-.035-.047-.047-.001h-.047l-.06.059-.031-.062-.051.024-.062.075-.03-.07-.059.06-.009-.172-.073.132-.017-.14-.064.096-.055.05-.04-.026-.022-.141-.05.022-.05.032-.037-.072-.06.13-.034-.111-.042-.053-.048.008-.048.056-.045.038-.043.036-.049-.082-.045.012-.03.111-.073-.165-.013.158-.06-.055-.01.107-.104-.146-.002.11-.081-.053.019.115-.11-.068-.028.043.047.112-.08-.011.014.066-.05.021.005.053.038.064-.062.02-.084.017.05.062-.082.026.104.067-.093.029.032.05-.093.032.03.05.025.049.071.052-.028.042.024.047-.003.044-.035.043-.142.037.081.05-.025.044-.02.044-.041.045.159.046-.003.045-.154.047.178.041-.163.05.127.04-.102.05.025.044.106.04-.058.048v.045l-.035.048.067.04.056.04-.116.056-.05.05.157.029-.07.053.023.042-.082.056.014.044.167.023-.038.05.017.044-.064.054.084.033-.15.069.042.039.03.041.055.036.051.037-.076.059.057.035.07.033v.046l-.135.07.137.02-.098.064.032.04-.015.049.084.03-.015.049-.074.06.115.024-.108.066.117.024.057.034-.104.067.049.036-.03.052-.04.053.111.024-.067.06.132.019-.055.057-.003.047.111.024-.023.051-.019.05-.053.055-.007.047-.01.047.145.02-.15.072.142.021-.126.068.168.017-.062.056.066.035-.03.05-.092.06.018.043.073.034.051.04-.018.047-.1.058.022.043.124.03-.064.053-.007.046.072.038v.046l-.116.055.106.037-.069.05.004.08-.02-.053-.038-.03.073-.092-.127.019.108-.111-.106.007.037-.071-.046-.026.02-.064-.08-.006-.022-.04.036-.07-.012-.046-.05-.023-.017-.042-.07-.013-.017-.041-.021-.04.01-.056-.086-.003.04-.074-.076-.01.03-.067-.018-.042-.005-.049-.041-.029.018-.061-.125.018-.058-.02-.003-.05-.012-.044-.048-.025.117-.116-.122.016.06-.085-.055-.021-.096.002.048-.079-.04-.029-.087-.003.078-.095-.116.012.078-.094-.08-.007-.05-.024-.03-.034.037-.072.001-.052-.08-.007-.056-.02-.011-.046.046-.078-.05-.023.029-.068-.045-.027-.003-.05-.108.009.1-.108.003-.053-.16.037.038-.073.043-.076-.06-.019-.028-.036-.055-.022-.013-.044-.096.011.065-.098-.008-.049-.092.01.014-.065.031-.076-.042-.026-.073-.003.009-.062-.054-.016-.002-.055-.094.016.055-.1-.145.058.041-.09-.074.004-.008-.051.051-.11-.137.07.06-.125-.065.002-.037-.026-.023-.045-.043-.018-.032-.036-.045-.016-.026-.05-.049-.009-.047-.012-.056.023-.04-.026-.042-.039-.048-.036-.046.11-.05-.052-.043.024-.056-.028-.033.048-.028.047-.087-.069.042.165-.113-.095-.03.039-.043.02.006.079-.058.002-.005.06.01.072-.095-.031-.051.014.047.103-.124-.049.078.123-.114-.026.011.059-.081.007.017.06-.004.049-.04.03-.01.045-.06.019-.011.046-.023.038.063.086-.02.04-.12-.014-.035.033.122.116-.128-.016-.054.021.103.107-.134-.021.037.07-.008.047-.032.034.056.081-.148-.027-.03.034-.012.046.074.091-.058.02.026.065-.108-.006.03.068.007.054-.1-.002.07.09-.115-.01-.06.02.013.057-.051.005v.013l.044-.05-.07-.036-.006-.043.078-.057.01-.048-.054-.035.096-.064-.073-.032-.1-.024.106-.069-.14-.013.057-.059-.003-.046-.055-.031.055-.061.053-.062-.176.004.079-.07.001-.047-.062-.027-.047-.032.055-.066-.102-.01-.018-.04.11-.091h-.125l.125-.1-.107-.003.062-.077-.037-.034-.152.023.04-.069.066-.085-.103.003-.054-.02.047-.08-.015-.043v-.055l-.088.004-.024-.038-.055-.015-.037-.027.038-.088-.037-.03-.114.047.033-.094.009-.078-.02-.052-.103.058-.034-.029-.029-.038-.009-.082-.04-.032-.051-.005-.077.094-.023-.104-.052.022-.048.046-.04.063-.044-.048-.056-.066-.055-.027-.043.03-.006.117-.086-.087-.026.053-.025.048.002.088-.111-.09.001.083-.098-.053.015.095-.044.024-.041.027-.059.015.108.126-.027.036-.013.046-.144-.043.043.083-.087-.005-.006.05.06.096-.075.003-.06.014.029.072-.03.035-.025.037-.01.046-.073.005-.077.002-.025.037-.024.038.11.127-.063.013-.016.043-.085-.003-.03.035-.085-.003.003.056.07.102-.131-.034.04.082.01.06-.122-.027-.035.03.028.074-.03.034-.044.024-.022.04-.054.017-.034.031.108.127-.087-.003-.011.046.014.064-.089-.005.035.078-.1-.013-.052.02.07.1-.06.014-.008.05-.097-.012.047.086-.1-.013.016.066.021.068-.044.025.005.058-.018.042-.015.045-.068.008-.058.016-.063.011-.007.05.011.062.006.058-.033.032-.095-.008-.044.024.08.108-.133-.034.024.07-.022.04-.04.029.025.071.01.062-.104-.015.062.097-.1-.013-.024.038-.044.026h-.083l-.013.045.045.088.045-.044-.023-.05.057-.034-.005-.046.007-.043.029-.04-.05-.055-.02-.05-.026-.052.092-.025.014-.043.01-.044.026-.04-.019-.05.072-.03-.041-.055.001-.045.077-.029-.017-.05-.018-.05-.087-.064.125-.018.032-.039-.059-.058.035-.038.01-.043.028-.04-.083-.063-.026-.051.163-.01-.003-.047-.058-.058.064-.033.007-.044-.07-.06.066-.032.01-.044.013-.043-.078-.061-.006-.047.043-.037.119-.023v-.045l-.071-.06.046-.037-.015-.049.047-.036V26.4l-.05-.054.061-.035.04-.039.017-.043-.01-.047-.125-.066.05-.037.004-.045.107-.03.005-.044-.136-.065.004-.044.17-.023-.116-.06.032-.042.008-.044-.013-.047-.01-.046-.01-.046.066-.039-.036-.049-.03-.047-.005-.046.045-.04.077-.04.038-.044-.072-.049.098-.041-.117-.05.074-.042-.04-.046.048-.045.032-.046-.003-.046-.021-.045-.14-.039.029-.045-.033-.042.008-.045.017-.046.02-.047-.082-.032-.009-.042.135-.072-.022-.042-.112-.017.02-.051-.032-.035-.044-.028.041-.064-.077-.008.015-.056.077-.105-.113.028-.05-.012.033-.096-.067.01-.012-.065-.099.082-.016-.057.002-.12-.037-.039-.065.046-.063.066-.022-.11-.066.116-.022-.168-.05.032-.054.113-.039-.126-.047.124-.045-.034-.047-.087-.04.11-.042.037-.058-.162-.03.169-.049-.046-.046-.012-.054-.058-.05-.029-.024.137-.044.003-.063-.093-.043.017-.02.124-.072-.122-.023.107-.07-.106-.032.061-.033.055-.032.058-.056-.036-.07-.09-.006.152-.075-.103-.048-.006-.015.113-.04.026-.076-.098-.02.091-.038.028-.02.089-.092-.146-.039.03-.011.11-.063-.045-.033.044-.024.072-.051-.012-.038.03-.08-.094-.024.068-.04.024-.022.075-.046.006-.047.002-.058-.028-.043.017-.036.033-.061-.04-.048.003-.04.024-.038.026-.028.056-.055-.018-.025.065-.026.061-.1-.147-.01.11-.07-.06-.01.108-.07-.063-.034.04-.055-.022.005.152-.066-.051-.063-.044-.002.135-.045.008-.072-.07-.032.048-.064-.05-.055-.025-.042.015-.022.08-.015.105-.054-.02-.077-.105-.024.08-.053-.027-.03.067-.047-.009-.113.056.094-.08.014-.047.114.046-.007-.068-.046-.11.13.07-.003-.068.027-.036-.023-.09.113.056.062.002L13 24.33l.119.062.012-.053-.007-.073.032-.03.003-.064.063.005.104.05.006-.06.07.011.04-.021-.031-.103h.119l.027-.035v-.069h.059l.047-.014-.004-.072.014-.052.028-.035.07.013.031-.032.012-.053.044-.019.01-.056.076.02-.027-.098.082.025.043-.019.01-.056.002-.064.07.01.016-.05-.012-.08.08.023.028-.036-.007-.074.11.054.008-.058-.002-.068.108.05.026-.038.004-.062-.018-.084.147.09.017-.049.002-.062.036-.028-.048-.113.146.084.043-.02.013-.051-.023-.087.037-.026.084.018.03-.033-.034-.094.082.015.015-.048-.013-.072.097.027-.041-.097.055-.011-.039-.092.08.01.12.04-.076-.12.013-.046.142.054.003-.056-.058-.097.083.004.038-.03.061-.013-.117-.127.143.034-.09-.102.095.001.037-.032-.07-.08.154.014.023-.043-.12-.082.027-.036.13-.026-.034-.053-.08-.05.046-.045-.104-.036-.002-.04.109-.064.046-.062-.079-.026-.113-.004.082-.083-.031-.036-.08-.006.079-.102-.027-.04-.138.046-.04-.022.084-.13-.125.054-.048-.013.046-.111-.028-.037v-.069l-.13.086-.026-.04.024-.104-.072.021-.042-.017-.031-.033-.009-.07-.035-.029-.085.052-.023-.05-.046-.009-.011-.073-.07.033.01-.114-.094.085.008-.117-.057.014-.017-.07-.04-.02-.077.058-.077.065.02-.159-.07.05h-.05l-.033-.035-.052.009-.015-.084-.047-.006-.07.06-.003-.124-.07.06-.043-.01-.06.034-.01-.107-.052.014-.025-.069-.072.076-.014-.104-.057.03-.04-.023h-.047l-.05.01-.04-.022-.055.026-.013-.117-.066.068-.055.026-.002-.158-.085.14-.012-.128-.064.062-.032-.053-.052.019-.053.022-.041-.018-.055.03-.01-.142-.056.035-.03-.069-.035-.045-.065.074-.064.071-.008-.157-.073.114-.046-.003-.037-.042-.023-.1-.05.014-.034-.05-.067.09-.045-.002-.04-.025-.036-.05-.06.06-.049.016-.045-.006-.038-.038-.053.031-.04-.029-.026-.088-.054.036-.026-.092-.05.019-.033-.065-.05.021-.037-.04-.059.06-.06.066-.02-.116-.058.048-.036-.043-.056.045-.025-.084-.053.032-.04-.04-.058.1-.021-.17-.067.118h-.052l-.033-.056-.082.023.084-.149-.059-.003-.068-.02-.042-.093.102-.012.044.024.044.06.044.035.046-.056.043.066.046-.083.046-.044.045-.011.042.117.046-.104.043.132.045-.044.046-.072.044.026.045-.055.043.07.045.086.045-.125.044.07.045-.073.045-.015.045.117.045-.066.044-.04.045-.003.044-.014.045.021.046.09.044-.062.046.05.042-.117.047.127.042-.132.045.015.047.099.044-.046.043-.054.047.084.047.05.043-.053.046.036.041-.08.05.1.04-.074.047.039.038-.135.05.08.045.02.047.032.044-.016.037-.13.056.16.04-.071.05.062.04-.06.05.046.043-.01.04-.068.05.04.038-.064.045-.005.048.033.045-.008.05.044.027-.157.044-.012.062.133.036-.07.04-.04.057.079.047.012.048.009.034-.072.04-.037.047.01.047.011.05.025.024-.12.038-.032.06.074.038-.041.033-.06.044-.006.049.015h.045l.043-.014.059.047.03-.056.072.086.041-.023.01-.119.043-.01.045-.006.03-.05.053.02.072.064.004-.11.086.088.058.017.016-.075.035-.032.02-.06.008-.078.06.017.075.037.059.007-.013-.1.096.055.035-.032-.02-.094-.018-.083.119.056.034-.03-.072-.117.158.062.028-.04-.115-.118.127.015-.004-.052-.014-.051.03-.038.042-.038-.016-.049-.007-.045-.005-.045.043-.048-.133-.027.102-.062.014-.051-.055-.032-.046-.031.085-.08-.005-.048-.086-.013.044-.07-.053-.027-.127.014.1-.102-.107.006.089-.1-.154.035.01-.056-.058-.018-.016-.042.074-.1-.045-.024-.05-.021.043-.083-.107.017-.071-.005-.04-.026.059-.096-.043-.025.033-.079h-.075l.016-.068-.043-.024-.09.011.013-.065-.088.01-.05-.018.117-.146-.063-.007-.03-.034-.118.036-.042-.023.098-.136-.048-.019-.08.006-.073.002.059-.106-.047-.02-.022-.04-.11.033.024-.078.003-.06-.035-.03-.02-.043-.017-.044-.047-.02-.061-.006.04-.093-.108.033-.032-.033-.01-.05-.038-.027.024-.08-.124.047.015-.073-.037-.027-.002-.058-.048-.019-.063-.005.084-.133-.109.035-.083.012.075-.125-.118.043.055-.109-.001-.059-.071.002.014-.072-.148.07.01-.069-.058-.009.073-.125-.086.016-.082.012-.044-.02-.02-.044.015-.072-.018-.044.013-.072-.08.01-.093.023-.01-.052-.036-.028.025-.082.009-.067-.113.038-.015-.047.043-.097-.141.062.088-.135-.023-.04-.088.016-.007-.053-.048-.018.02-.075-.02-.04-.072.002-.078.005.013-.067-.008-.05-.033-.03-.116-.078.133.018.016.08.08-.072.041.022.003.1.058-.018.013.077.044.01.035.03.062-.023.07-.034.004.085.026.046.024.049.032.034.092-.073v.09l.02.057.108-.1.044.014.002.084-.012.11.08-.05.027.044.094-.072-.048.168.12-.114-.03.135.112-.1.043.016.003.08v.088l.05.003.047.008.016.06.107-.092-.003.092.084-.054-.024.126.01.07.108-.093.01.073.006.076.092-.067.068-.027-.031.14.054-.004-.001.091.05.005.082-.052v.088l.082-.05.065-.024.033.033.038.023.041.02-.012.114.074-.042-.018.125.038.025.053-.002.063-.022.06-.018-.004.105.03.039.053-.002.092-.08-.013.124.089-.075-.002.105.092-.086-.019.142.074-.049.008.089.076-.056.023.058.044.011.07-.045.038.023.053-.01.003.109.076-.068.01.094.06-.03.058-.026.015.089.042.017.028.056.032.05.067-.06.031.053.039.032.074-.103.014.13.051-.02.047-.001.043.02.043.015.05-.028.037.08.05-.018.046-.001.047-.036.044-.088.046.067.048.021.048.015.028-.102.062.072.014-.11.06.04.068.044v-.104l.067.025.065.006-.049-.125.018-.039.135.056.035-.035.04-.033-.126-.125.12.013.051-.027-.109-.095.073-.018.08-.022.01-.045-.129-.082.15-.008-.12-.074.05-.034.027-.04.105-.028-.043-.053-.107-.06.086-.034-.065-.052.057-.038-.021-.046.066-.04-.081-.05-.003-.045.102-.04.008-.044-.099-.047.021-.044.04-.043.094-.045-.169-.044.088-.045-.012-.044-.034-.044.1-.047-.082-.043-.027-.043-.019-.044-.015-.044.048-.047-.068-.041.086-.05-.066-.04.097-.052-.116-.037-.007-.045.138-.055-.145-.033.08-.052-.047-.04.037-.049.075-.052-.1-.036-.034-.042-.049-.04.055-.05.012-.048v-.045l-.083-.036.01-.046L17.88 13l.046-.051-.042-.04.142-.063-.128-.03-.018-.043-.023-.043.142-.063-.082-.035-.085-.035.053-.052.095-.058-.18-.022.019-.048.017-.048.095-.059-.13-.028.126-.063.013-.047-.139-.026.006-.046.092-.059-.08-.034.085-.058.002-.045-.096-.033-.04-.04.11-.06-.071-.036-.093-.033.148-.065-.076-.035-.022-.043-.003-.044.067-.054-.074-.036.041-.05-.061-.038.083-.054-.166-.027.035-.049-.05-.04.163-.062-.092-.036-.017-.043-.011-.044.035-.047-.018-.044-.002-.045.052-.045-.111.008.1-.022-.072.089.043.027.047.026.01.045.14-.024-.084.096-.03.066.167-.038.015.043.032.033-.099.103.04.028.116-.01-.067.085.105-.006-.01.055-.012.057-.055.079.083.007.02.038-.05.078.11-.008.088.004.022.039-.067.086.07.014-.052.078-.002.052.147-.028-.103.106.045.026.047.025-.035.07.02.039.052.023.022.039-.022.061.08.008-.015.06.032.033.078.01-.059.08.143-.024-.099.104.085.005-.046.075.025.037.088.004-.058.082.015.042.141-.024-.016.06.007.047.029.036-.041.072.144-.026.015.043-.08.094.005.048.07.013.081.008.012.045-.089.098.06.018.088.004-.023.063-.008.055.066.015-.06.083.15-.028-.027.065-.035.069.04.03h.098l.015.042.056.021-.046.076.034.033-.038.07.128-.017-.074.09h.097l.02.041-.044.077.105-.014-.112.13.083-.002-.012.064.012.048h.078l.025.038.105-.027.04.023-.093.14.02.047.148-.078-.01.071.033.032.028.035-.014.088.084-.032.061-.008-.018.106.08-.04.037.02.033.033h.049l.01.091.06-.029.065-.073.004.187.064-.106.035.122.052-.132.041-.02.046.034.034-.056.076.142.01-.14.055.028.04-.02.036-.027.086.07.04-.024.02-.06.048-.01-.036-.131.085.042-.008-.082.053-.005h.058l.083.023-.023-.091.076.013-.048-.11.043-.02.077.01.046-.02-.034-.088-.011-.066.1.024-.037-.086.112.03.027-.037.049-.02-.042-.085.064-.01.05-.02-.07-.1.143.04-.01-.061.056-.018-.085-.106.011-.045-.002-.053.128.024-.032-.071.018-.041.111.01.047-.025-.039-.073-.012-.058.055-.021-.002-.053.08-.008-.008-.055-.066-.085.034-.033.054-.023.013-.043-.029-.065.108.003-.04-.07.029-.036.086-.008.026-.039.024-.038-.06-.078.04-.03.023-.04.002-.048.007-.046.058-.023-.037-.066.014-.043.149.016-.106-.095.135.009-.006-.052-.01-.053-.086-.085.095-.01.036-.033v-.05l.074-.018-.115-.096.16.016.008-.045-.011-.053-.033-.062.066-.022-.02-.056v-.05l.015-.042.136.005-.154-.109.023-.039.093-.012-.002-.05.017-.04-.003-.05.115-.003-.119-.095.02-.04.018-.041.106-.006-.01-.053-.017-.055.015-.042-.006-.05.085-.014.023-.03.037-.014.056-.005-.008.068.094.019v.055l-.062.046-.074.037.149.068-.05.039-.131.025.013.054.123.057-.088.036-.005.044-.054.04.093.054.048.05-.084.037-.006.044.012.047.046.05v.046l-.072.036-.004.045.023.048-.004.045-.014.043-.016.043.062.053-.002.045-.165.026.097.056-.091.035.042.05.051.052-.114.032.05.05.023.049-.058.038-.036.041.085.055.053.051-.113.033.055.052-.006.044-.05.041.065.052-.08.037.038.05.073.052-.046.041-.032.042-.102.037.151.058-.058.04-.105.038.038.049.066.05-.09.039-.03.044.109.052-.018.044-.087.04v.046l.034.048.11.05-.148.039.121.05-.086.042.072.046-.034.045.036.045-.13.044.083.046-.055.046.07.044-.002.045.032.044-.087.047-.034.047.13.039-.03.046-.06.049.044.041-.036.048.066.04-.053.05-.027.05.078.036-.02.048-.055.056.063.035-.02.05.029.042.077.028-.065.064.088.022-.015.051.098.014-.013.05-.03.06.032.035.019.04-.033.067.027.038-.01.062.151-.049-.062.102.027.039.086-.02.018.045.033.028-.02.105.1-.067.029.036.071-.05-.025.172.085-.105.019.096.067-.096.033.056.045-.01.036.126.047-.005.047-.065.04-.081.05.075.044-.007.035-.068.037-.04.047.017.048.016.043-.008.028-.064.066.071.055.027.017-.093.034-.039.094.132.026-.06.058.023.022-.066.037-.03.023-.056.08.07.021-.062.062.025.038-.025-.025-.152.091.084.019-.062.068.035.01-.076.03-.04.052.004.061.018.06.017-.016-.123.083.056.043-.015.043-.017.026-.045.038-.024.054.003.001-.086-.006-.095.13.127-.03-.133.025-.045.042-.017.03-.036.121.109-.044-.155.031-.034.086.052.055.002.065.017-.024-.119.095.063-.045-.152.039-.021.04-.02.075.031.072.028-.005-.09.08.042-.05-.161.121.104.015-.06.055.003-.01-.098.056.003.026-.042.008-.07.064.017.072.03-.02-.117.1.075-.03-.132.113.094.036-.028.011-.067.058.008.049-.006.009-.072.065.022-.033-.146.062.017.095.076.043-.014.012-.069.064.025.044-.01-.032-.16.1.102.051.004.027-.046.013-.077.02-.066.054.013.115.037-.096.004.004.06-.003.053-.135-.044-.04.026.01.063-.02.041.054.096-.05.017-.089-.01.07.106-.118-.032-.065.007.069.106-.007.05-.042.024-.079-.004.048.091-.026.036-.11-.028.023.073-.056.015-.04.025-.06.01-.005.053.034.08-.04.026.015.066-.05.02-.015.044-.006.051-.116-.03.002.057.037.083-.118-.032.019.07.006.06-.117-.031.06.1-.118-.033.01.064.023.072-.094-.014-.042.025.014.066-.08-.003-.022.038-.028.035.055.097-.07.005h-.076l.073.109-.01.048-.126-.039.002.058.021.071-.068.006-.093-.014.063.103-.065.008-.004.053-.064.009-.05.018.096.127-.14-.048-.02.042.011.064-.061.01.065.104-.09-.01-.09-.01-.001.054.025.074.008.062-.022.04-.027.036-.106-.023-.026.036-.045.023.066.105-.067.006.006.06-.057.014-.046.023.066.104-.064.009-.116-.03.06.102-.034.03-.035.027-.02.04.009.053-.14-.011-.022.042.132.1-.138-.002-.04.036.138.09-.01.043-.02.04-.14.016.018.051.076.058v.044l-.129.037v.05l.076.046.01.045.048.039-.018.047-.068.065.054.033.064.024-.034.066.05.026h.076l.016.04h.059l.029.025-.007.073.018.05-.01.1.078-.037.09-.071.036.022-.017.135.026.055.041.023.054-.011.058-.023.05-.008.064-.05.01.116.075-.094.029.056.014.118.06-.05.042.017.038.033.043.015.058-.052.052-.028.016.141.045.004.061-.075.057-.062.02.144.054-.053.048-.016.039.04.05-.038.048-.013.043.01.043.012.031.108.05-.026.056-.097.035.09.037.073.06-.147.038.075.05-.052.044.015.035.1.048-.027.043.025.049-.05.039.082.05-.057.038.097.053-.121.04.084.044.02.052-.107.044.009.045-.012.038.136.045.006.048-.045.048-.077.047-.035.04.145h.045l.045.01.045.018.045.017.049-.137.044.047.044.069.047-.049.044.065.048-.137.045.002.044.056.044.09.048-.16.044.125.046-.045.044.084.046-.06.046.03.045.036.046-.097.045.072.044-.159.047.163.044-.017.045-.06.047.087.043-.162.045.053.044-.047.048.15.044-.066.043-.098.045-.003.05.158.041-.121.046.037.047.065.041-.121.044-.036.05.132.04-.125.049.107.046.035.038-.14-.016.14.032-.03.053.076-.08-.006-.013.064-.089-.088-.032.023.002.155-.074-.103-.03.059-.027.08-.054-.038-.032.036z"/><path d="m21.723 16.464-.061.019.024-.07-.082-.004-.053-.025-.005-.04-.018-.026.014-.136-.06.023-.045.006-.043.085-.048-.105-.042.078-.043.029-.046-.04-.049-.08-.044.003-.043.024-.04.085-.042.066-.05-.116-.038.127-.052-.141-.042.06-.044.002-.045-.01-.043.033-.041.049-.046-.023-.044.02-.043.008-.052-.105-.041.053-.046-.008-.044.006-.048-.046-.036.133-.05-.059-.044.007-.05-.075-.04.083-.043.007-.05-.054-.046-.024h-.045l-.034.146-.056-.139-.033.153-.053-.109-.043.03-.038.066-.048-.024-.043.018-.05-.059-.046-.016-.044.014-.04.042-.05-.036-.062-.036.007.172-.067-.06-.036.032-.02.072-.088-.11-.02.073-.02.07-.056-.02-.032.035-.042.014-.095-.096.01.123-.018.061-.067-.033-.052-.002-.03.037-.059-.012-.03.037-.077-.037-.025.046-.027.041-.04.021-.012.061-.05.008-.062-.007-.044.017-.012.058-.046.015.017.09-.019.046-.082-.026.026.095-.008.055-.07-.008-.105-.044.04.102-.07-.005.028.087-.104-.035-.039.026.048.101-.043.02-.102-.026.02.075h-.07l.075.117-.134-.049-.015.045.063.104-.03.032-.129-.038-.013.045-.017.044-.054.017.036.08-.081-.001-.02.046.039.074.005.052-.053.025-.078.015v.05l-.043.03.128.105-.048.028-.114.002.059.073-.06.024.056.07-.14-.004.143.101-.18-.017.017.054-.02.04-.044.035-.003.046.106.082-.006.045-.096.018.047.06-.116.015.108.076-.074.027.04.057-.125.015.08.066.05.057-.097.024.09.065-.149.016-.032.041.112.066.032.05-.027.04-.135.026.003.046.121.061-.071.037-.013.044-.041.041.023.048.094.052-.156.034.122.053-.04.043-.07.042.1.047-.13.043.074.046-.086.046.081.044-.015.046.062.043.033.043-.041.047-.012.045-.087.053.116.034.017.044.017.043-.102.058.15.024-.14.066.016.044.023.042.127.023-.04.052.01.044-.073.06.014.044.009.045.039.037.032.038.089.023-.12.079.136.008-.142.088.113.013.045.032-.015.052-.088.077.052.031.046.031.028.038.042.032-.022.057.034.035-.006.05.061.023-.027.061.014.043-.038.067.106.001-.007.053.005.049-.034.067.122-.011-.008.055.003.052-.023.072.082-.001.066.01.035.03v.054l.025.038-.03.08.129-.042.013.046-.023.076.09-.016-.036.09.117-.043-.09.141.082-.014.096-.028-.076.134.07-.005.003.062.011.053.146-.086-.016.081.016.05.025.04.034.03.063-.005.055.004.056.001-.026.106.052.006.076-.027-.053.147.038.027.083-.04.056-.004-.026.122.083-.045h.053l.033.03.046.01.027.043-.014.117.092-.074.046.01.032.033-.007.118.04.022.053-.003.089-.089-.007.129.104-.132.024.058-.003.131.048.003.071-.064.026.063.037.033.063-.05.016.103.072-.086.018.102.077-.109.04.021.023.098.033.057.058-.05.064-.095.023.122.046-.002.04.037.047-.004.055-.07.043.015.032.117.062-.163.04.05.039.077.05-.069.048-.057.036.18.05-.156.044.056.045.033.044.005.045-.046.045.02.048.071.038-.156.049.086.047.036.042-.053.046.02.035-.113.046.028.043-.022.06.116.025-.142.059.091.03-.092.042-.018.067.12.039-.038.059.063.029-.08.038-.036.037-.037.038-.03.07.086.035-.04.03-.06.03-.056.048.011.063.048.063.048.001-.136.084.1.012-.098.06.032.012-.091.082.083.042-.02.004-.103.036-.027.08.065.01-.082.092.084.027-.048-.01-.119.052.003.034-.03.058.012.058.012v-.092l.087.06.05-.005-.002-.09.03-.037-.003-.085.04-.02.035-.027.04-.019.071.023.07.02.062.006.037-.027.017-.052.018-.05-.033-.111.13.086-.07-.151.04-.02.137.085.016-.05-.015-.082.07.008.049-.015.051-.014-.052-.114.005-.056.03-.032.073.007.106.033-.04-.096.1.026-.01-.068-.003-.06.079.004-.025-.076-.015-.066.022-.04.008-.048.075-.002.028-.035.043-.025-.014-.062.123.024-.038-.076.025-.038.083-.004-.036-.072.042-.028.048-.027.021-.04.027-.038-.014-.057-.02-.06.051-.025.063-.023-.113-.096.067-.021-.003-.049-.009-.05.027-.038.047-.03.037-.035-.05-.063.105-.015-.06-.064.123-.012-.136-.083.058-.03.08-.028-.12-.074.085-.026.086-.029-.097-.065-.032-.05.172-.017.002-.046-.09-.059.07-.036-.124-.06.131-.03-.088-.054-.02-.046-.015-.044.124-.038-.014-.046.077-.043-.082-.047-.066-.045.085-.045.058-.046-.031-.045-.14-.04.051-.046.016-.046-.01-.045.028-.047-.017-.043-.008-.044.034-.05-.115-.03.12-.062-.096-.032.037-.051-.003-.045.019-.05.029-.05-.158-.015-.01-.043.08-.063.055-.06-.007-.045-.053-.034-.012-.044-.144-.007.125-.082-.13-.009.117-.082-.054-.03.04-.061-.161.006.093-.08-.108-.009.055-.068-.037-.034-.032-.036.082-.08-.122-.001-.007-.046.058-.073-.088-.012.045-.069.012-.055-.134.01-.017-.041.046-.072-.067-.018-.057-.021-.014-.043-.023-.038-.04-.03.065-.086-.066-.014.024-.066-.098.006.057-.088.002-.055-.01-.048-.086.001-.069-.006.063-.102-.07-.005-.075.002.045-.094-.077.005.004-.064-.104.035.07-.129-.03-.035-.118.057-.023-.04-.022-.042.012-.084-.037-.027-.07.015-.065.014-.02-.047.006-.089-.091.057v-.084l-.083.05.03-.138-.044-.016-.087.065.002-.098-.082.058-.018-.062-.038-.025-.006-.093-.085.075-.058.02-.015-.077-.03-.043-.051.007-.038-.024-.02-.071-.055.014-.021-.065-.087.093-.05.003-.02-.07-.018-.075-.05.003-.085.092-.01-.099-.065.044-.036-.033.004-.13-.077.07-.053.01-.062.032-.018-.077zM.445 32.483l-.115.003-.002.048.076.076-.059.026-.06.025.049.065.037.06-.167-.008.087.075-.074.024.008.049-.025.04-.069.027.054.061-.01.045.05.058-.01.043.03.052-.027.04-.136.016-.043.038.053.056.053.054.018.048-.057.038.044.049-.023.042-.032.043-.014.044.041.045-.068.045.068.042.016.042.049.036-.136.068.13.017-.084.068.114.007-.133.103h.107l.065.01-.021.067-.024.082.066.002.061-.004.048.005.053-.013.036.013.015.075.026.072.068-.1.017.156.064-.147.035.103.046-.03.043-.084.047.11.04-.072.043-.008.051.065.03-.108.04-.01.045.002.064.096.03-.065.05.012.047.01.026-.075.051.018.062.05.046-.005.03-.055.052.018.01-.106.066.05.031-.046.056.022.006-.107.095.114.041-.017.017-.078.01-.09.086.082-.014-.137.107.12-.002-.106.083.063.03-.04-.01-.113.066.026.058.012-.005-.098.085.053.02-.053-.008-.096.048-.008.115.093.017-.055.043-.018-.013-.097.064.012.02-.049.043-.017.036-.026.07.016-.027-.107.098.05.016-.052.006-.062.034-.03-.007-.075.143.094-.036-.109.045-.016.095.035.02-.044-.025-.092.061-.002-.041-.106.116.052.007-.055.012-.05.078.011.048-.017.019-.045.053-.013-.05-.104.03-.034.104.03-.039-.092.032-.032.064-.006.078.006-.013-.07-.02-.073.059-.011-.016-.069.077.002.038-.028-.076-.111.094.012.034-.03-.018-.069.066-.008-.017-.067.078-.001-.05-.087.055-.018.063-.012.07-.008-.04-.079.117.02-.01-.06.057-.02-.123-.126h.088l.052-.022-.06-.086.094.002.053-.022.04-.03-.053-.08.023-.04-.033-.068.088-.004.068-.017-.083-.092.103.001-.06-.08.149.022-.11-.102-.004-.052.14.016.004-.049.043-.03-.08-.085.127.006-.089-.087.06-.024.084-.014.008-.045-.009-.053.02-.041.042-.033-.073-.076-.017-.054.064-.024.057-.028-.009-.05-.012-.053.086-.018-.113-.086.133-.003-.025-.056.037-.035.076-.024-.072-.07-.072-.068h.16l-.06-.065.001-.046.027-.04.088-.023-.058-.062.05-.034-.09-.069.08-.027.052-.034-.093-.067-.003-.046.068-.032.07-.031-.03-.053-.05-.055-.01-.047.076-.032.05-.038-.03-.05-.022-.05.03-.04-.065-.055-.008-.046.062-.037.087-.036-.073-.034-.019.06-.06-.11-.03.114-.04.022-.046-.002-.067-.126-.04.033-.022.128-.05-.026-.05-.019-.059-.068-.032.069-.05-.019-.043.017-.053-.029-.022.101-.058-.048-.023.09-.066-.077-.047.002-.054-.025-.02.093-.04.027-.065-.063-.039.03-.037.034-.054-.02.001.146-.045.004-.056-.027-.075-.076.01.159-.079-.083-.031.043-.021.071-.036.033-.046.004-.04.02-.061-.032-.057-.018-.014.08-.045.008-.017.071-.116-.148.02.15-.035.033-.058-.018-.048.003-.026.048-.022.056-.107-.11-.007.084-.06-.018-.063-.02-.036.029-.043.015v.093l-.013.068-.043.015-.054-.005-.064-.018.008.1-.1-.076.032.135-.118-.101-.031.035.04.145-.097-.067.004.087-.02.051-.06-.01-.073-.024-.006.068-.031.034-.103-.064-.002.073.026.108-.039.023-.06-.004-.097-.05-.043.02-.001.07-.068-.01-.029.036.002.072.004.073-.085-.029-.064-.002.02.089-.009.056-.079-.018v.066l.008.071-.11-.049.049.113-.08-.015-.04.024-.051.014.022.082H1.32l.028.085-.115-.042.062.114-.091-.02-.014.048-.057.01.038.09-.144-.058-.025.038.092.128-.107-.024-.06.011-.03.035.027.075-.04.027.043.084-.071.006-.08.002-.04.028.017.065.055.087-.131-.027.017.063-.028.036.061.087-.03.033-.111-.009v.05l.06.083-.114-.007-.053.024.01.056.1.096-.06.02-.108.002.069.08.013.053-.013.042zM37.257 29.692l-.115.097.027-.128-.084.05.005-.096-.073.034.007-.1-.073.034-.017-.061-.04-.022-.043-.016-.034-.034-.099.093.03-.157-.107.11-.008-.084-.02-.061-.083.07-.032-.04-.03-.04-.016-.082-.056.018-.032-.045-.05.002-.044-.01-.08.088-.04-.022-.004-.127-.078.094-.012-.113-.07.076-.031-.052-.027-.072-.04-.03-.064.067-.053.027-.04-.024-.033-.06-.045-.006-.042-.025-.053.04-.051.04-.042-.02-.036-.069-.052.057-.043-.021-.035-.108-.047-.003-.05.09-.042-.083-.047.049-.045-.038-.046.1-.043.014-.048-.108-.047-.02-.102.02.108.092-.09.055-.013.047.16.027-.07.053.044.04-.03.05.07.034.01.044-.088.06.062.035-.05.054.006.044-.038.053.073.033-.051.055.104.026.023.041-.093.065.02.042.024.042.06.032.042.036-.06.06.103.022-.13.078.13.014-.042.057.008.045-.07.066.134.01-.09.072v.048l.168-.005-.149.094.033.037.114.01.042.034-.085.076.085.018-.069.072.002.048.08.02.02.04.021.04-.012.053.116.002-.053.07-.052.07v.05l.161-.021-.047.07.012.044.097.003-.107.1.035.035.009.045.019.042-.004.053.072.014.046.026.057.02-.053.08.033.034.07.012.08.006-.082.1.12-.02-.076.099.04.027.01.048.046.024-.039.079.041.027.11-.018-.069.1.142-.042-.077.108.067.008-.012.064.072.003.038.028.05.018.041.025-.038.087.089-.014-.036.087.097-.022-.039.09-.019.075h.07l.088-.016-.007.066-.036.093.047.02.052.013.028.036.065.001-.025.087.09-.026-.001.065.027.036.06.002-.003.069.022.043h.062l.069-.012.032.032.012.053.033.03.055.004.079-.025-.073.16.146-.11-.023.1-.015.092.091-.045-.025.106.063-.008.049.01.099-.06-.036.125.076-.03.01.064v.079l.065-.015.02.052.123-.106.031.033-.007.094.078-.04.004.079-.003.09.067-.024.074-.037.048.006.018.058-.008.107.05.002.095-.081.021.055.04.021.015.068.07-.04.036.027.059-.02-.02.154.075-.06.006.1.07-.048.032.041.03.048.092-.119-.015.18.08-.1.04.023.039.027.043.01.063-.07.023.097.028.096h.048l.065-.13.037.062.048-.058.041.06.046.075.048.003.037-.105.043-.008.065.09.018-.113.056.032.006-.099.095.092-.02-.119.124.094-.026-.104.087.02.034-.037-.106-.13.136.033.03-.037-.002-.053-.065-.072.1-.014-.076-.065.014-.04-.01-.045-.016-.044.104-.033.052-.042-.14-.05.007-.043.118-.044-.036-.045-.015-.044-.022-.043-.017-.043.105-.054-.136-.03.01-.045.08-.056.041-.052-.111-.028-.037-.038-.045-.036.15-.075-.11-.023-.018-.042.116-.072-.167-.007.124-.077-.162-.005.108-.076-.026-.04-.073-.026-.063-.026.097-.078.02-.055-.108-.01.087-.08-.066-.023-.107-.006.114-.095-.002-.049-.102-.005-.017-.041-.076-.014.061-.079-.093-.003.082-.093-.073-.012-.01-.046-.084-.004.085-.1-.111.012.087-.105-.105.012-.063-.013.054-.089-.035-.03-.07-.007-.029-.035v-.054l-.049-.02.008-.062-.018-.043-.069-.004-.047-.02-.018-.042.006-.063-.033-.03.005-.064.005-.063-.11.036.002-.063-.024-.039-.031-.032.012-.073-.024-.04-.16.09.03-.09-.043-.023-.078.014-.007-.055-.05-.014.025-.089-.003-.062-.126.068.037-.106-.066.006v-.067l-.08.022.043-.116-.11.056-.026-.038-.03-.033-.07.012.045-.122-.11.06.077-.163-.064.006-.014-.055-.085.035.002-.076-.044-.017-.038-.025-.013-.058-.042-.02-.045-.015-.116.08-.003-.07.016-.1-.069.019-.035-.028-.006-.07-.102.067-.056.003-.004-.074-.04-.022-.047-.008v-.081zM39.617 4.578l-.016-.054.001-.048.107-.008-.123-.093.001-.046.087-.017.045-.032.022-.04-.057-.067.078-.022-.03-.056.074-.025-.012-.05-.082-.07v-.046l.123-.013-.089-.068.121-.017.046-.037.015-.044-.018-.05-.007-.047-.046-.053-.012-.048.02-.042-.011-.046.102-.037-.093-.052-.002-.044.07-.045-.033-.044-.014-.045-.072-.037.062-.052-.023-.041-.08-.025.079-.066-.105-.008.05-.065-.023-.036-.049-.019.034-.076.006-.068-.026-.046-.132.09.042-.137-.068.024-.056.016-.01-.097-.057.026-.05.02-.043-.009-.04-.035-.049.066-.04-.063-.044.062-.048-.1-.049-.041-.037.094-.047-.018-.05-.035-.03.099-.059-.07-.03.07-.037.036-.057-.047-.02.1-.06-.057-.024.076-.087-.133-.029.06-.021.079-.044.009-.042.012-.074-.074-.048.002-.012.095-.03.045-.05-.002-.078-.072.021.169-.095-.108.003.117-.084-.074-.017.07-.038.023-.069-.036.022.139-.101-.094-.024.051-.002.089-.061-.017-.026.044-.091-.063-.009.072-.01.067-.1-.07-.027.042.008.09-.058-.003-.023.044-.05.008.01.087-.044.018-.125-.088.049.135-.053.005-.01.06-.071-.016-.041.02-.081-.023-.033.031-.007.06.026.096-.02.043-.097-.036-.017.047-.028.036-.003.061-.042.02-.078-.012.032.093-.094-.027-.04.024.02.08-.096-.026.05.105-.106-.032-.031.033-.026.038.076.121-.141-.058.098.138-.13-.046-.018.043-.05.018.064.106-.085-.008.025.076-.065.008-.041.025-.052.018-.056.017-.025.038-.014.045-.02.041.064.098.004.056-.133-.033.053.088-.062.013.02.066L35.79 5l.038.076-.143-.033.096.11-.162-.044.114.118-.06.017-.055.021.023.065-.127-.019.057.082-.086.006-.001.05-.055.023.042.073.06.08-.155-.026.053.076-.047.027.042.07-.09.008.02.058v.05l-.069.02.07.079-.008.045-.017.04-.165-.02.102.092-.124-.002.058.072-.02.04-.077.02.048.066-.045.031.06.07h-.132l-.028.039.012.052.004.05-.015.042.07.07-.15-.001.05.063-.093.02.092.074-.02.041-.071.027v.047l-.001.047-.078.026-.01.045.012.05v.047l.03.054.087.066-.114.02-.032.04.031.053.006.046.006.047-.004.045-.104.027.12.067-.141.022.148.07-.048.037-.104.03.035.05.044.052-.033.041-.038.04.004.063.065.03.04-.044.055.065.02-.17.064.115.027-.107.06.08.025-.11.056.055.03-.081.063.088.041-.025.036-.046.06.063.035-.046.023-.098.078.127.053.024.002-.17.042-.013h.046l.072.09.047-.002.018-.096.026-.065.072.078.03-.05.058.028.02-.08.055.024.026-.062.09.117.02-.076.019-.078.028-.05.058.027.03-.046.088.1-.002-.124.032-.04.08.073.04-.02.052.007.051.003-.003-.114.034-.033.052.005.04-.021.075.05.047-.006.007-.084.027-.046.084.064.06.014.009-.077.043-.016.064.022-.045-.172.121.12.008-.076.014-.064.036-.028.024-.045.107.086-.025-.122.058.006.022-.047.093.057-.005-.087.076.03.044-.014-.003-.084.068.017.048-.01.04-.024-.044-.133.103.061-.03-.112.056-.002.046-.014-.019-.093.087.035-.008-.08.101.05.045-.017.038-.025v-.069l.061.001-.007-.074.018-.047.065.004.081.019-.076-.144.102.04.005-.059.087.023.048-.017-.05-.11.078.01L38.604 6l.044-.019v-.06l.099.027-.051-.103.058-.01.064-.004-.002-.059-.004-.06.018-.043.114.032-.05-.093.085.007.055-.016.012-.046.075-.003-.087-.115.127.032.053-.02-.128-.137.053-.018.073-.007.056-.02v-.052l-.06-.086.094.002.01-.046.07-.013.01-.046-.043-.073.104.003.048-.028.016-.043.002-.05-.026-.06.05-.028v-.049l.035-.035-.022-.058zM2.731 7.308l.03.037.075-.034.041.02-.004.093.055-.002.06-.015.04.021.082-.054.006.08.024.052.082-.058.001.093.037.027.04.02.072-.044-.022.151.09-.087.035.033.064-.035.04.021v.113l.066-.04.007.106.067-.049.012.096.089-.112.027.06.025.068.053-.02.053-.016.05-.01.016.11.059-.044.028.072.07-.1.02.12.065-.087.039.033.051-.03.036.05.04.043.055-.069.048-.03H4.6l.034.103.054-.1.035.12.046-.016.046-.016.043.05.046.006h.046l.044-.053.047.044.044-.031.058.002-.022-.056-.057-.04.134-.06-.046-.04.023-.049-.052-.038-.049-.04-.07-.034.093-.06-.11-.028.103-.062.037-.052-.042-.039-.035-.04-.038-.038.087-.062-.132-.02-.021-.042.053-.057-.035-.038.017-.05.028-.053-.052-.034.05-.058-.06-.032-.047-.035.062-.062-.033-.038.029-.055-.102-.019.069-.066v-.048l-.09-.02.045-.06-.031-.038-.013-.044-.125-.006.054-.065.003-.049-.019-.04-.025-.04-.093-.014.007-.049.09-.082-.135.004.104-.09-.001-.048-.023-.04-.08-.015-.041-.032.08-.084-.118.003-.047-.027.042-.069.013-.055-.078-.013-.032-.035-.014-.043.061-.08-.06-.02-.045-.028-.076-.01.034-.069-.065-.015-.007-.047-.048-.024.111-.117-.148.036.002-.053v-.053l-.038-.03-.026-.035.003-.056-.003-.052-.053-.018-.046-.023.047-.087-.047-.022-.105.02.078-.113-.102.02.035-.083-.034-.03-.037-.029-.01-.05-.136.05-.015-.044.06-.107-.108.032-.044-.021.042-.095-.018-.044-.003-.058-.103.03-.03-.031.03-.09-.041-.023-.018-.045-.093.026-.028-.034-.015-.047-.006-.058-.036-.028-.066.006-.003-.063-.042-.02.026-.096-.074.015-.035-.028-.053-.005v-.07l-.043-.02-.11.064v-.068l.037-.12-.106.063-.05-.009.05-.138-.078.028-.088.043-.045-.013.024-.108-.067.016.018-.103-.087.047-.02-.05.012-.097-.118.095.038-.14-.116.098h-.053l.011-.102-.065.021-.007-.075-.08.048.015-.116L2 3.005l-.025-.046-.035-.028-.015-.068h-.051l-.061.019-.002-.095-.065.028-.02-.062-.076.056-.018-.07-.04-.02-.078.07-.015-.082-.007-.104-.073.063-.017-.088-.083.1-.035-.035-.022-.082-.075.097-.036-.036-.02-.106-.046-.006-.06.069-.043-.018-.053.063-.04-.02-.04-.058-.043-.05-.046-.024-.047.015-.039.082-.053-.058-.053-.025-.025.093-.062-.042-.052.002.01.12-.011.057-.067-.024-.035.023.006.063-.104-.031-.063.013-.047.03.045.078-.03.037-.043.034-.02.043-.016.045-.018.045.101.064-.017.042-.078.036.032.048.01.046.054.045-.01.044-.08.046L0 3.491l.122.038-.095.052.1.036.025.04-.101.058-.027.05.05.038-.025.05.156.019-.023.048-.113.068.051.036-.023.052.144.013-.018.05-.069.063.15.008-.16.09.007.046.17-.002-.104.078-.02.054.087.02-.046.064.1.011-.064.073.089.014.077.016.013.043-.009.052-.041.067.067.02-.074.085.11-.004.058.02-.084.095.104-.005-.08.096.009.048.038.03.103-.008-.01.058.056.018.067.01.034.03-.077.106.09-.006.063.009-.115.138.156-.058-.007.06v.057l.08-.006.036.029-.056.102.09-.015-.024.078.104-.03-.063.114.03.034.048.017.104-.033-.062.118.135-.064-.021.081-.03.09.026.039.073-.008.025.04.01.054.067-.005-.03.096.092-.03-.006.073.046.016.077-.017-.035.106.054.008.077-.02.07-.01-.023.095.01.058.025.04.11-.062-.01.083.04.024.043.017.076-.023.045.016.003.068.074-.023-.022.103.08-.03.04.022-.024.106.026.042.075-.027.013.06.014.058.081-.038-.013.1.045.014.074-.03-.006.091.108-.083.004.076z"/></g></svg>