<svg xmlns="http://www.w3.org/2000/svg" width="34.958" height="39.628" fill="none" overflow="visible" preserveAspectRatio="none" style="display:block" viewBox="0 0 34.958 39.628"><g fill="#151515"><path d="m29.9 3.494-.038-.064.01-.045.066-.023-.139-.099.027-.038.065-.024.073-.023-.002-.048-.028-.057.004-.046-.008-.049.023-.04.099-.017-.003-.048-.07-.066.094-.021.047-.035-.095-.07-.006-.047.149-.013-.156-.078.157-.015.036-.04-.17-.074.059-.036.116-.03-.028-.05-.09-.053.02-.043-.04-.047-.008-.043.115-.044.024-.047.032-.05-.023-.046-.037-.042-.032-.041-.067-.03-.007-.042-.063-.022.048-.064.063-.084-.14.031.06-.096-.082.01.045-.11-.064-.001-.075.027.002-.093-.093.088-.01-.088-.067.066-.025-.068-.048.017-.032-.08-.044-.018-.05.06-.045.069-.042-.021-.046-.072-.043.027-.039.055-.06-.13-.048-.008-.033.086h-.046l-.035.052-.07-.11-.01.155-.055-.043-.03.057-.038.032-.089-.144-.034.046-.043.013-.01.111-.075-.079-.044.01-.036.036-.018.08-.07-.058-.05-.002-.05-.003-.035.038-.04.023-.017.076-.048.003-.005.096-.039.021-.059-.02-.028.041-.098-.093-.036.03-.046.011.006.104-.076-.043.011.108-.03.036-.018.054-.084-.05.001.084-.065-.019-.06-.009-.017.054-.078-.033.03.12-.095-.055-.061-.007.023.106-.008.06-.048.013-.1-.055-.048.014-.01.059-.013.055.016.086-.062-.004-.018.047-.057.003-.07-.01.024.093-.088-.028-.012.052-.015.05.025.087-.066-.003-.048.015-.029.034-.051.013.042.1-.04.023-.058.007.004.064-.097-.026.025.08-.064.003.01.067-.148-.065.013.07.013.068-.003.054-.14-.053.042.09-.05.017-.036.03.055.096-.095-.014.018.068.001.056-.078-.001-.042.025.043.085-.11-.022.059.094-.129-.032-.035.03-.03.035.023.069-.08.002-.019.041.084.106-.13-.028.072.097-.08.004.01.058.006.055-.099-.005.09.103-.054.02.013.058-.032.034-.046.025.019.06-.101-.002-.034.033.05.075-.07.016.057.078-.065.017-.014.043-.05.026-.112-.003-.006.047-.013.044.063.078.02.057-.046.03-.03.034.018.057-.133-.007-.019.04.092.087-.012.043-.103.007.037.063-.075.02.108.088-.148-.007.099.083-.068.024.017.053-.124.005.115.086v.048l-.058.027-.13.006.012.05.09.076-.13.007.109.079-.012.043-.056.03-.074.027.09.07-.117.016-.023.041.14.082-.049.034-.023.04-.071.03.043.055-.065.032.086.064-.119.02-.007.046.132.07-.062.034-.021.042.033.05-.156.02.005.047.125.063.008.047-.017.042-.086.034-.055.038.147.061-.086.033.048.047.05.025.038-.05.04-.04.05.037.023-.144.074.168.024-.12.06.077.024-.114.043-.015.048.014.05.02.038-.034.053.03.037-.038.06.057.052.018.014-.126.05.012.052.026.012-.129.084.134.002-.153.068.073.034-.043.06.038.05.013.05.01-.004-.16.064.052.026-.062.068.059.058.027.047-.003.01-.104.06.032-.005-.136.076.07.006-.101.065.04.078.068-.005-.125.04-.021.055.015.08.07.039-.026.016-.072.041-.019.002-.1.036-.026.076.053h.05l-.008-.114.087.07.036-.03.07.038-.012-.119.066.027-.014-.115.117.114v-.088l.046-.011.017-.06.086.055-.012-.105.1.077.003-.08.06.01-.042-.148.131.118.039-.025-.007-.09.029-.037-.006-.087.085.044.032-.033.03-.035.072.021-.014-.092.062.008.004-.07.108.066-.016-.093.062.006.037-.026.032-.032-.028-.103.026-.038.117.067.054-.008.049-.011-.09-.169.115.06-.042-.11.103.043.066.005-.062-.13.037-.026.026-.036.054-.01.102.037.003-.06.032-.031-.015-.076-.006-.066.026-.036h.066l.079.009.044-.022.019-.043-.025-.08.129.048-.047-.095-.03-.08.102.022-.046-.092.055-.014.038-.027-.028-.075.136.042-.01-.062.008-.049-.032-.075.143.041-.076-.103.009-.046.051-.021.074-.007-.051-.083.096.005.04-.028.027-.037-.014-.06-.043-.073.064-.016.081-.01-.08-.089.018-.04.132.013.06-.022-.063-.078-.022-.06.123.005-.128-.102.173.022zM7.485 6.317l.06-.009.06-.01.037.025.005.077.033.033.083-.051.032.035-.008.106.08-.05.006.083.048.008.059-.014.087-.07-.04.179.09-.082.043.014-.008.123.103-.115-.008.129.078-.063-.007.13.068-.046.047.005.032.042.041.02.079-.081v.132l.09-.12-.002.146.053-.015.051-.015.044.011.042.017.02.102.08-.125.016.116.047.004.057-.047.044.01.05-.028.034.065.062-.092.023.135.05-.025.037.063.046.005.044.015h.046l.057-.128.04.073.043.042.05-.11.041.098.046.03.045-.045.044-.094.044-.014.047.08.078.035-.02-.074.01-.046L9.96 6.9l.086-.055-.058-.038.068-.055-.028-.04v-.046l-.08-.035-.02-.041.048-.053.004-.046-.114-.027-.02-.041.017-.048.052-.055.075-.06-.02-.043-.027-.04-.037-.039-.047-.035.058-.059-.116-.02.052-.058-.01-.044-.061-.03.034-.055-.002-.046-.104-.019.129-.08-.008-.045V5.6l-.114-.014-.043-.034.097-.076-.07-.026-.076-.023.034-.057.052-.064-.006-.045-.055-.03.047-.063-.167.011.117-.09-.066-.023-.085-.016.129-.097-.12-.002.017-.055-.094-.01-.021-.039.105-.092h-.116l.029-.06.017-.057-.049-.028.058-.076-.033-.034-.067-.019-.039-.03.06-.08-.06-.02-.122.012.118-.112-.039-.031-.113.01.008-.055.06-.085-.078-.008-.022-.04.021-.064-.118.018.089-.106-.074-.008-.028-.035-.008-.048-.015-.045.004-.056-.036-.03-.09.005-.017-.042-.03-.034.035-.079-.04-.027-.062-.01-.104.02.019-.07.028-.077-.059-.012.018-.07-.137.05-.005-.052.07-.114-.135.052.072-.118-.065-.005-.059-.008h-.067l.032-.088-.018-.045-.077.01-.078.01.04-.097.02-.083-.067.003-.084.02.03-.093-.124.063.074-.14-.041-.023-.088.028.043-.114-.105.05.043-.116-.088.033-.026-.04-.005-.064-.131.087-.006-.061-.061.004-.024-.042.058-.144-.04-.023-.075.023-.098.056.014-.093-.076.027-.009-.062-.057.002.01-.091.002-.08-.047-.012-.086.046-.037-.026-.075.032-.03-.036-.003-.076-.062.014-.02-.052-.058.008.028-.131-.073.032-.07.032-.013-.07v-.088l-.052-.001-.09.07-.037-.027-.04-.017-.002-.095-.029-.045-.07.042-.067.035-.038-.024.024-.16-.11.133-.014-.078-.04-.021-.02-.068-.028-.057-.04-.026-.056.022-.072.069-.006-.127-.068.061-.048.005-.05.016-.016-.124-.042-.028-.06.065-.035-.068-.047-.006-.05.028-.053.081h-.043l-.042-.138-.043.165-.05-.092-.053-.063-.039.063-.026.09-.077-.107-.006.121-.088-.09.02.141-.116-.104-.038.037-.04.031.045.111-.039.025-.086-.006.089.109-.158-.035.094.094-.007.043-.013.04-.034.034.01.047-.042.035-.102.03.06.055v.045l-.005.045-.03.044.118.047-.16.044.165.042-.097.048.031.043.037.041-.055.05.036.04.019.043-.077.056-.023.05.13.024.049.037-.028.05-.09.062.034.04.043.036v.046l-.063.061.084.027.085.025-.148.084.06.032-.022.054.153.002-.106.08-.028.056.031.038.079.022.087.015.023.039-.066.073-.02.057.121-.002-.081.084.002.05.158-.024v.05l.031.032-.075.088.123-.013-.113.11.102-.004-.046.078.033.033.098-.005.04.028-.022.065-.056.089.165-.053-.052.087.094-.009-.093.118.018.043.113-.025.023.039.013.045.03.034-.006.061.094-.016.037.028-.012.066-.007.063.11-.033.025.038-.075.122.128-.05-.04.094-.026.084.13-.058.065.002-.091.146.137-.067.001.06.036.028.035.028.068-.005-.055.119.066-.003.04.023.03.034.078-.017-.062.131.08-.02.003.065.028.036.054.007.026.038.083-.025.012.054-.04.118.137-.094-.015.088.06-.002-.01.084.065-.01.047.014.049.01-.01.086.04.022h.057l-.001.076.091-.047.02.048.012.06.002.076.138-.116-.03.12.008.067.034.03.048.012.08-.04.02.052.011.064.122-.102.004.074zM5.073 36.52l.018.055-.037.034-.042.032-.133-.001-.007.046.111.087-.026.038-.083.02.084.076-.108.012.045.06v.047l-.116.013.113.08-.105.017.064.063-.005.045-.15.01.065.061-.068.032-.028.041.146.074-.02.041.012.047-.134.025.134.063-.172.025.046.051-.02.045.04.048-.007.045-.035.046.043.044-.052.05.057.04.02.043-.029.05-.01.05.04.038.037.035.038.032.022.037-.056.087.101-.016.012.047.007.056.074-.018.022.043.015.063.083-.069-.013.149.078-.088.05-.023.015.143.065-.128.032.112.052-.11.04.154.045-.105.042-.036.052.112.03-.148.059.112.032-.088.05.036.056.048.029-.083.067.094.02-.107.066.076.04-.022.03-.06.03-.061.059.04.023-.071.055.023.034-.04.024-.062.05.007.066.048.042-.015.01-.098.064.038.069.049.059.02-.02-.16.028-.043.116.145.043-.017.038-.026.005-.092.022-.053.024-.05.048-.004.039-.022.089.066.008-.074.05-.006.008-.07.107.086-.049-.16.083.046.013-.062.067.02-.014-.1.127.103-.025-.113.008-.063.122.087.021-.046.048-.013.01-.06.01-.058.002-.068.122.075-.013-.085.008-.06.074.017.008-.058-.01-.077.052-.01.017-.045.038-.025.13.07-.008-.073.053-.01.02-.043.018-.046-.003-.064.07.004.042-.023.034-.03-.006-.066-.017-.074.013-.048.09.02.02-.043-.03-.083.041-.023.105.028.01-.05.056-.013.02-.04-.058-.102.077.003.093.014-.03-.08.045-.021.04-.027-.022-.07.065-.01.01-.048-.047-.086.083.003-.014-.063.08-.001.077-.003-.009-.06.072-.008.026-.037-.102-.116.032-.033.009-.047.005-.048.172.05-.07-.093.02-.04-.022-.064.144.03-.114-.115.039-.03.108.008-.083-.095.165.037-.124-.115.022-.04.091-.003-.028-.063.14.018-.05-.074-.007-.053.074-.015-.072-.083.109.001.02-.04-.005-.052-.03-.062v-.048l.02-.04.013-.043.047-.028v-.049l.005-.046.058-.025.1-.009-.112-.09.097-.012-.05-.066-.003-.049.074-.021-.005-.05-.02-.053.026-.039.079-.02-.063-.068h.143l-.122-.086.166.004.019-.042-.136-.086-.009-.05.061-.028-.008-.049.007-.044.156-.005-.16-.088.113-.018.081-.026-.158-.084.073-.029.025-.04.076-.03-.046-.056.046-.036-.005-.047.063-.033-.133-.07.144-.02-.13-.069-.026-.049.106-.028.013-.043.078-.035-.107-.06-.06-.052.062-.037-.018-.046.05-.026-.03.012-.043.02-.049-.032-.047-.012-.048-.01-.047-.008-.05-.027-.045.01-.037.05-.028.091-.055-.046-.03.076-.047-.008-.054-.035-.045.003-.053-.027-.05-.016-.006.16-.06-.05-.058-.045-.028.067-.02.098-.059-.046-.051-.015-.042.015-.058-.035-.01.119-.065-.056-.025.067-.054-.022-.035.036-.066-.053-.058-.028-.028.055-.053-.013-.002.124-.073-.066-.011.094-.03.048-.064-.042-.041.018-.025.056-.073-.057-.035.033-.054-.011-.024.057v.105l-.071-.046-.036.029-.017.069-.073-.05-.04.02-.087-.072.006.111-.025.05-.076-.049.012.117-.046.01-.061-.02-.033.035-.054-.007.001.093-.06-.015-.032.032-.035.03-.098-.075.04.15-.093-.064-.063-.015-.02.052-.039.024.002.084-.06-.01-.045.014-.073-.024.056.157-.125-.099-.009.066-.058-.004.031.118-.103-.063.042.13-.098-.053.002.074-.104-.057-.037.026.08.17-.037.023-.053.005-.048.014-.072-.015v.068l-.053.008.03.098-.13-.073-.058.004.067.135-.068-.006-.005.059.002.065-.136-.07.011.072-.042.023-.039.024-.077-.01.048.106-.093-.024-.012.05.015.074-.113-.038.111.153-.083-.012.003.06-.048.018-.062.008h-.075l.01.064-.069.005.073.11-.028.035-.125-.035.024.072-.05.021-.053.019v.055l.01.06h-.083l-.039.03.091.108-.054.02-.104-.009.022.065.05.08-.11-.01.06.084-.105-.005.09.097-.094.003-.091.006.102.099h-.106l.086.088-.01.044-.032.034-.066.021-.005.046zM27.334 33.694l-.069.024.027-.129-.091.063-.031-.035.015-.114-.092.066-.074.039-.028-.04-.043-.017-.012-.071v-.093l-.082.057-.021-.057-.029-.045-.063.027-.057.013-.042-.015-.05.002.018-.15-.106.128.021-.164-.086.088-.046-.005-.05.008.018-.175-.068.052-.049.002-.072.07-.03-.047-.015-.1-.063.049-.043-.012-.032-.051-.051.015-.054.028-.039-.026-.041-.02-.035-.05-.056.048-.046.002-.024-.112-.058.062-.047.018-.046.006-.04-.035-.033-.1-.06.139-.045-.005-.03-.177-.048.035-.05.084-.044-.003-.044-.066-.046.076-.045-.007-.045-.064-.047-.028-.04.107-.058-.061-.002.055.081.036-.031.048-.048.05.073.037-.063.054-.03.049.134.027-.099.059.086.032-.013.048.005.045-.032.05.11.027-.033.05.023.042.033.039-.005.046-.073.06-.02.05.134.018-.1.067.122.02-.019.049.027.04.006.044-.001.046.019.04-.1.073.077.026.01.043.088.022-.032.056-.035.056-.045.06.029.04.012.043.065.026-.051.064.044.033.046.031-.044.063.087.017.013.043.057.027-.008.05.026.038-.065.074.13-.004.023.038-.076.08-.014.055.048.028-.01.053.055.025-.028.063-.011.055.021.04.066.018.05.026.007.047.11-.005-.042.07.079.01-.112.11.03.035.081.007.034.032-.061.085.119-.015.047.023.032.033-.082.101.038.03.055.019.008.048.038.028-.03.073.125-.028.02.04-.087.113.038.029.06.013.006.051.054.016.029.035-.02.071.122-.037-.013.066.07.003-.081.121.066.006.117-.038.028.034.005.053-.048.1.116-.04.019.042.022.04.024.038.02.042-.038.097.129-.06-.068.127.134-.067-.079.14.125-.06-.01.073.107-.047-.09.16.125-.07.05.013-.018.086.004.063.104-.052-.03.104.088-.035.035.029-.045.124h.06l.008.06.074-.02.077-.026.035.028.018.049-.002.077.022.046.08-.031.025.04.045.016.024.043.104-.07.012.061-.034.13.132-.117.003.075.02.052.025.045.006.075.125-.114-.01.1.027.044.076-.04.066-.025.027.042.038.024-.03.147.108-.102.051-.003-.013.123.082-.062.043.013-.01.123.067-.035.04.02.07-.045v.11l.072-.055.033.036.044.011.044.008.024.067.056-.025.016.097.04.03.043.013.069-.081.04.022.042.015.025.11.07-.137.022.157.062-.131.034.124.054-.136.04.152.044-.154h.042l.06.145.049-.007.049-.005.008-.146.085.11.008-.105.076.046-.013-.108.05-.004.037-.024-.018-.077.095.025.083.002-.02-.07-.065-.085.02-.036.063-.02-.028-.055.031-.035.018-.04.006-.043.087-.031-.103-.058.13-.032-.103-.053-.041-.045.135-.041.014-.046-.053-.045.082-.049-.188-.034.047-.048.068-.05-.007-.044.002-.046-.08-.035-.052-.037.082-.058-.032-.04-.058-.034.09-.062.046-.056-.147-.015.13-.075-.097-.025-.07-.029.07-.063.001-.047-.023-.041.01-.05-.087-.022.049-.062-.107-.013.084-.075-.065-.025.056-.069-.004-.047-.07-.021-.01-.045-.113-.002.038-.064.016-.057.041-.068-.122.007-.056-.022.062-.08.012-.058-.043-.028-.1.003-.031-.034.003-.052-.032-.033.07-.095-.052-.02-.093.005-.047-.023.015-.063.063-.096-.088.006-.069-.008-.048-.02.021-.07-.015-.044-.011-.048-.072-.002.071-.111-.036-.03-.037-.029-.04-.026-.068-.002.02-.075-.05-.017-.031-.033-.05-.015h-.068l-.033-.03.02-.078.015-.077-.034-.03-.041-.024-.012-.052-.123.058.046-.11-.122.06.06-.126-.024-.04-.122.062.057-.126-.06-.001-.065.003.007-.074-.13.076.027-.096-.01-.058v-.07l-.043-.02-.137.093-.02-.046.044-.124-.126.084.054-.139-.068.013-.009-.062-.028-.038-.105.062-.021-.045-.033-.032.035-.121-.083.035-.047-.011-.053-.004-.023-.046-.014-.058-.019-.05-.07.02-.034-.03.002-.083-.111.084.006-.09-.026-.042-.026-.042-.07.026z"/><path d="m27.383 20.504-.038-.01-.052.088-.004-.134-.056.035-.02-.038-.016-.044-.103.051.03-.099-.066.002.027-.08-.118.032.059-.091-.08-.007.045-.07.015-.048-.084-.019-.093-.03.106-.06v-.043l-.101-.048.122-.033-.052-.053.113-.014-.136-.094.14.011-.095-.1.096.004-.053-.096.057-.017.05-.017.06-.002.039-.023.018-.049.071.023.054.004.005-.072-.018-.122.102.092.038-.02.055.013.03-.038.023-.056.004-.108.096.117.032-.038.043-.01.052.014.04-.018.037-.032.048.006.026-.067.057.034.04-.018.04-.021.019-.098.076.104.032-.053.044-.008.01-.138.077.118.014-.127.056.037.04-.023.058.046.034-.051.065.074.035-.046.014-.135.066.084.062.06.021-.103.063.065.02-.12.068.08.051.01.045-.02.053.015.02-.114.071.08.01-.127.084.087.04-.024.006-.099h.048l.07.045.021-.062.055.012.044-.012-.014-.14.095.1.034-.036-.012-.131.083.071.063.027-.009-.121.047-.008.018-.064.039-.023.04-.02.051.002.041-.018.04-.02.046-.01.047-.006.031-.037.09.072.025-.047.06.016-.01-.114.054.007.074.04.035-.03.01-.075.037-.026.016-.06.056.007.025-.045.097.074-.038-.151.07.03.025-.046.04-.021.082.047.06.01.024-.047.026-.043.03-.036-.018-.11.11.085.05-.005-.027-.122.071.025.043-.018.058.006-.013-.098.094.056.035-.029-.012-.095.05-.006-.015-.1.085.042.021-.047.07.02.039-.024.059.003.036-.028-.03-.114.1.057-.017-.095-.012-.087.108.064-.036-.117.135.095.01-.058-.019-.095.118.072.003-.067.001-.068.046-.015.046-.015.029-.036.027-.037.038-.024.068.007-.043-.114.019-.045.022-.042.11.051.078.018.004-.061.002-.064.008-.056.003-.06.135.072-.017-.081.04-.023.081.016.006-.058-.056-.116.032-.03.102.034.079.012-.08-.135h.065l-.01-.07.03-.033.106.033-.052-.104.129.051.011-.05.006-.053.092.017-.047-.097-.015-.07.12.04-.077-.119.03-.032.146.057-.02-.072.018-.043.095.015-.006-.061-.018-.07-.026-.073.067-.007.03-.033-.03-.076.174.067-.012-.063-.056-.092.105.016-.071-.101.061-.013-.029-.071.05-.021.024-.039.113.017-.06-.09.075-.007-.012-.06.111.014-.032-.072.011-.046.077-.009-.05-.08.108.008-.02-.063.014-.043-.03-.068.062-.018.054-.023-.076-.088.097-.003-.02-.06.087-.008-.012-.056-.03-.064.052-.026.015-.042.009-.046.007-.046-.008-.052-.008-.051.073-.02.006-.045.05-.03.002-.047-.055-.069.037-.034.157.008-.03-.059-.106-.083h.146l-.099-.079.104-.014-.043-.06.072-.027.031-.038.015-.043-.022-.053.054-.033-.003-.048-.079-.066.104-.022-.087-.066-.013-.048.05-.035.11-.025-.083-.062.046-.037-.002-.046.07-.036.001-.046.022-.043-.13-.064.005-.044.028-.042-.043-.05.107-.034-.107-.055.094-.037.037-.042.028-.044-.013-.046-.042-.047-.065-.048-.023-.045.154-.04-.088-.047.1-.045-.098-.045.059-.046-.106-.042.046-.047.027-.046-.086-.04.146-.054-.094-.039.104-.054-.1-.036.05-.05-.072-.038.086-.056-.138-.027.143-.066-.047-.04-.133-.022.112-.066.006-.047.019-.05-.061-.035.018-.05-.078-.029-.009-.044.033-.055-.085-.024-.012-.043.062-.065-.04-.036.047-.062-.136-.003.085-.076-.09-.017-.075-.02.097-.084h-.124l.14-.105-.076-.017.005-.052-.129.008.014-.055.079-.087-.07-.017-.009-.046.024-.063-.066-.017-.083-.006.04-.074.004-.055-.067-.012-.066-.012-.044-.026-.024-.036-.024-.037.07-.103-.12.03.062-.1-.068-.006-.089.012.019-.072.006-.063.014-.07-.108.032-.023-.039-.047-.018.027-.085-.011-.052-.1.034-.03-.033.048-.113-.066.002.006-.072-.044-.02-.066.005-.042-.02-.064.005-.01-.058-.047-.013-.03-.035-.008-.062-.097.054.005-.08-.086.043-.012-.061-.027-.038-.066.018-.03-.036.007-.093-.014-.065-.05-.003-.044-.016-.076.042-.037-.024-.006-.083-.045-.012-.06.02-.021-.059-.075.05.006-.115-.077.057.006-.121-.105.126.003-.117-.068.045-.03-.046-.038-.026-.06.032-.004-.116-.077.079-.008-.112-.07.063-.018-.086-.078.094-.023-.074-.035-.04L32 7.905l-.052.018-.053.02-.027-.072-.037-.039-.07.09-.02-.102-.076.122-.018-.122-.044-.014-.042-.02-.045-.009-.05.02-.068.118-.04-.03-.024-.12-.048.01-.038-.048-.054.052-.04-.036-.05.033-.056.088-.027-.15-.049.026-.047.02-.047.018-.035-.112-.055.104-.04-.069-.045-.002-.054.13-.039-.103-.045.01-.043-.057-.045.006-.049.09-.045.03-.041-.151-.046.007-.046.002-.046.148-.044-.14-.045.074-.046-.026-.046-.035-.043.072-.046-.037-.043.076-.047-.02-.047-.048-.048-.058-.045.003-.041.066-.044.012-.051-.083-.04.07h-.045l-.046-.003-.042.03-.048-.02-.037.072-.051-.056-.037.073-.06-.13-.038.064-.045.005-.047-.015-.043.022-.044.002-.042.029-.053-.052-.031.088-.054-.048-.044.013-.025.111-.07-.134-.023.126-.067-.11-.015.15-.054-.038-.054-.037-.02.116-.05-.018-.041.018-.068-.095-.045.008-.018.114-.072-.101-.04.023-.036.04-.036.04-.036.038-.074-.1-.017.105-.036.039-.05-.015-.046.005-.022.08-.089-.134-.015.101-.029.054-.085-.115-.032.046-.035.036-.025.066-.055-.024-.02.08-.03.045-.043.012-.054-.016-.093-.118.02.178-.097-.125.01.144-.05-.004-.07-.053-.005.105-.083-.082.012.141-.041.017-.107-.131-.033.037-.04.023.003.113h-.049l-.036.03-.043.013-.039.02-.074-.05-.006.09-.02.06-.064-.029-.076-.05-.039.024-.022.054-.077-.049-.03.038-.037.028.01.113-.023.049-.068-.03-.079-.047-.032.033-.045.013-.032.036-.023.05-.015.06-.01.07-.08-.045.007.095-.092-.062-.065-.017-.004.076-.009.07-.077-.038.026.122-.039.022-.06-.01-.027.038-.116-.096-.028.04-.032.03.003.088-.071-.028v.084l-.1-.073.008.094-.036.027.01.098-.088-.053-.024.045-.086-.051-.02.05-.024.044h-.053l.009.094-.08-.042-.058-.008.023.117-.007.07-.116-.096-.013.062-.07-.027.018.109-.02.05-.022.047-.09-.057-.062-.013.01.095-.061-.012.008.095-.1-.071-.005.074-.073-.03-.003.078-.04.02-.043.016-.047.01-.007.07-.024.045-.11-.088-.017.056.006.09-.046.01-.079-.039-.012.064-.012.063-.026.041-.035.028-.113-.092.016.108-.086-.05.011.1-.088-.054-.041.019-.049.007.043.148-.047.011-.091-.059-.048.008-.05.006-.023.047-.003.078.002.086-.04.02-.03.035-.07-.025-.036.029-.096-.065-.04.02-.027.04-.044.014.007.093-.072-.028-.045.011.042.149-.07-.026-.041.02h-.054l-.07-.026.035.136-.032.035-.1-.072-.03.036-.039.023-.06-.01.038.143-.094-.062-.033.032v.083l-.068.008-.03-.079.058-.023.065-.021.033-.035.016-.042.031-.035-.03-.062v-.05l-.057-.073.064-.021.085-.013-.004-.05-.074-.08.067-.021-.015-.055.142.012-.062-.076-.02-.057.04-.032.035-.034.067-.02.07-.02-.112-.097.09-.01-.06-.075.11-.002v-.049l.067-.02-.08-.084-.012-.055.086-.013.053-.027-.087-.084.064-.022.1-.01-.057-.069.032-.036.021-.04.07-.025-.105-.082.134-.004.015-.043-.097-.076.062-.029-.042-.058.098-.02-.115-.076.03-.038.068-.03-.03-.052-.034-.053.098-.025.024-.04-.065-.06-.026-.05.052-.035.143-.02-.092-.061-.072-.057.034-.04-.01-.046.022-.042-.017-.047.085-.034.012-.044-.05-.05.127-.032-.005-.046-.025-.048-.044-.048-.046-.049-.016-.046.145-.035-.071-.05.01-.044-.048-.046-.03-.046.013-.044.149-.04-.08-.047-.02-.045.066-.043-.05-.046-.026-.045.074-.045.046-.045-.062-.045-.069-.043.089-.047-.086-.042.14-.05-.043-.044.014-.046-.035-.043-.1-.04.135-.053-.136-.037-.001-.045.123-.053-.12-.037.095-.053-.078-.038.044-.05.02-.046.03-.049-.027-.042-.118-.033.049-.05.058-.053-.081-.035.062-.053.024-.049-.123-.029-.046-.038.095-.06.009-.046.02-.049-.07-.035.042-.052-.022-.042-.104-.028-.008-.044.107-.065-.025-.041.012-.048-.15-.017.12-.07-.085-.028-.032-.04.037-.053.04-.054-.044-.037.026-.052-.126-.017-.004-.045-.032-.039.154-.083-.043-.036-.095-.023-.02-.041-.04-.037.055-.06v-.047l.041-.057-.108-.017-.054-.032.078-.068.011-.051.026-.055-.01-.043-.05-.033.033-.057-.102-.016-.088-.02-.017-.041.138-.092-.006-.045-.032-.038-.052-.03-.054-.029-.068-.024.118-.089.011-.052-.19.02.135-.096-.152.008.01-.052.045-.065-.106-.008.121-.095-.001-.048-.17.019-.007-.046.093-.086-.03-.036h-.116l.002-.05.003-.05.012-.054.024-.06-.109-.002.029-.061-.038-.033-.055-.024.016-.057-.076-.014.01-.054.035-.067-.021-.04-.019-.04-.09-.006.015-.058.088-.094-.072-.014-.118.011.017-.06.092-.1-.123.015.062-.086-.15.033-.01-.046.103-.11-.166.043.102-.111-.057-.019-.1.008.077-.1-.022-.04-.136.031.108-.12-.01-.048-.163.05-.003-.05-.004-.052-.039-.028-.012-.046-.009-.048-.015-.045-.096.013.062-.099-.032-.032-.055-.016-.059-.012-.024-.037.077-.115-.134.046.087-.124-.085.009-.1.022-.025-.037.067-.112-.08.008-.05-.016.002-.06-.011-.05-.029-.035-.057-.01-.046-.017-.013-.048-.06-.005.066-.125-.08.014-.018-.045-.117.053.019-.082-.08.018.01-.075-.03-.032.004-.07.002-.068-.09.032-.022-.043-.04-.022-.051-.01.035-.112-.101.052-.07.016-.024-.042-.051-.006.02-.1-.065.012.037-.125-.036-.029-.075.028-.02-.053-.091.055-.045-.013-.049-.006.04-.145-.027-.044-.12.11V.566l-.004-.084-.097.08.02-.13-.05-.001-.072.038-.001-.098-.09.081.011-.13-.065.033-.028-.048-.098.113-.041-.015.024-.18-.076.068L18.7.254l-.08.09.01-.17-.043-.016-.064.055-.06.046-.048.003-.008-.138-.045-.009-.037-.042-.081.149-.015-.142-.05.014-.063.094-.035-.06-.05.027-.04-.026-.033-.1-.059.115-.043-.012-.038-.079-.05.065-.039-.089-.05.1h-.044l-.042-.092-.046.046-.045-.039-.044.08L17.409 0l-.042.077-.044.01-.04.064-.055-.111-.035.098-.052-.064-.032.107-.065-.143-.048-.012-.026.129-.04.027-.06-.075-.045.007-.056-.045-.013.153L16.7.178l-.043.015-.032.057-.039.026-.05-.01-.045.005-.035.038L16.4.286l-.074-.08.005.155-.05-.008-.08-.087-.056-.02-.031.045-.05-.003.022.176-.043.012-.098-.114-.005.101-.078-.062-.021.061-.012.08-.03.039-.098-.093.004.106-.101-.096-.012.076.017.122-.105-.094.007.102-.056-.007-.055-.003-.05.006-.06-.012-.003.08.013.101-.036.026-.126-.104-.037.028-.005.071.007.085-.012.058-.08-.032-.05.01-.07-.016.04.122-.045.016-.111-.064.066.148-.13-.083-.032.033.024.096.013.08-.04.023-.103-.044.022.088-.05.013-.074-.011-.01.054-.022.041-.058.007-.012.05.024.084-.114-.043-.003.058-.098-.026.1.147-.159-.078.07.119-.077-.005-.049.018-.02.042.067.111-.058.011-.134-.047.008.064.052.096-.144-.051.12.143-.063.01-.117-.028.081.112-.02.04-.072.006.014.063-.063.012-.014.045-.001.053-.123-.025.104.118-.141-.034.073.097-.042.028-.006.048-.106-.01-.062.017-.029.037.023.065-.01.047-.064.017.023.064-.011.045-.051.024-.005.049.053.076-.119-.009.014.057-.037.033-.052.025.033.066.015.056-.098.005.007.053.076.083-.01.043-.162-.02.04.065.07.078-.024.038-.073.02-.082.015-.01.045.052.068-.117.003.141.102-.173-.017.009.051.037.061-.016.042-.055.028.114.088-.12.006.087.076-.102.014.019.053-.056.029.046.062-.064.026-.046.034.037.058-.07.026.09.073-.007.044-.055.031.009.049-.097.02.002.047.03.054-.054.033.048.06.038.055.002.046-.152.01.104.07-.109.02-.035.04.004.047-.046.036.04.054.09.065.01.048-.03.039.004.047-.089.028.05.055-.068.033-.02.043.048.054-.057.035.042.053-.055.037.065.055.002.046-.072.035-.084.033.116.061-.037.04-.024.043.023.048.025.048-.002.045-.144.029.008.047.101.056.025.047-.025.043.018.046-.008.045-.12.034.074.052-.12.035.075.052.013.046.006.045-.102.039.125.053-.063.041-.057.042.104.05-.122.04.043.047-.017.045.032.046.033.046-.069.044.123.047-.005.045-.023.044.047.045-.13.045.076.045-.022.045.073.044-.076.047-.032.045.108.042.008.045-.149.05.01.045.013.044-.002.046.047.043-.01.046-.04.047.081.04-.028.047-.046.048.082.039.032.042-.064.05-.028.049.138.032-.118.056.121.033.014.043-.064.052-.092.057.108.032.058.037-.018.048-.112.06.115.03-.046.052-.052.054.1.029.066.034-.051.054-.015.048.08.031-.128.07.144.018-.007.047.043.036.01.044-.114.07.02.042.067.031.033.038-.042.056.06.031-.037.056.07.027-.016.05.067.028-.068.066-.016.051-.035.058.06.028.029.037-.063.066.114.011.074.024-.027.055.004.045-.004.048.042.033-.104.078.119.01-.071.068-.011.05.074.024-.048.06.146.002.014.043-.123.084.039.035.094.017-.058.064.097.017.028.038.039.035-.01.05-.125.085.141.085-.084-.095-.056.005.005-.091-.091.058-.06.011-.017-.057-.013-.064-.049-.007.019-.112-.106.082-.022-.05.01-.1-.048-.009-.094.065-.03-.039-.04-.018-.058.007.006-.093-.081.044.034-.135-.089.055-.057.005.043-.148-.031-.034-.062.014-.04-.02-.05-.005-.04-.02-.027-.042-.103.077.057-.172-.041-.02-.073.031-.058.007.017-.11-.087.053-.032-.034-.04-.022-.08.042.022-.118-.07.027-.033-.032-.018-.056-.029-.038-.057.005-.014-.061-.085.05-.056.004-.001-.081-.048-.01.028-.127-.056.005-.045-.015-.103.077.019-.112-.035-.03-.023-.048-.05-.005-.07.026-.043-.017-.013-.063-.049-.008-.067.022-.01-.069-.013-.065-.093.062.012-.102-.104.079.018-.111-.024-.048-.108.085v-.085h-.053l.032-.133-.036-.027-.118.102.036-.14-.046-.012-.045-.015-.096.068-.045-.014.048-.16-.088.053-.071.027-.033-.032.012-.104-.044-.015-.077.036.017-.11-.076.034-.004-.08h-.054l-.067.02-.005-.076-.074.033-.002-.081-.078.04.028-.133-.119.111-.045-.01-.016-.061v-.09l-.024-.048-.048-.008-.02-.057-.075.042-.038-.023-.086.064-.006-.082-.053.003-.025-.047-.05-.004.01-.118-.117.134.018-.136-.023-.056-.111.126.002-.108-.054.01-.058.02-.044-.012.001-.11-.079.066-.026-.053-.028-.048-.074.06.013-.146-.07.054-.016-.08-.058.022-.076.069.018-.165-.08.08-.065.044-.013-.09-.04-.023-.048.001-.034-.035-.03-.053-.06.039-.061.04-.034-.04-.009-.116-.07.07-.024-.073-.064.055-.06.043-.028-.06-.008-.132-.075.097-.016-.107-.043-.015-.061.053-.048.007-.043-.014-.044-.01-.049.013-.023-.092-.037-.036h-.047l-.066.084-.052.028-.026-.088-.046.003-.03-.078-.048.01-.053.039-.058.06-.035-.05-.05.025-.028-.1-.051.038-.047.009-.03-.1-.04-.027-.057.073-.045-.005-.053.062-.025-.152-.048.02-.05.037-.052.065-.041-.04-.046.015-.038-.068-.039-.07-.052.068-.04-.049-.056.136-.04-.067-.048.042-.045.019-.034-.187-.052.133-.046.038-.043-.046-.043-.025-.047.046-.042-.083-.046.035-.044.02h-.057l-.055-.07-.046-.034-.044.107-.046-.056-.047-.07-.042.136-.048-.102-.045.035-.043.05-.048-.062-.039.104-.044.019-.044.007-.056-.145-.037.094-.043.023-.042.037-.06-.148-.04.056-.042.026-.052-.044-.047-.01-.045.007-.025.142-.052-.047-.035.066-.055-.058-.038.042-.066-.113-.02.139-.055-.047-.039.035-.03.073-.07-.114-.019.121-.05-.023-.072-.099-.034.05-.02.095-.083-.128-.043.017.007.185-.063-.055-.076-.09-.033.046.003.151-.07-.07-.054-.014-.038.028-.031.046-.057-.022-.045.01-.01.095-.03.041-.108-.136-.027.053.017.146-.08-.066-.002.096-.042.017-.075-.05h-.05l-.046.012-.043.016.022.13h-.05l-.047.01-.082-.047.003.088-.04.02-.083-.042.04.137-.107-.074.024.11-.056-.001-.078-.029-.056.003-.03.035-.03.036.027.102-.03.034-.121-.07-.037.029.058.128-.06.001-.08-.016-.053.012v.064l-.019.045v.062L.99 9.066l.08.13-.143-.062-.015.047.095.134-.122-.04-.06.011.05.094-.03.033-.11-.022.027.073-.065.011.087.11-.107-.014.017.063-.042.028.02.063.024.064-.144-.028.072.089H.525l-.048.026.014.058-.042.03.099.094-.154-.018.045.068.01.052-.089.013.053.068-.007.045.026.056-.034.035-.106.013-.054.03.053.063.03.055-.084.024.04.057-.092.023.078.066.04.055-.108.021.088.065-.13.02-.034.04.012.048.054.055.056.054.022.048-.184.02.06.053.103.057-.036.04.02.047-.06.04-.015.043-.021.045.02.046.002.045.031.046-.056.043-.08.044.025.046.038.045.079.045-.128.046.105.043.048.043-.09.048.057.043-.083.05.03.042.046.042.03.042-.003.045-.034.048-.006.046.087.035-.1.056-.002.046-.019.048.073.035-.009.047-.017.048.002.046.013.043-.011.049.114.024.034.039-.157.078v.046l.107.023-.086.066.03.04.022.042.15.008-.155.086.01.045h.17l-.122.08.084.024-.048.06.12.012.041.034-.037.058-.031.058.059.028.024.04-.014.052-.071.072.127.003-.062.07.048.031.003.047.105.007-.106.09.126-.002.028.036-.022.058-.013.054.09.01-.073.081.039.032.057.023-.101.097.18-.035-.143.118.138-.016.029.036.004.048.055.022-.029.066-.074.09.18-.044-.067.086.002.05.118-.012.003.05.027.035-.06.086.08.006-.022.065-.004.055.014.045.004.05.019.043.148-.04-.016.063.072.007-.02.066.04.028-.003.056-.024.071.119-.026.031.033-.05.09h.078l-.017.067.013.047.093-.013-.056.099.117-.032-.025.075.038.027.067.006.015.045-.047.095.033.032.119-.039-.02.075.036.03.022.04.078-.007-.074.124.027.036.046.02.07-.003.065.002.011.05.049.017-.004.065v.061l.002.062.14-.072-.003.065.052.012-.031.094.087-.023.015.048-.008.073.074-.013.055.007.035.028-.019.087.04.023.083-.024.02.043-.019.09.032.032.115-.064.043.018.017.049-.059.14.076-.02.09-.039-.033.111.081-.03-.02.097.049.012.085-.037-.042.13.083-.035.044.016.082-.035-.065.165.075-.027.022.047.064-.013.063-.012.03.035-.008.091.071-.026.022.048.039.023v.084l.073-.033.067-.022.05.005-.018.114.099-.074-.047.164.094-.069.049.006.049.004.036.027.002.087.012.07.123-.125.023.05.015.066-.005.106.043.015.092-.078.054-.008-.01.118.075-.049-.01.12.086-.069.051-.004.045.009.043.013-.02.152.06-.025.078-.062.033.035.039.024-.006.126.07-.049.013.085.06-.025.026.055.063-.035.026.056.086-.093.05-.006.014.09.013.092.101-.143.03.048.024.067.04.025.073-.075-.01.17.044.01.052-.013.055-.024.043.013.04.026.035.038.055-.027.046.001.033.049.058-.04.046.005.025.077.07-.088.035.045.03.06.06-.054.018.119.066-.08.027.076.047-.002.046.002.064-.078.03.07.049-.013.025.095.043.019.05-.016.058-.07.02.134.065-.102.043.018.037.046.055-.052.03.092.06-.088.042.023.04.035.052-.045.043.01.03.115.04.035.05-.024.042.03.052-.05.041.007.055-.1.027.128.058-.128.026.14.054-.097-.01.11.027-.005.095.02-.03.051-.068.06.097.02.071.026-.148.08.018.04.106.027.052.042-.164.06.038.042.112.046-.08.043.1.059-.17.02.098.066-.07.03.06.068-.035.038-.115-.005.015.057.021.067-.057.016.002.06-.037.029-.05.015-.076-.02.03.108-.084-.039-.023.044-.068-.03-.033.027.025.147-.06-.018-.069-.046-.05-.012-.006.116-.058-.03-.06-.042-.039.021-.019.105-.042.02-.066-.085-.013.154-.057-.048-.054-.037H6.81l-.051-.03-.038.048-.039.04-.037.056-.05-.026-.043.017-.046.004-.06-.07-.032.088-.056-.051-.04.04-.031.087-.063-.085-.039.041-.06-.059-.036.054-.052-.014-.06-.034-.014.109-.066-.042-.008.098-.07-.05-.037.029-.053-.01-.043.015.008.134-.1-.117.017.15-.072-.05-.066-.04-.055-.01.03.177-.045.01-.106-.123-.026.052v.105l-.085-.073-.014.076-.02.062-.085-.073-.055-.01.004.111-.087-.072-.02.062-.01.08-.065-.028.003.104-.05.003-.107-.11.018.132-.055-.008-.042.018-.035.029-.026.048-.05.002-.089-.07-.015.067-.034.033-.06-.015v.093l-.036.027-.047.007h-.052l-.048.009-.022.05-.019.058-.01.071-.07-.03-.061-.015-.02.052-.072-.028-.057-.007-.02.056.038.141-.043.017-.118-.099.01.097-.08-.04-.053.003.045.148-.027.04-.103-.07-.026.042-.054.002-.038.023-.058-.003-.016.056.02.106-.064-.013-.028.038-.003.072-.116-.08.001.077-.076-.026-.03.035-.002.072-.023.044-.056.002.016.092-.049.01-.016.052-.13-.09-.04.025.052.132-.128-.082.065.147-.067-.01.007.076-.1-.046v.068l-.008.059-.124-.072.043.116-.09-.034-.034.032-.053.008-.034.03-.015.05-.066-.003.04.104-.08-.017-.038.028-.005.058-.04.023.041.103-.051.012-.003.059-.019.044-.068-.003-.115-.044-.01.052-.04.024.017.076-.026.037.035.09-.075-.007-.003.057-.145-.064.056.105-.062.008-.015.045.027.078-.014.046-.159-.066.08.118-.049.019.005.06-.086-.009v.055l-.035.031-.113-.024.014.065-.014.044-.031.034-.049.022-.021.04.097.115-.076.005-.011.046.016.062-.169-.05.092.108-.03.034-.018.042-.105-.009.074.093.005.054-.123-.015.034.068-.003.049-.003.048-.052.024-.08.01-.05.027.034.066-.044.029.002.05-.087.01.022.06-.018.042.083.083-.068.02-.113.003.12.096-.103.008v.049l-.042.032-.01.044-.045.033-.033.036.097.08.01.05-.016.042L.345 26l-.07.025v.048l.06.064-.102.018.083.07v.046l-.126.014-.001.046.003.047.015.05.116.072-.11.022.016.049-.017.042-.013.043-.087.03.073.059.026.05-.127.024.098.061-.033.04.082.057-.117.029-.062.037.145.063-.13.03-.024.043.118.057-.01.044-.012.044-.098.037v.046l.063.049-.09.04.118.05-.07.043-.008.045.068.046-.066.043-.028.045.13.046-.123.044.056.045v.045l.066.044-.008.044-.138.048.07.044.017.044.02.043-.118.052.111.038-.048.048.114.037-.057.05.004.044-.043.048.008.045.034.041-.083.055.038.04.131.03-.083.056.028.041-.045.052.088.033-.097.06.04.04-.016.049.113.025.05.034-.063.059.017.041-.005.048.057.03.017.04-.068.068-.04.061.053.03.1.01-.039.063.058.025.047.027.025.037-.03.063.021.038.056.021-.04.072-.04.075.094-.002-.043.08.126-.027-.042.081-.012.064.054.019.086-.008.026.036h.073l-.071.114.05.017.022.04-.002.063.112-.041v.06l.023.041L1 30.45l-.002.065-.01.075.007.058.073-.011.08-.023.047.013v.068l.013.054.082-.03-.015.09.054.003.068-.016-.053.147.064-.01.095-.058.012.06.047.012-.032.129.107-.082h.052l-.023.123.056-.006.013.067.097-.077-.01.108.04.019.091-.071.047.007-.03.15.065-.026.082-.062.012.074.056-.013.057-.015-.03.171.033.035.108-.13.034.034.053-.013.025.054.006.101.067-.045.013.088.06-.031.023.067.083-.094.038.025.004.122.066-.053.03.052.035.034.074-.081.05-.017.034.04.046.003.048-.003.046.003-.006.178.062-.049.044.007.05-.008.046.002.023.089.074-.104.008.152.088-.167.013.139.037.038.073-.116.02.121.068-.105.026.095.066-.1.039.036.047-.006.015.165.068-.125.04.03.049-.017.045-.004.045.002.033.086.057-.085.044.011.033.102.047-.02.045.007.04.04.048-.019.044.01.042.046.052-.089.047-.031.038.108.045.022.051-.144.04.125.044.049.046-.016.045.024.047-.131.045.096.045-.098.045.027.046.07.046.02.042-.105.048.09.045-.011.04-.105.041-.05.046.018.052.097.036-.117.05.063.048.02.042-.029.042-.027.057.101.039-.055.03-.112.052.046.037-.05.051.04.038-.045.04-.026.074.16.014-.177.046.004.058.06.04-.026.04-.027.038-.034.077.137.03-.073.056.044.008-.16.075.113.048.006.007-.149.042-.016.065.066.052.02.022-.089.07.078.004-.14.084.12v-.148l.071.074.05.007.034-.041.049.004.042-.015.051.01.014-.098.081.092-.013-.163.046-.005.095.121.043-.016.006-.107.052.008.01-.094.062.033.075.063.053.007-.016-.15.076.063.03-.043.024-.058.022-.059.072.05.016-.073.11.128.005-.094.014-.076.099.101.023-.055.032-.038-.005-.109.104.106-.027-.152.084.064.027-.044.018-.063.035-.03.033-.032.106.102.042-.017.028-.043-.006-.104.057.011.013-.068.107.097-.026-.135.096.078-.01-.107.027-.043.069.03.073.033.016-.06.047-.008.031-.036.046-.01.068.025-.009-.1.006-.076.064.018.014-.061.08.041-.005-.09.063.017.02-.052.023-.047.031-.035.044-.015.11.088.034-.032.04-.022.008-.069.045-.012v-.08l.048-.01.091.056-.046-.15.086.049-.012-.098.059.006.072.027.031-.035.021-.049.068.018.044-.014.056.001.031-.033-.004-.085.01-.064.034-.03.036-.028.059.006.031-.034.069.019.033-.032.069.019-.022-.108.035-.029.073.024.033-.03-.013-.094.086.041.016-.054.03-.036.081.035-.008-.089.057.002.024-.043.023-.045.061.007.078.03-.015-.096.059.004.062.007-.049-.141.067.014.076.027.002-.072-.018-.101.093.05.016-.055.103.061-.004-.081.03-.035.041-.019.081.034.023-.043-.01-.088.002-.07.101.062.046-.013.031-.033.04-.023.036-.026-.046-.135.13.1.011-.06-.04-.128.098.056.05-.009-.02-.1.086.04.006-.065.004-.07.078.029.03-.034.056-.04.025.073-.067.034.045.053.035.052-.027.04-.079.03.072.058-.045.038.027.05-.138.02.027.05.07.058-.12.024.09.062-.042.038-.099.027.103.064.024.05.015.048-.082.03-.076.032.042.053.097.063-.028.04-.098.028-.023.042.008.048-.053.037.025.05-.04.038.03.051-.056.036.13.068.018.048-.044.038-.1.03.01.046-.047.038-.016.043.129.066-.078.033.075.057-.133.026.094.059-.064.036-.012.044.05.052-.02.042-.039.04.085.057-.12.03.082.055-.036.04.027.049-.116.03.012.047.1.057-.065.038.014.046-.108.033.038.05.088.054-.016.043-.087.036.083.053.018.047-.118.034.014.046-.067.039.146.057-.154.032.047.049.048.049-.08.039.125.054-.105.038.03.046.081.05-.158.035v.045l-.012.044.046.048-.01.044.095.05-.067.041-.056.043-.018.044.072.048-.04.043.007.045-.063.044.01.045.15.047-.13.043-.007.044.04.045-.015.045.054.045.046.044-.032.045-.02.045.047.043.009.045-.022.044-.032.046v.045l.052.042-.048.047-.007.045.072.04-.024.047-.116.052.018.044.124.035-.05.049.07.039-.023.046.037.041-.146.059.028.042-.02.047.044.04.004.045-.043.05.043.04.085.034.05.038-.107.06.047.038.046.038.054.036-.134.067.04.038-.016.048.115.024-.055.055-.031.052.107.025-.028.05-.084.064.06.033.106.023-.007.047.003.045-.074.064.055.033-.002.047.007.044-.012.05.043.035-.028.055.024.04.011.044.12.01.027.038-.122.086.13.005-.057.066.04.034-.045.063-.01.05.151-.005-.083.078.086.015-.018.054-.056.07.004.048.075.018-.046.068.176-.025-.122.101.046.03.005.047.07.018.076.014.015.042-.084.089.02.04.034.033-.002.052.06.02-.043.074.034.033.16-.035-.047.076.068.013-.018.061-.052.083.116-.017-.088.104.047.025.082.003-.006.056.11-.017-.065.095.046.024.043.025.087-.004-.028.073-.037.08.068.007.012.046-.018.068.138-.045-.035.081.009.05.107-.025-.09.126.138-.052-.046.094.063.007-.025.078.057.011.079-.007.014.045.059.009-.057.109.09-.02-.052.107.024.04.13-.06-.073.13.07-.004.02.042.09-.024.029.035.08-.016-.007.069-.006.07.033.03.097-.037.004.06.054.008-.079.15.034.03.05.013.13-.077-.005.072.065-.005-.011.08.022.042.023.044h.06l.07-.015-.03.108.046.016.003.069.089-.039.023.044.097-.052.002.07.063-.009.018.05.004.073.026.04.018.052.076-.03.067-.016.032.031.018.054-.02.112.059-.006.067-.02.064-.019.032.034v.087l.076-.04-.022.128.075-.04.023.052.095-.08-.027.146.05.004.084-.066.028.044.014.073.055-.01.054-.008.018.068.046.008.015.081.049.002.074-.065.067-.049-.003.137.082-.096.007.119.04.021.028.064.073-.082.053-.02.054-.027.002.162.052-.018.057-.043.058-.053.025.1.049-.016.047-.01.041.027.055-.058.03.104.04.045.053-.068.037.083.048-.018.052-.081.04.076.049-.07.045-.033.042.094.046-.008.045-.014.047.093.04-.162.051.134.046.007.035-.145.045.016.06.136.038-.068.03-.116.059.097.04-.027.06.073.042-.028.027-.095.053.036.043-.018h.047l.035-.04.02-.093.054.026.078.102-.003-.156.09.125-.012-.167.086.103.058.024-.013-.155.034-.034.087.09.047-.006.044-.013-.012-.13.05.004.048-.007.08.056.042-.017-.007-.107.082.053.032-.035h.106l-.051-.168.122.107-.005-.091-.01-.094.038-.025.12.095.045-.017-.04-.133.091.049.056-.002.036-.027-.064-.153.125.085-.026-.103.054-.005v-.068l.082.026-.02-.09.056-.004.11.056.01-.056.035-.03.043-.02-.026-.091.033-.03.02-.044.047-.015-.015-.076.095.028.035-.028-.004-.065-.006-.066.137.064-.068-.12.096.024-.034-.088.085.014.004-.056-.026-.08.079.008.067-.004.024-.037.043-.023-.038-.087.06-.01.032-.03.096.015-.098-.128.071-.003-.032-.078.115.027-.068-.103.095.012-.015-.064.119.026-.077-.105.06-.014-.036-.076h.084l.035-.03-.018-.064.145.037-.031-.072-.071-.095.044-.025.125.022.014-.044-.04-.075-.034-.07.022-.039.132.023.057-.02-.02-.062.006-.048-.01-.056-.043-.072.123.013.073-.013-.099-.1.015-.043.061-.02h.1l-.063-.081.116.005.012-.044-.048-.072-.07-.08.03-.036.102-.003.034-.035.004-.047.003-.047.04-.032-.019-.056-.003-.05.042-.03-.037-.065.162.017.01-.045.018-.041-.027-.059-.04-.063.084-.017-.106-.087h.128l-.002-.049-.02-.055.012-.043-.04-.061.106-.012-.062-.068.063-.026-.035-.06-.01-.049.078-.022.1-.016.017-.042-.117-.083.043-.034v-.047l.07-.027.068-.027-.072-.067-.01-.05.11-.017-.044-.058.003-.046-.074-.065.113-.018.032-.038-.05-.059.076-.027-.007-.048.006-.045-.065-.06.019-.043-.006-.046.018-.042.098-.026-.089-.064.023-.041.034-.039-.028-.05.014-.044.008-.044.123-.024-.068-.057.004-.045.015-.043-.064-.056-.003-.045.141-.025-.088-.058.01-.043-.044-.051.018-.043.033-.04.02-.043.1-.033-.108-.057-.004-.046.133-.03.011-.045-.091-.054.063-.04-.018-.046.045-.042.022-.043-.118-.054.074-.04-.042-.047-.028-.047.01-.044-.003-.045.13-.039-.052-.047-.052-.047-.035-.045.076-.043-.023-.046.046-.044.02-.045.033-.045-.063-.045-.073-.044.113-.047-.106-.043-.034-.043.057-.047-.03-.043.122-.05-.002-.046-.108-.039.11-.052-.122-.037.082-.05.005-.046-.062-.04.008-.046.04-.049.025-.048-.123-.032.074-.053-.103-.033.002-.045.02-.048-.006-.044.058-.053-.043-.04.02-.049-.07-.034-.01-.043-.072-.033-.003-.044.112-.067.043-.054-.16-.013-.016-.042.025-.051.05-.057-.045-.035v-.047l.061-.061-.011-.044-.078-.026.055-.061-.17.002.159-.093-.035-.037-.027-.04.026-.055-.072-.024-.107-.01.017-.053-.027-.038.08-.076-.084-.016-.034-.034.024-.057.006-.05-.03-.037.045-.066-.116-.002-.076-.018.078-.08-.075-.018-.035-.035.017-.055-.033-.035-.01-.044.069-.076-.023-.04.025-.057-.106-.006-.076-.017.094-.086-.04-.032-.096-.01.061-.072.046-.067-.067-.022-.095-.01.105-.091-.076-.018.015-.054-.028-.038.009-.052-.118-.001.026-.059.028-.06-.042-.032.014.022.03-.088-.034.122.054.002.052.005-.014.096.12-.087-.02.103.036.026.097-.057.004.07.026.04.016.055.07-.02.005.068.089-.044.029.037.018.05.03.035.085-.039-.037.126.042.018.039.024.05.006-.012.094.05.007.08-.032-.02.103.046.014.024.043.127-.095-.026.113.006.067.126-.093-.024.107.108-.071.02.048.044.016.023.044.03.035.029.036.058-.003.04.02-.06.157.057-.002.08-.034.02.05.025.04.038.024.015.056.052.005.002.073.11-.075.01.062.011.061.066-.015.05.008-.025.11.072-.022.004.07.064-.012.047.012.076-.03.005.07.076-.03.045.014.004.072.038.023.028.04.074-.03.015.058.044.014-.002.082.043.015.06-.008-.023.114.112-.086-.028.12.056-.002.041.02.044.014-.015.104.1-.07.046.013.033.03.033.031-.022.116.084-.046.073-.03-.027.124.083-.047-.03.128.045.015.104-.079.007.072.014.062.105-.083-.038.148.107-.09-.034.142.096-.072.051.003.01.072-.006.096.057-.008.09-.062-.029.135.08-.047.078-.046.02.056.049.003-.03.143.032.035.075-.04.054-.005.056-.01.04.021.006.084.061-.02.072-.039.03.039-.017.127.098-.09-.03.157.102-.102-.003.106.032.037.054-.009.053-.007.045.01.022.057.063-.028.011.081.098-.103.005.095.025.055.042.014.04.02.052-.007.018.072.098-.118.026.055.04.021.04.02.003.111.056-.016.047.003.057-.023.033.04.064-.043.009.107.054-.018.046.004.057-.027.007.116.054-.02.021.083.07-.07.048-.003.013.11.058-.036.058-.039.03.057.05-.012.06-.047.01.13.041.024.055-.031.037.038.051-.02.038.035.064-.077.05-.017.012.156.057-.053.049-.015h.045l.03.081.056-.054.033.077.049-.021.049-.02.056-.074.04.036.048-.02.037.055.036.074.06-.118.031.116.052-.056.037.075.042.042.055-.123.042.035.042.037.05-.088.037.151.049-.072.047-.072.043.033.046-.04.043.028.045-.012.044.016.044-.036.046.133.043-.09.047.087.043-.062.045-.014.045.013.041-.068.048.06.041-.055.05.068.042-.03.05.063.047.01.035-.095.04-.04.056.095.05.043.035-.09.046.01.038-.054.053.055.025-.132.062.103.053.045.03-.086.061.082.038-.041.052.032.01-.178.068.105.03-.074.035-.047.055.039.034-.046.065.08.037-.042.063.067.024-.088.037-.038.063.061.048.006.01-.13.065.061.03-.055.034-.046.066.062.046-.005.01-.115.056.026.05.007.024-.068.086.11.034-.042.05.007-.008-.152.103.145.029-.053v-.122l.097.121-.016-.156.1.12-.014-.146.097.107-.028-.17.038-.024.056.013.1.102.007-.087.023-.055.04-.019.064.024.068.03.008-.08h.052l.05-.005v-.09l.051-.003.01-.072.041-.017.072.03.062.012.04-.022-.032-.13.093.057.036-.029.066.015-.062-.162.072.022.076.025.003-.069-.006-.08.126.083.008-.061.016-.051-.003-.072.014-.05.028-.035.14.084-.043-.11.002-.06.099.035.02-.043.007-.056.05-.013-.001-.062.06-.008.035-.028-.032-.085.123.042-.04-.089.014-.045.06-.01.09.008-.062-.098.054-.017-.005-.056.016-.041.14.032-.023-.067-.061-.085.07-.012.076-.012-.087-.093.069-.017.04-.03-.073-.08.106-.005-.044-.063.143.002-.044-.063.057-.03-.08-.069.038-.035-.02-.05.09-.028-.004-.046-.051-.055.09-.03-.09-.06.031-.04.062-.036.04-.04.01-.044-.15-.066.08-.034-.013-.047.11-.032-.102-.057.112-.034.004-.045-.09-.054-.072-.05-.005-.045.01-.044.004-.044.006-.045.028-.043.023-.043.004-.045-.049-.045.088-.043.002-.044-.091-.045-.002-.045.126-.045.005-.045-.02-.044.019-.046-.11-.041-.02-.044.167-.053-.033-.043-.003-.045-.12-.036-.006-.045-.02-.043.095-.053-.093-.036.055-.05.055-.052-.153-.026v-.044l.145-.065-.017-.043-.144-.024.061-.054.096-.062-.185-.013.096-.062.052-.056-.096-.027.055-.057.006-.047.003-.047-.084-.027.075-.064-.059-.032-.064-.03.052-.06-.144-.008.055-.061-.003-.046.049-.06-.129-.01.01-.049-.053-.03.09-.075-.001-.047.015-.052-.146.002.049-.064.01-.051.036-.061-.006-.046-.086-.016.053-.068-.089-.013-.084-.014.031-.061-.033-.035-.072-.017.059-.074.034-.065-.138.014.088-.09-.134.013-.013-.042.08-.09-.07-.014.031-.066.024-.062-.159.032.11-.108-.088-.004.017-.06h-.093l.047-.078-.047-.025-.064-.014.003-.054.003-.053-.033-.033.006-.056-.076-.005-.086.002.073-.1-.102.013-.038-.028.067-.098-.033-.031-.078-.002-.041-.025-.03-.034.08-.111-.002-.055-.065-.008-.023-.04-.094.015-.018-.043-.025-.037.04-.088-.108.027-.01-.049.05-.097-.116.036-.003-.056-.05-.017-.006-.053-.021-.04-.054-.013.008-.066-.004-.056-.07.002-.071.003.036-.093-.112.042.04-.098-.111.043.084-.142-.034-.03-.047-.017-.019-.045-.132.069.048-.112-.056-.007-.043-.02-.067.005.014-.08-.101.044.065-.135-.073.013v-.067h-.061l-.001-.064-.082.024-.002-.064-.097.042.023-.095-.014-.053-.033-.031-.095.045.002-.073-.02-.046-.078.025-.019-.048.005-.078-.024-.042-.11.068-.018-.049-.03-.035-.024-.043-.032-.032-.033-.03-.01-.062-.066.014-.04-.021-.034-.029-.016-.056-.082.04-.057.003-.006-.069-.03-.035-.077.033.029-.124-.116.097.05-.162-.09.06-.067.02-.018-.054.033-.139-.047-.01-.067.023-.068.026-.061.017-.044-.013.034-.148-.03-.04-.053.004-.027-.044-.097.08-.015-.063.002-.098-.073.04-.07.034-.028-.041-.064.025.027-.15-.103.104.012-.125-.058.016-.009-.083-.083.068-.02-.06-.047-.007-.034-.033-.075.055-.043-.012.005-.118-.049-.003-.037-.026-.056.014-.052.009-.015-.08-.051.005-.028-.052h-.049l-.083.088.014-.155-.052.008-.075.068-.04-.022-.056.022-.03-.047-.03-.047-.03-.049-.027-.058-.063.046-.055.022-.025-.068-.045-.005-.065.054-.006-.127-.08.1-.048.008-.045-.005-.035-.038-.044-.007-.026-.071-.052.02-.055.03-.001-.162-.046-.002-.068.079-.022-.091-.068.084-.026-.083-.066.082-.01-.151-.056.044-.065.082-.044-.009-.046.002-.03-.073-.048.011-.041-.02-.024-.114-.069.119-.029-.087h-.046l-.045-.006-.038-.043-.038-.042-.07.148-.03-.095-.056.069-.047.016-.028-.118-.049.025-.041-.024zm-2.62-.625.018.048.061.053-.079.035.021.048h-.07l.011.04-.065-.03-.038.023-.021.06.011.123-.106-.117-.014.079-.046.005-.047.006-.055-.02-.023.066-.028.057-.025.07-.078-.093-.055-.028-.012.122-.057-.036-.03.068-.043.022-.07-.11-.026.098-.067-.113-.028.1-.052-.037-.028.118-.049-.01-.054-.075h-.046l-.042.027-.048-.032-.047-.019-.037.123-.044.037-.048-.04-.044.037-.045.006-.048-.078-.045.07-.047-.15-.044.142-.046-.005-.045-.088-.045-.008-.045-.054-.046.07-.045.015-.045-.006-.047.065-.045-.02-.044-.054-.047.103-.044-.028-.043-.075-.044-.059-.048.121-.043-.093-.047.078-.043-.06-.045-.047-.046.123-.044-.04-.045.043-.045-.025-.045-.066-.045.032-.045-.002-.04.087-.044.009-.055-.155-.041.054-.043.031-.053-.07-.045.01-.037.068-.039.034-.067-.107-.018.13-.065-.074-.035.044-.034.039-.059-.027-.042.021h-.052l-.057-.004-.026.052-.029.041.023.102-.025.034-.015.044-.053.006-.06.006.004.058-.112-.024-.019.097.021.066.114-.06-.035.108.087-.03.034.029.047.014-.036.108.116-.063-.014.082.015.052.006.06.081-.023.063-.003.018.047.058.002.044.017-.024.096-.004.073.093-.037.092-.036-.007.076.008.058.055.007-.028.099.025.04.088-.033.073-.015-.006.075.096-.04.027.038.045.017-.078.157.122-.07-.048.122.06-.001.04.023.008.06.086-.03.052.01-.058.134.04.022.114-.062-.011.081.064-.005.055.006.033.03-.047.123.05.012.097-.041-.024.095.015.051.048.014.069-.01.04.024.041.022-.034.108.149-.1-.01.109-.076.075-.04-.04-.034-.064-.037-.051-.041-.024-.064.11-.02-.156-.056.065-.043-.015-.035-.061-.07.15-.026-.11-.037-.052-.062.1-.038-.043h-.045l-.028-.1-.048.016-.046.005-.06.084-.035-.057-.034-.073-.046.004-.046.002-.066.127-.024-.128-.046.005-.048.012-.053.047-.042-.018-.048.018-.039-.042-.053.044-.037-.047-.03-.1-.056.07-.052.042-.041-.028-.03-.099-.055.062-.05.026-.045-.005-.046.005-.037-.052-.026-.116-.044-.011-.065.12-.03-.098-.061.102-.027-.112-.059.078-.043-.016-.027-.111-.04-.03-.05.02-.065.119-.044-.01-.041-.028-.035-.066-.04-.04-.066.122-.025-.04.005.002-.079.037.09.051-.057.042-.056.045.152.04-.144.054.095.036-.01.045-.082.06.069.033.004.046.12.014-.108.076.047.033.009.044-.04.062.01.045.09.012-.04.066.085.01-.008.053-.042.07.063.019.084.007-.094.098.029.035.028.036.035.031.055.022.033.033.028.036-.008.055.11-.009.014.043-.093.1.06.018.105-.005-.067.085.027.036.084.007-.108.103.157-.028.036.032-.035.066.005.046-.012.054-.037.065.167-.024-.1.09.11.003.047.03-.006.051-.076.076-.014.05.12.007-.086.074.069.025.07.026.025.04-.119.077-.002.045.028.038.146.015-.042.055-.027.05.092.031-.095.06.09.033-.04.052-.069.056.018.043.096.032-.11.062.022.043.072.035-.054.054.115.029-.025.05-.037.051-.039.053-.01.048.026.042.125.027-.022.05-.098.061.128.027v.092l-.07-.057.001-.084-.104.075.003-.085-.074.028-.021-.049-.003-.079-.022-.048-.104.073-.022-.049v-.083l-.048-.01-.042-.018-.077.032.023-.116-.119.097.032-.13-.084.043-.054-.001-.032-.035v-.082l-.087.047-.04-.025.04-.127h-.056l-.043-.017-.076.02-.032-.033.008-.075-.002-.061-.004-.058-.143.079.086-.143-.045-.018-.093.024-.054-.013.02-.075-.006-.052-.017-.042-.048-.02-.026-.034-.054-.016-.036-.028.022-.07-.047-.022.038-.08-.105.018-.082.002-.03-.035.112-.124-.09.005-.002-.052-.042-.026-.078-.004.042-.078.035-.072-.121.023-.052-.022.046-.082-.049-.023.06-.09-.132.029.067-.097-.092.006-.027-.036h-.082l.006-.058-.054-.017.03-.076-.06-.012.077-.113-.02-.044-.085.01.027-.085-.072.002-.036-.03-.07.006-.03-.034-.076.025.067-.16-.115.083.005-.091-.055.006-.018-.07-.08.076-.029-.045-.024-.084-.074.134-.032-.068-.042-.014-.043-.036-.045.07-.044-.01v-.003l.014.039-.086.007-.07.015.09.094-.096.002.03.065-.114-.007.032.066-.023.038-.084.007.09.095-.008.045-.01.045-.067.016-.051.024.029.064-.087.006-.067.017v.05l.111.105-.158-.03-.024.039.006.052.054.077-.06.02.06.08-.113-.007-.041.029.022.061-.065.017-.005.048.036.067-.021.04-.121-.01.11.104-.039.032.022.06-.084.008.007.053-.012.044-.083.01-.032.033.043.071-.017.041-.015.042-.13-.015.1.1-.074.013-.06.02.046.073-.11-.004.028.064.066.083-.076.012-.061.02.046.073-.138-.019.059.08-.006.047-.036.032h-.099l.067.084-.031.068v-.074l-.068-.044-.013-.044.056-.045.016-.045.027-.044-.063-.044.128-.045-.101-.044-.058-.044.1-.045-.065-.045.067-.045-.028-.045-.05-.044.106-.045-.008-.045.008-.045-.003-.045-.082-.044-.021-.045-.015-.045.017-.045.106-.045-.14-.044.043-.045.052-.045.038-.045.015-.045-.088-.044-.044-.045.14-.045-.153-.044.148-.046.006-.045-.09-.044.085-.045-.119-.045.054-.045-.008-.044.099-.045-.043-.045-.134-.045-.002-.044.072-.045-.025-.045-.013-.045.06-.045.057-.046-.071-.045.028-.044.027-.045-.037-.045.015-.046-.03-.045-.047-.03.003-.01-.036.058-.042.007-.035.03-.05-.024-.076-.08-.042.022.006.122-.021.049-.122-.122-.003.08-.086-.04-.035.034.02.095-.024.04-.023.04-.041.02-.098-.027.09.138-.106-.03-.01.05.004.058-.083-.006-.066.008.03.076.005.057-.073.006-.023.038.046.082-.1-.01-.017.043-.005.05.03.07-.14-.031.048.08.033.07-.124-.019.054.082-.056.02.003.053h-.092l-.013.046.024.064.03.067.001.053-.084.004-.106-.008.104.11-.123-.018-.014.043-.023.039.014.06-.095-.005.126.128-.158-.043.107.118-.17-.053.013.061.064.095-.053.02-.002.052L15 25.28l-.035.03.05.09-.01.05h-.15l.082.122-.09-.015-.015.047-.029.034.002.063-.014.05-.144-.076.075.137-.031.035-.04.025-.09-.032.01.081h-.06l-.061-.005-.058-.003-.017.05-.01.065.003.079-.06-.007-.102-.065-.021.048.01.09-.077-.03-.05.009-.039.022.031.12-.027.04-.102-.066.001.08-.094-.053.037.127-.075-.028-.03.037-.078-.031.033.123-.089-.046.013.095-.092.062.017-.11.015-.044.105-.03-.083-.057.074-.035-.08-.056.036-.04-.07-.055.03-.041.123-.03.013-.043-.023-.049-.03-.05-.026-.048.07-.036-.102-.06.148-.025.006-.045.003-.046-.07-.054.1-.033-.106-.06.093-.032-.085-.059.11-.025-.11-.068.07-.03.073-.03-.101-.071.076-.027.047-.033-.12-.082.138-.005-.067-.069.072-.023-.012-.051.023-.04.013-.043-.04-.064.012-.045.026-.038.013-.045.116.003-.054-.074-.023-.061.101-.002.01-.046.042-.03-.069-.085.153.028-.12-.114.122.014-.043-.074.01-.046v-.051l.005-.05.127.02.048-.025.019-.042-.032-.069.1.005.004-.05-.01-.057.005-.048-.02-.064.068-.013-.05-.08.027-.036.053-.022.037-.032-.03-.067.02-.04.103.003-.055-.079.09-.005.08-.011-.113-.105.12.007-.018-.059-.019-.057.03-.036.013-.043-.046-.064.021-.038h.132l.012-.045-.03-.056-.035-.055.022-.04.112-.02-.115-.069.102-.027.025-.043.043-.043-.04-.05-.022-.046.065-.047-.069-.044.001-.045-.05-.04.03-.049.008-.047-.018-.088-.061.094-.045-.008-.043-.043-.045.066-.044-.032-.043-.068-.047.087-.044-.003-.042-.077-.043-.066-.048.137-.044-.01-.042-.102-.045.029-.046.098-.041-.155-.046.048-.043-.011-.047.105-.042-.089-.043-.031-.049.148-.044-.003-.04-.153-.045-.002-.046.087-.045-.003-.042-.085-.046.032-.046.065-.042-.1-.044-.004-.045.011-.048.121-.043-.058-.07-.003.08-.028-.05-.092.077.002.028-.035.013-.046.06-.01h.075l-.04-.086.016-.043-.019-.068.13.04-.023-.072.043-.023.002-.054-.027-.076.058-.012-.013-.065.054-.015.06-.012.027-.034.1.018-.09-.122.067-.006.102.02-.107-.136.145.05-.031-.078.088.01-.025-.08-.085.02-.012-.054.028-.096-.037-.028-.011-.055-.104.046-.023-.042-.022-.044.018-.086-.04-.025-.088.028-.07.009-.05-.015-.008-.057.02-.088-.074.011-.028-.037h-.042l-.03.008-.036-.083-.037-.07-.053.076-.047.024-.048.026-.044-.013-.05.038-.034-.105-.044-.012-.039-.065-.048.03-.05.036-.053.077-.034-.1-.044-.013-.049.03-.037-.079-.045.006-.042-.032-.055.098-.043-.027-.038-.07-.06.132-.027-.168-.046.015-.058.114-.041-.034-.047.012-.043-.027-.037-.076-.057.114-.037-.077-.039-.06-.054.089-.05.046-.031-.13-.047.014-.046.003-.05.054-.034-.113-.059.133-.042-.03-.047.014-.032-.128-.055.09-.043-.012-.038-.072-.048.03-.036-.083-.06.148-.039-.065-.045.005-.05.039-.033-.107-.046.012-.044-.016-.042-.026-.054.078-.051.053-.03-.144-.054.08-.037-.074-.048.029-.041-.042-.047.015-.05.045-.037-.074-.054.076-.044-.011-.033-.118-.049.03-.058.122-.036-.089-.048.018-.04-.041-.044-.021-.053.08-.041-.045-.035-.1-.054.085-.049.035-.04-.057-.051.065h-.046l-.031-.132-.048.025-.04-.055-.044-.011-.054.08-.05.046-.047.004-.038-.064-.047.01-.041-.04-.053.072-.045-.01-.036-.094.037.025-.072-.053.07.039.039-.024.037-.03.052.005-.007-.117.044-.014.09.08-.001-.105.044-.014.06.02h.05l.026-.052.062.024.069.036.028-.045.029-.043.05-.003.009-.084.071.043-.018-.14.11.121-.027-.158.089.076v-.1l.046-.012.023-.056.053.005.045-.013.083.066.002-.1.035-.034.043-.019.098.106.036-.027.002-.113.04-.022.068.05.04-.02.026-.065.038-.033.05.01.029-.07.051.013.076.118.007-.172.069.1.04-.027.05.02.054.05.039-.037.028-.12.053.05.046.003.05.037.045.007.038-.08.04-.079.05.065.048.027.042-.057.05.086.04-.115.05.153.043-.116.047.102.044-.164.046.073.045.055.046-.12.045.104.045-.018.045.012.045.006.044.034.045.013.045.002.049-.125.043.034.045.002.046-.024.045-.002.041.133.048-.124.045.018.043.11.045.019.046-.084.045.06.044-.115.047.125.045-.004.04-.167.05.121.042-.054.042-.04.055.128.03-.167.06.143.042-.042.046-.002.047.006.047-.002.052.016.026-.082.027-.063.026-.056.059.036.037-.022.074.05.023-.051.087.051-.003-.088-.013-.089.015-.044.144.086-.056-.115.133.053-.03-.082.038-.03-.035-.033.023-.076-.089.033-.045-.016.06-.137-.038-.026-.098.045.032-.105-.069.01-.085.03.062-.14-.064.006-.093.038-.033-.03-.028-.036-.067.008.068-.146-.073.014.021-.091-.054-.007-.047-.015-.073.015-.021-.043-.085.028.003-.071.03-.103-.054-.007-.052-.009-.029-.035-.068.009-.01-.057-.065.005-.002-.066.01-.08-.112.06.028-.1-.073.013h-.06l.05-.124-.088.03-.004-.062-.092.036-.05-.01.037-.11-.071.01-.003-.065-.017-.049-.08.023-.034-.03.028-.1-.04-.024-.12.07.055-.132-.078.02-.09.033.004-.073-.033-.032-.06-.002.067-.05-.008-.075.023.137.052-.042.04.038.05-.03.04.029.036.06.067-.13.023.131.048-.012.057-.075.04.033.037.049.051-.036.057-.068.023.131.053-.044.03.094.063-.114.026.12.042.02.054-.054.054-.054.027.113.065-.117.035.065.055-.064.02.151.06-.085.043.016.051-.04.022.145.05-.022.04.03.048-.017.066-.127.041.027.023.135.046-.002.043.015.056-.06.04.031.047-.01.054-.05.023.134.05-.025.061-.1.031.087.06-.088.044.006.021.154.044.012.042.021.067-.13.045.005.038.048.04.027.038.054.048-.016.064-.108.039.046.048.133-.083-.13.162-.027-.159-.057.09-.039-.07-.044.156-.049-.156-.035.069-.05.032-.05-.03-.042-.061-.033-.016-.041-.057-.03.005-.045.016-.05-.002-.046-.055-.026.038-.062.043-.065.007-.052-.164.024.024-.06.074-.083-.143.02v-.049l-.062-.018.012-.055.013-.056.041-.072-.138.023.06-.083-.115.01.113-.111-.023-.038-.034-.032-.109.008.072-.088-.034-.033-.022-.038-.116.01-.032-.034.02-.06-.017-.04-.003-.049-.037-.032-.024-.038.064-.078-.14.013.037-.065.02-.056-.1-.008.086-.081-.057-.026.014-.052-.103-.012.127-.09-.123-.006.018-.053-.045-.033.01-.05-.008-.044.073-.063-.007-.043-.124-.02.084-.061.02-.047-.13-.025.129-.065-.172-.02.097-.06-.056-.038-.021-.043-.013-.043-.048-.039.15-.068-.008-.045-.004-.045-.146-.024.057-.055-.041-.04.07-.056-.134-.026.068-.056-.055-.038.103-.061-.132-.027.142-.067-.118-.086.062.092.08-.04-.044.148.13-.115-.011.099.05.006.022.05.075-.03-.036.136.039.024.045.015.1-.068-.022.115.115-.09.002.08.038.024-.008.095.068-.02.043.02.013.062.047.013.11-.082-.002.082.023.042-.006.079.063-.01.012.055.078-.022-.022.088.046.015.02.04.049.014.023.04.017.042.12-.048.049.019.02.042.04.026.013.047-.091.127.122-.038.055.016-.093.123.02.039.167-.062-.027.073.065.01-.09.113.083-.001-.056.089.068.009.116-.021-.114.124.131-.03-.05.084.077.003.046.023.045.026.001.052.045.026-.003.055-.043.08.063.014.038.03.054.018.04.027-.053.09.048.021-.047.09.03.036.075.002.085-.01.056.012.032.03-.002.06-.05.11.015.051.15-.094-.06.137.081-.029-.023.114.097-.065.035.031.035.032.015.09.056-.011.067-.07.043.009.031.099.06-.149.036.164.046-.16.043.015.005.03.097.015-.09-.095.052-.023.072-.014-.014-.057.062-.02.052-.023.027-.037.01-.044-.066-.083.102.001.057-.02-.069-.084.05-.026.055-.022-.085-.091.085-.008.006-.047-.061-.08.122.011.036-.032-.007-.053.023-.038.001-.05-.013-.056h.102l-.015-.057.024-.038.036-.031-.024-.062.017-.042.087-.006-.064-.083.117.009-.126-.113.166.033-.128-.114.106.003.041-.029.042-.03-.044-.071h.1l-.097-.098.105.003-.006-.053.055-.023-.09-.095.054-.023.031-.035.111.005-.126-.113.143.022-.026-.063.05-.025-.019-.06.076-.012.028-.037-.026-.063-.057-.078.04-.032.128.014-.117-.109.097.022-.028.023.08.044-.049.045.04.044-.1.045.037.045.038.044-.025.044.06.044.028.045-.062.045.055.044.022.044-.03.045-.034.045.063.045v.045l-.08.045.063.045-.136.044.114.045-.1.045.06.044-.066.045.043.045-.039.045.04.045-.037.044.057.045-.085.045.163.045-.068.044-.033.045.022.045-.003.045-.04.045.1.045.024.044-.054.045-.09.045.05.045-.044.045.004.045.08.045-.065.045-.008.045-.011.044-.012.045.052.045.058.045-.107.046.044.045v.045l.006.045.06.046-.061.05.049-.085.04-.012.059.087.022-.097.05.022.023-.06.093.118.02-.07h.05l.057.006.009-.07.045-.014.007-.063.08.025.027-.038.076.01-.065-.125.103.033-.008-.067.085.012-.096-.134.116.033-.054-.095.07-.004.07-.007.04-.027-.038-.079.112.018-.128-.132.167.05.02-.04-.087-.105.113.014-.04-.074.097.004-.113-.115.174.046-.096-.106.078-.008.075-.01.02-.04-.105-.11.114.012.038-.03-.06-.084.022-.04-.016-.06.173.045-.076-.094.123.019-.117-.119.136.027.044-.025-.09-.105.134.028-.1-.113.058-.017-.015-.063.127.028-.082-.108.09.007.068-.008.03-.033-.036-.08.032-.033-.021-.073.04-.027.073.001.02-.042-.035-.088.031-.035.05-.016.102.033.044-.018-.06-.123.103.04-.05-.118.114.058.048-.012-.01-.081.08.029-.034-.118.116.08.009-.063-.004-.081.017-.054.087.045.01-.063.045-.013-.002-.079.04-.022.095.054.044-.016-.03-.119.1.06.038-.023.041-.02.04-.02.062.007.018-.051-.007-.088.075.026.009-.064.061.007.021-.084-.017.064.038.05.004.046-.108.03-.048.04.126.062.014.047-.11.03.04.051.038.05.001.046-.102.032-.053.038.028.05-.014.043.125.063-.044.039.043.051-.11.03.074.056-.074.036-.026.042.042.052.064.056-.063.036-.011.044.002.048-.015.043.023.053.005.05-.128.011.078.07-.073.025-.033.037-.072.023.11.086-.08.02.075.077-.037.035-.148-.012-.03.036.108.095-.084.012-.052.025.045.07-.041.03-.043.03-.007.046.066.085-.06.02-.076.011-.006.048.014.059.032.07-.172-.044.007.055.029.067-.02.04-.07.013-.016.043.06.085-.085.003.015.06.005.055-.103-.006.04.073-.017.043-.122-.015.041.074-.043.028-.019.042-.01.046-.024.039.007.054-.094.004.005.053.08.088-.02.04-.003.047-.066.02-.093.009.058.072.022.056h-.13l.045.063.03.055-.026.038-.102.018.02.052.033.053-.056.034.02.05-.056.038-.052.041.107.054.04.045-.023.043-.086.047.068.041-.086.055.092.034.04.037-.052.102.061-.05.043.08.045-.03.047-.139.042.098.042.073.048-.121.041.11.045-.012.044-.005.047-.1.043.048.046-.062.042.097.043.028.044.045.046-.118.043.075.044-.009.044-.01.045-.015.047-.096.044.013.043.028.043.058.046-.064.045-.032.042.123.047-.114.041.165.045-.025.047-.11.045.008.041.123-.002-.047.044.026-.123-.028-.002.053.014.063-.052.02.023.069v.054l-.042.027-.075.004.042.083-.11-.02.04.08-.105-.014-.03.034.072.102.007.06-.037.03-.089-.005.056.09-.072.007-.08.004-.01.047.027.067-.1-.003-.01.048.112.105-.076.013-.121-.003.036.064.043.064-.014.041-.073.027-.067.037.078.058.092.035-.117.075.1-.022.05-.005.024.038.017.068.025.067.069-.06.034.046.04.035.036.058.075-.145.042.02.032.095.053-.047.041.028.042.029.046-.01.05-.067.041.031.044.018.043.018.044-.016.043.045.042.077h.044l.048-.102.044.036.045-.1.043.16.046-.158.044.147.045-.043.044-.065.045.016.045.02.044-.015.045-.028.044-.017.046.109.044-.094.046.091.043-.074.045-.03.045.065.044.008.044-.052.045.02.044-.034.046.099.042-.139.046.088.044.014h.044l.045-.117.044.055.044.106.045-.127.045-.028.04.166.048-.168.043.09.047.028.037-.086.056.11.044-.009.046.007.043-.01.034-.116.046-.004.044-.039.047.018.048.063.045.023.047-.071.046.005.045.014.053-.042.037.07.049-.008.059-.034.03.064.007.106.065-.038.074-.038.038.034.03.04v.074l.101-.037-.013.076.057.017v.057l-.042.074.08.01-.005.052.076.024-.019.054-.049.054.034.04.036.045.008.047-.072.041-.032.04z"/><path d="m17.502 22.171.044.024.048.105.043-.04.05.063.037-.104.035-.075.064.137.05.024.014-.18.05.032.073.118.02-.11.056.036.04-.023.013-.111.044-.006.061.042.05.005.017-.076.088.092-.009-.13.075.056.02-.062.04-.02.075.044.058.009.043-.019-.027-.129.105.077-.007-.09.032-.034-.015-.093.046-.012.089.04.015-.052.006-.062.02-.041.088.027-.037-.1.126.06-.007-.069.07.002-.012-.07.034-.03.056-.014-.05-.094.063-.009.003-.051-.01-.059.023-.037.14.032-.025-.067.024-.038.09-.005-.109-.104.04-.03-.004-.05.088-.011.054-.027-.004-.051.049-.032-.08-.073.064-.028-.05-.06.12-.015-.032-.056-.007-.048.036-.04-.005-.046.051-.038.007-.047-.143-.06.056-.04-.028-.046-.026-.044.139-.041-.113-.046.052-.045-.072-.042.046-.046.05-.049-.026-.043.028-.048-.108-.031.05-.052.079-.06-.096-.028-.04-.036-.024-.04.018-.05-.025-.04-.043-.032.045-.061.054-.067-.052-.03-.025-.04-.055-.024-.052-.026.091-.092-.116.008-.063-.017-.021-.037.121-.122-.065-.014-.02-.041-.079-.001.033-.077-.012-.048-.113.03.012-.067-.035-.03-.04-.023.054-.108-.132.06.043-.104-.022-.042-.125.066-.028-.035-.022-.04-.02-.044-.02-.047.02-.1-.084.035-.032-.031-.038-.025-.064.016.007-.096-.032-.034-.065.02-.072.04.006-.11-.073.046.002-.109-.092.096.01-.137-.092.108-.001-.127-.087.114.01-.172-.075.088-.042-.016-.03-.062-.071.105-.016-.136-.04-.034-.054.038-.058.086-.045.009-.036-.078-.04-.058-.046.018-.043-.066-.05.146-.044-.14-.045.066-.047-.03-.046-.007-.036.127-.042.018-.05-.051-.056-.086-.025.139-.07-.146-.038.05-.025.101-.042.012-.036.035-.069-.082-.045.008-.036.036-.039.026-.053-.014-.048.003-.035.035-.058-.02.009.126-.065-.03-.06-.018-.025.049.014.113-.064-.021-.105-.083.009.097-.009.067-.113-.08.018.1.016.09-.11-.064.034.109-.083-.028v.065l-.106-.044.017.082-.026.036-.023.04.019.074-.04.023-.125-.045-.012.05-.056.014.09.12-.133-.038.016.066.007.057h-.086l-.066.015.094.103-.11-.006.08.09.01.053-.092.007-.03.036.023.057-.022.04-.04.033-.026.038-.047.034.038.057-.05.034.068.063-.008.043-.115.023.096.063-.016.042-.095.032.07.054-.026.043-.008.044.036.047-.105.042.148.047-.084.045.086.041.01.043-.1.052.067.038-.046.05-.046.053.143.023-.093.061.048.037.07.03-.028.051.044.034v.045l-.084.073.083.02-.05.065-.01.053.05.03.035.034.096.006.035.031-.109.104.128-.016-.117.114.127-.02-.041.078.134-.032-.024.068-.057.094.144-.048-.05.093.076-.003.022.039-.063.114.138-.063-.07.128.07-.004.106-.044-.035.1.055.007.064-.006.004.064-.023.1.113-.07.006.065.003.074.096-.06.022.047.075-.038-.02.118.024.051.062-.018.017.068.036.03.049.005.084-.08.054-.015.001.119.067-.053.01.11.049-.005.066-.062.04.02.023.09.068-.095.014.151.05-.016.048-.012.064-.12.025.148.05-.032.053-.099.034.152.05-.108.042.101z"/></g></svg>