<svg width="143" height="40" viewBox="0 0 143 40" fill="none" xmlns="http://www.w3.org/2000/svg">

<g id="Hero">

<g id="Container">
<g id="Vector">
<path d="M13.7588 8.13344C9.80452 5.79446 2.5311 8.00628 1.02631 12.1411L1.02471 12.1412L1.01118 12.1803C0.998311 12.2178 0.98544 12.2552 0.97337 12.2926L0.808003 12.7833L1.01049 13.2902L1.02014 13.2805C1.06457 13.9368 1.16972 14.6968 1.36933 15.4849C1.75257 16.9244 2.47337 18.5321 3.70839 19.7067C4.50838 20.4472 5.53011 21.019 6.83113 21.2862C5.52156 20.0713 2.57941 16.5866 6.70353 12.6668C8.91094 10.5692 11.0048 10.525 12.6749 11.1556C12.8135 11.208 12.9605 11.1815 13.0722 11.1023C13.1255 11.0282 13.1787 10.9542 13.2321 10.8817C13.2354 10.8725 13.2385 10.8626 13.241 10.8535C13.4485 9.98626 13.7024 9.2522 13.9412 8.66957C14.023 8.46953 13.9458 8.2414 13.7587 8.13264L13.7588 8.13344Z" fill="#FFFEF4"/>
<path d="M26.3081 3.89845C26.0894 3.57614 25.7022 3.40255 25.3065 3.41856C22.3724 3.5369 19.8468 4.70837 17.8998 6.49837C16.6977 7.60343 15.7163 8.94264 14.9968 10.4172C14.9964 10.3938 13.8773 12.5417 13.7274 15.5645C13.673 16.0414 13.7183 16.5048 13.727 16.9826C13.8925 20.9642 14.99 20.556 15.2185 20.5748C15.4216 20.5909 16.0826 20.6082 16.0842 18.8809C16.0851 18.8824 16.0868 18.883 16.0877 18.8846C16.0269 17.4395 15.728 11.4598 18.102 11.9901C18.8712 12.165 19.2787 14.751 20.6499 13.7062C21.2447 13.2531 20.8864 11.7291 20.8904 11.0088C20.8901 10.0532 21.001 9.27187 21.1901 8.62821C22.4683 4.28318 27.36 6.26664 26.3089 3.89838L26.3081 3.89845Z" fill="#FFFEF4"/>
<path d="M17.4076 13.9102C16.5956 14.3993 16.8026 16.4636 17.9475 16.7356C19.9511 17.2111 19.3491 12.7406 17.4076 13.9102Z" fill="#FFFEF4"/>
<path d="M26.9771 8.72015C27.8245 8.64611 29.5174 8.29884 29.3003 7.15393C28.9486 6.01111 26.7493 6.22426 25.9264 6.67147C24.1142 7.6668 25.8194 8.80032 26.9779 8.72089L26.9771 8.72015Z" fill="#FFFEF4"/>
<path d="M35.461 8.81845C34.349 6.75172 32.7217 5.12469 30.6445 4.16734C30.0053 3.94635 29.3363 3.79979 28.6435 3.74087C27.6973 3.95107 27.4696 5.21554 28.5697 5.36237C29.7859 5.78638 32.1716 6.81928 30.2967 8.26077C29.0336 9.46236 27.383 10.4775 25.9619 11.4322C25.6387 11.6678 25.256 11.9805 24.9248 12.338C24.4565 12.8438 24.0896 13.4392 24.1401 14.0353C24.3697 15.1856 25.618 14.978 26.4719 14.4982C26.6081 14.4218 26.7349 14.3389 26.8452 14.2526C28.5293 13.1683 30.0831 9.85332 32.2539 11.2803C34.4679 12.8609 31.9204 16.5444 30.7933 17.9908C30.4515 18.4388 29.9867 18.8926 29.6384 19.3121C29.3595 19.6488 29.4842 19.8938 29.7077 20.2996C30.6025 22.0051 31.1431 23.9337 31.0152 25.8602C30.8533 29.1892 34.1823 24.1234 36.0406 19.4057C37.3974 15.961 37.2148 12.0785 35.4601 8.81772L35.461 8.81845Z" fill="#FFFEF4"/>
<path d="M27.654 0C27.5682 0.0438139 27.4715 0.0821295 27.3634 0.110942C27.4714 0.0813285 27.5682 0.0438139 27.654 0Z" fill="#FFFEF4"/>
<path d="M15.8611 34.3793C15.7633 34.3224 15.6566 34.2833 15.5488 34.2508C13.8806 33.7444 11.5881 32.4192 9.9918 30.8331C8.34514 29.1964 7.44248 27.2809 8.73362 25.6983L8.738 25.6931C9.04865 25.3133 9.53403 25.1135 10.019 25.1857C11.069 25.3425 12.2417 26.2385 13.3195 25.3541C13.4272 25.2656 13.5222 25.1621 13.5831 25.0365C14.1754 23.8161 11.1842 22.9386 10.4481 22.559C10.4481 22.559 9.9332 22.2827 8.82106 21.8956C8.29495 21.7124 7.63505 21.5037 6.83163 21.2873C5.53863 21.0565 4.51512 20.4736 3.70889 19.7078C2.47387 18.5332 1.75307 16.9255 1.36982 15.486C1.10175 14.4779 0.999152 13.553 1.0008 12.9161L0.980189 12.3383C0.87136 12.6077 0.771272 12.8756 0.680065 13.1434C-0.120063 15.4959 -0.197304 18.0297 0.359688 20.4509C0.612296 21.5499 0.966919 22.6618 1.42362 23.7688C1.91396 24.956 2.52167 26.1378 3.24994 27.2953C5.15453 30.3227 7.61966 32.7635 10.2931 34.4759C12.0142 35.5782 13.8211 36.3792 15.6232 36.8384C15.8081 36.8852 16.0035 36.831 16.1343 36.6928L16.1357 36.6911C16.7298 36.0637 16.7894 34.9164 15.8602 34.3777L15.8611 34.3793Z" fill="#FFFEF4"/>
<path d="M17.3963 31.5571C15.4532 29.8342 12.1431 29.9168 9.96922 28.4998C9.86732 28.4328 9.7712 28.3581 9.678 28.2799C9.52202 28.1482 9.3111 27.9697 9.3111 27.9697C9.50761 28.6668 10.2493 29.368 10.2493 29.368C10.2493 29.368 10.2493 29.368 10.2492 29.3672C12.3327 31.5597 17.5218 34.5818 17.7971 32.5786C17.8499 32.1947 17.6868 31.8151 17.3964 31.5579L17.3963 31.5571Z" fill="#FFFEF4"/>
<path d="M9.5812 26.512C9.86898 27.0252 10.5887 27.4385 10.5887 27.4385C12.6523 28.7747 17.3286 30.1773 17.1654 28.541C17.1346 28.2346 16.9432 27.9656 16.6722 27.8198C15.1603 27.0043 13.1571 27.3109 11.3902 27.0787C10.7599 26.9957 10.1487 26.7997 9.58127 26.5128L9.5812 26.512Z" fill="#FFFEF4"/>
<path d="M13.2324 10.8826C13.1783 10.9559 13.1258 11.0291 13.0725 11.1032C13.1462 11.0508 13.2033 10.9747 13.2324 10.8826Z" fill="#FFFEF4"/>
<path d="M3.70889 19.7078C4.51439 20.4745 5.53863 21.0565 6.83163 21.2873C5.53133 21.0192 4.50967 20.4482 3.70889 19.7078Z" fill="#FFFEF4"/>
<path d="M1.36982 15.486C1.10175 14.4779 0.999152 13.553 1.0008 12.9161C1.0267 13.6467 1.13201 14.5471 1.36982 15.486Z" fill="#FFFEF4"/>
<path d="M23.1601 22.3352C22.6763 23.3387 23.1207 24.9787 24.3072 25.2011C27.7845 25.3606 25.1069 19.278 23.1601 22.3352Z" fill="#FFFEF4"/>
<path d="M29.7451 24.349C29.7405 24.3147 29.735 24.2796 29.7296 24.2454C29.7303 24.2534 29.731 24.2614 29.7316 24.2686C29.7301 24.251 29.7285 24.2334 29.7255 24.2167C29.6518 23.7429 29.5376 23.2581 29.3714 22.7698C29.1078 21.9325 28.6988 21.1126 28.104 20.3744C28.0497 20.3074 27.9818 20.2503 27.9043 20.2135C27.244 19.8983 26.4145 20.3356 26.5305 21.0438C26.5426 21.1178 26.573 21.1886 26.6117 21.253C28.4544 24.3108 25.6882 27.1539 22.8883 27.9482L22.5429 28.051C21.4019 28.4227 19.5635 28.9893 19.3199 30.1551C19.3138 30.1863 19.3093 30.2181 19.308 30.2497C19.3006 30.5708 19.5023 30.8381 19.7815 30.9759C19.9629 31.0658 20.1702 31.0832 20.37 31.0512C21.1685 30.9242 22.0399 30.6253 22.9118 30.1939C22.9118 30.1939 24.3654 29.4543 24.7693 29.9388C25.1714 30.4211 24.0467 31.4144 24.0331 31.4253C22.9478 32.3797 21.3323 33.3724 20.9991 33.5492C20.1986 34.0041 19.316 34.2854 18.4491 34.5896L18.4 34.6092C17.7665 34.8882 17.5055 35.4017 17.5176 35.9099C17.5346 36.6219 18.116 37.1878 18.8208 37.236C18.8346 37.2372 18.8492 37.2375 18.863 37.2387C19.2664 37.2648 19.6703 37.1948 20.0444 37.0427C21.9188 36.2784 23.3146 35.3211 24.9443 33.9922C27.2403 32.2992 29.1671 29.8718 29.7014 27.1196C29.7053 27.0991 29.7083 27.0778 29.7105 27.0567C29.7097 27.0664 29.7089 27.0754 29.7081 27.0851C29.8755 26.202 29.9005 25.287 29.7468 24.3504L29.7451 24.349Z" fill="#FFFEF4"/>
<path d="M32.6084 28.2839C32.8534 28.2848 33.0922 28.3489 33.3251 28.4762C33.5579 28.6021 33.739 28.7826 33.8683 29.0177C33.9976 29.2516 34.0618 29.4955 34.0608 29.7494C34.0599 30.0008 33.9945 30.2423 33.8647 30.4738C33.7362 30.7053 33.5556 30.8851 33.3231 31.0132C33.0919 31.1399 32.8499 31.2028 32.5973 31.2018C32.3446 31.2008 32.1025 31.1361 31.8709 31.0076C31.6407 30.8778 31.4615 30.6966 31.3335 30.4641C31.2055 30.2316 31.142 29.9896 31.1429 29.7382C31.1439 29.4843 31.2099 29.2409 31.341 29.0081C31.4734 28.7739 31.6565 28.5948 31.8903 28.4707C32.1241 28.3452 32.3635 28.283 32.6084 28.2839ZM32.6075 28.5256C32.4025 28.5248 32.2025 28.5769 32.0075 28.6819C31.8137 28.7856 31.6616 28.9352 31.5513 29.1307C31.441 29.3249 31.3854 29.5278 31.3846 29.7392C31.3838 29.9493 31.4365 30.1512 31.5428 30.345C31.6504 30.5375 31.8006 30.6883 31.9936 30.7973C32.1865 30.905 32.3881 30.9593 32.5982 30.9601C32.8083 30.9609 33.0103 30.9082 33.204 30.8019C33.3978 30.6944 33.5486 30.5448 33.6563 30.3531C33.764 30.1602 33.8183 29.9586 33.8191 29.7485C33.8199 29.5371 33.7659 29.3338 33.6571 29.1388C33.5495 28.9424 33.3987 28.7916 33.2044 28.6865C33.0101 28.58 32.8112 28.5264 32.6075 28.5256ZM31.9597 30.5477L31.9657 28.9776L32.5052 28.9796C32.6895 28.9804 32.8229 28.9957 32.9053 29.0257C32.9877 29.0543 33.0533 29.1049 33.102 29.1772C33.1507 29.2496 33.1749 29.3264 33.1746 29.4076C33.1741 29.5224 33.1325 29.6221 33.0497 29.7069C32.9681 29.7916 32.8597 29.8389 32.7243 29.8487C32.7796 29.8721 32.824 29.9 32.8574 29.9324C32.9203 29.9945 32.9972 30.0986 33.0882 30.2446L33.2785 30.5528L32.9691 30.5516L32.8308 30.3035C32.722 30.1085 32.6341 29.9863 32.5673 29.9371C32.521 29.9008 32.4534 29.8825 32.3645 29.8821L32.2156 29.8816L32.213 30.5487L31.9597 30.5477ZM32.2164 29.665L32.5238 29.6662C32.6708 29.6667 32.7708 29.6452 32.8238 29.6016C32.8781 29.558 32.9054 29.5001 32.9057 29.4279C32.9059 29.3815 32.8931 29.3402 32.8675 29.304C32.8419 29.2665 32.8059 29.2386 32.7595 29.2204C32.7145 29.2022 32.6301 29.1928 32.5063 29.1924L32.2182 29.1913L32.2164 29.665Z" fill="#FFFEF4"/>
<path d="M13.7588 8.13344C9.80452 5.79446 2.5311 8.00628 1.02631 12.1411L1.02471 12.1412L1.01118 12.1803C0.998311 12.2178 0.98544 12.2552 0.97337 12.2926L0.808003 12.7833L1.01049 13.2902L1.02014 13.2805C1.06457 13.9368 1.16972 14.6968 1.36933 15.4849C1.75257 16.9244 2.47337 18.5321 3.70839 19.7067C4.50838 20.4472 5.53011 21.019 6.83113 21.2862C5.52156 20.0713 2.57941 16.5866 6.70353 12.6668C8.91094 10.5692 11.0048 10.525 12.6749 11.1556C12.8135 11.208 12.9605 11.1815 13.0722 11.1023C13.1255 11.0282 13.1787 10.9542 13.2321 10.8817C13.2354 10.8725 13.2385 10.8626 13.241 10.8535C13.4485 9.98626 13.7024 9.2522 13.9412 8.66957C14.023 8.46953 13.9458 8.2414 13.7587 8.13264L13.7588 8.13344Z" fill="#EFEFEF"/>
<path d="M26.3081 3.89845C26.0894 3.57614 25.7022 3.40255 25.3065 3.41856C22.3724 3.5369 19.8468 4.70837 17.8998 6.49837C16.6977 7.60343 15.7163 8.94264 14.9968 10.4172C14.9964 10.3938 13.8773 12.5417 13.7274 15.5645C13.673 16.0414 13.7183 16.5048 13.727 16.9826C13.8925 20.9642 14.99 20.556 15.2185 20.5748C15.4216 20.5909 16.0826 20.6082 16.0842 18.8809C16.0851 18.8824 16.0868 18.883 16.0877 18.8846C16.0269 17.4395 15.728 11.4598 18.102 11.9901C18.8712 12.165 19.2787 14.751 20.6499 13.7062C21.2447 13.2531 20.8864 11.7291 20.8904 11.0088C20.8901 10.0532 21.001 9.27187 21.1901 8.62821C22.4683 4.28318 27.36 6.26664 26.3089 3.89838L26.3081 3.89845Z" fill="#FFFEF4"/>
<path d="M17.4076 13.9102C16.5956 14.3993 16.8026 16.4636 17.9475 16.7356C19.9511 17.2111 19.3491 12.7406 17.4076 13.9102Z" fill="#FFFEF4"/>
<path d="M26.9771 8.72015C27.8245 8.64611 29.5174 8.29884 29.3003 7.15393C28.9486 6.01111 26.7493 6.22426 25.9264 6.67147C24.1142 7.6668 25.8194 8.80032 26.9779 8.72089L26.9771 8.72015Z" fill="#FFFEF4"/>
<path d="M35.461 8.81845C34.349 6.75172 32.7217 5.12469 30.6445 4.16734C30.0053 3.94635 29.3363 3.79979 28.6435 3.74087C27.6973 3.95107 27.4696 5.21554 28.5697 5.36237C29.7859 5.78638 32.1716 6.81928 30.2967 8.26077C29.0336 9.46236 27.383 10.4775 25.9619 11.4322C25.6387 11.6678 25.256 11.9805 24.9248 12.338C24.4565 12.8438 24.0896 13.4392 24.1401 14.0353C24.3697 15.1856 25.618 14.978 26.4719 14.4982C26.6081 14.4218 26.7349 14.3389 26.8452 14.2526C28.5293 13.1683 30.0831 9.85332 32.2539 11.2803C34.4679 12.8609 31.9204 16.5444 30.7933 17.9908C30.4515 18.4388 29.9867 18.8926 29.6384 19.3121C29.3595 19.6488 29.4842 19.8938 29.7077 20.2996C30.6025 22.0051 31.1431 23.9337 31.0152 25.8602C30.8533 29.1892 34.1823 24.1234 36.0406 19.4057C37.3974 15.961 37.2148 12.0785 35.4601 8.81772L35.461 8.81845Z" fill="#FFFEF4"/>
<path d="M27.654 0C27.5682 0.0438139 27.4715 0.0821295 27.3634 0.110942C27.4714 0.0813285 27.5682 0.0438139 27.654 0Z" fill="#FFFEF4"/>
<path d="M15.8611 34.3793C15.7633 34.3224 15.6566 34.2833 15.5488 34.2508C13.8806 33.7444 11.5881 32.4192 9.9918 30.8331C8.34514 29.1964 7.44248 27.2809 8.73362 25.6983L8.738 25.6931C9.04865 25.3133 9.53403 25.1135 10.019 25.1857C11.069 25.3425 12.2417 26.2385 13.3195 25.3541C13.4272 25.2656 13.5222 25.1621 13.5831 25.0365C14.1754 23.8161 11.1842 22.9386 10.4481 22.559C10.4481 22.559 9.9332 22.2827 8.82106 21.8956C8.29495 21.7124 7.63505 21.5037 6.83163 21.2873C5.53863 21.0565 4.51512 20.4736 3.70889 19.7078C2.47387 18.5332 1.75307 16.9255 1.36982 15.486C1.10175 14.4779 0.999152 13.553 1.0008 12.9161L0.980189 12.3383C0.87136 12.6077 0.771272 12.8756 0.680065 13.1434C-0.120063 15.4959 -0.197304 18.0297 0.359688 20.4509C0.612296 21.5499 0.966919 22.6618 1.42362 23.7688C1.91396 24.956 2.52167 26.1378 3.24994 27.2953C5.15453 30.3227 7.61966 32.7635 10.2931 34.4759C12.0142 35.5782 13.8211 36.3792 15.6232 36.8384C15.8081 36.8852 16.0035 36.831 16.1343 36.6928L16.1357 36.6911C16.7298 36.0637 16.7894 34.9164 15.8602 34.3777L15.8611 34.3793Z" fill="#FFFEF4"/>
<path d="M17.3963 31.5571C15.4532 29.8342 12.1431 29.9168 9.96922 28.4998C9.86732 28.4328 9.7712 28.3581 9.678 28.2799C9.52202 28.1482 9.3111 27.9697 9.3111 27.9697C9.50761 28.6668 10.2493 29.368 10.2493 29.368C10.2493 29.368 10.2493 29.368 10.2492 29.3672C12.3327 31.5597 17.5218 34.5818 17.7971 32.5786C17.8499 32.1947 17.6868 31.8151 17.3964 31.5579L17.3963 31.5571Z" fill="#FFFEF4"/>
<path d="M9.58127 26.5128C9.86905 27.026 10.5887 27.4385 10.5887 27.4385C12.6523 28.7747 17.3286 30.1773 17.1654 28.541C17.1346 28.2346 16.9432 27.9656 16.6722 27.8198C15.1603 27.0043 13.1571 27.3109 11.3902 27.0787C10.7599 26.9957 10.1487 26.7997 9.58127 26.5128Z" fill="#FFFEF4"/>
<path d="M13.2324 10.8826C13.1783 10.9559 13.1258 11.0291 13.0725 11.1032C13.1462 11.0508 13.2033 10.9747 13.2324 10.8826Z" fill="#FFFEF4"/>
<path d="M3.70889 19.7078C4.51439 20.4745 5.53863 21.0565 6.83163 21.2873C5.53133 21.0192 4.50967 20.4482 3.70889 19.7078Z" fill="#FFFEF4"/>
<path d="M1.36982 15.486C1.10175 14.4779 0.999152 13.553 1.0008 12.9161C1.0267 13.6467 1.13201 14.5471 1.36982 15.486Z" fill="#FFFEF4"/>
<path d="M23.1601 22.3352C22.6763 23.3387 23.1207 24.9787 24.3072 25.2011C27.7845 25.3606 25.1069 19.278 23.1601 22.3352Z" fill="#FFFEF4"/>
<path d="M29.7451 24.349C29.7405 24.3147 29.735 24.2796 29.7296 24.2454C29.7303 24.2534 29.731 24.2614 29.7316 24.2686C29.7301 24.251 29.7285 24.2334 29.7255 24.2167C29.6518 23.7429 29.5376 23.2581 29.3714 22.7698C29.1078 21.9325 28.6988 21.1126 28.104 20.3744C28.0497 20.3074 27.9818 20.2503 27.9043 20.2135C27.244 19.8983 26.4145 20.3356 26.5305 21.0438C26.5426 21.1178 26.573 21.1886 26.6117 21.253C28.4544 24.3108 25.6882 27.1539 22.8883 27.9482L22.5429 28.051C21.4019 28.4227 19.5635 28.9893 19.3199 30.1551C19.3138 30.1863 19.3093 30.2181 19.308 30.2497C19.3006 30.5708 19.5023 30.8381 19.7815 30.9759C19.9629 31.0658 20.1702 31.0832 20.37 31.0512C21.1685 30.9242 22.0399 30.6253 22.9118 30.1939C22.9118 30.1939 24.3654 29.4543 24.7693 29.9388C25.1714 30.4211 24.0467 31.4144 24.0331 31.4253C22.9478 32.3797 21.3323 33.3724 20.9991 33.5492C20.1986 34.0041 19.316 34.2854 18.4491 34.5896L18.4 34.6092C17.7665 34.8882 17.5055 35.4017 17.5176 35.9099C17.5346 36.6219 18.116 37.1878 18.8208 37.236C18.8346 37.2372 18.8492 37.2375 18.863 37.2387C19.2664 37.2648 19.6703 37.1948 20.0444 37.0427C21.9188 36.2784 23.3146 35.3211 24.9443 33.9922C27.2403 32.2992 29.1671 29.8718 29.7014 27.1196C29.7053 27.0991 29.7083 27.0778 29.7105 27.0567C29.7097 27.0664 29.7089 27.0754 29.7081 27.0851C29.8755 26.202 29.9005 25.287 29.7468 24.3504L29.7451 24.349Z" fill="#FFFEF4"/>
<path d="M32.6084 28.2839C32.8534 28.2848 33.0922 28.3489 33.3251 28.4762C33.5579 28.6021 33.739 28.7826 33.8683 29.0177C33.9976 29.2516 34.0618 29.4955 34.0608 29.7494C34.0599 30.0008 33.9945 30.2423 33.8647 30.4738C33.7362 30.7053 33.5556 30.8851 33.3231 31.0132C33.0919 31.1399 32.8499 31.2028 32.5973 31.2018C32.3446 31.2008 32.1025 31.1361 31.8709 31.0076C31.6407 30.8778 31.4615 30.6966 31.3335 30.4641C31.2055 30.2316 31.142 29.9896 31.1429 29.7382C31.1439 29.4843 31.2099 29.2409 31.341 29.0081C31.4734 28.7739 31.6565 28.5948 31.8903 28.4707C32.1241 28.3452 32.3635 28.283 32.6084 28.2839ZM32.6075 28.5256C32.4025 28.5248 32.2025 28.5769 32.0075 28.6819C31.8137 28.7856 31.6616 28.9352 31.5513 29.1307C31.441 29.3249 31.3854 29.5278 31.3846 29.7392C31.3838 29.9493 31.4365 30.1512 31.5428 30.345C31.6504 30.5375 31.8006 30.6883 31.9936 30.7973C32.1865 30.905 32.3881 30.9593 32.5982 30.9601C32.8083 30.9609 33.0103 30.9082 33.204 30.8019C33.3978 30.6944 33.5486 30.5448 33.6563 30.3531C33.764 30.1602 33.8183 29.9586 33.8191 29.7485C33.8199 29.5371 33.7659 29.3338 33.6571 29.1388C33.5495 28.9424 33.3987 28.7916 33.2044 28.6865C33.0101 28.58 32.8112 28.5264 32.6075 28.5256ZM31.9597 30.5477L31.9657 28.9776L32.5052 28.9796C32.6895 28.9804 32.8229 28.9957 32.9053 29.0257C32.9877 29.0543 33.0533 29.1049 33.102 29.1772C33.1507 29.2496 33.1749 29.3264 33.1746 29.4076C33.1741 29.5224 33.1325 29.6221 33.0497 29.7069C32.9681 29.7916 32.8597 29.8389 32.7243 29.8487C32.7796 29.8721 32.824 29.9 32.8574 29.9324C32.9203 29.9945 32.9972 30.0986 33.0882 30.2446L33.2785 30.5528L32.9691 30.5516L32.8308 30.3035C32.722 30.1085 32.6341 29.9863 32.5673 29.9371C32.521 29.9008 32.4534 29.8825 32.3645 29.8821L32.2156 29.8816L32.213 30.5487L31.9597 30.5477ZM32.2164 29.665L32.5238 29.6662C32.6708 29.6667 32.7708 29.6452 32.8238 29.6016C32.8781 29.558 32.9054 29.5001 32.9057 29.4279C32.9059 29.3815 32.8931 29.3402 32.8675 29.304C32.8419 29.2665 32.8059 29.2386 32.7595 29.2204C32.7145 29.2022 32.6301 29.1928 32.5063 29.1924L32.2182 29.1913L32.2164 29.665Z" fill="#FFFEF4"/>
<path fill-rule="evenodd" clip-rule="evenodd" d="M101.744 12.0107C101.801 12.0132 101.871 12.0353 101.916 12.0503C101.973 12.0691 102.042 12.0945 102.116 12.1239C102.266 12.183 102.45 12.2615 102.629 12.3414C102.809 12.4214 102.986 12.5044 103.125 12.5728C103.194 12.6068 103.255 12.6381 103.303 12.6645C103.326 12.6776 103.349 12.6909 103.369 12.7035C103.381 12.7115 103.416 12.7335 103.444 12.7646L103.489 12.8181C103.944 13.3757 103.949 14.2035 103.662 14.8026C103.512 15.1177 103.27 15.3928 102.943 15.5364C102.61 15.6825 102.216 15.68 101.794 15.4898C101.639 15.42 101.511 15.328 101.427 15.2063C101.339 15.0792 101.314 14.9375 101.334 14.7992C101.371 14.5458 101.56 14.3133 101.751 14.1307C102.036 13.8575 102.424 13.6059 102.72 13.4414C102.581 13.3449 102.403 13.2914 102.191 13.2788C101.858 13.2592 101.462 13.3409 101.063 13.4928C100.665 13.644 100.279 13.8586 99.9711 14.0883C99.6567 14.3231 99.451 14.554 99.3763 14.7269C99.337 14.8189 99.2849 15.0154 99.2339 15.2807C99.1841 15.5401 99.1389 15.8479 99.1095 16.1507C99.08 16.4547 99.0671 16.7471 99.0796 16.9775C99.0859 17.0931 99.0982 17.186 99.1151 17.2541C99.1218 17.2813 99.1286 17.3007 99.1338 17.3139L99.2443 17.3576C99.6149 17.4156 100.037 17.3749 100.495 17.3013C100.948 17.2286 101.453 17.1204 101.916 17.0762C102.385 17.0316 102.862 17.0455 103.282 17.2381C103.713 17.4356 104.054 17.8061 104.274 18.409L104.386 18.7147L104.061 18.7216C103.892 18.7254 103.735 18.6699 103.602 18.6014C103.47 18.5328 103.344 18.4425 103.234 18.3596C103.117 18.272 103.023 18.1968 102.932 18.1359C102.838 18.0732 102.783 18.0525 102.756 18.049L102.743 18.0469H102.742C102.491 18.0181 102.09 18.0816 101.628 18.1748C101.183 18.2646 100.69 18.3793 100.328 18.4131L100.327 18.4138C100.222 18.4232 100.09 18.413 99.9649 18.4006C99.8405 18.3882 99.6901 18.3696 99.566 18.3561C99.4338 18.3418 99.3188 18.3322 99.2311 18.3332C99.2167 18.3334 99.2034 18.3339 99.1922 18.3346C99.1053 18.6185 99.1387 18.9128 99.2172 19.2553C99.3007 19.619 99.4459 20.0651 99.4667 20.5213C99.5327 21.9664 99.3963 23.6012 98.9108 25.0831C98.4251 26.5653 97.5835 27.9111 96.2293 28.7457C95.6592 29.0975 94.6125 29.6001 93.6139 29.7859C93.1152 29.8786 92.6055 29.8969 92.1672 29.7588C91.7165 29.6168 91.3508 29.3114 91.1624 28.7916C91.1378 28.724 91.1237 28.6389 91.1138 28.556C91.1033 28.4687 91.0961 28.3661 91.0915 28.2565C91.0825 28.0371 91.0836 27.7762 91.0922 27.5179C91.1009 27.2593 91.1171 26.9996 91.1395 26.7827C91.1606 26.5772 91.1899 26.3798 91.2333 26.2664C91.288 26.1245 91.3775 26.0176 91.4529 25.9364C91.5374 25.8453 91.5914 25.7963 91.6405 25.7293C91.6814 25.6734 91.7038 25.6225 91.7079 25.5598C91.7121 25.4928 91.6972 25.3888 91.6217 25.2269L91.5654 25.106L91.6405 24.9962C91.704 24.9039 91.7989 24.8659 91.8684 24.8496C91.9401 24.8328 92.0161 24.8317 92.0859 24.8364C92.2267 24.846 92.3884 24.8842 92.5403 24.9344C92.6935 24.985 92.8492 25.052 92.9795 25.1262C93.0445 25.1632 93.107 25.2042 93.1608 25.2485C93.2124 25.2909 93.2689 25.3461 93.3067 25.4145L93.4276 25.6341L93.2122 25.7328L93.4659 26.0642L93.0135 26.0788C92.8231 26.085 92.6875 26.1248 92.5882 26.181C92.4901 26.2365 92.4144 26.3152 92.3534 26.4186C92.2244 26.6372 92.1682 26.9502 92.1227 27.3442C92.0305 28.1423 92.2218 28.5196 92.4743 28.6915C92.7468 28.8768 93.1879 28.8963 93.7459 28.754C94.292 28.6148 94.8948 28.3347 95.4365 28.0064C95.979 27.6776 96.4435 27.3101 96.7199 27.0072L96.797 26.9203C97.5828 26.0096 98.0443 24.7038 98.2812 23.3029C98.5251 21.8611 98.527 20.3455 98.4174 19.1191C98.4008 18.9324 98.3883 18.7398 98.3341 18.5792C98.2827 18.4275 98.2128 18.3557 98.1061 18.3346H98.1047C98.0015 18.3139 97.7815 18.3083 97.4842 18.3263C97.1947 18.3438 96.8539 18.3818 96.5226 18.4374C96.1899 18.4933 95.8741 18.5656 95.6317 18.6494C95.5103 18.6914 95.4144 18.7345 95.3462 18.7751C95.331 18.7842 95.3179 18.7927 95.3072 18.8002C95.6499 20.0084 96.0457 20.8598 95.5845 22.2286C95.3372 22.9604 94.9795 23.6483 94.1941 24.0422L94.1281 24.0755L94.0544 24.0644C93.2748 23.9452 92.7573 23.5969 92.4785 23.0923C92.2055 22.5981 92.1847 21.9948 92.3041 21.4024C92.5414 20.224 93.3598 18.9611 94.2073 18.3631C95.5638 17.406 96.7241 17.3301 98.2124 17.2034C98.212 16.8645 98.1508 16.5362 98.1054 16.1673C98.0529 15.74 98.0282 15.2781 98.2104 14.7915L98.2437 14.7213C98.2568 14.6976 98.271 14.6741 98.284 14.6532C98.3141 14.6052 98.3528 14.5475 98.3959 14.4851C98.4824 14.3599 98.5927 14.2079 98.7051 14.057C98.924 13.7634 99.1704 13.4484 99.2631 13.3559C99.5277 13.0918 99.9332 12.7534 100.371 12.4832C100.799 12.2189 101.3 11.9926 101.744 12.0107ZM91.8281 25.8669C91.7087 26.0298 91.5275 26.1503 91.4508 26.3491C91.5372 26.1252 91.7559 26.0013 91.8698 25.8037L91.8281 25.8669ZM96.8922 27.1642L96.8867 27.1704C96.8884 27.1685 96.8905 27.1661 96.8922 27.1642ZM91.9392 25.575C91.9354 25.6341 91.9233 25.6868 91.9038 25.7349L91.9274 25.6598C91.9337 25.6331 91.9373 25.6049 91.9392 25.575ZM92.2589 25.097C92.0572 25.0524 91.885 25.0517 91.8322 25.1283C91.894 25.0392 92.1179 25.0556 92.3617 25.1234L92.2589 25.097ZM98.4063 23.8872C98.3868 23.9774 98.366 24.067 98.3445 24.1561C98.2797 24.4238 98.2055 24.6866 98.1207 24.942L98.202 24.6849C98.3059 24.3383 98.3921 23.9802 98.4619 23.6162C98.4445 23.7072 98.4258 23.7971 98.4063 23.8872ZM94.0224 23.8233L94.0363 23.8254C94.028 23.824 94.0196 23.8227 94.0113 23.8212C94.015 23.8219 94.0187 23.8227 94.0224 23.8233ZM94.2163 19.5777C94.1654 19.6065 94.1386 19.639 94.1183 19.6778C94.0933 19.7257 94.079 19.779 94.0537 19.8682C94.0312 19.9475 93.9985 20.0578 93.9307 20.1607C93.654 20.5802 93.3428 20.9794 93.1698 21.4114C93.0058 21.8213 92.9834 22.224 93.2734 22.6504C93.4059 22.8448 93.5265 22.9454 93.6243 22.9916C93.7159 23.0347 93.7996 23.0364 93.8835 23.0082C94.0722 22.9447 94.2891 22.7187 94.4727 22.3537C94.6505 22.0004 94.7722 21.5657 94.8028 21.1676C94.8203 20.9385 94.8064 20.7381 94.7666 20.5769L94.5019 20.9424L94.0829 20.7757L94.2427 19.5638C94.233 19.5683 94.2243 19.5732 94.2163 19.5777ZM95.294 22.3481C95.3017 22.3277 95.3102 22.3076 95.3177 22.287L95.3594 22.1668C95.3385 22.2281 95.3164 22.2884 95.294 22.3481ZM93.5444 20.3163C93.5751 20.2717 93.6055 20.2275 93.6354 20.1836L93.6973 20.0919C93.6479 20.1655 93.5966 20.2404 93.5444 20.3163ZM93.2081 19.814C93.5356 19.2905 93.9381 18.8385 94.3421 18.5535C95.7007 17.5951 96.839 17.5585 98.4383 17.4181C97.6386 17.4883 96.9538 17.5323 96.2995 17.6787C96.2178 17.6969 96.1365 17.7167 96.0556 17.7384C95.4884 17.8906 94.9359 18.1334 94.3414 18.5528C93.9374 18.8378 93.5356 19.2905 93.2081 19.814ZM98.9337 19.0149C98.9482 19.1118 98.9675 19.2093 98.99 19.3074L98.9587 19.1601C98.9492 19.1113 98.941 19.0634 98.9337 19.0149ZM103.446 17.6043C103.67 17.7712 103.859 18.0172 104.006 18.368C103.968 18.2772 103.929 18.1928 103.885 18.1157C103.854 18.0606 103.821 18.0087 103.787 17.9601C103.685 17.814 103.571 17.6972 103.446 17.6043ZM98.9066 17.3722C98.9261 17.4298 98.9506 17.4745 98.9803 17.5035L99.1825 17.5842C99.2865 17.6017 99.3936 17.6119 99.5028 17.6161L99.3409 17.605C99.2875 17.5997 99.2345 17.5929 99.1825 17.5842L98.9803 17.5035C98.9704 17.4939 98.9612 17.4819 98.9525 17.4688C98.935 17.4426 98.9196 17.4107 98.9066 17.3722ZM102.273 17.2888C101.725 17.2981 101.121 17.4368 100.532 17.5313L101.241 17.4084C101.595 17.3471 101.944 17.2944 102.273 17.2888ZM98.8462 16.5836C98.8378 16.8021 98.8414 17.003 98.8621 17.1638L98.8469 16.99C98.8402 16.8666 98.8406 16.7294 98.8462 16.5836ZM101.734 12.2435C101.892 12.2502 103.198 12.84 103.27 12.9209C103.291 12.9443 103.311 12.9685 103.33 12.9932C103.323 12.984 103.317 12.9744 103.309 12.9654L103.27 12.9209C103.197 12.8397 101.892 12.2502 101.734 12.2435ZM102.892 14.8339C102.653 14.9742 102.318 15.0034 101.995 15.0444C102.354 14.9988 102.727 14.968 102.968 14.7832L102.892 14.8339ZM102.939 14.4621C102.732 14.4822 102.552 14.5851 102.415 14.7505C102.527 14.7298 102.626 14.7035 102.713 14.6644C102.801 14.6248 102.863 14.5767 102.906 14.5163C102.918 14.5004 102.929 14.4824 102.939 14.4621ZM103.105 13.506C103.009 13.5485 102.87 13.6208 102.714 13.7131C102.662 13.7438 102.608 13.7769 102.553 13.8118C102.167 14.0562 101.737 14.3935 101.603 14.7026L101.636 14.6366C101.899 14.168 102.771 13.6553 103.106 13.5067C103.093 13.488 103.078 13.4713 103.065 13.4539C103.078 13.4711 103.093 13.4876 103.105 13.506Z" fill="#FFFEF4"/>
<path fill-rule="evenodd" clip-rule="evenodd" d="M60.2995 12.1608C60.4584 12.8488 60.3242 13.5908 60.1403 14.2919C59.9504 15.0163 59.7153 15.6777 59.6123 16.3007C59.5851 16.4633 59.5978 16.6375 59.615 16.8525C59.6315 17.0576 59.6517 17.2979 59.6143 17.5466C59.5884 17.7199 59.5374 17.8845 59.4865 18.0358C59.4337 18.1925 59.3827 18.3301 59.3426 18.477C59.285 18.6887 59.2556 18.9009 59.301 19.1372C59.3029 19.1353 59.3054 19.1334 59.3072 19.1316C59.3443 19.0943 59.3716 19.0445 59.3968 18.9697C59.4251 18.8859 59.4404 18.8075 59.4719 18.6862C59.5007 18.5752 59.5397 18.4459 59.6116 18.3179C59.8022 17.9777 60.0094 17.664 60.2001 17.3583C60.393 17.0492 60.5751 16.7401 60.731 16.3904L60.7838 16.25C60.7998 16.1998 60.8147 16.1458 60.8297 16.0881C60.8577 15.9797 60.8881 15.8458 60.9235 15.7261C60.9948 15.4846 61.1109 15.2012 61.3925 15.0368L61.5579 14.9402L61.6843 15.0834C61.7451 15.1523 61.7525 15.2345 61.7545 15.2633C61.7573 15.3037 61.7541 15.345 61.7496 15.3814C61.7405 15.4559 61.7206 15.5459 61.6961 15.6406C61.6467 15.8322 61.57 16.0741 61.487 16.316C61.3214 16.7987 61.1229 17.3085 61.052 17.4646C60.7283 18.173 60.1964 18.9523 59.7373 19.7063C59.268 20.4771 58.8685 21.2302 58.7492 21.9382C58.6836 22.328 58.7051 22.7923 58.7346 23.3015C58.7635 23.7986 58.7999 24.3369 58.7451 24.8309C58.7317 24.9522 58.6795 25.1962 58.6179 25.4757C58.5544 25.7641 58.4771 26.106 58.4067 26.4401C58.3361 26.775 58.2736 27.095 58.2406 27.3386C58.2298 27.418 58.2228 27.486 58.2191 27.5415C58.4035 27.5246 58.5798 27.4642 58.7583 27.3761C59.0044 27.2546 59.2269 27.0968 59.4907 26.9328C60.9349 26.0358 62.0226 24.7851 62.9288 23.3508L63.008 23.2097C63.0945 23.0429 63.2017 22.8046 63.3152 22.5566C63.3881 22.3971 63.4622 22.2372 63.5306 22.1035C63.5946 21.9783 63.6665 21.8486 63.7376 21.7707C63.7877 21.716 63.8698 21.6576 63.9496 21.6046C64.0364 21.5469 64.1458 21.4796 64.2685 21.4073C64.5143 21.2624 64.8245 21.0903 65.1406 20.9167C65.7817 20.5647 66.4346 20.2145 66.6783 20.0537C66.7104 20.0323 66.7192 20.0166 66.7339 19.9807C66.7489 19.9439 66.7843 19.8285 66.868 19.7285L66.9194 19.6667L66.9993 19.65C67.3183 19.5842 67.6022 19.7705 67.7928 19.9474C67.969 20.1109 68.1168 20.3133 68.216 20.4776L68.2556 20.5456L68.2924 20.6179C68.4641 20.9846 68.4564 21.4581 68.3793 21.9416C68.2954 22.4674 68.1197 23.0592 67.9297 23.6454C67.7373 24.2393 67.532 24.8224 67.3752 25.3583C67.2335 25.8426 67.142 26.2579 67.1341 26.575C67.2444 26.5487 67.4023 26.4821 67.583 26.3887C67.9711 26.1881 68.3684 25.9158 68.4238 25.869C69.0272 25.3562 69.7427 24.2556 70.1693 23.0805C70.3813 22.4962 70.5166 21.9062 70.5348 21.3753C70.553 20.8432 70.4534 20.3898 70.2165 20.0544L70.0157 19.7702L71.0663 19.5298L71.1574 19.6222C71.2357 19.7014 71.3242 19.8001 71.4082 19.8918C71.4953 19.9868 71.584 20.0804 71.6757 20.1635C71.8678 20.3375 72.0315 20.4264 72.1726 20.4247C72.6794 20.4179 73.3415 20.1951 74.0654 19.9342C74.7664 19.6815 75.5219 19.3945 76.1562 19.3144C76.4835 19.2728 77.3364 19.2747 78.1616 19.3005C78.5786 19.3135 78.996 19.3329 79.347 19.3574C79.649 19.3786 79.9142 19.4039 80.087 19.4346L80.1551 19.4478C80.3618 19.4936 80.5737 19.6066 80.7409 19.691C80.928 19.7854 81.0641 19.8472 81.1724 19.8584C81.2544 19.8669 81.3478 19.8522 81.4712 19.8272C81.5789 19.8053 81.7309 19.7696 81.8714 19.7757C82.0326 19.7829 82.1985 19.8444 82.3196 20.0148C82.4276 20.1667 82.4831 20.3829 82.5058 20.6596L82.5093 20.7583C82.5079 20.9878 82.4412 21.2111 82.3766 21.4017C82.2968 21.6372 82.2232 21.8187 82.1966 21.991C82.1706 22.163 82.1171 22.4479 82.0701 22.7081C82.0211 22.9799 81.982 23.2121 81.977 23.3042C81.9675 23.4769 81.9787 23.8947 82.0229 24.2944C82.0449 24.4934 82.0749 24.6797 82.1111 24.8246C82.1293 24.8973 82.1478 24.9537 82.1653 24.9935C82.1759 25.0174 82.1834 25.0295 82.1862 25.0338C82.2139 25.0541 82.2715 25.0799 82.3814 25.1123C82.4748 25.1398 82.6372 25.1798 82.7643 25.2207C83.0338 25.3073 83.3831 25.4633 83.5127 25.8537L83.619 26.1747L82.3988 26.1212C82.4677 26.3563 82.5568 26.6139 82.6649 26.8598C82.8087 27.1868 82.9786 27.4751 83.1646 27.668L83.2278 27.7256C83.2991 27.7906 83.4332 27.8623 83.6238 27.9404C83.8106 28.0168 84.0182 28.0866 84.2277 28.1627C84.4283 28.2356 84.6354 28.3162 84.7905 28.408C84.8679 28.4538 84.948 28.511 85.008 28.5845C85.0712 28.6619 85.1208 28.7697 85.1039 28.8986C85.0834 29.0511 85.0181 29.1849 84.9003 29.278C84.7875 29.3671 84.6518 29.3997 84.5251 29.4058C84.2782 29.4177 83.9865 29.3331 83.7204 29.2265C83.1833 29.0115 82.6134 28.6506 82.4259 28.483C82.0384 28.1362 81.8544 27.693 81.7074 27.2955C81.5542 26.881 81.4443 26.5345 81.2231 26.2657C81.0755 26.0872 80.7841 25.9655 80.3434 25.8912C79.9114 25.8184 79.3944 25.7991 78.8502 25.7779C78.3145 25.7571 77.7536 25.734 77.2631 25.6473C76.7783 25.5616 76.3158 25.4068 76.0137 25.0873C75.8527 24.9172 75.7348 24.6855 75.6489 24.4396C75.5621 24.1911 75.5024 23.912 75.4648 23.6329C75.39 23.0784 75.3994 22.4932 75.4808 22.1035L75.5211 21.9659C75.5723 21.8281 75.6536 21.6898 75.7427 21.5595C75.8645 21.3814 76.0168 21.1962 76.1708 21.0182C76.4125 20.7386 76.6498 20.4845 76.8212 20.2719C76.7261 20.2711 76.6024 20.2833 76.4612 20.3073C76.0997 20.3688 75.7051 20.4889 75.5524 20.5318C74.9998 20.6877 74.452 20.9525 73.827 21.1863C73.2235 21.4121 72.5745 21.5954 71.9141 21.5212C71.7346 21.5011 71.598 21.4163 71.5103 21.3593C71.5246 21.5643 71.5231 21.7803 71.4728 22.0042C71.3547 22.5366 71.0116 23.4426 70.6161 24.3C70.4171 24.7313 70.2021 25.156 69.9914 25.5208C69.7828 25.882 69.5712 26.1983 69.3764 26.4026C68.6919 27.1212 67.584 27.7633 66.4997 27.6131L66.4608 27.6075L66.4247 27.5888C66.2438 27.4949 66.1471 27.3249 66.0988 27.1489C66.0509 26.9743 66.043 26.7688 66.0564 26.5548C66.0833 26.1254 66.2017 25.5995 66.3468 25.0789C66.4928 24.5554 66.6701 24.0226 66.82 23.5773C66.973 23.1231 67.0912 22.7759 67.1306 22.6017C67.1786 22.3916 67.2831 21.8867 67.2925 21.449C67.2973 21.2257 67.2764 21.0497 67.2314 20.9424C67.2103 20.8923 67.1898 20.872 67.1793 20.8646C67.1772 20.8631 67.174 20.8608 67.1696 20.859C66.6461 21.2449 66.1098 21.6633 65.5561 22.0306C65.3679 22.1554 65.1514 22.2269 64.9807 22.2891C64.7983 22.3555 64.6539 22.4154 64.5381 22.5128C64.3295 22.6889 64.1465 23.0174 63.9621 23.4057C63.79 23.7681 63.613 24.1936 63.4236 24.4633C63.0722 24.9627 62.2497 25.8557 61.3925 26.6667C60.962 27.074 60.5176 27.4656 60.1132 27.7805C59.7151 28.0907 59.3359 28.3425 59.0397 28.4518L59.039 28.4525C58.8538 28.5201 58.4927 28.6037 58.1551 28.6227C57.9868 28.6322 57.8067 28.6264 57.6514 28.5852C57.5004 28.5451 57.3203 28.456 57.2463 28.2586L57.2456 28.2572C57.2323 28.2213 57.229 28.1873 57.2275 28.1697C57.2257 28.1481 57.2252 28.1255 57.2254 28.1043C57.2258 28.0616 57.229 28.0099 57.2337 27.9536C57.2433 27.84 57.2605 27.6909 57.2831 27.52C57.3284 27.1774 57.3957 26.733 57.4658 26.2769C57.6078 25.3529 57.758 24.4005 57.773 24.0832C57.7836 23.8476 57.8153 23.5631 57.8077 23.2785C57.804 23.1402 57.7909 23.0173 57.7646 22.9179C57.761 22.9043 57.7574 22.8911 57.7535 22.879C57.7204 22.9109 57.6826 22.9498 57.6409 22.995C57.4858 23.1634 57.2964 23.3981 57.1017 23.6496C56.9078 23.9002 56.7127 24.162 56.5465 24.3841C56.3841 24.6012 56.2414 24.7896 56.1609 24.8809C55.6141 25.5036 54.812 26.3552 53.963 27.1399C53.1188 27.9202 52.21 28.6518 51.4532 29.0181C50.5469 29.4573 49.2344 29.7886 48.0588 29.7004C47.4693 29.6562 46.8995 29.5051 46.4321 29.1953C45.9597 28.8821 45.6036 28.4136 45.4392 27.7625L45.4079 27.6381L49.197 23.6621C48.8925 23.6608 48.6037 23.6482 48.3388 23.6162C47.9192 23.5656 47.5358 23.4645 47.2396 23.2632C46.9326 23.0547 46.7347 22.7492 46.676 22.3342C46.6191 21.9313 46.6945 21.4348 46.9012 20.8285C47.0085 20.5135 47.2661 20.1192 47.5828 19.707C47.9045 19.2883 48.3047 18.829 48.7189 18.3812C49.5478 17.4851 50.4434 16.6224 50.9015 16.1958C50.9555 16.145 51.0116 16.0863 51.0648 16.0249C49.9295 16.1317 48.7932 15.9982 47.7114 15.9665C47.4437 15.959 47.1731 15.9966 46.8734 16.0325C46.5815 16.0675 46.2652 16.1001 45.9437 16.0666C45.5236 16.0223 44.8887 15.8162 44.3649 15.4982C44.1017 15.3383 43.8536 15.1423 43.6742 14.9131C43.4938 14.6825 43.3745 14.4058 43.397 14.0953L43.4185 13.7965L43.7027 13.891C43.8777 13.9493 44.0084 14.0585 44.1092 14.146C44.2185 14.2407 44.2943 14.3105 44.3893 14.3614C45.2037 14.7988 46.5472 15.002 47.974 15.075C49.3893 15.1474 50.8447 15.0906 51.8548 15.0333C52.1631 15.0155 52.4728 14.8582 52.8075 14.6143C52.973 14.4937 53.1383 14.3568 53.3078 14.2134C53.4752 14.0717 53.6488 13.9221 53.8227 13.784C54.1672 13.5103 54.5475 13.2537 54.9643 13.1648C55.4004 13.0719 55.8481 13.1676 56.3033 13.5359L56.8655 13.991L56.1435 13.9493C55.3648 13.9044 54.6319 14.2371 54.0332 14.7602C54.6163 14.8351 55.1916 14.7046 55.7905 14.5045C56.1677 14.3785 56.5205 14.2379 56.9113 14.1001C57.1708 14.0087 57.4364 13.9229 57.7069 13.8569L57.3435 13.3955L59.326 13.2156L60.1515 11.5194L60.2995 12.1608ZM47.2868 28.736C47.8825 28.941 48.492 28.9915 49.1046 28.9173L49.3089 28.8874C48.6957 28.9888 48.0848 28.9694 47.4862 28.7985L47.2868 28.736ZM58.4213 20.7096C58.2975 20.9033 58.162 21.11 58.0162 21.3267C57.7245 21.7599 57.3904 22.2337 57.0211 22.7261C55.3128 25.0041 52.8498 27.6826 50.331 28.6116C50.2629 28.6367 50.1949 28.6606 50.1267 28.6832C49.9905 28.7281 49.8544 28.7686 49.7181 28.8027C53.2642 27.9155 56.8116 23.2277 58.4213 20.7096ZM83.5363 28.1558C84.0828 28.3794 84.8258 28.5603 84.8718 28.8235C84.8664 28.7919 84.852 28.7612 84.828 28.7318C84.8104 28.7103 84.7882 28.6891 84.762 28.6686C84.5266 28.483 83.9694 28.3329 83.5363 28.1558ZM46.4919 28.203C46.6687 28.4528 46.9893 28.6349 47.2903 28.7381L47.2868 28.736C47.1875 28.7018 47.0862 28.659 46.9887 28.6081C46.9558 28.5909 46.9233 28.573 46.8914 28.5539C46.7327 28.459 46.5901 28.3416 46.4919 28.203ZM59.146 14.3927C58.66 14.5478 58.1448 14.7578 57.6166 14.968C56.9972 15.2145 56.3598 15.4608 55.7634 15.5941L55.6446 15.6191C55.1498 15.7176 54.589 15.7241 54.0721 15.7442C53.5414 15.7647 53.052 15.7998 52.6463 15.938C52.481 15.9941 52.2017 16.1831 51.8451 16.4828C51.4981 16.7744 51.1046 17.1475 50.7173 17.5376C49.9407 18.3198 49.2051 19.155 48.9329 19.5207C48.6889 19.8487 48.4091 20.2432 48.1728 20.6436C47.9342 21.0478 47.7503 21.4414 47.6836 21.77C47.617 22.0981 47.6763 22.2994 47.8323 22.4197C48.0137 22.5593 48.398 22.6545 49.1414 22.5628C49.4524 22.5246 50.2011 22.348 50.4957 22.2446C50.5901 22.211 50.7424 22.1339 50.9355 22.025C51.1251 21.9181 51.3392 21.7897 51.5533 21.6623C51.7653 21.5361 51.978 21.4104 52.1592 21.3128C52.2499 21.2639 52.336 21.22 52.4121 21.1863C52.484 21.1545 52.5633 21.1246 52.6352 21.1127C52.9919 21.0541 53.2799 21.3196 53.28 21.6637V21.6811L53.2772 21.6984C53.2656 21.7761 53.2248 21.8352 53.1973 21.8694C53.1666 21.9075 53.1295 21.943 53.0924 21.9743C53.0177 22.0372 52.9198 22.1038 52.8124 22.1709C52.5958 22.3061 52.3108 22.4606 52.0223 22.6129C51.7301 22.7671 51.4352 22.9186 51.1857 23.0541C50.9287 23.1936 50.7502 23.3004 50.6777 23.3626C50.125 23.838 49.0376 25.0163 48.4306 25.6431C48.3077 25.7704 47.862 26.2385 47.4397 26.6924C47.2284 26.9195 47.0241 27.1423 46.8692 27.3164C46.7916 27.4035 46.7279 27.4773 46.6823 27.5325C46.6594 27.5602 46.6426 27.5814 46.6316 27.5964C46.6297 27.5989 46.628 27.6009 46.6267 27.6027C46.545 27.8097 46.5961 27.9771 46.7302 28.1294C46.877 28.2959 47.1175 28.432 47.3626 28.5164C49.3479 29.1996 51.5433 28.055 53.544 26.2588C55.5098 24.4938 57.2082 22.1692 58.1975 20.6276C58.4768 18.5668 58.6466 16.4476 59.146 14.3927ZM58.8833 28.2572C58.8984 28.2526 58.913 28.2492 58.9264 28.2447L58.9591 28.2336L58.8833 28.2572ZM57.6958 26.3123C57.5556 27.2248 57.4283 28.0785 57.4637 28.1766L57.4644 28.1773C57.4287 28.0804 57.5555 27.2258 57.6958 26.3123ZM58.0169 27.7764C58.0941 27.7818 58.1694 27.7804 58.2427 27.7736L58.3518 27.759C58.2444 27.7774 58.1329 27.7845 58.0169 27.7764ZM60.9005 26.1671C60.5043 26.5194 60.0771 26.8423 59.6136 27.1301C59.3033 27.323 58.9989 27.5442 58.6631 27.6721L58.8611 27.5853C59.1209 27.4571 59.3654 27.2844 59.6136 27.1301C60.1699 26.7846 60.6737 26.3891 61.1347 25.9524L60.9005 26.1671ZM66.5706 25.1415C66.5346 25.2706 66.5011 25.3993 66.4698 25.5257C66.4073 25.7788 66.356 26.0235 66.3232 26.2484C66.3889 25.7988 66.5277 25.2699 66.6838 24.7537C66.6448 24.8829 66.6066 25.0121 66.5706 25.1415ZM63.1255 23.4752C63.0681 23.566 63.01 23.6561 62.9511 23.7455C62.8921 23.8349 62.8324 23.9236 62.7718 24.0116C62.4083 24.5394 62.015 25.04 61.5815 25.5028C62.1593 24.8859 62.6664 24.2018 63.1255 23.4752ZM81.2877 25.1908C81.1888 25.2079 81.091 25.2162 80.9952 25.2144C80.9471 25.2135 80.8996 25.21 80.8527 25.204C80.6194 25.1739 80.4028 25.0784 80.2204 24.901C80.5126 25.1856 80.892 25.26 81.2884 25.1915L81.2877 25.1908ZM81.0063 24.5682C80.9518 24.5944 80.8959 24.6337 80.834 24.687C80.7606 24.7502 80.7041 24.8082 80.6172 24.8878C80.615 24.8899 80.6125 24.8921 80.6102 24.8941C80.7392 24.9559 80.883 24.9839 81.0383 24.9816L81.0063 24.5682ZM81.0035 23.6329L80.9306 23.7045C80.8887 23.7414 80.8316 23.7898 80.7638 23.8455C80.358 24.1793 79.5765 24.7789 79.4818 24.8031L79.4714 24.8051C79.475 24.8044 79.4786 24.8038 79.4818 24.8031C79.5917 24.7753 80.6376 23.9632 80.9306 23.7045L81.0035 23.6329ZM79.6124 20.3275L79.5388 20.3414C79.4693 20.3616 79.4087 20.4013 79.338 20.4546C79.2967 20.4857 79.2343 20.5356 79.1754 20.5714C79.1119 20.6099 79.023 20.6514 78.9134 20.6506C78.7926 20.6493 78.6797 20.6087 78.6028 20.5804C78.5139 20.5476 78.4542 20.524 78.3915 20.513C78.3372 20.5034 78.2895 20.5058 78.2373 20.5269C78.1817 20.5494 78.1028 20.6009 78.0024 20.7208C77.9823 20.7448 77.9508 20.8025 77.9135 20.907C77.8781 21.006 77.845 21.1256 77.8106 21.2565C77.7458 21.5039 77.6739 21.8117 77.5848 22.0118C77.5304 22.1341 77.4429 22.3035 77.35 22.4843C77.2552 22.6686 77.1517 22.8712 77.0588 23.0701C76.9654 23.2701 76.8862 23.4592 76.8385 23.6162C76.8148 23.6946 76.8009 23.7594 76.7955 23.8094C76.791 23.8511 76.7942 23.8722 76.7955 23.8789C76.798 23.8829 76.804 23.8926 76.8163 23.9081C76.8372 23.9343 76.8674 23.9674 76.9066 24.0061C76.9851 24.0832 77.0892 24.1725 77.2006 24.259C77.3118 24.3454 77.427 24.4264 77.5258 24.4876C77.5751 24.5182 77.6183 24.5424 77.6536 24.5599C77.6712 24.5686 77.6856 24.5749 77.6967 24.5793L77.7134 24.5856C77.7458 24.593 77.8517 24.6024 78.0212 24.6085C78.1815 24.6142 78.378 24.6165 78.575 24.6154C78.772 24.6143 78.9679 24.6096 79.1267 24.6022C79.2716 24.5955 79.3672 24.5867 79.4095 24.58C79.4199 24.5739 79.4345 24.5652 79.4533 24.5529C79.4978 24.5237 79.5579 24.4814 79.6291 24.4299C79.771 24.3272 79.951 24.1917 80.1294 24.0533C80.3077 23.915 80.4826 23.7751 80.6158 23.6656C80.6825 23.6107 80.7374 23.5644 80.7763 23.5301C80.7899 23.518 80.8008 23.5079 80.809 23.5002C80.8108 23.4956 80.8133 23.4899 80.8159 23.4828C80.825 23.4583 80.8362 23.4253 80.8486 23.3842C80.8732 23.3019 80.9014 23.1938 80.932 23.0673C80.9929 22.8146 81.0603 22.4958 81.1203 22.1758C81.1803 21.8555 81.2323 21.5371 81.2634 21.285C81.279 21.1585 81.2893 21.0522 81.2926 20.9723C81.2943 20.9324 81.2938 20.9026 81.2926 20.882C81.2923 20.8763 81.2915 20.8717 81.2912 20.8688C81.2687 20.8176 81.2075 20.7472 81.0793 20.67C80.9489 20.5916 80.7771 20.5227 80.588 20.4671C80.2048 20.3544 79.8013 20.3107 79.6124 20.3275ZM67.3579 22.6539C67.2935 22.9379 67.0451 23.6138 66.8034 24.3702L67.0403 23.6524C67.1902 23.2072 67.3149 22.8433 67.3579 22.6539ZM70.3882 23.1597C70.2793 23.4596 70.1517 23.7559 70.0115 24.0401L70.1144 23.8254C70.2146 23.608 70.3065 23.3848 70.3882 23.1597ZM70.6522 22.2578C70.6032 22.4819 70.5403 22.7087 70.466 22.9346L70.5368 22.7088C70.5811 22.5582 70.6196 22.407 70.6522 22.2578ZM51.6721 21.8624C51.2467 22.1155 50.8047 22.382 50.5728 22.4642C50.8627 22.3615 51.4808 21.9708 51.9848 21.6783L51.6721 21.8624ZM77.1568 20.2086C76.8108 20.7289 75.8235 21.6059 75.7087 22.1515C75.8235 21.6059 76.8116 20.7296 77.1575 20.2093L77.1568 20.2086ZM48.0727 22.7768C48.1093 22.7858 48.1479 22.7915 48.1881 22.7984C48.0895 22.7816 48.0015 22.76 47.924 22.731L48.0727 22.7768ZM81.5254 20.9827C81.5142 21.2496 81.4397 21.7346 81.3489 22.2189L81.433 21.7422C81.4825 21.4353 81.518 21.1605 81.5254 20.9827ZM67.517 21.6296C67.513 21.6887 67.5079 21.748 67.5017 21.8068L67.517 21.6296C67.521 21.5706 67.5241 21.5117 67.5253 21.4538L67.517 21.6296ZM64.7917 21.376C64.4986 21.5405 64.2424 21.6898 64.0788 21.7985L64.3866 21.6088C64.6291 21.4659 64.9363 21.2946 65.2524 21.121L64.7917 21.376ZM52.6727 21.342C52.5895 21.3559 52.4458 21.4228 52.2697 21.5178L52.5066 21.3996C52.5747 21.3695 52.6312 21.3489 52.6727 21.342ZM70.7689 21.1752C70.772 21.3123 70.7674 21.4533 70.755 21.597L70.7675 21.3843C70.77 21.3138 70.7705 21.244 70.7689 21.1752ZM68.15 20.9111C68.1733 21.0024 68.1879 21.1009 68.1945 21.2058L68.1785 21.0529C68.1712 21.0037 68.1617 20.9568 68.15 20.9111ZM81.4788 20.7263C81.4926 20.7492 81.5047 20.7724 81.5136 20.7965L81.4934 20.7506C81.4891 20.7423 81.4837 20.7345 81.4788 20.7263ZM68.0527 20.6596C68.0738 20.6974 68.0921 20.7373 68.1083 20.7791L68.0527 20.6596ZM82.2737 20.6791C82.2751 20.6957 82.2754 20.7124 82.2758 20.7291C82.2757 20.7256 82.2759 20.7221 82.2758 20.7187L82.2737 20.6791ZM78.887 20.4164H78.896C78.8911 20.4161 78.8863 20.4155 78.8814 20.415C78.8833 20.4152 78.8851 20.4162 78.887 20.4164ZM80.9438 20.3448C80.9613 20.352 80.9781 20.3603 80.9952 20.3678C80.9334 20.3406 80.8689 20.3145 80.802 20.2913L80.9438 20.3448ZM81.7804 20.0106L81.8617 20.0092C81.9662 20.0139 82.0585 20.0494 82.1299 20.1496C82.0405 20.0239 81.9186 19.9994 81.7804 20.0106ZM78.1546 19.5332C78.9844 19.5591 79.8114 19.6108 80.1051 19.6757C80.4478 19.7518 80.8307 20.0576 81.1481 20.0905C81.2699 20.1032 81.3961 20.0804 81.5177 20.0558C81.4568 20.0681 81.3949 20.0792 81.3329 20.0863C81.271 20.0935 81.209 20.0968 81.1481 20.0905C81.1085 20.0864 81.0679 20.0771 81.0265 20.0655C80.9848 20.0538 80.9424 20.039 80.8993 20.0217C80.8134 19.9873 80.7251 19.9437 80.6359 19.8987C80.5468 19.8537 80.4568 19.8072 80.3677 19.7674C80.2788 19.7276 80.1907 19.6947 80.1051 19.6757C79.738 19.5946 78.5375 19.5338 77.5396 19.5186L78.1546 19.5332ZM67.0466 19.8779L67.0278 19.9022C67.0244 19.9071 67.0212 19.9119 67.0181 19.9168C67.0263 19.904 67.0359 19.8906 67.0466 19.8779C67.1727 19.8519 67.3011 19.8877 67.4232 19.9585L67.3488 19.9203C67.2743 19.8869 67.1983 19.8681 67.1223 19.8696C67.0971 19.87 67.0717 19.8727 67.0466 19.8779ZM51.5324 15.7317C51.4443 15.9536 51.2327 16.2037 51.0599 16.3661C50.5476 16.8432 49.4846 17.8702 48.5855 18.8738C48.4856 18.9853 48.3878 19.0965 48.293 19.2067C48.1032 19.427 47.9256 19.6432 47.7677 19.8487L48.0178 19.5339C48.9843 18.3546 50.4336 16.9494 51.0599 16.3661C51.2112 16.2239 51.3924 16.0147 51.4942 15.8157L51.5324 15.7317ZM76.1861 19.5457L76.1291 19.5534C76.0913 19.5589 76.0531 19.5667 76.0144 19.5735C76.0726 19.5632 76.1299 19.5528 76.1861 19.5457ZM59.6178 19.0441C59.5941 19.1145 59.5641 19.1805 59.5205 19.2393C59.506 19.259 59.4898 19.2776 59.4719 19.2956C59.4184 19.3493 59.3489 19.3951 59.2558 19.4304C59.4729 19.3481 59.5624 19.2084 59.6178 19.0441ZM59.8152 18.4319C59.7577 18.5341 59.7241 18.6404 59.697 18.7446L59.7443 18.5882C59.7632 18.5358 59.7864 18.483 59.8152 18.4319ZM59.3628 17.6258C59.3599 17.6393 59.3563 17.6527 59.3531 17.6661C59.3565 17.652 59.3604 17.638 59.3635 17.6238L59.3628 17.6258ZM60.7518 17.5508C60.7607 17.533 60.7703 17.5157 60.7789 17.498L60.8408 17.3681L60.7518 17.5508ZM60.9436 16.4849C60.903 16.5761 60.8607 16.6649 60.8171 16.751L60.9436 16.4849ZM61.5099 15.2376C61.4598 15.2669 61.416 15.3016 61.3779 15.3411C61.3589 15.3608 61.3416 15.3819 61.3251 15.4037C61.3747 15.338 61.4348 15.2815 61.5099 15.2376ZM55.4924 15.4099C55.4982 15.409 55.5041 15.4088 55.5098 15.4079L55.5425 15.4016C55.5259 15.4046 55.5092 15.4071 55.4924 15.4099ZM59.3684 14.4642C59.3022 14.7375 59.2418 15.0118 59.1863 15.2869L59.2732 14.8756C59.3035 14.7382 59.3352 14.6011 59.3684 14.4642ZM52.1467 15.2195C52.055 15.2444 51.9622 15.2607 51.868 15.2661C52.0092 15.258 52.1472 15.2263 52.2829 15.1765L52.1467 15.2195ZM55.2867 13.3643C55.1944 13.3631 55.1031 13.3729 55.013 13.3921C54.1113 13.584 53.3125 14.7127 52.4177 15.1209L52.5518 15.0549C53.57 14.5074 54.4745 13.117 55.5675 13.4025C55.4725 13.3777 55.379 13.3655 55.2867 13.3643ZM53.8553 14.9687C54.0521 15.0049 54.2467 15.0187 54.4397 15.0146L54.5842 15.0076C54.2959 15.0266 54.0041 15.0084 53.7073 14.9367L53.8553 14.9687ZM58.1225 14.0091C56.9755 14.1948 55.8772 14.8712 54.7281 14.9951L55.0144 14.9534C56.0607 14.7621 57.0716 14.1799 58.1232 14.0098L58.1225 14.0091ZM44.4469 14.6511C44.5995 14.7222 44.7658 14.7856 44.9431 14.8436C44.7615 14.7842 44.5915 14.7187 44.4358 14.6456L44.4469 14.6511ZM43.8021 14.6942C43.8108 14.707 43.8207 14.7191 43.8299 14.7318C43.8022 14.6938 43.776 14.6558 43.7535 14.6164L43.8021 14.6942ZM44.1085 14.4524C44.1348 14.4735 44.1623 14.4935 44.1905 14.5129L44.1085 14.4524C44.0559 14.4102 44.0062 14.365 43.9564 14.3218L44.1085 14.4524Z" fill="#FFFEF4"/>
<path fill-rule="evenodd" clip-rule="evenodd" d="M127.237 18.6369C127.367 18.5722 127.507 18.5614 127.642 18.5986C127.788 18.6389 127.914 18.7307 128.02 18.8363C128.127 18.9434 128.224 19.0776 128.311 19.2233C128.484 19.5148 128.627 19.8769 128.718 20.2309C128.808 20.5813 128.853 20.9467 128.811 21.2412C128.79 21.3936 128.721 21.5391 128.64 21.6706C128.557 21.8038 128.451 21.9373 128.34 22.0667C128.228 22.1963 128.104 22.3287 127.987 22.4565C127.867 22.5859 127.753 22.7118 127.651 22.8352C127.438 23.094 127.321 23.2977 127.309 23.4516C127.304 23.5167 127.318 23.5741 127.359 23.6322C127.395 23.6822 127.457 23.7399 127.562 23.8011L128.633 23.3411L128.745 23.4502C128.79 23.4951 128.827 23.5457 128.854 23.601C128.844 23.5458 128.838 23.4965 128.838 23.4585C128.837 23.4159 128.849 23.3725 128.852 23.3584C128.859 23.3334 128.867 23.3036 128.877 23.2716C128.897 23.2071 128.925 23.1235 128.959 23.0284C129.025 22.8374 129.115 22.5931 129.209 22.3481C129.304 22.1033 129.403 21.8556 129.487 21.6581C129.53 21.5596 129.57 21.4709 129.604 21.401C129.633 21.3421 129.671 21.2668 129.713 21.2197C129.854 21.0608 130.094 20.8742 130.368 20.6874C130.647 20.4971 130.979 20.2955 131.317 20.1079C131.655 19.9202 132.002 19.7443 132.311 19.6069C132.595 19.4802 132.863 19.3792 133.065 19.3359L133.105 19.3283C133.341 19.2848 133.708 19.3094 133.994 19.4165C134.136 19.4699 134.291 19.5558 134.389 19.6958C134.499 19.8541 134.513 20.0468 134.424 20.2399C134.406 20.2806 134.38 20.3063 134.372 20.3136C134.361 20.3246 134.35 20.3328 134.343 20.3379C134.329 20.3481 134.316 20.3572 134.305 20.3636C134.283 20.3769 134.255 20.3907 134.228 20.4046C134.172 20.4329 134.099 20.4666 134.026 20.4984C133.952 20.5301 133.875 20.5616 133.808 20.586C133.775 20.5981 133.741 20.6093 133.711 20.6179C133.688 20.6247 133.645 20.636 133.602 20.6374C133.526 20.6398 133.471 20.6072 133.447 20.5894C133.422 20.5713 133.403 20.5513 133.395 20.5422C133.386 20.5319 133.377 20.5207 133.372 20.5144C133.365 20.5067 133.36 20.5004 133.355 20.4942C133.336 20.4724 133.314 20.4516 133.279 20.4345C133.209 20.401 133.023 20.3527 132.584 20.5005L132.56 20.5109C132.541 20.5199 132.517 20.5326 132.486 20.5484C132.424 20.5802 132.343 20.6235 132.249 20.6749C132.061 20.7774 131.823 20.9106 131.588 21.0446C131.352 21.1786 131.119 21.3133 130.941 21.4191C130.852 21.4721 130.777 21.5171 130.723 21.5511C130.696 21.5682 130.675 21.5818 130.661 21.5914C130.657 21.5939 130.654 21.5955 130.652 21.597C130.341 21.9078 130.106 22.4479 130.025 23.0263C129.945 23.5989 130.024 24.1526 130.269 24.5147C130.415 24.6367 130.616 24.6614 130.904 24.5696C131.206 24.4732 131.553 24.2619 131.912 23.9935C132.267 23.7275 132.618 23.4177 132.927 23.1389C133.228 22.8668 133.503 22.6109 133.689 22.4746C134.094 22.1776 134.562 21.9315 135.005 21.7047C135.454 21.4741 135.873 21.266 136.21 21.0362C136.408 20.9017 136.605 20.7152 136.82 20.5019C137.029 20.2936 137.257 20.0584 137.499 19.8515C137.987 19.4346 138.584 19.0877 139.36 19.2338C139.686 19.2957 139.913 19.4617 140.046 19.7035C140.172 19.9315 140.202 20.2037 140.199 20.4623C140.197 20.7232 140.159 21.002 140.126 21.2537C140.092 21.5106 140.062 21.7361 140.064 21.9229V21.9326C140.074 22.7639 140.017 23.8661 140.244 24.7294C140.356 25.1559 140.53 25.4895 140.786 25.6973C141.034 25.8986 141.393 26.0083 141.937 25.9225L142.247 25.8738L142.102 26.9307L141.95 26.9689C141.197 27.1606 140.614 27.0738 140.173 26.7584C139.742 26.45 139.491 25.9529 139.331 25.4166C139.17 24.8779 139.09 24.2647 139.028 23.6892C138.979 23.2413 138.941 22.821 138.885 22.4572C138.867 22.483 138.844 22.5113 138.818 22.5392C138.671 22.6954 138.501 22.9142 138.309 23.1674C138.121 23.4169 137.913 23.6985 137.701 23.9651C137.488 24.2318 137.265 24.4923 137.04 24.7037C136.832 24.8987 136.606 25.0684 136.372 25.1526L136.325 25.1679C135.862 25.3098 135.304 25.2243 134.869 24.9768C134.443 24.7346 134.098 24.313 134.101 23.7517L134.102 23.6968C134.104 23.6546 134.117 23.6227 134.121 23.6114C134.128 23.5963 134.135 23.5839 134.14 23.5759C134.149 23.5601 134.159 23.5448 134.167 23.5335C134.183 23.5112 134.206 23.4806 134.226 23.4536C134.27 23.3948 134.321 23.3242 134.365 23.248C134.399 23.1901 134.424 23.135 134.44 23.0854C134.325 23.1598 134.177 23.278 133.997 23.4314C133.619 23.7538 133.113 24.2236 132.591 24.6384C132.068 25.0534 131.49 25.4455 130.941 25.6147C130.664 25.7001 130.379 25.7333 130.106 25.6723C129.828 25.6102 129.581 25.4546 129.377 25.197C129.34 25.15 129.308 25.0895 129.282 25.0344C129.255 24.9753 129.227 24.9057 129.199 24.8315C129.143 24.6829 129.086 24.5044 129.034 24.3278C128.982 24.1518 128.934 23.9744 128.9 23.8254C128.897 23.9069 128.874 23.9827 128.843 24.0491C128.765 24.2172 128.614 24.366 128.463 24.4834C128.308 24.6045 128.128 24.7104 127.962 24.7885C127.803 24.8632 127.63 24.9247 127.492 24.933C127.29 24.9448 127.118 24.8741 126.979 24.7801C126.843 24.6884 126.726 24.5666 126.629 24.4598C126.525 24.3448 126.448 24.2531 126.369 24.1798C126.288 24.1053 126.248 24.0933 126.236 24.0922C126.202 24.0894 126.126 24.101 126 24.1457C125.881 24.1879 125.744 24.2482 125.597 24.3146C125.453 24.3792 125.299 24.4502 125.155 24.5057C125.015 24.5596 124.862 24.609 124.724 24.6175L124.655 24.6182C124.497 24.6146 124.369 24.5659 124.266 24.5133C124.211 24.4848 124.158 24.4524 124.118 24.4292C124.075 24.4039 124.044 24.3872 124.017 24.3757C123.974 24.3579 123.952 24.3565 123.915 24.3722C123.86 24.396 123.764 24.4659 123.613 24.6551C123.554 24.7289 123.522 24.7914 123.498 24.8496C123.484 24.8821 123.474 24.9094 123.46 24.9469C123.446 24.9813 123.429 25.0221 123.407 25.0636C123.303 25.2606 123.125 25.3832 122.768 25.4951C122.196 25.6744 121.527 25.6896 121.06 25.4402C120.819 25.3113 120.625 25.1074 120.546 24.8204C120.494 24.6341 120.495 24.4269 120.546 24.202C119.913 24.8693 119.192 25.4583 118.261 25.8023L118.145 25.8447C118.183 26.0091 118.214 26.1755 118.231 26.3422L118.255 26.568L118.031 26.5972C117.778 26.6306 117.56 26.538 117.386 26.3964C117.217 26.2577 117.08 26.0651 116.973 25.8676C116.758 25.4726 116.628 24.9992 116.588 24.7072C116.507 24.1112 116.693 23.431 116.871 22.8255C116.963 22.5136 117.053 22.2193 117.12 21.9423C117.186 21.6648 117.222 21.4237 117.213 21.2224L117.203 21.0995C117.149 21.1619 117.09 21.2414 117.031 21.326C116.962 21.4243 116.877 21.5522 116.818 21.6157C116.052 22.4534 115.265 23.4407 114.59 24.4139L114.59 24.4146C114.554 24.4653 114.483 24.5899 114.386 24.7669C114.293 24.9367 114.18 25.1486 114.068 25.3499C113.957 25.5519 113.842 25.7523 113.744 25.9079C113.695 25.9852 113.647 26.0563 113.604 26.1122C113.582 26.14 113.557 26.1683 113.532 26.1928C113.514 26.2107 113.48 26.2407 113.435 26.2623L113.415 26.2706C113.306 26.3127 113.194 26.2956 113.116 26.2734C113.031 26.2492 112.946 26.208 112.873 26.158C112.8 26.1084 112.727 26.0433 112.672 25.9656C112.621 25.8915 112.571 25.7834 112.585 25.6577L112.588 25.632C112.607 25.5015 112.669 25.3496 112.735 25.2096C112.809 25.0521 112.905 24.8772 113 24.7072C113.098 24.5337 113.194 24.3688 113.276 24.218C113.35 24.0843 113.404 23.9763 113.435 23.8997L113.447 23.8685C113.472 23.7965 113.563 23.4449 113.65 23.084C113.693 22.9069 113.734 22.7335 113.763 22.6004C113.777 22.5337 113.788 22.4787 113.795 22.4391C113.798 22.4249 113.8 22.4134 113.801 22.4051C113.758 22.1383 113.558 21.9451 113.259 21.8485C112.949 21.7483 112.575 21.7708 112.291 21.9138C112.289 21.9153 112.281 21.9195 112.269 21.9277C112.251 21.9391 112.228 21.9547 112.199 21.9743C112.142 22.0135 112.067 22.0667 111.98 22.1292C111.805 22.2543 111.584 22.4153 111.365 22.5774C111.146 22.7396 110.93 22.9022 110.764 23.0291C110.681 23.0925 110.611 23.1464 110.56 23.1868L110.489 23.2452C110.4 23.3487 110.363 23.499 110.33 23.6982C110.315 23.7881 110.3 23.8993 110.274 23.9935C110.248 24.0863 110.202 24.2086 110.097 24.2958L110.051 24.3257C110.038 24.3329 110.027 24.3379 110.021 24.3403C110.004 24.3469 109.987 24.3517 109.974 24.3556C109.946 24.3633 109.914 24.3701 109.881 24.3764C109.813 24.3892 109.726 24.4028 109.627 24.416C109.428 24.4426 109.171 24.4707 108.909 24.4966C108.392 24.5478 107.836 24.5914 107.681 24.5925C107.365 24.5953 107.108 24.5374 106.87 24.464C106.668 24.4017 106.508 24.3401 106.321 24.284C106.308 24.3029 106.295 24.3241 106.28 24.3479C106.206 24.4664 106.113 24.6267 106.015 24.7961C105.918 24.9639 105.818 25.1407 105.733 25.2853C105.653 25.4211 105.571 25.5533 105.518 25.6167L105.517 25.6174C104.888 26.3524 103.863 26.9142 102.816 26.5089C102.075 26.2219 101.684 25.7515 101.595 25.1727C101.51 24.6177 101.711 24.0143 102.026 23.4592C102.344 22.8985 102.795 22.3553 103.261 21.9076C103.724 21.4616 104.215 21.0972 104.62 20.9049L104.663 20.8847C104.902 20.7815 105.454 20.6097 105.97 20.5047C106.246 20.4484 106.529 20.4081 106.759 20.4108C106.873 20.4122 106.99 20.4239 107.091 20.4595C107.192 20.495 107.313 20.5679 107.364 20.7117L107.388 20.7798L107.37 20.8493C107.329 21.0034 107.253 21.2354 107.178 21.4809C107.101 21.7329 107.021 22.0129 106.963 22.2863C106.905 22.5621 106.872 22.8184 106.884 23.0256C106.896 23.225 106.946 23.3374 107.007 23.3953L107.019 23.4064C107.024 23.4087 107.049 23.4207 107.107 23.4342C107.173 23.4494 107.26 23.4615 107.367 23.4696C107.579 23.4858 107.844 23.4843 108.117 23.4703C108.389 23.4564 108.663 23.4308 108.89 23.3987C109.059 23.375 109.188 23.3492 109.271 23.3272C109.392 23.0954 109.594 22.8384 109.829 22.5844C110.102 22.2901 110.435 21.9844 110.783 21.7061C111.131 21.4279 111.498 21.1735 111.839 20.9834C112.172 20.7977 112.507 20.6572 112.783 20.6388L112.817 20.6374C112.99 20.6326 113.182 20.676 113.367 20.7409C113.567 20.8115 113.776 20.9141 113.97 21.0348C114.163 21.1553 114.346 21.2977 114.494 21.4504C114.629 21.5904 114.748 21.7543 114.802 21.9312L114.813 21.9666C114.846 22.0959 114.841 22.2439 114.833 22.3683C114.825 22.4791 114.816 22.5636 114.809 22.6539C115.2 22.1878 115.553 21.7032 115.954 21.2092C116.369 20.6969 116.816 20.1989 117.345 19.7966L117.409 19.7473L117.491 19.7493C117.701 19.7539 117.88 19.8247 118.014 19.9641C118.142 20.0976 118.207 20.273 118.239 20.4505C118.302 20.8003 118.248 21.2456 118.162 21.6741C118.075 22.1092 117.947 22.5596 117.843 22.9283C117.791 23.1145 117.745 23.2783 117.712 23.4126C117.677 23.5535 117.662 23.6401 117.661 23.6809L117.659 23.7635C117.665 24.153 117.769 24.5448 117.894 24.9615C117.918 25.0436 117.944 25.1272 117.969 25.2116C117.977 25.1944 117.986 25.1775 117.995 25.1609C118.061 25.0432 118.17 24.9372 118.23 24.8718C118.471 24.6094 118.825 24.3439 119.163 24.0922C119.511 23.8328 119.846 23.5841 120.087 23.3418C120.356 23.0706 121.076 22.2873 121.768 21.5032C122.113 21.1119 122.449 20.7224 122.717 20.399C122.991 20.0685 123.178 19.8245 123.24 19.7153C123.256 19.6861 123.276 19.6152 123.295 19.4825C123.311 19.3729 123.328 19.205 123.351 19.0712C123.375 18.9332 123.412 18.7716 123.489 18.6424C123.53 18.5749 123.587 18.5076 123.667 18.459C123.738 18.4152 123.819 18.3927 123.904 18.3909L123.941 18.3916L123.988 18.3937L124.03 18.4138C124.219 18.5033 124.356 18.6151 124.405 18.7988C124.426 18.8761 124.426 18.952 124.425 19.01C124.423 19.0608 124.421 19.0986 124.42 19.1427L124.419 19.1893C124.424 19.9793 124.37 20.777 124.311 21.565C124.259 22.2801 124.203 22.9872 124.185 23.6864C124.443 23.6886 124.757 23.6476 125.055 23.56C125.447 23.4446 125.759 23.2643 125.902 23.052C125.935 23.0021 125.962 22.9249 125.977 22.8116C125.992 22.6993 125.994 22.5686 125.99 22.4239C125.987 22.2956 125.977 22.1155 125.974 21.9812C125.971 21.8354 125.974 21.6822 126 21.5442C126.013 21.4752 126.069 21.2922 126.137 21.0807C126.209 20.8586 126.302 20.5798 126.397 20.3024C126.491 20.0251 126.587 19.7478 126.666 19.5284C126.741 19.3188 126.807 19.1401 126.838 19.0788L127.215 18.3388L127.237 18.6369ZM141.75 26.7744C141.775 26.769 141.801 26.7659 141.827 26.7598L141.893 26.7438L141.75 26.7744ZM113.309 26.0594C113.311 26.0589 113.314 26.0592 113.316 26.0587L113.323 26.0559C113.318 26.0573 113.314 26.0584 113.309 26.0594ZM105.991 23.4529C105.96 23.6552 105.868 23.8825 105.731 24.1138C105.703 24.16 105.674 24.2063 105.643 24.2527C104.979 25.2511 103.559 26.2526 102.778 25.6292C103.776 26.4272 105.822 24.5663 105.992 23.4536L105.991 23.4529ZM104.878 21.9965C104.817 22.0138 104.753 22.0523 104.684 22.1126C104.616 22.1729 104.554 22.2451 104.494 22.3182C104.466 22.3526 104.434 22.3912 104.406 22.4232C104.38 22.4537 104.344 22.4922 104.305 22.5225C103.909 22.8271 103.397 23.1939 103.022 23.6239C102.647 24.0539 102.461 24.4885 102.609 24.9386L102.627 24.9935C102.774 25.397 103 25.547 103.238 25.5813C103.514 25.6212 103.868 25.515 104.245 25.2853C104.616 25.0593 104.978 24.7318 105.258 24.3841C105.497 24.0872 105.662 23.7933 105.732 23.5495C105.636 23.4565 105.561 23.3364 105.504 23.2264C105.412 23.0515 105.334 22.8443 105.268 22.6532C105.198 22.451 105.146 22.2832 105.094 22.1404C105.071 22.0767 105.052 22.0299 105.037 21.9986C104.974 21.9803 104.923 21.9838 104.878 21.9965ZM118.158 25.5049L118.18 25.5841L118.157 25.4972C118.157 25.4997 118.157 25.5023 118.158 25.5049ZM105.258 25.557C105.266 25.5481 105.275 25.5403 105.283 25.5313L105.322 25.4861C105.301 25.5102 105.279 25.5334 105.258 25.557ZM113.666 23.9463C113.546 24.2858 113.013 25.0777 112.858 25.5167L112.897 25.418C113.087 24.9674 113.554 24.2615 113.666 23.9463ZM122.574 25.3068C122.598 25.3005 122.623 25.2958 122.647 25.2888L122.698 25.2735L122.574 25.3068ZM120.251 23.5064C119.996 23.7639 119.645 24.0229 119.302 24.2784C119.131 24.4062 118.961 24.5332 118.807 24.6585C118.652 24.7838 118.513 24.9075 118.402 25.0289L118.344 25.09C118.334 25.1009 118.325 25.1126 118.315 25.1234C118.343 25.0927 118.372 25.0608 118.402 25.0289C118.847 24.543 119.741 24.0215 120.251 23.5064ZM139.446 24.9267L139.452 24.9504C139.438 24.8869 139.425 24.8227 139.413 24.7579C139.424 24.8146 139.434 24.871 139.446 24.9267ZM136.189 24.9615C136.199 24.9591 136.209 24.9586 136.219 24.9559L136.239 24.9504C136.223 24.955 136.206 24.9574 136.189 24.9615ZM138.953 19.4332C138.682 19.4418 138.434 19.5195 138.205 19.6402C138.074 19.7091 137.949 19.7922 137.829 19.8841C137.285 20.298 136.831 20.8958 136.341 21.2287C136.165 21.3486 135.968 21.4623 135.76 21.5747C135.552 21.6872 135.333 21.7981 135.111 21.9117C134.668 22.1392 134.215 22.3782 133.827 22.6629C133.307 23.0448 131.993 24.4661 130.974 24.7912C130.932 24.8048 130.89 24.8164 130.849 24.826C130.559 24.8931 130.299 24.8594 130.094 24.6717C131.029 25.5298 133.133 23.1719 133.827 22.6629C134.604 22.0935 135.636 21.7085 136.341 21.2287C137.212 20.6368 137.971 19.2093 139.318 19.4631C139.416 19.4819 139.502 19.511 139.574 19.5499C139.501 19.5109 139.416 19.4812 139.317 19.4624C139.233 19.4466 139.151 19.4372 139.072 19.4339C139.032 19.4322 138.992 19.4319 138.953 19.4332ZM127.453 24.7016L127.467 24.7009C127.454 24.7014 127.441 24.7 127.429 24.6995C127.437 24.6998 127.445 24.7017 127.453 24.7016ZM123.254 21.1411C122.444 21.8574 121.804 22.7502 121.069 23.6155C121.052 23.6362 121.033 23.6568 121.016 23.6774C121.474 23.6386 121.876 23.8217 122.202 24.1145L122.46 24.3465L121.884 24.6238C121.985 24.6329 122.097 24.6255 122.217 24.5988C122.521 24.5307 122.786 24.3557 122.899 24.1534C123.052 23.8785 123.175 23.3595 123.246 22.7935C123.317 22.2342 123.331 21.6743 123.293 21.3392C123.285 21.2733 123.28 21.23 123.273 21.196C123.266 21.1647 123.261 21.1518 123.257 21.146C123.257 21.1451 123.256 21.1434 123.254 21.1411ZM124.685 24.3861L124.701 24.3848C124.685 24.3855 124.668 24.3846 124.653 24.3841C124.663 24.3844 124.674 24.3864 124.685 24.3861ZM138.335 22.0778C137.893 22.6632 137.272 23.4003 136.84 23.8143C136.796 23.8557 136.755 23.8938 136.716 23.9282C136.677 23.9627 136.64 23.9933 136.606 24.02C136.408 24.1731 136.2 24.2782 136.003 24.3326C135.954 24.3462 135.905 24.3566 135.858 24.3639C135.763 24.3784 135.672 24.3801 135.588 24.3688L135.526 24.3583C135.829 24.4255 136.236 24.3069 136.606 24.02C137.016 23.701 137.805 22.7803 138.335 22.0778ZM135.085 23.9046C135.128 24.1136 135.247 24.2513 135.41 24.3215L135.358 24.2951C135.222 24.2194 135.124 24.0901 135.085 23.9046ZM123.166 24.1374C123.145 24.1842 123.124 24.2276 123.102 24.2673C123.146 24.1881 123.187 24.0944 123.225 23.9887C123.206 24.0416 123.186 24.0907 123.166 24.1374ZM139.105 20.2969C138.883 20.2082 138.704 20.2111 138.549 20.2594C138.353 20.3206 138.167 20.4636 137.977 20.6659C137.785 20.8699 137.615 21.1048 137.427 21.342C137.248 21.5671 137.049 21.8007 136.822 21.943C136.628 22.0636 136.368 22.1317 136.191 22.1904C135.992 22.2561 135.873 22.3154 135.809 22.394C135.805 22.4012 135.799 22.4115 135.793 22.4252C135.778 22.4559 135.757 22.4985 135.734 22.5496C135.686 22.6517 135.626 22.785 135.566 22.9186C135.506 23.052 135.448 23.1855 135.403 23.289C135.38 23.3408 135.362 23.3849 135.349 23.4168C135.342 23.4328 135.336 23.4447 135.333 23.4529C135.279 23.6891 135.298 23.8463 135.339 23.9428C135.377 24.0338 135.444 24.0909 135.538 24.1207C135.743 24.1862 136.101 24.1174 136.463 23.8365C136.715 23.6412 137.142 23.1796 137.564 22.674C137.955 22.2054 138.322 21.7222 138.518 21.4191L138.557 21.3552C138.628 21.2398 138.793 20.9661 138.929 20.6985C138.998 20.5641 139.056 20.437 139.092 20.3358C139.097 20.3218 139.101 20.3089 139.105 20.2969ZM109.933 24.1228C109.937 24.1214 109.941 24.1213 109.943 24.12L109.945 24.1179C109.942 24.1197 109.938 24.1209 109.933 24.1228ZM120.853 23.9956C120.851 24.0021 120.849 24.0087 120.846 24.0151C120.856 23.9884 120.866 23.9607 120.878 23.9331L120.853 23.9956ZM121.203 23.9074C121.124 23.903 121.043 23.9065 120.961 23.9185L121.043 23.9095C121.097 23.9052 121.15 23.9045 121.203 23.9074ZM117.445 21.2113C117.479 21.9142 117.027 22.9059 116.861 23.8122L116.908 23.5843C117.099 22.743 117.477 21.8555 117.445 21.2113ZM109.438 23.5176C109.251 23.5961 108.685 23.6747 108.129 23.7031C107.99 23.7102 107.851 23.7142 107.719 23.7142C107.323 23.7143 106.987 23.6789 106.873 23.5871C107.176 23.832 109.065 23.6747 109.438 23.5176ZM123.525 21.3246C123.545 21.5034 123.551 21.734 123.543 21.9896C123.535 22.2508 123.513 22.5381 123.477 22.8227C123.45 23.0363 123.415 23.2483 123.373 23.4467L123.413 23.2445C123.535 22.5636 123.575 21.7775 123.525 21.3246ZM114.571 22.7331C114.559 22.9821 114.586 23.2009 114.785 23.2605C114.71 23.2381 114.66 23.1929 114.626 23.1326C114.615 23.1125 114.606 23.0907 114.599 23.0673C114.569 22.974 114.565 22.8576 114.571 22.7331ZM126.095 23.1819L126.091 23.1882C126.092 23.1863 126.094 23.1839 126.095 23.1819ZM114.034 22.3988C114.039 22.4381 113.963 22.7829 113.877 23.1389L113.99 22.6504C114.019 22.5151 114.037 22.4193 114.035 22.3995L114.034 22.3988ZM117.486 19.9814C117.106 20.2705 116.767 20.6137 116.448 20.9813C116.129 21.3488 115.829 21.741 115.528 22.1285C115.327 22.387 115.125 22.6438 114.916 22.8894C115.753 21.9069 116.473 20.7522 117.486 19.9814ZM139.831 22.5858C139.831 22.4127 139.833 22.2463 139.832 22.0903L139.831 21.9354V22.5858ZM128.037 21.2961C127.822 21.6875 127.463 22.0424 127.094 22.3391C127.053 22.3434 127.019 22.3374 126.989 22.3224C126.974 22.3149 126.96 22.3051 126.948 22.2932C126.908 22.2553 126.88 22.1958 126.862 22.1195C126.896 22.2677 126.969 22.3533 127.094 22.3398C127.464 22.0432 127.822 21.6874 128.037 21.2961ZM106.121 21.7888C106.076 21.812 106.034 21.8348 106.001 21.8534C106.001 21.8646 106.003 21.8795 106.006 21.8985C106.017 21.9615 106.045 22.0414 106.09 22.1244C106.117 22.1737 106.148 22.2212 106.18 22.2633L106.345 21.6769C106.31 21.6925 106.218 21.738 106.121 21.7888ZM127.527 19.8723C127.489 19.9596 127.445 20.0747 127.401 20.2086C127.311 20.4766 127.22 20.8106 127.155 21.1328C127.09 21.4596 127.057 21.756 127.072 21.9576C127.075 21.9929 127.079 22.0218 127.083 22.0452C127.441 21.7398 127.752 21.3952 127.906 21.0348C127.991 20.8364 128.025 20.6383 127.999 20.44C127.975 20.2619 127.9 20.0703 127.747 19.8668L127.543 19.8355C127.538 19.8469 127.532 19.8593 127.527 19.8723ZM136.64 21.7769C136.649 21.7722 136.658 21.7687 136.667 21.7637L136.691 21.7498C136.675 21.7598 136.657 21.7678 136.64 21.7769ZM114.221 21.5115C114.258 21.5446 114.293 21.5783 114.326 21.6123L114.221 21.5115C114.184 21.4785 114.146 21.4453 114.105 21.4135L114.221 21.5115ZM129.888 21.3746L129.873 21.3941C129.87 21.3991 129.867 21.4053 129.863 21.4114C129.873 21.3954 129.881 21.3825 129.888 21.3746ZM107.144 20.7895C107.135 20.7641 107.12 20.7425 107.098 20.7242C107.087 20.7151 107.074 20.7067 107.06 20.6992C106.962 20.6469 106.795 20.6346 106.592 20.6485C106.535 20.6525 106.474 20.6587 106.411 20.6666C106.787 20.6192 107.089 20.6372 107.144 20.7895ZM105.234 20.932C105.001 21.0026 104.812 21.0707 104.72 21.1147L104.649 21.1502C104.634 21.1579 104.619 21.167 104.604 21.1752C104.643 21.1538 104.682 21.1327 104.72 21.1147C104.858 21.0487 105.214 20.9293 105.611 20.8271L105.234 20.932ZM128.223 20.7743C128.204 20.8941 128.169 21.0118 128.12 21.1266L128.182 20.9528C128.2 20.8941 128.214 20.8342 128.223 20.7743ZM112.756 20.875C112.744 20.8765 112.732 20.8786 112.719 20.8806C112.746 20.8762 112.773 20.8732 112.798 20.8715L112.756 20.875ZM139.338 20.3323C139.331 20.3581 139.322 20.3855 139.311 20.4143C139.332 20.3569 139.347 20.3055 139.354 20.2615C139.351 20.2834 139.345 20.3067 139.338 20.3323ZM133.589 20.4039L133.595 20.4053C133.592 20.4053 133.59 20.4038 133.588 20.4025L133.589 20.4039ZM117.933 20.2545C117.953 20.2941 117.971 20.3365 117.985 20.3831L117.949 20.2844C117.945 20.2738 117.938 20.2646 117.933 20.2545ZM128.33 19.7903C128.039 19.0664 127.56 18.5116 127.171 18.9878C127.128 19.0406 127.086 19.1064 127.046 19.1858V19.1844C127.034 19.2066 127.013 19.2578 126.986 19.3303C127.013 19.2577 127.034 19.2081 127.046 19.1858C127.493 18.311 128.118 19.1193 128.419 20.037L128.33 19.7903ZM134.198 19.8299C134.225 19.8682 134.242 19.9105 134.247 19.9571C134.245 19.9359 134.24 19.9154 134.233 19.896C134.225 19.8725 134.213 19.8509 134.198 19.8299ZM123.931 18.6237C123.959 18.6373 123.984 18.6527 124.007 18.6661C123.992 18.6574 123.977 18.647 123.96 18.6383L123.931 18.6237ZM134.001 19.6729C133.749 19.5483 133.366 19.5173 133.147 19.5576L133.113 19.5638C133.085 19.5697 133.056 19.5782 133.025 19.5867C133.069 19.5746 133.11 19.5644 133.147 19.5576C133.39 19.5129 133.835 19.5564 134.079 19.7181L134.001 19.6729ZM106.969 21.3698C107.032 21.1652 107.09 20.9843 107.129 20.8486L107.143 20.7958C107.105 20.9357 107.041 21.1373 106.969 21.3698Z" fill="#FFFEF4"/>
<path fill-rule="evenodd" clip-rule="evenodd" d="M61.3564 9.25278C61.4779 9.25545 61.5872 9.30059 61.6788 9.36257C61.8571 9.48326 61.9986 9.68887 62.0978 9.91359C62.1991 10.1433 62.267 10.4167 62.2819 10.6981L62.3167 11.3547L62.2096 11.2359L61.9678 14.6644L61.7962 14.7005C61.6777 14.7254 61.5407 14.709 61.4404 14.6011C61.3579 14.5123 61.3394 14.3991 61.3334 14.3308C61.3268 14.2553 61.332 14.1767 61.3369 14.1175C61.3426 14.0482 61.347 14.0103 61.3473 13.9799L61.3494 13.7492H61.3508C61.3576 13.1919 61.3749 12.4535 61.4703 11.96C61.4774 11.9233 61.4807 11.8829 61.4856 11.8231C61.4899 11.7699 61.4961 11.6979 61.5141 11.6271C61.5328 11.5535 61.5669 11.4695 61.635 11.395C61.7044 11.3192 61.795 11.2688 61.9004 11.2408L62.1534 11.1734L61.2744 10.1978L60.4454 10.7168L60.5913 10.1519C60.6853 9.78734 60.8211 9.51592 61.0131 9.36951C61.1147 9.29214 61.232 9.25009 61.3564 9.25278ZM61.7212 14.476C61.7223 14.4759 61.7235 14.4762 61.7246 14.476L61.7302 14.4747C61.7271 14.4751 61.7241 14.4757 61.7212 14.476ZM61.8699 11.5013C61.7434 11.574 61.7288 11.7064 61.7177 11.8425L61.7253 11.7619C61.7406 11.6429 61.7766 11.536 61.9115 11.4819L61.8699 11.5013Z" fill="#FFFEF4"/>
<path d="M43.3941 1.35069H46.4477V1.83103H43.9431V3.60144H46.187V4.07492H43.9431V6.15412H43.3941V1.35069Z" fill="#FFFEF4"/>
<path d="M47.6999 4.19844C47.6999 4.67878 47.8303 5.0539 48.091 5.32381C48.3518 5.58914 48.7086 5.72181 49.1615 5.72181C49.6144 5.72181 49.9689 5.58914 50.2251 5.32381C50.4859 5.05848 50.6163 4.68335 50.6163 4.19844V1.35069H51.1584V4.19844C51.1584 4.61473 51.0783 4.97385 50.9182 5.27578C50.7627 5.57313 50.5339 5.80187 50.232 5.96198C49.9346 6.11752 49.5778 6.19529 49.1615 6.19529C48.7452 6.19529 48.3861 6.11752 48.0842 5.96198C47.7822 5.80187 47.5512 5.57313 47.3911 5.27578C47.231 4.97385 47.1509 4.61473 47.1509 4.19844V1.35069H47.6999V4.19844Z" fill="#FFFEF4"/>
<path d="M52.5078 1.35069H53.0773L56.1035 5.50909L55.9594 5.55712V1.35069H56.5015V6.15412H55.9388L52.9126 2.00258L53.0567 1.95455V6.15412H52.5078V1.35069Z" fill="#FFFEF4"/>
<path d="M59.8977 1.35069C60.2499 1.35069 60.577 1.41245 60.8789 1.53597C61.1808 1.65491 61.4416 1.82417 61.6612 2.04376C61.8854 2.25877 62.0592 2.51266 62.1827 2.80544C62.3108 3.09822 62.3748 3.41388 62.3748 3.7524C62.3748 4.09551 62.3108 4.41116 62.1827 4.69937C62.0592 4.98757 61.8854 5.24147 61.6612 5.46105C61.437 5.68064 61.174 5.85219 60.8721 5.9757C60.5701 6.09465 60.243 6.15412 59.8908 6.15412H57.9626V1.35069H59.8977ZM59.9114 5.68064C60.1813 5.68064 60.4306 5.6326 60.6593 5.53653C60.8881 5.44047 61.0894 5.30551 61.2632 5.13167C61.437 4.95326 61.572 4.7474 61.6681 4.51409C61.7687 4.28078 61.819 4.02917 61.819 3.75927C61.819 3.48478 61.7687 3.23089 61.6681 2.99758C61.5674 2.76427 61.4302 2.5607 61.2563 2.38686C61.0825 2.20845 60.8789 2.07121 60.6456 1.97514C60.4123 1.87907 60.1607 1.83103 59.8908 1.83103H58.5115V5.68064H59.9114Z" fill="#FFFEF4"/>
<path d="M64.718 1.35069H65.2806L67.4285 6.15412H66.8383L64.9856 1.91338L63.1466 6.15412H62.5701L64.718 1.35069ZM63.5171 4.43175H66.4335V4.90523H63.5171V4.43175Z" fill="#FFFEF4"/>
<path d="M71.5537 2.38C71.3707 2.19243 71.1534 2.04604 70.9018 1.94083C70.6548 1.83103 70.3986 1.77614 70.1333 1.77614C69.8634 1.77614 69.6095 1.82646 69.3716 1.9271C69.1337 2.02775 68.9256 2.16956 68.7472 2.35255C68.5687 2.53096 68.4292 2.73911 68.3286 2.97699C68.2279 3.21488 68.1776 3.47106 68.1776 3.74554C68.1776 4.01545 68.2279 4.26934 68.3286 4.50723C68.4292 4.74511 68.5687 4.95326 68.7472 5.13167C68.9256 5.31009 69.1337 5.4519 69.3716 5.55712C69.6095 5.65776 69.8634 5.70809 70.1333 5.70809C70.3986 5.70809 70.6525 5.65776 70.895 5.55712C71.142 5.4519 71.3616 5.3078 71.5537 5.12481L71.89 5.46791C71.7344 5.6143 71.5583 5.7424 71.3616 5.85219C71.1695 5.96198 70.9682 6.04661 70.7577 6.10608C70.5473 6.16555 70.33 6.19529 70.1058 6.19529C69.7582 6.19529 69.4334 6.13353 69.1314 6.01001C68.8341 5.88192 68.571 5.7058 68.3423 5.48164C68.1181 5.25748 67.942 4.99672 67.8139 4.69937C67.6858 4.40201 67.6218 4.08407 67.6218 3.74554C67.6218 3.40702 67.6858 3.09136 67.8139 2.79858C67.942 2.5058 68.1204 2.24733 68.3492 2.02317C68.5779 1.79901 68.8432 1.62517 69.1452 1.50166C69.4471 1.37814 69.7742 1.31638 70.1264 1.31638C70.346 1.31638 70.561 1.34383 70.7715 1.39873C70.9819 1.45362 71.1809 1.53368 71.3685 1.6389C71.556 1.73954 71.7276 1.86306 71.8831 2.00945L71.5537 2.38Z" fill="#FFFEF4"/>
<path d="M72.8794 1.35069H73.4284V6.15412H72.8794V1.35069Z" fill="#FFFEF4"/>
<path d="M76.9486 1.31638C77.2963 1.31638 77.621 1.37814 77.923 1.50166C78.2295 1.62517 78.4971 1.79901 78.7258 2.02317C78.9546 2.24733 79.133 2.5058 79.2611 2.79858C79.3937 3.09136 79.4601 3.40702 79.4601 3.74554C79.4601 4.08407 79.3937 4.40201 79.2611 4.69937C79.133 4.99672 78.9546 5.25748 78.7258 5.48164C78.4971 5.7058 78.2295 5.88192 77.923 6.01001C77.621 6.13353 77.2963 6.19529 76.9486 6.19529C76.5963 6.19529 76.2669 6.13353 75.9604 6.01001C75.6585 5.88192 75.3932 5.7058 75.1644 5.48164C74.9357 5.25748 74.755 4.99672 74.6223 4.69937C74.4943 4.40201 74.4302 4.08407 74.4302 3.74554C74.4302 3.40702 74.4943 3.09136 74.6223 2.79858C74.755 2.50123 74.9357 2.24276 75.1644 2.02317C75.3932 1.79901 75.6585 1.62517 75.9604 1.50166C76.2669 1.37814 76.5963 1.31638 76.9486 1.31638ZM76.9486 1.783C76.6787 1.783 76.4248 1.83332 76.1869 1.93396C75.9536 2.03461 75.7454 2.17642 75.5624 2.35941C75.384 2.53782 75.2422 2.74597 75.137 2.98386C75.0364 3.22174 74.986 3.47564 74.986 3.74554C74.986 4.02002 75.0364 4.27621 75.137 4.51409C75.2422 4.75197 75.3863 4.96241 75.5693 5.1454C75.7523 5.32839 75.9604 5.4702 76.1937 5.57084C76.4316 5.67149 76.6832 5.72181 76.9486 5.72181C77.2185 5.72181 77.4701 5.67149 77.7034 5.57084C77.9413 5.4702 78.1494 5.32839 78.3279 5.1454C78.5063 4.96241 78.6458 4.75197 78.7464 4.51409C78.8471 4.27621 78.8974 4.02002 78.8974 3.74554C78.8974 3.47564 78.8471 3.22174 78.7464 2.98386C78.6458 2.74597 78.5063 2.53782 78.3279 2.35941C78.1494 2.17642 77.9413 2.03461 77.7034 1.93396C77.4701 1.83332 77.2185 1.783 76.9486 1.783Z" fill="#FFFEF4"/>
<path d="M80.4652 1.35069H81.0348L84.0609 5.50909L83.9168 5.55712V1.35069H84.4589V6.15412H83.8962L80.8701 2.00258L81.0142 1.95455V6.15412H80.4652V1.35069Z" fill="#FFFEF4"/>
<path d="M43.2556 35.5144H43.8719L45.5683 38.7928L47.2457 35.5144H47.8683V39.9619H47.3918L47.3854 36.2069L45.7081 39.4854H45.4158L43.7258 36.2069V39.9619H43.2556V35.5144Z" fill="#FFFEF4"/>
<path d="M50.5653 35.5144H51.0862L53.0749 39.9619H52.5285L50.813 36.0354L49.1103 39.9619H48.5766L50.5653 35.5144ZM49.4534 38.3671H52.1537V38.8055H49.4534V38.3671Z" fill="#FFFEF4"/>
<path d="M53.7787 35.5144H54.3061L57.108 39.3646L56.9746 39.4091V35.5144H57.4765V39.9619H56.9555L54.1536 36.118L54.287 36.0735V39.9619H53.7787V35.5144Z" fill="#FFFEF4"/>
<path d="M60.7418 35.4826C61.0637 35.4826 61.3644 35.5398 61.644 35.6541C61.9278 35.7685 62.1756 35.9295 62.3874 36.137C62.5991 36.3446 62.7643 36.5839 62.8829 36.855C63.0058 37.1261 63.0672 37.4183 63.0672 37.7318C63.0672 38.0452 63.0058 38.3396 62.8829 38.6149C62.7643 38.8902 62.5991 39.1317 62.3874 39.3392C62.1756 39.5468 61.9278 39.7099 61.644 39.8285C61.3644 39.9428 61.0637 40 60.7418 40C60.4156 40 60.1107 39.9428 59.8269 39.8285C59.5473 39.7099 59.3016 39.5468 59.0898 39.3392C58.8781 39.1317 58.7107 38.8902 58.5879 38.6149C58.4693 38.3396 58.41 38.0452 58.41 37.7318C58.41 37.4183 58.4693 37.1261 58.5879 36.855C58.7107 36.5797 58.8781 36.3403 59.0898 36.137C59.3016 35.9295 59.5473 35.7685 59.8269 35.6541C60.1107 35.5398 60.4156 35.4826 60.7418 35.4826ZM60.7418 35.9146C60.4919 35.9146 60.2568 35.9612 60.0365 36.0544C59.8205 36.1476 59.6278 36.2789 59.4583 36.4483C59.2932 36.6135 59.1618 36.8063 59.0644 37.0265C58.9712 37.2468 58.9246 37.4819 58.9246 37.7318C58.9246 37.9859 58.9712 38.2231 59.0644 38.4434C59.1618 38.6636 59.2953 38.8585 59.4647 39.0279C59.6341 39.1973 59.8269 39.3286 60.0429 39.4218C60.2631 39.515 60.4961 39.5616 60.7418 39.5616C60.9917 39.5616 61.2246 39.515 61.4407 39.4218C61.6609 39.3286 61.8536 39.1973 62.0188 39.0279C62.184 38.8585 62.3132 38.6636 62.4064 38.4434C62.4996 38.2231 62.5462 37.9859 62.5462 37.7318C62.5462 37.4819 62.4996 37.2468 62.4064 37.0265C62.3132 36.8063 62.184 36.6135 62.0188 36.4483C61.8536 36.2789 61.6609 36.1476 61.4407 36.0544C61.2246 35.9612 60.9917 35.9146 60.7418 35.9146Z" fill="#FFFEF4"/>
<path d="M68.0588 36.3022C67.9275 36.2133 67.7877 36.1434 67.6395 36.0925C67.4955 36.0375 67.3536 35.9972 67.2138 35.9718C67.0783 35.9464 66.9512 35.9337 66.8326 35.9337C66.5445 35.9337 66.3137 35.9909 66.14 36.1052C65.9706 36.2196 65.8859 36.3763 65.8859 36.5754C65.8859 36.7491 65.9304 36.8889 66.0193 36.9948C66.1125 37.1006 66.2332 37.1875 66.3815 37.2552C66.5297 37.323 66.6928 37.3844 66.8707 37.4395C67.0486 37.4903 67.2265 37.5475 67.4044 37.611C67.5823 37.6703 67.7454 37.7487 67.8936 37.8461C68.0419 37.9393 68.1605 38.0622 68.2494 38.2146C68.3384 38.3629 68.3829 38.5535 68.3829 38.7865C68.3829 39.0321 68.3151 39.246 68.1795 39.4282C68.044 39.6061 67.8555 39.7459 67.6141 39.8475C67.3726 39.9449 67.0931 39.9936 66.7754 39.9936C66.5594 39.9936 66.3476 39.9661 66.14 39.911C65.9325 39.8517 65.7376 39.7713 65.5555 39.6696C65.3734 39.568 65.2124 39.4515 65.0726 39.3202L65.3014 38.9072C65.4411 39.0385 65.5936 39.1507 65.7588 39.2439C65.924 39.3371 66.0934 39.4091 66.2671 39.4599C66.445 39.5108 66.6166 39.5362 66.7818 39.5362C67.1037 39.5362 67.3578 39.4705 67.5442 39.3392C67.7306 39.2079 67.8237 39.03 67.8237 38.8055C67.8237 38.6319 67.7793 38.49 67.6903 38.3798C67.6014 38.2697 67.4828 38.1808 67.3345 38.113C67.1863 38.0452 67.0232 37.9859 66.8453 37.9351C66.6674 37.8843 66.4874 37.8292 66.3052 37.7699C66.1273 37.7064 65.9643 37.6301 65.816 37.5412C65.6678 37.448 65.5492 37.3273 65.4602 37.179C65.3713 37.0308 65.3268 36.8423 65.3268 36.6135C65.3268 36.3806 65.3903 36.1794 65.5174 36.0099C65.6445 35.8405 65.8245 35.7092 66.0574 35.616C66.2904 35.5186 66.5594 35.4699 66.8643 35.4699C67.1227 35.4699 67.3747 35.508 67.6204 35.5843C67.8703 35.6605 68.0885 35.7579 68.2748 35.8765L68.0588 36.3022Z" fill="#FFFEF4"/>
<path d="M71.3394 35.4826C71.6613 35.4826 71.962 35.5398 72.2416 35.6541C72.5254 35.7685 72.7732 35.9295 72.9849 36.137C73.1967 36.3446 73.3619 36.5839 73.4805 36.855C73.6034 37.1261 73.6648 37.4183 73.6648 37.7318C73.6648 38.0452 73.6034 38.3396 73.4805 38.6149C73.3619 38.8902 73.1967 39.1317 72.9849 39.3392C72.7732 39.5468 72.5254 39.7099 72.2416 39.8285C71.962 39.9428 71.6613 40 71.3394 40C71.0132 40 70.7083 39.9428 70.4245 39.8285C70.1449 39.7099 69.8992 39.5468 69.6874 39.3392C69.4756 39.1317 69.3083 38.8902 69.1855 38.6149C69.0669 38.3396 69.0076 38.0452 69.0076 37.7318C69.0076 37.4183 69.0669 37.1261 69.1855 36.855C69.3083 36.5797 69.4756 36.3403 69.6874 36.137C69.8992 35.9295 70.1449 35.7685 70.4245 35.6541C70.7083 35.5398 71.0132 35.4826 71.3394 35.4826ZM71.3394 35.9146C71.0895 35.9146 70.8544 35.9612 70.6341 36.0544C70.4181 36.1476 70.2254 36.2789 70.056 36.4483C69.8908 36.6135 69.7594 36.8063 69.662 37.0265C69.5688 37.2468 69.5222 37.4819 69.5222 37.7318C69.5222 37.9859 69.5688 38.2231 69.662 38.4434C69.7594 38.6636 69.8929 38.8585 70.0623 39.0279C70.2317 39.1973 70.4245 39.3286 70.6405 39.4218C70.8607 39.515 71.0937 39.5616 71.3394 39.5616C71.5893 39.5616 71.8223 39.515 72.0383 39.4218C72.2585 39.3286 72.4512 39.1973 72.6164 39.0279C72.7816 38.8585 72.9108 38.6636 73.004 38.4434C73.0972 38.2231 73.1438 37.9859 73.1438 37.7318C73.1438 37.4819 73.0972 37.2468 73.004 37.0265C72.9108 36.8063 72.7816 36.6135 72.6164 36.4483C72.4512 36.2789 72.2585 36.1476 72.0383 36.0544C71.8223 35.9612 71.5893 35.9146 71.3394 35.9146Z" fill="#FFFEF4"/>
<path d="M74.5954 35.5144H75.1037V39.5235H77.0543V39.9619H74.5954V35.5144Z" fill="#FFFEF4"/>
<path d="M77.8777 35.5144H78.386V39.9619H77.8777V35.5144Z" fill="#FFFEF4"/>
<path d="M81.5246 35.5144C81.8508 35.5144 82.1536 35.5715 82.4332 35.6859C82.7127 35.796 82.9542 35.9528 83.1575 36.1561C83.3651 36.3552 83.526 36.5902 83.6404 36.8613C83.759 37.1324 83.8183 37.4247 83.8183 37.7381C83.8183 38.0558 83.759 38.3481 83.6404 38.6149C83.526 38.8818 83.3651 39.1169 83.1575 39.3202C82.9499 39.5235 82.7064 39.6823 82.4268 39.7967C82.1473 39.9068 81.8444 39.9619 81.5183 39.9619H79.7329V35.5144H81.5246ZM81.5373 39.5235C81.7872 39.5235 82.0181 39.479 82.2299 39.3901C82.4417 39.3011 82.628 39.1762 82.789 39.0152C82.9499 38.85 83.0749 38.6594 83.1638 38.4434C83.257 38.2273 83.3036 37.9944 83.3036 37.7445C83.3036 37.4903 83.257 37.2552 83.1638 37.0392C83.0707 36.8232 82.9436 36.6347 82.7826 36.4738C82.6217 36.3086 82.4332 36.1815 82.2172 36.0925C82.0011 36.0036 81.7682 35.9591 81.5183 35.9591H80.2412V39.5235H81.5373Z" fill="#FFFEF4"/>
<path d="M85.9878 35.5144H86.5088L88.4974 39.9619H87.951L86.2356 36.0354L84.5328 39.9619H83.9991L85.9878 35.5144ZM84.8759 38.3671H87.5762V38.8055H84.8759V38.3671Z" fill="#FFFEF4"/>
<path d="M90.8913 35.5144C91.4504 35.5144 91.8825 35.6457 92.1874 35.9083C92.4924 36.1667 92.6449 36.5309 92.6449 37.0011C92.6449 37.4882 92.4924 37.8673 92.1874 38.1384C91.8825 38.4052 91.4504 38.5387 90.8913 38.5387H89.7095V39.9619H89.2012V35.5144H90.8913ZM90.8913 38.1003C91.2937 38.1003 91.605 38.0092 91.8253 37.8271C92.0498 37.6407 92.162 37.3696 92.162 37.0138C92.162 36.6665 92.0498 36.4039 91.8253 36.226C91.605 36.0481 91.2937 35.9591 90.8913 35.9591H89.7095V38.1003H90.8913ZM91.0438 38.329H91.5584L92.6894 39.9619H92.1112L91.0438 38.329Z" fill="#FFFEF4"/>
<path d="M93.7927 35.5144H94.301V39.9619H93.7927V35.5144Z" fill="#FFFEF4"/>
<path d="M96.9949 35.5144H97.5159L99.5045 39.9619H98.9581L97.2427 36.0354L95.5399 39.9619H95.0062L96.9949 35.5144ZM95.883 38.3671H98.5833V38.8055H95.883V38.3671Z" fill="#FFFEF4"/>
</g>
</g>
</g>
</svg>
